<svg width="60" height="60" viewBox="0 0 60 60" fill="none" xmlns="http://www.w3.org/2000/svg">
<g id="Reset">
<circle id="blackness" cx="30" cy="30" r="20" fill="#2B2B2B"/>
<g id="button-ring">
<path d="M50 30C50 41.0457 41.0457 50 30 50C18.9543 50 10 41.0457 10 30C10 18.9543 18.9543 10 30 10C41.0457 10 50 18.9543 50 30ZM14.8194 30C14.8194 38.384 21.616 45.1806 30 45.1806C38.384 45.1806 45.1806 38.384 45.1806 30C45.1806 21.616 38.384 14.8194 30 14.8194C21.616 14.8194 14.8194 21.616 14.8194 30Z" fill="url(#paint0_linear)"/>
<path d="M50 30C50 41.0457 41.0457 50 30 50C18.9543 50 10 41.0457 10 30C10 18.9543 18.9543 10 30 10C41.0457 10 50 18.9543 50 30ZM14.8194 30C14.8194 38.384 21.616 45.1806 30 45.1806C38.384 45.1806 45.1806 38.384 45.1806 30C45.1806 21.616 38.384 14.8194 30 14.8194C21.616 14.8194 14.8194 21.616 14.8194 30Z" fill="url(#paint1_radial)"/>
</g>
<g id="bottom-highlight" filter="url(#filter0_f)">
<path d="M46.5 30C46.5 34.3761 44.7616 38.5729 41.6673 41.6673C38.5729 44.7616 34.3761 46.5 30 46.5C25.6239 46.5 21.4271 44.7616 18.3327 41.6673C15.2384 38.5729 13.5 34.3761 13.5 30" stroke="url(#paint2_linear)" stroke-opacity="0.5" stroke-linecap="round"/>
</g>
<g id="top-highlight" filter="url(#filter1_f)">
<path d="M18.2198 15.3902C21.4832 12.5655 25.6528 11.0075 29.9687 11C34.2847 10.9925 38.4597 12.5361 41.7328 15.3493" stroke="url(#paint3_linear)" stroke-opacity="0.5" stroke-width="2" stroke-linecap="round" style="mix-blend-mode:luminosity"/>
</g>
<circle id="Button" cx="30" cy="30" r="14" fill="#FF2D1A"/>
<g id="led-glow">
<mask id="mask0" mask-type="alpha" maskUnits="userSpaceOnUse" x="0" y="0" width="60" height="60">
<path id="Ellipse" d="M60 30C60 46.5685 46.5685 60 30 60C13.4315 60 0 46.5685 0 30C0 13.4315 13.4315 0 30 0C46.5685 0 60 13.4315 60 30ZM14.9443 30C14.9443 38.315 21.685 45.0557 30 45.0557C38.315 45.0557 45.0557 38.315 45.0557 30C45.0557 21.685 38.315 14.9443 30 14.9443C21.685 14.9443 14.9443 21.685 14.9443 30Z" fill="#C4C4C4"/>
</mask>
<g mask="url(#mask0)">
<g id="Ellipse_2" filter="url(#filter2_f)">
<circle cx="30" cy="32" r="18" fill="#FF2D1A" fill-opacity="0.4"/>
</g>
</g>
</g>
<g id="3d-effect">
<circle cx="30" cy="30" r="12" fill="url(#paint4_linear)" style="mix-blend-mode:hard-light"/>
</g>
</g>
<defs>
<filter id="filter0_f" x="12" y="28.5" width="36" height="19.5" filterUnits="userSpaceOnUse" color-interpolation-filters="sRGB">
<feFlood flood-opacity="0" result="BackgroundImageFix"/>
<feBlend mode="normal" in="SourceGraphic" in2="BackgroundImageFix" result="shape"/>
<feGaussianBlur stdDeviation="0.5" result="effect1_foregroundBlur"/>
</filter>
<filter id="filter1_f" x="15.2198" y="8" width="29.513" height="10.3902" filterUnits="userSpaceOnUse" color-interpolation-filters="sRGB">
<feFlood flood-opacity="0" result="BackgroundImageFix"/>
<feBlend mode="normal" in="SourceGraphic" in2="BackgroundImageFix" result="shape"/>
<feGaussianBlur stdDeviation="1" result="effect1_foregroundBlur"/>
</filter>
<filter id="filter2_f" x="7" y="9" width="46" height="46" filterUnits="userSpaceOnUse" color-interpolation-filters="sRGB">
<feFlood flood-opacity="0" result="BackgroundImageFix"/>
<feBlend mode="normal" in="SourceGraphic" in2="BackgroundImageFix" result="shape"/>
<feGaussianBlur stdDeviation="2.5" result="effect1_foregroundBlur"/>
</filter>
<linearGradient id="paint0_linear" x1="30" y1="10" x2="30" y2="50" gradientUnits="userSpaceOnUse">
<stop stop-color="#FF2D1A"/>
<stop offset="1" stop-color="white" stop-opacity="0"/>
</linearGradient>
<radialGradient id="paint1_radial" cx="0" cy="0" r="1" gradientUnits="userSpaceOnUse" gradientTransform="translate(30 30) rotate(90) scale(20)">
<stop offset="0.773481" stop-color="#585858"/>
<stop offset="1" stop-color="#D9D9D9"/>
</radialGradient>
<linearGradient id="paint2_linear" x1="50.7187" y1="30" x2="8.75" y2="30" gradientUnits="userSpaceOnUse">
<stop stop-color="white" stop-opacity="0"/>
<stop offset="0.490056" stop-color="white"/>
<stop offset="1" stop-color="white" stop-opacity="0"/>
</linearGradient>
<linearGradient id="paint3_linear" x1="11" y1="10" x2="49.5" y2="10" gradientUnits="userSpaceOnUse">
<stop stop-color="white" stop-opacity="0.25"/>
<stop offset="0.508287" stop-color="white"/>
<stop offset="1" stop-color="white" stop-opacity="0.44"/>
</linearGradient>
<linearGradient id="paint4_linear" x1="30" y1="18" x2="30" y2="42" gradientUnits="userSpaceOnUse">
<stop stop-opacity="0.33"/>
<stop offset="1" stop-color="white" stop-opacity="0.21"/>
</linearGradient>
</defs>
</svg>
