<svg width="32" height="44" viewBox="0 0 32 44" fill="none" xmlns="http://www.w3.org/2000/svg">
<mask id="mask0" mask-type="alpha" maskUnits="userSpaceOnUse" x="6" y="21" width="21" height="13">
<rect x="6.03955" y="21.7582" width="20.0776" height="11.2631" fill="#C4C4C4"/>
</mask>
<g mask="url(#mask0)">
<path d="M8.52295 35.3568C7.23087 32.2778 7.1489 29.4135 9.17689 26.6934C10.8646 24.4297 11.665 23.5688 15.6295 23.4313C20.2071 23.2726 21.312 23.9326 23.2367 26.4919C25.3201 29.2623 25.1555 32.2306 23.6863 35.3568C23.1646 36.4668 22.7526 37.1044 21.7244 37.9424C20.1574 39.2196 18.0964 39.3713 16.0433 39.3863C13.9692 39.4014 11.9031 39.2666 10.3622 37.9424C9.37849 37.097 8.98694 36.4624 8.52295 35.3568Z" fill="white" stroke="#222222" stroke-width="0.816164"/>
</g>
<path d="M17.0605 28.3062C10.0429 28.7694 3.45604 27.0956 1.92266 20.9272C1.08511 17.5579 1.00346 14.9073 3.05238 12.244C3.05238 12.244 1.90052 7.34264 2.77022 4.4057C3.02295 3.55226 3.05238 3.136 3.61669 2.28954C3.90626 1.8552 4.14925 1.58623 4.65126 1.44308C5.09419 1.31678 5.16854 1.30201 5.54474 1.302C8.56438 1.302 11.8462 6.39064 11.8462 6.39064C13.4863 5.95065 17.4494 6.05761 19.0063 6.27896C19.2222 6.30966 19.4377 6.34696 19.6524 6.39064C19.6524 6.39064 22.463 3.12375 24.9193 2.1633C25.4927 1.93909 25.9984 1.78638 26.6122 1.83412C27.1052 1.87247 27.3387 1.87557 27.7408 2.1633C28.3522 2.6007 28.9265 3.46685 29.1986 4.65566C29.8407 7.46052 28.5518 12.4939 28.5518 12.4939C30.5386 15.2887 30.4042 17.7946 29.7761 20.9704C28.6018 26.9085 23.1005 27.9075 17.0605 28.3062Z" fill="white" stroke="#222222" stroke-width="1.12862" stroke-linecap="round" stroke-linejoin="round"/>
<path d="M4.47515 6.28392C4.47515 8.06337 4.9454 10.7984 4.9454 10.7984C4.9454 10.7984 6.47881 9.30391 7.34371 8.68223C8.124 8.12136 9.74202 7.55361 9.74202 7.55361C9.74202 7.55361 7.64468 4.12074 5.83889 4.12074C5.83889 4.12074 4.47514 4.50448 4.47515 6.28392Z" fill="#FE1E9A"/>
<path d="M27.5999 6.15449C27.4804 7.92991 26.5823 11.1786 26.5823 11.1786C26.5823 11.1786 25.2686 9.74843 24.4492 9.07008C23.7099 8.45808 22.0242 7.61911 22.0242 7.61911C22.0242 7.61911 24.7843 3.91707 26.5823 4.03833C26.5823 4.03833 27.7194 4.37906 27.5999 6.15449Z" fill="#FE1E9A"/>
<circle cx="22.25" cy="18.25" r="2.25" fill="#222222"/>
<path d="M21.125 17.875C21.125 17.875 21.2084 17.6467 21.4135 17.4583C21.5946 17.2919 21.75 17.25 21.75 17.25" stroke="white" stroke-width="0.895973" stroke-linecap="round"/>
<circle cx="9.25" cy="18.5037" r="2.25" fill="#222222"/>
<path d="M8.125 18.1287C8.125 18.1287 8.20843 17.9004 8.41346 17.7121C8.5946 17.5457 8.75 17.5037 8.75 17.5037" stroke="white" stroke-width="0.895973" stroke-linecap="round"/>
<path d="M12.8936 23.0721C12.8936 23.0721 14.2921 24.3373 15.0283 23.6861C15.6809 23.1088 15.6382 21.1277 15.6382 21.1277C15.6382 21.1277 15.783 23.1759 16.4769 23.6861C17.1737 24.1983 18.3829 23.0721 18.3829 23.0721" stroke="black" stroke-linecap="round" stroke-linejoin="round"/>
<path d="M13.6739 10.3565C13.2027 9.22432 13.3764 6.73252 13.3764 6.73252C13.3764 6.73252 13.8681 6.63803 14.185 6.62158C14.4626 6.60716 14.8958 6.63762 14.8958 6.63762C14.8958 6.63762 15.6036 9.1374 15.152 10.3899C15.0061 10.7946 14.8917 11.1383 14.5554 11.2162C14.1342 11.3137 13.8724 10.8335 13.6739 10.3565Z" fill="#BDBDBD"/>
<path d="M16.5853 10.323C16.1763 9.13906 16.6303 6.68121 16.6303 6.68121C16.6303 6.68121 17.1137 6.69413 17.4307 6.70761C17.7085 6.71942 18.1853 6.78224 18.1853 6.78224C18.1853 6.78224 18.6726 9.26286 18.0918 10.5C17.9089 10.8894 17.7965 11.2242 17.4543 11.27C17.0258 11.3274 16.7539 10.8113 16.5853 10.323Z" fill="#BDBDBD"/>
</svg>
