<svg width="116" height="90" viewBox="0 0 116 90" fill="none" xmlns="http://www.w3.org/2000/svg">
<rect x="74" y="29" width="42" height="42" rx="21" fill="#1AD9FF"/>
<path d="M58.4004 66.2009C56.4946 72.1924 46.5932 72.427 44.4617 66.512C41.1487 57.3182 36.9801 47.1627 32.4615 39.5C26.7627 29.8357 17.2187 18.5604 9.95031 10.5361C6.36094 6.57339 9.14717 -8.28558e-06 14.4938 -7.81816e-06L88.3229 -1.36381e-06C93.8173 -8.83473e-07 96.5772 6.92937 92.7374 10.8593C85.0086 18.7693 75.1344 29.7593 69.4615 39.5C65.0796 47.0242 61.3081 57.0593 58.4004 66.2009Z" fill="#F218BC"/>
<path d="M58.4004 66.2009C56.4946 72.1924 46.5932 72.427 44.4617 66.512C41.1487 57.3182 36.9801 47.1627 32.4615 39.5C26.7627 29.8357 17.2187 18.5604 9.95031 10.5361C6.36094 6.57339 9.14717 -8.28558e-06 14.4938 -7.81816e-06L88.3229 -1.36381e-06C93.8173 -8.83473e-07 96.5772 6.92937 92.7374 10.8593C85.0086 18.7693 75.1344 29.7593 69.4615 39.5C65.0796 47.0242 61.3081 57.0593 58.4004 66.2009Z" fill="url(#paint0_linear)"/>
<defs>
<linearGradient id="paint0_linear" x1="51.9616" y1="90" x2="51.9616" y2="-4.54262e-06" gradientUnits="userSpaceOnUse">
<stop stop-color="#F218BC"/>
<stop offset="1" stop-color="#FF1AFF"/>
</linearGradient>
</defs>
</svg>
