<svg width="35" height="36" viewBox="0 0 35 36" fill="none" xmlns="http://www.w3.org/2000/svg">
<g id="Crop Disabled">
<mask id="mask0" mask-type="alpha" maskUnits="userSpaceOnUse" x="0" y="0" width="35" height="36">
<rect id="Rectangle" width="35" height="36" rx="4" fill="#C4C4C4"/>
</mask>
<g mask="url(#mask0)">
<path id="Vector 2" d="M30.6593 3.57415C40.0305 2.67152 42 25.7051 42 25.7051V38H-1V-5.27821C-1 -5.27821 0.52552 -6.90224 4.67033 -5.27821C13.5236 -1.80927 9.40352 18.9231 18.8462 18.3281C26.0392 17.8748 23.4837 4.26531 30.6593 3.57415Z" fill="#0A0A0A"/>
<g id="Vector 2 (Stroke)">
<mask id="path-3-outside-1" maskUnits="userSpaceOnUse" x="-4" y="-10" width="48" height="52" fill="black">
<rect fill="white" x="-4" y="-10" width="48" height="52"/>
<path fill-rule="evenodd" clip-rule="evenodd" d="M-0.0145275 -6.86473C1.07401 -7.11555 2.64661 -7.08018 4.81058 -6.21452C7.31766 -5.2116 8.8329 -2.98079 9.8649 -0.44463C10.8017 1.85767 11.3977 4.55972 11.9564 7.09303C12.01 7.33613 12.0633 7.57768 12.1165 7.81718C12.7393 10.6209 13.3472 13.1149 14.3224 14.8796C14.8003 15.7445 15.3394 16.3808 15.9653 16.7893C16.58 17.1905 17.3369 17.4107 18.323 17.3473C19.7369 17.2563 20.664 16.5348 21.408 15.3745C22.1897 14.1554 22.72 12.5274 23.2978 10.7202L23.3306 10.6176C23.8778 8.90519 24.4755 7.03501 25.4017 5.55522C26.3801 3.9919 27.7692 2.79206 29.8725 2.58522C32.6022 2.31679 34.722 3.85962 36.304 6.04447C37.8762 8.21594 39.0181 11.1435 39.8459 14.0113C40.6782 16.8946 41.2147 19.7956 41.5431 21.9685C41.7076 23.0568 41.8206 23.9669 41.8926 24.6065C41.9286 24.9263 41.9543 25.1788 41.9712 25.3523C41.9796 25.439 41.9858 25.5061 41.99 25.552L41.9946 25.6048L41.9962 25.6229L41.9963 25.6241C41.9963 25.6245 41.9964 25.6247 41.0737 25.712L41.9963 25.6241L42 25.6683V39H-2V-5.69455L-1.73605 -5.98143L-1.07368 -5.29334C-1.73605 -5.98143 -1.73546 -5.98208 -1.73485 -5.98273L-1.73362 -5.98406L-1.73104 -5.98684L-1.72539 -5.99284L-1.7122 -6.00655C-1.70256 -6.01643 -1.6912 -6.02777 -1.67809 -6.0404C-1.65188 -6.06565 -1.61866 -6.09607 -1.57814 -6.13032C-1.49707 -6.19884 -1.38687 -6.2826 -1.24532 -6.37085C-0.961052 -6.54807 -0.555655 -6.74004 -0.0145275 -6.86473ZM-0.147368 -4.76078V37.0314H40.1474V25.7578L40.1458 25.7399C40.1421 25.6986 40.1363 25.6363 40.1283 25.5544C40.1124 25.3907 40.0878 25.1488 40.053 24.8402C39.9835 24.2227 39.8739 23.3391 39.7139 22.2807C39.3934 20.1599 38.8732 17.3549 38.0747 14.5886C37.2717 11.8068 36.2087 9.14124 34.8356 7.24489C33.4723 5.36191 31.9063 4.36223 30.0433 4.54544C28.6299 4.68442 27.6947 5.44634 26.9443 6.64533C26.1602 7.89823 25.6299 9.54551 25.0519 11.3534L25.0382 11.3966C24.4854 13.1256 23.8825 15.0115 22.939 16.483C21.95 18.0254 20.5462 19.1764 18.4349 19.3123C17.1071 19.3977 15.9656 19.0998 14.9957 18.4668C14.0371 17.8411 13.3054 16.9271 12.7248 15.8764C11.583 13.8101 10.9227 11.012 10.3134 8.26942C10.2616 8.03603 10.2101 7.80273 10.1586 7.56979C9.59036 4.99712 9.03179 2.46824 8.16442 0.336653C7.22377 -1.975 5.98965 -3.63937 4.15784 -4.37216C2.25919 -5.13169 1.05284 -5.09632 0.378086 -4.94085C0.153203 -4.88903 -0.0201333 -4.82226 -0.147368 -4.76078Z"/>
</mask>
<path fill-rule="evenodd" clip-rule="evenodd" d="M-0.0145275 -6.86473C1.07401 -7.11555 2.64661 -7.08018 4.81058 -6.21452C7.31766 -5.2116 8.8329 -2.98079 9.8649 -0.44463C10.8017 1.85767 11.3977 4.55972 11.9564 7.09303C12.01 7.33613 12.0633 7.57768 12.1165 7.81718C12.7393 10.6209 13.3472 13.1149 14.3224 14.8796C14.8003 15.7445 15.3394 16.3808 15.9653 16.7893C16.58 17.1905 17.3369 17.4107 18.323 17.3473C19.7369 17.2563 20.664 16.5348 21.408 15.3745C22.1897 14.1554 22.72 12.5274 23.2978 10.7202L23.3306 10.6176C23.8778 8.90519 24.4755 7.03501 25.4017 5.55522C26.3801 3.9919 27.7692 2.79206 29.8725 2.58522C32.6022 2.31679 34.722 3.85962 36.304 6.04447C37.8762 8.21594 39.0181 11.1435 39.8459 14.0113C40.6782 16.8946 41.2147 19.7956 41.5431 21.9685C41.7076 23.0568 41.8206 23.9669 41.8926 24.6065C41.9286 24.9263 41.9543 25.1788 41.9712 25.3523C41.9796 25.439 41.9858 25.5061 41.99 25.552L41.9946 25.6048L41.9962 25.6229L41.9963 25.6241C41.9963 25.6245 41.9964 25.6247 41.0737 25.712L41.9963 25.6241L42 25.6683V39H-2V-5.69455L-1.73605 -5.98143L-1.07368 -5.29334C-1.73605 -5.98143 -1.73546 -5.98208 -1.73485 -5.98273L-1.73362 -5.98406L-1.73104 -5.98684L-1.72539 -5.99284L-1.7122 -6.00655C-1.70256 -6.01643 -1.6912 -6.02777 -1.67809 -6.0404C-1.65188 -6.06565 -1.61866 -6.09607 -1.57814 -6.13032C-1.49707 -6.19884 -1.38687 -6.2826 -1.24532 -6.37085C-0.961052 -6.54807 -0.555655 -6.74004 -0.0145275 -6.86473ZM-0.147368 -4.76078V37.0314H40.1474V25.7578L40.1458 25.7399C40.1421 25.6986 40.1363 25.6363 40.1283 25.5544C40.1124 25.3907 40.0878 25.1488 40.053 24.8402C39.9835 24.2227 39.8739 23.3391 39.7139 22.2807C39.3934 20.1599 38.8732 17.3549 38.0747 14.5886C37.2717 11.8068 36.2087 9.14124 34.8356 7.24489C33.4723 5.36191 31.9063 4.36223 30.0433 4.54544C28.6299 4.68442 27.6947 5.44634 26.9443 6.64533C26.1602 7.89823 25.6299 9.54551 25.0519 11.3534L25.0382 11.3966C24.4854 13.1256 23.8825 15.0115 22.939 16.483C21.95 18.0254 20.5462 19.1764 18.4349 19.3123C17.1071 19.3977 15.9656 19.0998 14.9957 18.4668C14.0371 17.8411 13.3054 16.9271 12.7248 15.8764C11.583 13.8101 10.9227 11.012 10.3134 8.26942C10.2616 8.03603 10.2101 7.80273 10.1586 7.56979C9.59036 4.99712 9.03179 2.46824 8.16442 0.336653C7.22377 -1.975 5.98965 -3.63937 4.15784 -4.37216C2.25919 -5.13169 1.05284 -5.09632 0.378086 -4.94085C0.153203 -4.88903 -0.0201333 -4.82226 -0.147368 -4.76078Z" fill="#565656"/>
<path d="M4.81058 -6.21452L4.06774 -4.35759L4.81058 -6.21452ZM-0.0145275 -6.86473L0.434546 -4.91579L0.434546 -4.91579L-0.0145275 -6.86473ZM9.8649 -0.44463L8.01239 0.30918L8.01239 0.30918L9.8649 -0.44463ZM11.9564 7.09303L13.9095 6.66228L13.9095 6.66228L11.9564 7.09303ZM12.1165 7.81718L10.1641 8.25088L10.1641 8.25088L12.1165 7.81718ZM14.3224 14.8796L12.5719 15.847L12.5719 15.847L14.3224 14.8796ZM15.9653 16.7893L17.0584 15.1145L17.0584 15.1145L15.9653 16.7893ZM18.323 17.3473L18.1946 15.3514L18.1946 15.3514L18.323 17.3473ZM21.408 15.3745L23.0916 16.4541L23.0916 16.4541L21.408 15.3745ZM23.2978 10.7202L25.2028 11.3292L25.2028 11.3291L23.2978 10.7202ZM23.3306 10.6176L25.2356 11.2265L25.2356 11.2265L23.3306 10.6176ZM25.4017 5.55522L27.097 6.61625L27.097 6.61625L25.4017 5.55522ZM29.8725 2.58522L30.0683 4.57562L30.0683 4.57562L29.8725 2.58522ZM36.304 6.04447L37.9239 4.87153L37.9239 4.87153L36.304 6.04447ZM39.8459 14.0113L37.9243 14.566L37.9243 14.566L39.8459 14.0113ZM41.5431 21.9685L39.5656 22.2674L39.5656 22.2674L41.5431 21.9685ZM41.8926 24.6065L43.88 24.3828L43.88 24.3828L41.8926 24.6065ZM41.9712 25.3523L39.9806 25.5457L39.9806 25.5457L41.9712 25.3523ZM41.99 25.552L43.9821 25.3751L43.9819 25.3722L41.99 25.552ZM41.9946 25.6048L43.9873 25.4335L43.9868 25.4279L41.9946 25.6048ZM41.9962 25.6229L43.9894 25.4582L43.9889 25.4516L41.9962 25.6229ZM41.0737 25.712L40.884 23.721L41.262 27.7031L41.0737 25.712ZM42 25.6683H44V25.5847L43.993 25.5013L42 25.6683ZM42 39V41H44V39H42ZM-2 39H-4V41H-2V39ZM-2 -5.69455L-3.47182 -7.04871L-4 -6.47463V-5.69455H-2ZM-1.73605 -5.98143L-0.295156 -7.36845L-1.76897 -8.89951L-3.20787 -7.33559L-1.73605 -5.98143ZM-1.73485 -5.98273L-3.203 -7.34087L-3.20478 -7.33894L-1.73485 -5.98273ZM-1.73362 -5.98406L-3.19803 -7.34624L-3.20177 -7.3422L-1.73362 -5.98406ZM-1.73104 -5.98684L-3.18789 -7.35714L-3.19544 -7.34901L-1.73104 -5.98684ZM-1.72539 -5.99284L-3.1667 -7.37943L-3.1745 -7.37132L-3.18222 -7.36311L-1.72539 -5.99284ZM-1.7122 -6.00655L-3.1434 -7.40357L-3.14847 -7.39838L-3.15351 -7.39315L-1.7122 -6.00655ZM-1.67809 -6.0404L-0.290479 -4.60007L-0.290476 -4.60008L-1.67809 -6.0404ZM-1.57814 -6.13032L-0.28709 -4.60284L-0.287089 -4.60284L-1.57814 -6.13032ZM-1.24532 -6.37085L-2.30341 -8.06804L-1.24532 -6.37085ZM-0.147368 37.0314H-2.14737V39.0314H-0.147368V37.0314ZM-0.147368 -4.76078L-1.01741 -6.56162L-2.14737 -6.01571V-4.76078H-0.147368ZM40.1474 37.0314V39.0314H42.1474V37.0314H40.1474ZM40.1474 25.7578H42.1474V25.6691L42.1395 25.5808L40.1474 25.7578ZM40.1458 25.7399L42.1379 25.5629L42.1377 25.5602L40.1458 25.7399ZM40.1283 25.5544L38.1377 25.7478L38.1377 25.7479L40.1283 25.5544ZM40.053 24.8402L38.0656 25.0638L38.0656 25.0638L40.053 24.8402ZM39.7139 22.2807L41.6915 21.9817L41.6915 21.9817L39.7139 22.2807ZM38.0747 14.5886L36.1532 15.1432L36.1532 15.1432L38.0747 14.5886ZM34.8356 7.24489L36.4556 6.07195L36.4556 6.07195L34.8356 7.24489ZM30.0433 4.54544L30.239 6.53584L30.239 6.53584L30.0433 4.54544ZM26.9443 6.64533L25.249 5.5843L25.249 5.5843L26.9443 6.64533ZM25.0519 11.3534L23.1469 10.7444L23.1469 10.7445L25.0519 11.3534ZM25.0382 11.3966L26.9432 12.0055L26.9432 12.0055L25.0382 11.3966ZM22.939 16.483L24.6226 17.5625L22.939 16.483ZM18.4349 19.3123L18.5633 21.3081L18.5633 21.3081L18.4349 19.3123ZM14.9957 18.4668L16.0888 16.7919L16.0888 16.7919L14.9957 18.4668ZM12.7248 15.8764L10.9743 16.8438L10.9743 16.8438L12.7248 15.8764ZM10.3134 8.26942L12.2658 7.83572L12.2658 7.83572L10.3134 8.26942ZM10.1586 7.56979L8.20567 8.00115L8.20567 8.00115L10.1586 7.56979ZM8.16442 0.336653L10.0169 -0.417157L10.0169 -0.417157L8.16442 0.336653ZM4.15784 -4.37216L4.90068 -6.22909L4.90068 -6.22909L4.15784 -4.37216ZM0.378086 -4.94085L-0.0709876 -6.88978L-0.0709881 -6.88978L0.378086 -4.94085ZM5.55342 -8.07145C3.09156 -9.05628 1.0994 -9.1738 -0.463601 -8.81366L0.434546 -4.91579C1.04862 -5.05729 2.20166 -5.10409 4.06774 -4.35759L5.55342 -8.07145ZM11.7174 -1.19844C10.6037 -3.9354 8.80357 -6.77128 5.55342 -8.07145L4.06774 -4.35759C5.83174 -3.65193 7.0621 -2.02619 8.01239 0.30918L11.7174 -1.19844ZM13.9095 6.66228C13.3593 4.16776 12.7302 1.29057 11.7174 -1.19844L8.01239 0.30918C8.87325 2.42476 9.43606 4.95168 10.0034 7.52379L13.9095 6.66228ZM14.0689 7.38347C14.0161 7.1457 13.9632 6.90564 13.9095 6.66228L10.0034 7.52379C10.0569 7.76663 10.1105 8.00966 10.1641 8.25088L14.0689 7.38347ZM16.0729 13.9123C15.2626 12.4459 14.7058 10.2504 14.0689 7.38347L10.1641 8.25088C10.7729 10.9913 11.4317 13.7838 12.5719 15.847L16.0729 13.9123ZM17.0584 15.1145C16.791 14.9399 16.4504 14.5954 16.0729 13.9123L12.5719 15.847C13.1502 16.8936 13.8878 17.8217 14.8722 18.4642L17.0584 15.1145ZM18.1946 15.3514C17.6049 15.3893 17.2832 15.2612 17.0584 15.1145L14.8722 18.4642C15.8769 19.1199 17.069 19.4321 18.4514 19.3432L18.1946 15.3514ZM19.7244 14.2949C19.2231 15.0768 18.8085 15.3119 18.1946 15.3514L18.4514 19.3432C20.6653 19.2007 22.1049 17.9929 23.0916 16.4541L19.7244 14.2949ZM21.3927 10.1112C20.7928 11.9878 20.3363 13.3406 19.7244 14.2949L23.0916 16.4541C24.0431 14.9702 24.6473 13.0669 25.2028 11.3292L21.3927 10.1112ZM21.4255 10.0087L21.3927 10.1113L25.2028 11.3291L25.2356 11.2265L21.4255 10.0087ZM23.7063 4.49418C22.6218 6.22698 21.9544 8.35378 21.4255 10.0088L25.2356 11.2265C25.8013 9.45659 26.3292 7.84304 27.097 6.61625L23.7063 4.49418ZM29.6768 0.594822C26.7807 0.879624 24.9068 2.57601 23.7063 4.49418L27.097 6.61625C27.8533 5.4078 28.7577 4.7045 30.0683 4.57562L29.6768 0.594822ZM37.9239 4.87153C36.134 2.39942 33.4084 0.22786 29.6768 0.594822L30.0683 4.57562C31.796 4.40571 33.3101 5.31982 34.684 7.2174L37.9239 4.87153ZM41.7674 13.4566C40.9164 10.5082 39.6972 7.32058 37.9239 4.87153L34.684 7.2174C36.0553 9.11129 37.1198 11.7788 37.9243 14.566L41.7674 13.4566ZM43.5207 21.6696C43.1847 19.4469 42.6324 16.4531 41.7674 13.4566L37.9243 14.566C38.7239 17.336 39.2447 20.1443 39.5656 22.2674L43.5207 21.6696ZM43.88 24.3828C43.8057 23.7221 43.6895 22.7866 43.5207 21.6696L39.5656 22.2674C39.7258 23.327 39.8355 24.2117 39.9051 24.8301L43.88 24.3828ZM43.9618 25.1588C43.944 24.976 43.9172 24.7135 43.88 24.3828L39.9051 24.8301C39.9399 25.1392 39.9646 25.3816 39.9806 25.5457L43.9618 25.1588ZM43.9819 25.3722C43.9773 25.3219 43.9707 25.2503 43.9618 25.1588L39.9806 25.5457C39.9885 25.6277 39.9943 25.6902 39.998 25.7317L43.9819 25.3722ZM43.9868 25.4279L43.9821 25.3751L39.9978 25.7288L40.0025 25.7816L43.9868 25.4279ZM43.9895 25.4594L43.9894 25.4582L40.003 25.7875L40.0031 25.7887L43.9895 25.4594ZM41.262 27.7031C41.7231 27.6595 41.9548 27.6375 42.0714 27.6264C42.1283 27.6209 42.1616 27.6177 42.1813 27.6157C42.1858 27.6153 42.2078 27.6131 42.2312 27.6103C42.2385 27.6095 42.2531 27.6077 42.2714 27.6051C42.2836 27.6034 42.3276 27.5973 42.3833 27.5863C42.411 27.5809 42.4665 27.5694 42.5355 27.5501C42.5878 27.5354 42.7424 27.491 42.9239 27.396C43.0919 27.308 43.5217 27.0548 43.7913 26.5062C43.9285 26.2268 43.9786 25.9613 43.9921 25.7536C43.9984 25.6571 43.9964 25.5786 43.9941 25.5302C43.9931 25.5115 43.9913 25.4834 43.9907 25.474C43.9899 25.4646 43.9892 25.4553 43.9892 25.4553L40.0034 25.7929C40.0072 25.8379 39.9258 25.3027 40.2013 24.742C40.4709 24.1934 40.9007 23.9402 41.0686 23.8523C41.2501 23.7572 41.4047 23.7128 41.4569 23.6982C41.5258 23.6789 41.5813 23.6675 41.6089 23.662C41.6643 23.6511 41.708 23.645 41.7197 23.6434C41.7375 23.6409 41.7514 23.6392 41.7578 23.6384C41.7776 23.6361 41.7924 23.6347 41.7825 23.6357C41.7734 23.6366 41.749 23.639 41.6906 23.6445C41.5765 23.6555 41.3469 23.6772 40.8854 23.7209L41.262 27.7031ZM41.8066 23.6331L40.884 23.721L41.2634 27.703L42.186 27.6151L41.8066 23.6331ZM43.993 25.5013L43.9893 25.4571L40.0033 25.791L40.007 25.8352L43.993 25.5013ZM-3.20787 -7.33559L-3.47182 -7.04871L-0.528181 -4.34039L-0.26423 -4.62727L-3.20787 -7.33559ZM0.367209 -6.68036L-0.295156 -7.36845L-3.17694 -4.59441L-2.51458 -3.90632L0.367209 -6.68036ZM-3.20478 -7.33894C-3.20479 -7.33894 -3.20757 -7.33591 -3.21035 -7.33288C-3.21312 -7.32985 -3.22139 -7.32072 -3.22686 -7.31461C-3.24087 -7.29891 -3.26356 -7.27302 -3.29029 -7.23996C-3.34422 -7.17324 -3.42249 -7.06782 -3.4979 -6.92703C-3.668 -6.60945 -3.74604 -6.25804 -3.73361 -5.91101C-3.71421 -5.36968 -3.47456 -4.99496 -3.45234 -4.95771C-3.38865 -4.85095 -3.32886 -4.77416 -3.31058 -4.75076C-3.28485 -4.71782 -3.26338 -4.69249 -3.25255 -4.67985C-3.21824 -4.6398 -3.18613 -4.60587 -3.18486 -4.60452C-3.16593 -4.5843 -3.13789 -4.55487 -3.0976 -4.51278C-3.01282 -4.42423 -2.84551 -4.2501 -2.51458 -3.90632L0.367209 -6.68036C0.0357748 -7.02467 -0.127798 -7.19491 -0.208168 -7.27886C-0.228113 -7.2997 -0.242136 -7.31439 -0.251896 -7.32464C-0.262269 -7.33554 -0.265537 -7.33903 -0.265026 -7.33848C-0.264812 -7.33825 -0.261029 -7.33422 -0.25533 -7.32799C-0.251993 -7.32434 -0.235684 -7.30655 -0.215023 -7.28243C-0.204799 -7.2705 -0.183776 -7.24571 -0.158373 -7.2132C-0.140423 -7.19022 -0.0808369 -7.11371 -0.0172679 -7.00716C0.0155076 -6.95223 0.0716802 -6.85247 0.124291 -6.7198C0.174772 -6.5925 0.252915 -6.35873 0.263826 -6.05428C0.276261 -5.70729 0.19823 -5.35591 0.0281372 -5.03836C-0.0472672 -4.89758 -0.125529 -4.79217 -0.179451 -4.72546C-0.206169 -4.69241 -0.228854 -4.66652 -0.242861 -4.65083C-0.248336 -4.64472 -0.256599 -4.6356 -0.259367 -4.63257C-0.262142 -4.62954 -0.264925 -4.62652 -0.264925 -4.62652L-3.20478 -7.33894ZM-3.20177 -7.3422L-3.203 -7.34087L-0.266709 -4.62459L-0.265475 -4.62592L-3.20177 -7.3422ZM-3.19544 -7.34901L-3.19803 -7.34623L-0.269215 -4.62189L-0.26663 -4.62467L-3.19544 -7.34901ZM-3.18222 -7.36311L-3.18786 -7.35711L-0.274208 -4.61657L-0.268565 -4.62257L-3.18222 -7.36311ZM-3.15351 -7.39315L-3.1667 -7.37943L-0.284088 -4.60625L-0.270897 -4.61996L-3.15351 -7.39315ZM-3.0657 -7.48072C-3.09385 -7.45361 -3.11973 -7.42782 -3.1434 -7.40357L-0.281003 -4.60953C-0.285382 -4.60504 -0.288549 -4.60193 -0.290479 -4.60007L-3.0657 -7.48072ZM-2.8692 -7.65779C-2.94406 -7.59452 -3.00943 -7.53494 -3.06571 -7.48072L-0.290476 -4.60008C-0.294329 -4.59637 -0.293267 -4.59762 -0.28709 -4.60284L-2.8692 -7.65779ZM-2.30341 -8.06804C-2.53171 -7.92571 -2.7194 -7.78441 -2.8692 -7.65779L-0.287089 -4.60284C-0.27474 -4.61328 -0.242043 -4.63949 -0.187241 -4.67365L-2.30341 -8.06804ZM-0.463601 -8.81366C-1.23312 -8.63635 -1.84299 -8.35508 -2.30341 -8.06804L-0.187241 -4.67365C-0.0791182 -4.74106 0.121807 -4.84373 0.434546 -4.91579L-0.463601 -8.81366ZM1.85263 37.0314V-4.76078H-2.14737V37.0314H1.85263ZM40.1474 35.0314H-0.147368V39.0314H40.1474V35.0314ZM38.1474 25.7578V37.0314H42.1474V25.7578H38.1474ZM38.1536 25.9168L38.1552 25.9347L42.1395 25.5808L42.1379 25.5629L38.1536 25.9168ZM38.1377 25.7479C38.1452 25.825 38.1505 25.8827 38.1539 25.9196L42.1377 25.5602C42.1336 25.5145 42.1274 25.4476 42.119 25.361L38.1377 25.7479ZM38.0656 25.0638C38.0991 25.3617 38.1227 25.5935 38.1377 25.7478L42.119 25.361C42.1022 25.1879 42.0764 24.9359 42.0405 24.6166L38.0656 25.0638ZM37.7364 22.5796C37.8921 23.6093 37.9985 24.4675 38.0656 25.0638L42.0405 24.6166C41.9686 23.9779 41.8558 23.0689 41.6915 21.9817L37.7364 22.5796ZM36.1532 15.1432C36.919 17.7963 37.4234 20.5086 37.7364 22.5796L41.6915 21.9817C41.3634 19.8112 40.8275 16.9135 39.9962 14.0339L36.1532 15.1432ZM33.2157 8.41782C34.3877 10.0364 35.3733 12.4417 36.1532 15.1432L39.9962 14.0339C39.1701 11.1718 38.0297 8.24603 36.4556 6.07195L33.2157 8.41782ZM30.239 6.53584C31.106 6.45058 32.0653 6.82907 33.2157 8.41782L36.4556 6.07195C34.8792 3.89476 32.7065 2.27389 29.8475 2.55504L30.239 6.53584ZM28.6396 7.70637C29.1654 6.86636 29.6147 6.59723 30.239 6.53584L29.8475 2.55504C27.6452 2.77161 26.224 4.02633 25.249 5.5843L28.6396 7.70637ZM26.957 11.9624C27.5575 10.0838 28.016 8.70289 28.6396 7.70637L25.249 5.5843C24.3044 7.09357 23.7023 9.00717 23.1469 10.7444L26.957 11.9624ZM26.9432 12.0055L26.957 11.9623L23.1469 10.7445L23.1331 10.7876L26.9432 12.0055ZM24.6226 17.5625C25.7346 15.8284 26.4101 13.6731 26.9432 12.0055L23.1331 10.7876C22.5607 12.5782 22.0305 14.1947 21.2554 15.4034L24.6226 17.5625ZM18.5633 21.3081C21.4786 21.1206 23.3936 19.4792 24.6226 17.5625L21.2554 15.4034C20.5063 16.5716 19.6138 17.2323 18.3065 17.3164L18.5633 21.3081ZM13.9026 20.1416C15.2629 21.0294 16.8397 21.419 18.5633 21.3081L18.3065 17.3164C17.3745 17.3764 16.6683 17.1701 16.0888 16.7919L13.9026 20.1416ZM10.9743 16.8438C11.6551 18.0758 12.5852 19.2818 13.9026 20.1416L16.0888 16.7919C15.489 16.4004 14.9557 15.7784 14.4753 14.9091L10.9743 16.8438ZM8.36102 8.70312C8.95683 11.3853 9.66799 14.4798 10.9743 16.8438L14.4753 14.9091C13.4979 13.1404 12.8885 10.6387 12.2658 7.83572L8.36102 8.70312ZM8.20567 8.00115C8.25708 8.23389 8.30887 8.46836 8.36102 8.70312L12.2658 7.83572C12.2143 7.60369 12.163 7.37157 12.1115 7.13844L8.20567 8.00115ZM6.31191 1.09046C7.10292 3.03438 7.62787 5.38521 8.20567 8.00115L12.1115 7.13844C11.5528 4.60903 10.9607 1.9021 10.0169 -0.417157L6.31191 1.09046ZM3.415 -2.51523C4.50518 -2.07912 5.45392 -1.01807 6.31191 1.09046L10.0169 -0.417157C8.99362 -2.93194 7.47412 -5.19962 4.90068 -6.22909L3.415 -2.51523ZM0.827159 -2.99191C1.02793 -3.03818 1.81479 -3.15537 3.415 -2.51523L4.90068 -6.22909C2.70358 -7.10801 1.07774 -7.15447 -0.0709876 -6.88978L0.827159 -2.99191ZM0.722675 -2.95994C0.718678 -2.95801 0.751031 -2.97437 0.827159 -2.99192L-0.0709881 -6.88978C-0.444624 -6.80368 -0.758944 -6.6865 -1.01741 -6.56162L0.722675 -2.95994ZM43.9889 25.4516L43.9873 25.4335L40.002 25.776L40.0035 25.7941L43.9889 25.4516ZM44 39V25.6683H40V39H44ZM-2 41H42V37H-2V41ZM-4 -5.69455V39H0V-5.69455H-4Z" fill="#0A0A0A" mask="url(#path-3-outside-1)"/>
</g>
<path id="Vector 2_2" d="M7.00005 7.99996C-6.49991 3.9999 -5.49995 23 -5.49995 23V39.5H39.5V37C39.5 37 20.5 12 7.00005 7.99996Z" fill="#0A0A0A"/>
<path id="Vector 2 (Stroke)_2" d="M-3.49995 22.9737V22.9474L-3.50134 22.9212L-3.50249 22.8994L-3.50269 22.8955L-3.50269 22.8954L-3.50291 22.8907L-3.50412 22.8631C-3.50413 22.8627 -3.50415 22.8623 -3.50417 22.8619C-3.50532 22.8338 -3.50699 22.7892 -3.50874 22.7293C-3.51228 22.6079 -3.51611 22.4239 -3.51656 22.1876C-3.51746 21.7142 -3.50479 21.035 -3.44989 20.2298C-3.33888 18.6016 -3.0603 16.5401 -2.41788 14.6408C-1.76748 12.7179 -0.821061 11.1862 0.470942 10.3137C1.67545 9.50026 3.49656 9.04788 6.43186 9.91761C9.44249 10.8097 12.9232 12.9366 16.5338 15.7883C20.1137 18.6157 23.683 22.0437 26.8652 25.3804C30.043 28.7124 32.8082 31.9253 34.7798 34.3067C35.7649 35.4965 36.5501 36.4766 37.0876 37.1574C37.1858 37.2818 37.2757 37.3962 37.3571 37.5H-3.49995V22.9737ZM41.0924 35.7898L41.0915 35.7887L41.0764 35.7689L41.0753 35.7674L41.0329 35.712L41.0323 35.7112C40.9942 35.6615 40.9382 35.5887 40.8651 35.4942C40.7189 35.3053 40.5042 35.0297 40.227 34.6786C39.6727 33.9766 38.868 32.9723 37.8609 31.7558C35.8482 29.3248 33.0196 26.0377 29.7598 22.6197C26.5046 19.2064 22.7926 15.6344 19.0131 12.6493C15.2643 9.68843 11.3075 7.19038 7.56823 6.08243C3.75474 4.95248 0.638018 5.37417 -1.76769 6.9988C-4.08525 8.5639 -5.42001 11.0324 -6.207 13.3592C-7.00207 15.7098 -7.31726 18.1483 -7.44063 19.9577C-7.50292 20.8713 -7.5176 21.6452 -7.51655 22.1952C-7.51603 22.4706 -7.51155 22.691 -7.50704 22.8459C-7.50478 22.9234 -7.50251 22.9846 -7.50071 23.0282L-7.5006 23.0308L-7.49995 23.0454V40.5V41.5H-6.49995H40.5H41.5V40.5V36.6631V36.3263L41.2962 36.0581L41.095 35.7933L41.0924 35.7898Z" fill="#7F7F7F" stroke="#0A0A0A" stroke-width="2"/>
<path id="Vector 2_3" d="M2.64668 38.4919C2.64668 38.4919 -9.87632 11.2447 -22.6775 15.4389C-34.7853 19.4059 -17.6127 42 -17.6127 42H40V23.4574C40 23.4574 33.0433 16.6728 26.7047 15.4389C12.3796 12.6504 2.64668 38.4919 2.64668 38.4919Z" fill="#0A0A0A"/>
<g id="Vector 2 (Stroke)_3">
<mask id="path-8-outside-2" maskUnits="userSpaceOnUse" x="-30" y="11" width="74" height="33" fill="black">
<rect fill="white" x="-30" y="11" width="74" height="33"/>
<path fill-rule="evenodd" clip-rule="evenodd" d="M-13.9734 17.905C-16.7616 16.1134 -19.4226 15.4741 -21.9736 16.2871C-24.3455 17.0431 -25.3971 18.6702 -25.4816 21.0413C-25.5671 23.443 -24.6266 26.3923 -23.2638 29.3226C-21.9101 32.2334 -20.1821 35.0379 -18.7863 37.1213C-18.0897 38.1612 -17.4786 39.0173 -17.0426 39.6124C-16.9151 39.7863 -16.8027 39.9378 -16.7076 40.065H2.48194L1.4954 37.977L1.49376 37.9735L1.48762 37.9606L1.46199 37.9071C1.439 37.8594 1.40429 37.7878 1.35823 37.694C1.26609 37.5064 1.12857 37.2302 0.94863 36.8791C0.588675 36.1769 0.0594077 35.1762 -0.615416 33.9872C-1.96696 31.6058 -3.89379 28.4842 -6.20482 25.4965C-8.52743 22.4938 -11.1851 19.6966 -13.9734 17.905ZM3.88029 37.9227L3.05082 40.065H38.487V23.485C38.4843 23.4826 38.4815 23.4801 38.4788 23.4777C38.2851 23.3029 37.9993 23.0498 37.636 22.7416C36.9085 22.1243 35.8754 21.2898 34.6531 20.4207C32.1597 18.6479 29.0622 16.8652 26.25 16.3327C23.242 15.7631 20.3819 16.6191 17.6508 18.4622C14.9079 20.3132 12.4519 23.0649 10.3847 25.9746C8.32639 28.8717 6.69819 31.861 5.58275 34.1327C5.02588 35.2669 4.59876 36.2182 4.31146 36.8844C4.16784 37.2175 4.05926 37.4791 3.98697 37.6564C3.95083 37.7451 3.92376 37.8127 3.90594 37.8576L3.88614 37.9077L3.88148 37.9196L3.88029 37.9227ZM39.7435 23.1333L40.7191 22.5236L41 22.7901V42H-18.1385L-18.5048 41.5313L-17.4281 41.0325C-18.5048 41.5313 -18.5045 41.5316 -18.5048 41.5313L-18.5061 41.5296L-18.5089 41.526L-18.5191 41.5129L-18.5574 41.4634C-18.5906 41.4202 -18.6392 41.3568 -18.7016 41.2746C-18.8264 41.11 -19.0067 40.8697 -19.2312 40.5633C-19.6802 39.9507 -20.3065 39.073 -21.0197 38.0084C-22.4437 35.8828 -24.225 32.9954 -25.6297 29.975C-27.0253 26.9742 -28.0922 23.753 -27.9937 20.9883C-27.8941 18.193 -26.5703 15.6579 -22.9347 14.4992C-19.134 13.2878 -15.478 14.418 -12.3633 16.4193C-9.24876 18.4205 -6.41779 21.4397 -4.04573 24.5063C-1.66207 27.5879 0.311824 30.7887 1.68734 33.2123C2.01918 33.797 2.31669 34.3374 2.57722 34.821C2.77116 34.4023 2.9897 33.9421 3.2321 33.4484C4.37183 31.1272 6.04669 28.0485 8.17996 25.0459C10.3043 22.0558 12.9283 19.0761 15.9944 17.0069C19.0723 14.9299 22.7503 13.6773 26.8501 14.4536C30.328 15.1122 33.8271 17.1996 36.358 18.9991C37.6478 19.9162 38.7336 20.7934 39.4971 21.4412C39.8793 21.7656 40.182 22.0335 40.3904 22.2215C40.4946 22.3156 40.5753 22.3897 40.6307 22.441L40.6946 22.5005L40.7118 22.5167L40.7167 22.5213L40.7191 22.5236C40.7193 22.5238 40.7191 22.5236 39.7435 23.1333Z"/>
</mask>
<path fill-rule="evenodd" clip-rule="evenodd" d="M-13.9734 17.905C-16.7616 16.1134 -19.4226 15.4741 -21.9736 16.2871C-24.3455 17.0431 -25.3971 18.6702 -25.4816 21.0413C-25.5671 23.443 -24.6266 26.3923 -23.2638 29.3226C-21.9101 32.2334 -20.1821 35.0379 -18.7863 37.1213C-18.0897 38.1612 -17.4786 39.0173 -17.0426 39.6124C-16.9151 39.7863 -16.8027 39.9378 -16.7076 40.065H2.48194L1.4954 37.977L1.49376 37.9735L1.48762 37.9606L1.46199 37.9071C1.439 37.8594 1.40429 37.7878 1.35823 37.694C1.26609 37.5064 1.12857 37.2302 0.94863 36.8791C0.588675 36.1769 0.0594077 35.1762 -0.615416 33.9872C-1.96696 31.6058 -3.89379 28.4842 -6.20482 25.4965C-8.52743 22.4938 -11.1851 19.6966 -13.9734 17.905ZM3.88029 37.9227L3.05082 40.065H38.487V23.485C38.4843 23.4826 38.4815 23.4801 38.4788 23.4777C38.2851 23.3029 37.9993 23.0498 37.636 22.7416C36.9085 22.1243 35.8754 21.2898 34.6531 20.4207C32.1597 18.6479 29.0622 16.8652 26.25 16.3327C23.242 15.7631 20.3819 16.6191 17.6508 18.4622C14.9079 20.3132 12.4519 23.0649 10.3847 25.9746C8.32639 28.8717 6.69819 31.861 5.58275 34.1327C5.02588 35.2669 4.59876 36.2182 4.31146 36.8844C4.16784 37.2175 4.05926 37.4791 3.98697 37.6564C3.95083 37.7451 3.92376 37.8127 3.90594 37.8576L3.88614 37.9077L3.88148 37.9196L3.88029 37.9227ZM39.7435 23.1333L40.7191 22.5236L41 22.7901V42H-18.1385L-18.5048 41.5313L-17.4281 41.0325C-18.5048 41.5313 -18.5045 41.5316 -18.5048 41.5313L-18.5061 41.5296L-18.5089 41.526L-18.5191 41.5129L-18.5574 41.4634C-18.5906 41.4202 -18.6392 41.3568 -18.7016 41.2746C-18.8264 41.11 -19.0067 40.8697 -19.2312 40.5633C-19.6802 39.9507 -20.3065 39.073 -21.0197 38.0084C-22.4437 35.8828 -24.225 32.9954 -25.6297 29.975C-27.0253 26.9742 -28.0922 23.753 -27.9937 20.9883C-27.8941 18.193 -26.5703 15.6579 -22.9347 14.4992C-19.134 13.2878 -15.478 14.418 -12.3633 16.4193C-9.24876 18.4205 -6.41779 21.4397 -4.04573 24.5063C-1.66207 27.5879 0.311824 30.7887 1.68734 33.2123C2.01918 33.797 2.31669 34.3374 2.57722 34.821C2.77116 34.4023 2.9897 33.9421 3.2321 33.4484C4.37183 31.1272 6.04669 28.0485 8.17996 25.0459C10.3043 22.0558 12.9283 19.0761 15.9944 17.0069C19.0723 14.9299 22.7503 13.6773 26.8501 14.4536C30.328 15.1122 33.8271 17.1996 36.358 18.9991C37.6478 19.9162 38.7336 20.7934 39.4971 21.4412C39.8793 21.7656 40.182 22.0335 40.3904 22.2215C40.4946 22.3156 40.5753 22.3897 40.6307 22.441L40.6946 22.5005L40.7118 22.5167L40.7167 22.5213L40.7191 22.5236C40.7193 22.5238 40.7191 22.5236 39.7435 23.1333Z" fill="#9D9D9D"/>
<path d="M-21.9736 16.2871L-22.5809 14.3816L-22.5809 14.3816L-21.9736 16.2871ZM-13.9734 17.905L-12.8923 16.2224L-12.8923 16.2224L-13.9734 17.905ZM-25.4816 21.0413L-23.4829 21.1125L-25.4816 21.0413ZM-23.2638 29.3226L-25.0773 30.166L-25.0773 30.166L-23.2638 29.3226ZM-18.7863 37.1213L-17.1247 36.0081L-17.1247 36.0081L-18.7863 37.1213ZM-17.0426 39.6124L-15.4293 38.4302L-15.4293 38.4302L-17.0426 39.6124ZM-16.7076 40.065L-18.3089 41.2631L-17.709 42.065H-16.7076V40.065ZM2.48194 40.065V42.065H5.63891L4.29025 39.2106L2.48194 40.065ZM1.4954 37.977L3.30372 37.1226L3.30261 37.1202L1.4954 37.977ZM1.49376 37.9735L3.30096 37.1168L3.29962 37.1139L1.49376 37.9735ZM1.48762 37.9606L3.29349 37.101L3.29107 37.096L1.48762 37.9606ZM1.46199 37.9071L3.26544 37.0425L3.26398 37.0395L1.46199 37.9071ZM1.35823 37.694L-0.436979 38.5756L-0.436964 38.5756L1.35823 37.694ZM0.94863 36.8791L-0.831152 37.7915L-0.831149 37.7915L0.94863 36.8791ZM-0.615416 33.9872L-2.35481 34.9744L-2.35481 34.9744L-0.615416 33.9872ZM-6.20482 25.4965L-4.62284 24.2728L-4.62284 24.2728L-6.20482 25.4965ZM3.05082 40.065L1.18574 39.3428L0.131762 42.065H3.05082V40.065ZM3.88029 37.9227L2.01663 37.1969L2.01521 37.2005L3.88029 37.9227ZM38.487 40.065V42.065H40.487V40.065H38.487ZM38.487 23.485H40.487V22.5967L39.8278 22.0011L38.487 23.485ZM38.4788 23.4777L39.8189 21.9931L39.8186 21.9927L38.4788 23.4777ZM37.636 22.7416L36.342 24.2665L36.342 24.2665L37.636 22.7416ZM34.6531 20.4207L35.812 18.7907L35.812 18.7907L34.6531 20.4207ZM26.25 16.3327L26.6221 14.3676L26.6221 14.3676L26.25 16.3327ZM17.6508 18.4622L18.7695 20.12L18.7695 20.12L17.6508 18.4622ZM10.3847 25.9746L8.75424 24.8162L8.75424 24.8162L10.3847 25.9746ZM5.58275 34.1327L7.37802 35.0142L7.37802 35.0142L5.58275 34.1327ZM4.31146 36.8844L6.14798 37.6764L6.14798 37.6764L4.31146 36.8844ZM3.98697 37.6564L2.13494 36.9014L2.13493 36.9015L3.98697 37.6564ZM3.90594 37.8576L2.04709 37.1195L2.0457 37.123L3.90594 37.8576ZM3.88614 37.9077L2.0259 37.1732L2.0234 37.1796L3.88614 37.9077ZM3.88148 37.9196L2.01874 37.1915L2.01783 37.1938L3.88148 37.9196ZM41 22.7901H43V21.9306L42.3765 21.3391L41 22.7901ZM41 42V44H43V42H41ZM-18.1385 42L-19.7145 43.2314L-19.114 44H-18.1385V42ZM-18.5061 41.5296L-20.0838 42.7588L-20.0829 42.7599L-18.5061 41.5296ZM-18.5089 41.526L-20.088 42.7533L-20.0866 42.7551L-18.5089 41.526ZM-18.5191 41.5129L-20.1016 42.7358L-20.0982 42.7402L-18.5191 41.5129ZM-18.5574 41.4634L-20.1418 42.6838L-20.1399 42.6863L-18.5574 41.4634ZM-18.7016 41.2746L-17.1081 40.0659L-17.1081 40.0659L-18.7016 41.2746ZM-19.2312 40.5633L-20.8444 41.7455L-20.8444 41.7455L-19.2312 40.5633ZM-21.0197 38.0084L-19.3581 36.8952L-19.3581 36.8952L-21.0197 38.0084ZM-25.6297 29.975L-27.4432 30.8184L-27.4432 30.8184L-25.6297 29.975ZM-27.9937 20.9883L-29.9924 20.9171L-27.9937 20.9883ZM-22.9347 14.4992L-23.542 12.5936L-23.542 12.5936L-22.9347 14.4992ZM-12.3633 16.4193L-11.2822 14.7367L-11.2822 14.7367L-12.3633 16.4193ZM-4.04573 24.5063L-2.46376 23.2826L-2.46376 23.2826L-4.04573 24.5063ZM1.68734 33.2123L3.42673 32.2252L3.42673 32.2252L1.68734 33.2123ZM2.57722 34.821L0.816495 35.7696L2.71219 39.2882L4.392 35.6615L2.57722 34.821ZM3.2321 33.4484L5.02737 34.3299L5.02737 34.3299L3.2321 33.4484ZM8.17996 25.0459L9.81037 26.2042L9.81037 26.2042L8.17996 25.0459ZM15.9944 17.0069L17.1132 18.6648L17.1132 18.6648L15.9944 17.0069ZM26.8501 14.4536L26.478 16.4187L26.478 16.4187L26.8501 14.4536ZM36.358 18.9991L35.199 20.629L35.199 20.629L36.358 18.9991ZM39.4971 21.4412L40.7911 19.9163L40.7911 19.9163L39.4971 21.4412ZM40.3904 22.2215L39.0506 23.7064L39.0506 23.7064L40.3904 22.2215ZM40.6307 22.441L41.9938 20.9775L41.9898 20.9738L40.6307 22.441ZM40.6946 22.5005L42.0645 21.0433L42.0577 21.037L40.6946 22.5005ZM40.7118 22.5167L42.085 21.0627L42.0817 21.0596L40.7118 22.5167ZM40.7167 22.5213L42.0919 21.0691L42.0899 21.0673L40.7167 22.5213ZM-21.3662 18.1927C-19.5824 17.6241 -17.5486 17.985 -15.0546 19.5876L-12.8923 16.2224C-15.9746 14.2418 -19.2629 13.3241 -22.5809 14.3816L-21.3662 18.1927ZM-23.4829 21.1125C-23.4504 20.2011 -23.2395 19.6151 -22.9581 19.2213C-22.6866 18.8413 -22.2263 18.4668 -21.3662 18.1927L-22.5809 14.3816C-24.0928 14.8634 -25.3443 15.6805 -26.2127 16.8958C-27.0712 18.0973 -27.4283 19.5105 -27.4803 20.9701L-23.4829 21.1125ZM-21.4503 28.4793C-22.7792 25.6218 -23.5511 23.027 -23.4829 21.1125L-27.4803 20.9701C-27.5832 23.8589 -26.4739 27.1629 -25.0773 30.166L-21.4503 28.4793ZM-17.1247 36.0081C-18.4905 33.9694 -20.157 31.2601 -21.4503 28.4793L-25.0773 30.166C-23.6632 33.2067 -21.8736 36.1063 -20.4479 38.2344L-17.1247 36.0081ZM-15.4293 38.4302C-15.8517 37.8539 -16.4462 37.0209 -17.1247 36.0081L-20.4479 38.2344C-19.7332 39.3014 -19.1055 40.1808 -18.6558 40.7946L-15.4293 38.4302ZM-15.1062 38.8668C-15.1976 38.7447 -15.306 38.5985 -15.4293 38.4302L-18.6558 40.7946C-18.5243 40.974 -18.4079 41.1309 -18.3089 41.2631L-15.1062 38.8668ZM2.48194 38.065H-16.7076V42.065H2.48194V38.065ZM-0.312913 38.8314L0.673624 40.9194L4.29025 39.2106L3.30372 37.1226L-0.312913 38.8314ZM-0.313448 38.8302L-0.311801 38.8337L3.30261 37.1202L3.30096 37.1168L-0.313448 38.8302ZM-0.318238 38.8202L-0.312105 38.8331L3.29962 37.1139L3.29348 37.101L-0.318238 38.8202ZM-0.341462 38.7718L-0.315827 38.8252L3.29107 37.096L3.26544 37.0425L-0.341462 38.7718ZM-0.436964 38.5756C-0.393271 38.6646 -0.360828 38.7315 -0.340005 38.7748L3.26398 37.0395C3.23883 36.9873 3.20186 36.911 3.15342 36.8123L-0.436964 38.5756ZM-0.831149 37.7915C-0.656774 38.1316 -0.524393 38.3976 -0.436979 38.5756L3.15343 36.8124C3.05658 36.6151 2.91392 36.3287 2.72841 35.9668L-0.831149 37.7915ZM-2.35481 34.9744C-1.69594 36.1353 -1.18013 37.1107 -0.831152 37.7915L2.72841 35.9668C2.35748 35.2432 1.81476 34.2172 1.12398 33L-2.35481 34.9744ZM-7.78679 26.7201C-5.55289 29.6082 -3.67803 32.6429 -2.35481 34.9744L1.12398 33C-0.255892 30.5687 -2.23469 27.3602 -4.62284 24.2728L-7.78679 26.7201ZM-15.0546 19.5876C-12.5418 21.2022 -10.0475 23.7975 -7.78679 26.7201L-4.62284 24.2728C-7.00739 21.19 -9.82843 18.1911 -12.8923 16.2224L-15.0546 19.5876ZM4.9159 40.7871L5.74536 38.6448L2.01521 37.2005L1.18574 39.3428L4.9159 40.7871ZM38.487 38.065H3.05082V42.065H38.487V38.065ZM36.487 23.485V40.065H40.487V23.485H36.487ZM37.1386 24.9622C37.1426 24.9658 37.1438 24.9669 37.1461 24.969L39.8278 22.0011C39.8247 21.9983 39.8205 21.9945 39.8189 21.9931L37.1386 24.9622ZM36.342 24.2665C36.6882 24.5603 36.9587 24.7999 37.139 24.9626L39.8186 21.9927C39.6114 21.8058 39.3103 21.5393 38.93 21.2166L36.342 24.2665ZM33.4941 22.0507C34.6595 22.8793 35.6471 23.6768 36.342 24.2665L38.93 21.2166C38.17 20.5717 37.0912 19.7002 35.812 18.7907L33.4941 22.0507ZM25.8779 18.2978C28.2502 18.747 31.0572 20.318 33.4941 22.0507L35.812 18.7907C33.2623 16.9778 29.8741 14.9834 26.6221 14.3676L25.8779 18.2978ZM18.7695 20.12C21.1947 18.4834 23.525 17.8522 25.8779 18.2978L26.6221 14.3676C22.959 13.674 19.5691 14.7549 16.532 16.8044L18.7695 20.12ZM12.0151 27.1329C14.0112 24.3233 16.3042 21.7837 18.7695 20.12L16.532 16.8044C13.5115 18.8427 10.8926 21.8065 8.75424 24.8162L12.0151 27.1329ZM7.37802 35.0142C8.46379 32.8029 10.0387 29.9147 12.0151 27.1329L8.75424 24.8162C6.61403 27.8287 4.93258 30.9191 3.78747 33.2513L7.37802 35.0142ZM6.14798 37.6764C6.42418 37.0359 6.83762 36.1148 7.37802 35.0142L3.78748 33.2513C3.21414 34.4189 2.77334 35.4005 2.47493 36.0925L6.14798 37.6764ZM5.83899 38.4114C5.90657 38.2456 6.00999 37.9964 6.14798 37.6764L2.47494 36.0925C2.32569 36.4386 2.21195 36.7125 2.13494 36.9014L5.83899 38.4114ZM5.76478 38.5956C5.78041 38.5562 5.80521 38.4943 5.83901 38.4114L2.13493 36.9015C2.09644 36.9959 2.06711 37.0691 2.0471 37.1195L5.76478 38.5956ZM5.74638 38.6422L5.76617 38.5921L2.0457 37.123L2.02591 37.1732L5.74638 38.6422ZM5.74423 38.6478L5.74889 38.6358L2.0234 37.1796L2.01874 37.1915L5.74423 38.6478ZM5.74394 38.6485L5.74514 38.6454L2.01783 37.1938L2.01663 37.1969L5.74394 38.6485ZM39.6591 20.8276L38.6835 21.4373L40.8035 24.8293L41.7791 24.2196L39.6591 20.8276ZM42.3765 21.3391L42.0956 21.0726L39.3426 23.9745L39.6235 24.241L42.3765 21.3391ZM-20.0808 42.7626L-19.7145 43.2314L-16.5626 40.7686L-16.9288 40.2999L-20.0808 42.7626ZM-18.2688 39.2177L-19.3455 39.7165L-17.6641 43.346L-16.5874 42.8472L-18.2688 39.2177ZM-20.083 42.7598C-20.0779 42.7663 -19.7766 43.1956 -19.1919 43.4095C-18.7132 43.5847 -18.3074 43.525 -18.1915 43.5066C-18.0415 43.4828 -17.9281 43.4468 -17.8907 43.4347C-17.8408 43.4186 -17.802 43.4039 -17.7831 43.3966C-17.7452 43.3819 -17.716 43.3692 -17.7086 43.366C-17.697 43.361 -17.6878 43.3569 -17.6834 43.3549C-17.6695 43.3486 -17.6547 43.3418 -17.649 43.3392C-17.6306 43.3307 -17.5951 43.3142 -17.5288 43.2835C-17.3944 43.2212 -17.1255 43.0965 -16.5874 42.8472L-18.2688 39.2177C-18.8074 39.4673 -19.0767 39.5921 -19.2114 39.6546C-19.2796 39.6862 -19.3115 39.701 -19.3267 39.708C-19.3379 39.7132 -19.3315 39.7102 -19.3218 39.7059C-19.3185 39.7044 -19.3101 39.7006 -19.2991 39.6958C-19.2923 39.6929 -19.2635 39.6804 -19.2259 39.6658C-19.2071 39.6586 -19.1685 39.6439 -19.1186 39.6278C-19.0813 39.6158 -18.968 39.5797 -18.818 39.556C-18.7021 39.5376 -18.2964 39.4779 -17.8176 39.653C-17.233 39.8669 -16.9317 40.2962 -16.9266 40.3027L-20.083 42.7598ZM-20.0829 42.7599L-20.0816 42.7616L-16.928 40.301L-16.9293 40.2993L-20.0829 42.7599ZM-20.0866 42.7551L-20.0838 42.7588L-16.9283 40.3005L-16.9312 40.2969L-20.0866 42.7551ZM-20.0982 42.7402L-20.088 42.7533L-16.9297 40.2987L-16.94 40.2855L-20.0982 42.7402ZM-20.1399 42.6863L-20.1016 42.7358L-16.9366 40.2899L-16.9748 40.2404L-20.1399 42.6863ZM-20.295 42.4833C-20.2295 42.5696 -20.178 42.6369 -20.1418 42.6838L-16.9729 40.2429C-17.0033 40.2035 -17.0488 40.1441 -17.1081 40.0659L-20.295 42.4833ZM-20.8444 41.7455C-20.6129 42.0614 -20.426 42.3106 -20.295 42.4833L-17.1081 40.0659C-17.2268 39.9095 -17.4005 39.678 -17.618 39.3811L-20.8444 41.7455ZM-22.6813 39.1215C-21.95 40.2132 -21.3071 41.1141 -20.8444 41.7455L-17.618 39.3811C-18.0532 38.7872 -18.6631 37.9328 -19.3581 36.8952L-22.6813 39.1215ZM-27.4432 30.8184C-25.9781 33.9687 -24.1353 36.9512 -22.6813 39.1215L-19.3581 36.8952C-20.7522 34.8144 -22.472 32.0221 -23.8162 29.1316L-27.4432 30.8184ZM-29.9924 20.9171C-30.1082 24.1686 -28.8729 27.7442 -27.4432 30.8184L-23.8162 29.1316C-25.1777 26.2042 -26.0761 23.3375 -25.995 21.0595L-29.9924 20.9171ZM-23.542 12.5936C-25.7111 13.2849 -27.3383 14.4415 -28.423 15.9751C-29.497 17.4934 -29.9323 19.2295 -29.9924 20.9171L-25.995 21.0595C-25.9555 19.9517 -25.6791 19.0226 -25.1574 18.2849C-24.6464 17.5625 -23.7939 16.8721 -22.3274 16.4047L-23.542 12.5936ZM-11.2822 14.7367C-14.6836 12.5511 -18.9683 11.1359 -23.542 12.5936L-22.3274 16.4047C-19.2997 15.4398 -16.2723 16.2848 -13.4444 18.1019L-11.2822 14.7367ZM-2.46376 23.2826C-4.89795 20.1357 -7.89226 16.9149 -11.2822 14.7367L-13.4444 18.1019C-10.6053 19.9262 -7.93763 22.7436 -5.6277 25.73L-2.46376 23.2826ZM3.42673 32.2252C2.02288 29.7516 -0.00298359 26.4639 -2.46376 23.2826L-5.6277 25.73C-3.32117 28.7119 -1.39923 31.8258 -0.0520546 34.1995L3.42673 32.2252ZM4.33794 33.8724C4.07096 33.3768 3.76634 32.8235 3.42673 32.2252L-0.0520554 34.1995C0.272014 34.7705 0.562416 35.298 0.816495 35.7696L4.33794 33.8724ZM1.43683 32.5669C1.18736 33.075 0.962323 33.5488 0.762439 33.9804L4.392 35.6615C4.57999 35.2557 4.79204 34.8092 5.02737 34.3299L1.43683 32.5669ZM6.54954 23.8875C4.33434 27.0055 2.60624 30.1853 1.43683 32.567L5.02737 34.3299C6.13743 32.0691 7.75904 29.0915 9.81037 26.2042L6.54954 23.8875ZM14.8757 15.3491C11.532 17.6055 8.7451 20.7972 6.54954 23.8875L9.81037 26.2042C11.8634 23.3145 14.3245 20.5466 17.1132 18.6648L14.8757 15.3491ZM27.2222 12.4885C22.4643 11.5876 18.2561 13.0679 14.8757 15.3491L17.1132 18.6648C19.8885 16.7919 23.0364 15.767 26.478 16.4187L27.2222 12.4885ZM37.5169 17.3691C34.9284 15.5286 31.1391 13.2302 27.2222 12.4885L26.478 16.4187C29.5168 16.9941 32.7257 18.8705 35.199 20.629L37.5169 17.3691ZM40.7911 19.9163C39.9951 19.2408 38.8636 18.3266 37.5169 17.3691L35.199 20.629C36.432 21.5057 37.4722 22.346 38.203 22.9662L40.7911 19.9163ZM41.7302 20.7366C41.5083 20.5364 41.1903 20.2551 40.7911 19.9163L38.203 22.9662C38.5683 23.2761 38.8556 23.5306 39.0506 23.7064L41.7302 20.7366ZM41.9898 20.9738C41.9283 20.9168 41.8411 20.8368 41.7301 20.7366L39.0506 23.7064C39.148 23.7944 39.2223 23.8626 39.2715 23.9082L41.9898 20.9738ZM42.0577 21.037L41.9938 20.9775L39.2675 23.9045L39.3314 23.964L42.0577 21.037ZM42.0817 21.0596L42.0645 21.0433L39.3246 23.9577L39.3419 23.9739L42.0817 21.0596ZM42.0899 21.0673L42.085 21.0627L39.3386 23.9708L39.3435 23.9754L42.0899 21.0673ZM40.8035 24.8293C41.2911 24.5246 41.5349 24.3723 41.6568 24.2961C41.7172 24.2584 41.7488 24.2386 41.765 24.2285C41.771 24.2248 41.7813 24.2183 41.7904 24.2126C41.7932 24.2108 41.799 24.2071 41.8061 24.2024C41.8105 24.1996 41.8289 24.1877 41.8519 24.1719C41.8631 24.1642 41.8876 24.1472 41.918 24.1245C41.9365 24.1106 42.0151 24.052 42.1053 23.9653C42.1502 23.9221 42.2421 23.8303 42.3384 23.6975C42.424 23.5793 42.6106 23.2978 42.6864 22.8836C42.7789 22.3783 42.6694 21.8906 42.4385 21.502C42.3423 21.34 42.243 21.2255 42.1851 21.1631C42.162 21.1387 42.1268 21.1029 42.115 21.0913C42.1032 21.0799 42.0914 21.0687 42.0914 21.0687L39.3468 23.9785C39.3468 23.9785 39.3349 23.9672 39.3232 23.9559C39.3114 23.9443 39.2762 23.9085 39.2531 23.8841C39.1952 23.8217 39.0959 23.7072 38.9997 23.5452C38.7688 23.1566 38.6593 22.6688 38.7518 22.1636C38.8276 21.7494 39.0141 21.4679 39.0998 21.3498C39.1961 21.2169 39.288 21.1251 39.3329 21.082C39.423 20.9953 39.5016 20.9367 39.5201 20.9229C39.5503 20.9002 39.5748 20.8833 39.5858 20.8757C39.6086 20.86 39.6267 20.8483 39.6305 20.8458C39.6371 20.8415 39.6422 20.8383 39.6441 20.8371C39.6494 20.8337 39.6521 20.8321 39.6428 20.8379C39.6286 20.8468 39.5992 20.8652 39.5376 20.9036C39.4155 20.9799 39.1715 21.1323 38.6835 21.4373L40.8035 24.8293ZM43 42V22.7901H39V42H43ZM-18.1385 44H41V40H-18.1385V44ZM42.0943 21.0714L42.0919 21.0691L39.3416 23.9736L39.3439 23.9758L42.0943 21.0714Z" fill="#0A0A0A" mask="url(#path-8-outside-2)"/>
</g>
<path id="Vector" d="M52 36.5C52 36.5 30.0252 22.2659 15 24.5C6.61756 25.7464 -5 32.9211 -5 32.9211V40H52V36.5Z" fill="#0A0A0A"/>
<path id="Vector (Stroke)" d="M-6.05089 31.2194L-6.05089 31.2194L-6.52545 31.5124L-7 31.8055V32.3633V41V42H-6H53H54V41V35.9562V35.4125L53.5437 35.1169L53.0952 34.8265L53.0873 34.8213L53.0869 34.8211L53.0857 34.8203L53.0839 34.8191L53.067 34.8082L53.0648 34.8068L53.0147 34.7747L53.0135 34.7739C52.9679 34.7448 52.9017 34.7027 52.8156 34.6485L52.2839 35.4924L52.8156 34.6485C52.6435 34.5401 52.3922 34.3833 52.0688 34.1858C51.422 33.7908 50.4858 33.2322 49.3172 32.5705C46.9821 31.2482 43.7068 29.5072 39.9473 27.8348C32.5398 24.5397 22.8289 21.3139 14.7059 22.5217C10.1887 23.1934 4.95428 25.4198 0.971841 27.3842C-1.04659 28.3798 -2.79549 29.3346 -4.04056 30.0409C-4.66366 30.3943 -5.16206 30.6864 -5.50658 30.8912C-5.67888 30.9937 -5.8128 31.0744 -5.90471 31.1301L-5.90629 31.1311L-6.00872 31.1935L-6.00873 31.1935L-6.01141 31.1951L-6.03822 31.2116L-6.03973 31.2125L-6.04983 31.2187L-6.05002 31.2188L-6.05089 31.2194ZM15.2941 26.4782C22.1961 25.452 30.9851 28.226 38.3216 31.4895C41.9339 33.0964 45.0914 34.7743 47.3462 36.0511C48.4724 36.6889 49.3704 37.2249 49.9841 37.5996C49.9894 37.6029 49.9947 37.6061 50 37.6093V38H-3V34.057C-2.73677 33.9032 -2.42371 33.7225 -2.067 33.5201L-2.56039 32.6503L-2.067 33.5201C-0.871825 32.8422 0.807563 31.9254 2.74133 30.9715C6.66349 29.0369 11.429 27.0529 15.2941 26.4782Z" fill="#BABABA" stroke="#0A0A0A" stroke-width="2"/>
</g>
</g>
</svg>
