<svg width="32" height="32" viewBox="0 0 32 32" fill="none" xmlns="http://www.w3.org/2000/svg">
<g id="Crop Enabled">
<path id="Rectangle" d="M2 1H1V2V30V31H2H30H31V30V2V1H30H2Z" stroke="white" stroke-width="2"/>
<mask id="mask0" mask-type="alpha" maskUnits="userSpaceOnUse" x="3" y="3" width="26" height="26">
<rect id="Rectangle_2" x="3" y="3" width="26" height="26" fill="#C4C4C4"/>
</mask>
<g mask="url(#mask0)">
<path id="Vector 2" d="M28.6593 1.57415C38.0305 0.671521 40 23.7051 40 23.7051V36H-3V-7.27821C-3 -7.27821 -1.47448 -8.90224 2.67033 -7.27821C11.5236 -3.80927 7.40352 16.9231 16.8462 16.3281C24.0392 15.8748 21.4837 2.26531 28.6593 1.57415Z" fill="#0A0A0A"/>
<g id="Vector 2 (Stroke)">
<mask id="path-4-outside-1" maskUnits="userSpaceOnUse" x="-6" y="-12" width="48" height="52" fill="black">
<rect fill="white" x="-6" y="-12" width="48" height="52"/>
<path fill-rule="evenodd" clip-rule="evenodd" d="M-2.01453 -8.86473C-0.925987 -9.11555 0.64661 -9.08018 2.81058 -8.21452C5.31766 -7.2116 6.8329 -4.98079 7.8649 -2.44463C8.80173 -0.142333 9.39768 2.55972 9.95642 5.09303C10.01 5.33613 10.0633 5.57768 10.1165 5.81718C10.7393 8.62088 11.3472 11.1149 12.3224 12.8796C12.8003 13.7445 13.3394 14.3808 13.9653 14.7893C14.58 15.1905 15.3369 15.4107 16.323 15.3473C17.7369 15.2563 18.664 14.5348 19.408 13.3745C20.1897 12.1554 20.72 10.5274 21.2978 8.72022L21.3306 8.61763C21.8778 6.90519 22.4755 5.03501 23.4017 3.55522C24.3801 1.9919 25.7692 0.792062 27.8725 0.585221C30.6022 0.316787 32.722 1.85962 34.304 4.04447C35.8762 6.21594 37.0181 9.14352 37.8459 12.0113C38.6782 14.8946 39.2147 17.7956 39.5431 19.9685C39.7076 21.0568 39.8206 21.9669 39.8926 22.6065C39.9286 22.9263 39.9543 23.1788 39.9712 23.3523C39.9796 23.439 39.9858 23.5061 39.99 23.552L39.9946 23.6048L39.9962 23.6229L39.9963 23.6241C39.9963 23.6245 39.9964 23.6247 39.0737 23.712L39.9963 23.6241L40 23.6683V37H-4V-7.69455L-3.73605 -7.98143L-3.07368 -7.29334C-3.73605 -7.98143 -3.73546 -7.98208 -3.73485 -7.98273L-3.73362 -7.98406L-3.73104 -7.98684L-3.72539 -7.99284L-3.7122 -8.00655C-3.70256 -8.01643 -3.6912 -8.02777 -3.67809 -8.0404C-3.65188 -8.06565 -3.61866 -8.09607 -3.57814 -8.13032C-3.49707 -8.19884 -3.38687 -8.2826 -3.24532 -8.37085C-2.96105 -8.54807 -2.55565 -8.74004 -2.01453 -8.86473ZM-2.14737 -6.76078V35.0314H38.1474V23.7578L38.1458 23.7399C38.1421 23.6986 38.1363 23.6363 38.1283 23.5544C38.1124 23.3907 38.0878 23.1488 38.053 22.8402C37.9835 22.2227 37.8739 21.3391 37.7139 20.2807C37.3934 18.1599 36.8732 15.3549 36.0747 12.5886C35.2717 9.80678 34.2087 7.14124 32.8356 5.24489C31.4723 3.36191 29.9063 2.36223 28.0433 2.54544C26.6299 2.68442 25.6947 3.44634 24.9443 4.64533C24.1602 5.89823 23.6299 7.54551 23.0519 9.35342L23.0382 9.39655C22.4854 11.1256 21.8825 13.0115 20.939 14.483C19.95 16.0254 18.5462 17.1764 16.4349 17.3123C15.1071 17.3977 13.9656 17.0998 12.9957 16.4668C12.0371 15.8411 11.3054 14.9271 10.7248 13.8764C9.58296 11.8101 8.92266 9.01201 8.31343 6.26942C8.26158 6.03603 8.21005 5.80273 8.1586 5.56979C7.59036 2.99712 7.03179 0.468242 6.16442 -1.66335C5.22377 -3.975 3.98965 -5.63937 2.15784 -6.37216C0.259187 -7.13169 -0.947164 -7.09632 -1.62191 -6.94085C-1.8468 -6.88903 -2.02013 -6.82226 -2.14737 -6.76078Z"/>
</mask>
<path fill-rule="evenodd" clip-rule="evenodd" d="M-2.01453 -8.86473C-0.925987 -9.11555 0.64661 -9.08018 2.81058 -8.21452C5.31766 -7.2116 6.8329 -4.98079 7.8649 -2.44463C8.80173 -0.142333 9.39768 2.55972 9.95642 5.09303C10.01 5.33613 10.0633 5.57768 10.1165 5.81718C10.7393 8.62088 11.3472 11.1149 12.3224 12.8796C12.8003 13.7445 13.3394 14.3808 13.9653 14.7893C14.58 15.1905 15.3369 15.4107 16.323 15.3473C17.7369 15.2563 18.664 14.5348 19.408 13.3745C20.1897 12.1554 20.72 10.5274 21.2978 8.72022L21.3306 8.61763C21.8778 6.90519 22.4755 5.03501 23.4017 3.55522C24.3801 1.9919 25.7692 0.792062 27.8725 0.585221C30.6022 0.316787 32.722 1.85962 34.304 4.04447C35.8762 6.21594 37.0181 9.14352 37.8459 12.0113C38.6782 14.8946 39.2147 17.7956 39.5431 19.9685C39.7076 21.0568 39.8206 21.9669 39.8926 22.6065C39.9286 22.9263 39.9543 23.1788 39.9712 23.3523C39.9796 23.439 39.9858 23.5061 39.99 23.552L39.9946 23.6048L39.9962 23.6229L39.9963 23.6241C39.9963 23.6245 39.9964 23.6247 39.0737 23.712L39.9963 23.6241L40 23.6683V37H-4V-7.69455L-3.73605 -7.98143L-3.07368 -7.29334C-3.73605 -7.98143 -3.73546 -7.98208 -3.73485 -7.98273L-3.73362 -7.98406L-3.73104 -7.98684L-3.72539 -7.99284L-3.7122 -8.00655C-3.70256 -8.01643 -3.6912 -8.02777 -3.67809 -8.0404C-3.65188 -8.06565 -3.61866 -8.09607 -3.57814 -8.13032C-3.49707 -8.19884 -3.38687 -8.2826 -3.24532 -8.37085C-2.96105 -8.54807 -2.55565 -8.74004 -2.01453 -8.86473ZM-2.14737 -6.76078V35.0314H38.1474V23.7578L38.1458 23.7399C38.1421 23.6986 38.1363 23.6363 38.1283 23.5544C38.1124 23.3907 38.0878 23.1488 38.053 22.8402C37.9835 22.2227 37.8739 21.3391 37.7139 20.2807C37.3934 18.1599 36.8732 15.3549 36.0747 12.5886C35.2717 9.80678 34.2087 7.14124 32.8356 5.24489C31.4723 3.36191 29.9063 2.36223 28.0433 2.54544C26.6299 2.68442 25.6947 3.44634 24.9443 4.64533C24.1602 5.89823 23.6299 7.54551 23.0519 9.35342L23.0382 9.39655C22.4854 11.1256 21.8825 13.0115 20.939 14.483C19.95 16.0254 18.5462 17.1764 16.4349 17.3123C15.1071 17.3977 13.9656 17.0998 12.9957 16.4668C12.0371 15.8411 11.3054 14.9271 10.7248 13.8764C9.58296 11.8101 8.92266 9.01201 8.31343 6.26942C8.26158 6.03603 8.21005 5.80273 8.1586 5.56979C7.59036 2.99712 7.03179 0.468242 6.16442 -1.66335C5.22377 -3.975 3.98965 -5.63937 2.15784 -6.37216C0.259187 -7.13169 -0.947164 -7.09632 -1.62191 -6.94085C-1.8468 -6.88903 -2.02013 -6.82226 -2.14737 -6.76078Z" fill="#FF27FF"/>
<path d="M2.81058 -8.21452L2.06774 -6.35759L2.81058 -8.21452ZM-2.01453 -8.86473L-1.56545 -6.91579L-1.56545 -6.91579L-2.01453 -8.86473ZM7.8649 -2.44463L6.01239 -1.69082L6.01239 -1.69082L7.8649 -2.44463ZM9.95642 5.09303L11.9095 4.66228L11.9095 4.66228L9.95642 5.09303ZM10.1165 5.81718L8.1641 6.25088L8.1641 6.25088L10.1165 5.81718ZM12.3224 12.8796L10.5719 13.847L10.5719 13.847L12.3224 12.8796ZM13.9653 14.7893L15.0584 13.1145L15.0584 13.1145L13.9653 14.7893ZM16.323 15.3473L16.1946 13.3514L16.1946 13.3514L16.323 15.3473ZM19.408 13.3745L21.0916 14.4541L21.0916 14.4541L19.408 13.3745ZM21.2978 8.72022L23.2028 9.32924L23.2028 9.32913L21.2978 8.72022ZM21.3306 8.61763L23.2356 9.22655L23.2356 9.22647L21.3306 8.61763ZM23.4017 3.55522L25.097 4.61625L25.097 4.61625L23.4017 3.55522ZM27.8725 0.585221L28.0683 2.57562L28.0683 2.57562L27.8725 0.585221ZM34.304 4.04447L35.9239 2.87153L35.9239 2.87153L34.304 4.04447ZM37.8459 12.0113L35.9243 12.566L35.9243 12.566L37.8459 12.0113ZM39.5431 19.9685L37.5656 20.2674L37.5656 20.2674L39.5431 19.9685ZM39.8926 22.6065L41.88 22.3828L41.88 22.3828L39.8926 22.6065ZM39.9712 23.3523L37.9806 23.5457L37.9806 23.5457L39.9712 23.3523ZM39.99 23.552L41.9821 23.3751L41.9819 23.3722L39.99 23.552ZM39.9946 23.6048L41.9873 23.4335L41.9868 23.4279L39.9946 23.6048ZM39.9962 23.6229L41.9894 23.4582L41.9889 23.4516L39.9962 23.6229ZM39.0737 23.712L38.884 21.721L39.262 25.7031L39.0737 23.712ZM40 23.6683H42V23.5847L41.993 23.5013L40 23.6683ZM40 37V39H42V37H40ZM-4 37H-6V39H-4V37ZM-4 -7.69455L-5.47182 -9.04871L-6 -8.47463V-7.69455H-4ZM-3.73605 -7.98143L-2.29516 -9.36845L-3.76897 -10.8995L-5.20787 -9.33559L-3.73605 -7.98143ZM-3.73485 -7.98273L-5.203 -9.34087L-5.20478 -9.33894L-3.73485 -7.98273ZM-3.73362 -7.98406L-5.19803 -9.34624L-5.20177 -9.3422L-3.73362 -7.98406ZM-3.73104 -7.98684L-5.18789 -9.35714L-5.19544 -9.34901L-3.73104 -7.98684ZM-3.72539 -7.99284L-5.1667 -9.37943L-5.1745 -9.37132L-5.18222 -9.36311L-3.72539 -7.99284ZM-3.7122 -8.00655L-5.1434 -9.40357L-5.14847 -9.39838L-5.15351 -9.39315L-3.7122 -8.00655ZM-3.67809 -8.0404L-2.29048 -6.60007L-2.29048 -6.60008L-3.67809 -8.0404ZM-3.57814 -8.13032L-2.28709 -6.60284L-2.28709 -6.60284L-3.57814 -8.13032ZM-3.24532 -8.37085L-4.30341 -10.068L-3.24532 -8.37085ZM-2.14737 35.0314H-4.14737V37.0314H-2.14737V35.0314ZM-2.14737 -6.76078L-3.01741 -8.56162L-4.14737 -8.01571V-6.76078H-2.14737ZM38.1474 35.0314V37.0314H40.1474V35.0314H38.1474ZM38.1474 23.7578H40.1474V23.6691L40.1395 23.5808L38.1474 23.7578ZM38.1458 23.7399L40.1379 23.5629L40.1377 23.5602L38.1458 23.7399ZM38.1283 23.5544L36.1377 23.7478L36.1377 23.7479L38.1283 23.5544ZM38.053 22.8402L36.0656 23.0638L36.0656 23.0638L38.053 22.8402ZM37.7139 20.2807L39.6915 19.9817L39.6915 19.9817L37.7139 20.2807ZM36.0747 12.5886L34.1532 13.1432L34.1532 13.1432L36.0747 12.5886ZM32.8356 5.24489L34.4556 4.07195L34.4556 4.07195L32.8356 5.24489ZM28.0433 2.54544L28.239 4.53584L28.239 4.53584L28.0433 2.54544ZM24.9443 4.64533L23.249 3.5843L23.249 3.5843L24.9443 4.64533ZM23.0519 9.35342L21.1469 8.7444L21.1469 8.74449L23.0519 9.35342ZM23.0382 9.39655L24.9432 10.0055L24.9432 10.0055L23.0382 9.39655ZM20.939 14.483L22.6226 15.5625L20.939 14.483ZM16.4349 17.3123L16.5633 19.3081L16.5633 19.3081L16.4349 17.3123ZM12.9957 16.4668L14.0888 14.7919L14.0888 14.7919L12.9957 16.4668ZM10.7248 13.8764L8.97429 14.8438L8.97429 14.8438L10.7248 13.8764ZM8.31343 6.26942L10.2658 5.83572L10.2658 5.83572L8.31343 6.26942ZM8.1586 5.56979L6.20567 6.00115L6.20567 6.00115L8.1586 5.56979ZM6.16442 -1.66335L8.01692 -2.41716L8.01692 -2.41716L6.16442 -1.66335ZM2.15784 -6.37216L2.90068 -8.22909L2.90068 -8.22909L2.15784 -6.37216ZM-1.62191 -6.94085L-2.07099 -8.88978L-2.07099 -8.88978L-1.62191 -6.94085ZM3.55342 -10.0714C1.09156 -11.0563 -0.900599 -11.1738 -2.4636 -10.8137L-1.56545 -6.91579C-0.951376 -7.05729 0.201657 -7.10409 2.06774 -6.35759L3.55342 -10.0714ZM9.7174 -3.19844C8.60369 -5.9354 6.80357 -8.77128 3.55342 -10.0714L2.06774 -6.35759C3.83174 -5.65193 5.0621 -4.02619 6.01239 -1.69082L9.7174 -3.19844ZM11.9095 4.66228C11.3593 2.16776 10.7302 -0.709426 9.7174 -3.19844L6.01239 -1.69082C6.87325 0.42476 7.43606 2.95168 8.00335 5.52379L11.9095 4.66228ZM12.0689 5.38347C12.0161 5.1457 11.9632 4.90564 11.9095 4.66228L8.00335 5.52379C8.05691 5.76663 8.11052 6.00966 8.1641 6.25088L12.0689 5.38347ZM14.0729 11.9123C13.2626 10.4459 12.7058 8.25043 12.0689 5.38347L8.1641 6.25088C8.77285 8.99132 9.43174 11.7838 10.5719 13.847L14.0729 11.9123ZM15.0584 13.1145C14.791 12.9399 14.4504 12.5954 14.0729 11.9123L10.5719 13.847C11.1502 14.8936 11.8878 15.8217 12.8722 16.4642L15.0584 13.1145ZM16.1946 13.3514C15.6049 13.3893 15.2832 13.2612 15.0584 13.1145L12.8722 16.4642C13.8769 17.1199 15.069 17.4321 16.4514 17.3432L16.1946 13.3514ZM17.7244 12.2949C17.2231 13.0768 16.8085 13.3119 16.1946 13.3514L16.4514 17.3432C18.6653 17.2007 20.1049 15.9929 21.0916 14.4541L17.7244 12.2949ZM19.3927 8.11119C18.7928 9.98783 18.3363 11.3406 17.7244 12.2949L21.0916 14.4541C22.0431 12.9702 22.6473 11.0669 23.2028 9.32924L19.3927 8.11119ZM19.4255 8.00871L19.3927 8.1113L23.2028 9.32913L23.2356 9.22655L19.4255 8.00871ZM21.7063 2.49418C20.6218 4.22698 19.9544 6.35378 19.4255 8.00879L23.2356 9.22647C23.8013 7.45659 24.3292 5.84304 25.097 4.61625L21.7063 2.49418ZM27.6768 -1.40518C24.7807 -1.12038 22.9068 0.576011 21.7063 2.49418L25.097 4.61625C25.8533 3.4078 26.7577 2.7045 28.0683 2.57562L27.6768 -1.40518ZM35.9239 2.87153C34.134 0.39942 31.4084 -1.77214 27.6768 -1.40518L28.0683 2.57562C29.796 2.40571 31.3101 3.31982 32.684 5.2174L35.9239 2.87153ZM39.7674 11.4566C38.9164 8.50825 37.6972 5.32058 35.9239 2.87153L32.684 5.2174C34.0553 7.11129 35.1198 9.77879 35.9243 12.566L39.7674 11.4566ZM41.5207 19.6696C41.1847 17.4469 40.6324 14.4531 39.7674 11.4566L35.9243 12.566C36.7239 15.336 37.2447 18.1443 37.5656 20.2674L41.5207 19.6696ZM41.88 22.3828C41.8057 21.7221 41.6895 20.7866 41.5207 19.6696L37.5656 20.2674C37.7258 21.327 37.8355 22.2117 37.9051 22.8301L41.88 22.3828ZM41.9618 23.1588C41.944 22.976 41.9172 22.7135 41.88 22.3828L37.9051 22.8301C37.9399 23.1392 37.9646 23.3816 37.9806 23.5457L41.9618 23.1588ZM41.9819 23.3722C41.9773 23.3219 41.9707 23.2503 41.9618 23.1588L37.9806 23.5457C37.9885 23.6277 37.9943 23.6902 37.998 23.7317L41.9819 23.3722ZM41.9868 23.4279L41.9821 23.3751L37.9978 23.7288L38.0025 23.7816L41.9868 23.4279ZM41.9895 23.4594L41.9894 23.4582L38.003 23.7875L38.0031 23.7887L41.9895 23.4594ZM39.262 25.7031C39.7231 25.6595 39.9548 25.6375 40.0714 25.6264C40.1283 25.6209 40.1616 25.6177 40.1813 25.6157C40.1858 25.6153 40.2078 25.6131 40.2312 25.6103C40.2385 25.6095 40.2531 25.6077 40.2714 25.6051C40.2836 25.6034 40.3276 25.5973 40.3833 25.5863C40.411 25.5809 40.4665 25.5694 40.5355 25.5501C40.5878 25.5354 40.7424 25.491 40.9239 25.396C41.0919 25.308 41.5217 25.0548 41.7913 24.5062C41.9285 24.2268 41.9786 23.9613 41.9921 23.7536C41.9984 23.6571 41.9964 23.5786 41.9941 23.5302C41.9931 23.5115 41.9913 23.4834 41.9907 23.474C41.9899 23.4646 41.9892 23.4553 41.9892 23.4553L38.0034 23.7929C38.0072 23.8379 37.9258 23.3027 38.2013 22.742C38.4709 22.1934 38.9007 21.9402 39.0686 21.8523C39.2501 21.7572 39.4047 21.7128 39.4569 21.6982C39.5258 21.6789 39.5813 21.6675 39.6089 21.662C39.6643 21.6511 39.708 21.645 39.7197 21.6434C39.7375 21.6409 39.7514 21.6392 39.7578 21.6384C39.7776 21.6361 39.7924 21.6347 39.7825 21.6357C39.7734 21.6366 39.749 21.639 39.6906 21.6445C39.5765 21.6555 39.3469 21.6772 38.8854 21.7209L39.262 25.7031ZM39.8066 21.6331L38.884 21.721L39.2634 25.703L40.186 25.6151L39.8066 21.6331ZM41.993 23.5013L41.9893 23.4571L38.0033 23.791L38.007 23.8352L41.993 23.5013ZM-5.20787 -9.33559L-5.47182 -9.04871L-2.52818 -6.34039L-2.26423 -6.62727L-5.20787 -9.33559ZM-1.63279 -8.68036L-2.29516 -9.36845L-5.17694 -6.59441L-4.51458 -5.90632L-1.63279 -8.68036ZM-5.20478 -9.33894C-5.20479 -9.33894 -5.20757 -9.33591 -5.21035 -9.33288C-5.21312 -9.32985 -5.22139 -9.32072 -5.22686 -9.31461C-5.24087 -9.29891 -5.26356 -9.27302 -5.29029 -9.23996C-5.34422 -9.17324 -5.42249 -9.06782 -5.4979 -8.92703C-5.668 -8.60945 -5.74604 -8.25804 -5.73361 -7.91101C-5.71421 -7.36968 -5.47456 -6.99496 -5.45234 -6.95771C-5.38865 -6.85095 -5.32886 -6.77416 -5.31058 -6.75076C-5.28485 -6.71782 -5.26338 -6.69249 -5.25255 -6.67985C-5.21824 -6.6398 -5.18613 -6.60587 -5.18486 -6.60452C-5.16593 -6.5843 -5.13789 -6.55487 -5.0976 -6.51278C-5.01282 -6.42423 -4.84551 -6.2501 -4.51458 -5.90632L-1.63279 -8.68036C-1.96423 -9.02467 -2.1278 -9.19491 -2.20817 -9.27886C-2.22811 -9.2997 -2.24214 -9.31439 -2.2519 -9.32464C-2.26227 -9.33554 -2.26554 -9.33903 -2.26503 -9.33848C-2.26481 -9.33825 -2.26103 -9.33422 -2.25533 -9.32799C-2.25199 -9.32434 -2.23568 -9.30655 -2.21502 -9.28243C-2.2048 -9.2705 -2.18378 -9.24571 -2.15837 -9.2132C-2.14042 -9.19022 -2.08084 -9.11371 -2.01727 -9.00716C-1.98449 -8.95223 -1.92832 -8.85247 -1.87571 -8.7198C-1.82523 -8.5925 -1.74709 -8.35873 -1.73617 -8.05428C-1.72374 -7.70729 -1.80177 -7.35591 -1.97186 -7.03836C-2.04727 -6.89758 -2.12553 -6.79217 -2.17945 -6.72546C-2.20617 -6.69241 -2.22885 -6.66652 -2.24286 -6.65083C-2.24834 -6.64472 -2.2566 -6.6356 -2.25937 -6.63257C-2.26214 -6.62954 -2.26493 -6.62652 -2.26493 -6.62652L-5.20478 -9.33894ZM-5.20177 -9.3422L-5.203 -9.34087L-2.26671 -6.62459L-2.26548 -6.62592L-5.20177 -9.3422ZM-5.19544 -9.34901L-5.19803 -9.34623L-2.26922 -6.62189L-2.26663 -6.62467L-5.19544 -9.34901ZM-5.18222 -9.36311L-5.18786 -9.35711L-2.27421 -6.61657L-2.26856 -6.62257L-5.18222 -9.36311ZM-5.15351 -9.39315L-5.1667 -9.37943L-2.28409 -6.60625L-2.2709 -6.61996L-5.15351 -9.39315ZM-5.0657 -9.48072C-5.09385 -9.45361 -5.11973 -9.42782 -5.1434 -9.40357L-2.281 -6.60953C-2.28538 -6.60504 -2.28855 -6.60193 -2.29048 -6.60007L-5.0657 -9.48072ZM-4.8692 -9.65779C-4.94406 -9.59452 -5.00943 -9.53494 -5.06571 -9.48072L-2.29048 -6.60008C-2.29433 -6.59637 -2.29327 -6.59762 -2.28709 -6.60284L-4.8692 -9.65779ZM-4.30341 -10.068C-4.53171 -9.92571 -4.7194 -9.78441 -4.8692 -9.65779L-2.28709 -6.60284C-2.27474 -6.61328 -2.24204 -6.63949 -2.18724 -6.67365L-4.30341 -10.068ZM-2.4636 -10.8137C-3.23312 -10.6363 -3.84299 -10.3551 -4.30341 -10.068L-2.18724 -6.67365C-2.07912 -6.74106 -1.87819 -6.84373 -1.56545 -6.91579L-2.4636 -10.8137ZM-0.147368 35.0314V-6.76078H-4.14737V35.0314H-0.147368ZM38.1474 33.0314H-2.14737V37.0314H38.1474V33.0314ZM36.1474 23.7578V35.0314H40.1474V23.7578H36.1474ZM36.1536 23.9168L36.1552 23.9347L40.1395 23.5808L40.1379 23.5629L36.1536 23.9168ZM36.1377 23.7479C36.1452 23.825 36.1505 23.8827 36.1539 23.9196L40.1377 23.5602C40.1336 23.5145 40.1274 23.4476 40.119 23.361L36.1377 23.7479ZM36.0656 23.0638C36.0991 23.3617 36.1227 23.5935 36.1377 23.7478L40.119 23.361C40.1022 23.1879 40.0764 22.9359 40.0405 22.6166L36.0656 23.0638ZM35.7364 20.5796C35.8921 21.6093 35.9985 22.4675 36.0656 23.0638L40.0405 22.6166C39.9686 21.9779 39.8558 21.0689 39.6915 19.9817L35.7364 20.5796ZM34.1532 13.1432C34.919 15.7963 35.4234 18.5086 35.7364 20.5796L39.6915 19.9817C39.3634 17.8112 38.8275 14.9135 37.9962 12.0339L34.1532 13.1432ZM31.2157 6.41782C32.3877 8.03644 33.3733 10.4417 34.1532 13.1432L37.9962 12.0339C37.1701 9.17181 36.0297 6.24603 34.4556 4.07195L31.2157 6.41782ZM28.239 4.53584C29.106 4.45058 30.0653 4.82907 31.2157 6.41782L34.4556 4.07195C32.8792 1.89476 30.7065 0.273885 27.8475 0.555038L28.239 4.53584ZM26.6396 5.70637C27.1654 4.86636 27.6147 4.59723 28.239 4.53584L27.8475 0.555038C25.6452 0.771614 24.224 2.02633 23.249 3.5843L26.6396 5.70637ZM24.957 9.96244C25.5575 8.08384 26.016 6.70289 26.6396 5.70637L23.249 3.5843C22.3044 5.09357 21.7023 7.00717 21.1469 8.7444L24.957 9.96244ZM24.9432 10.0055L24.957 9.96235L21.1469 8.74449L21.1331 8.78763L24.9432 10.0055ZM22.6226 15.5625C23.7346 13.8284 24.4101 11.6731 24.9432 10.0055L21.1331 8.78756C20.5607 10.5782 20.0305 12.1947 19.2554 13.4034L22.6226 15.5625ZM16.5633 19.3081C19.4786 19.1206 21.3936 17.4792 22.6226 15.5625L19.2554 13.4034C18.5063 14.5716 17.6138 15.2323 16.3065 15.3164L16.5633 19.3081ZM11.9026 18.1416C13.2629 19.0294 14.8397 19.419 16.5633 19.3081L16.3065 15.3164C15.3745 15.3764 14.6683 15.1701 14.0888 14.7919L11.9026 18.1416ZM8.97429 14.8438C9.65512 16.0758 10.5852 17.2818 11.9026 18.1416L14.0888 14.7919C13.489 14.4004 12.9557 13.7784 12.4753 12.9091L8.97429 14.8438ZM6.36102 6.70312C6.95683 9.3853 7.66799 12.4798 8.97429 14.8438L12.4753 12.9091C11.4979 11.1404 10.8885 8.63871 10.2658 5.83572L6.36102 6.70312ZM6.20567 6.00115C6.25708 6.23389 6.30887 6.46836 6.36102 6.70312L10.2658 5.83572C10.2143 5.60369 10.163 5.37157 10.1115 5.13844L6.20567 6.00115ZM4.31191 -0.909536C5.10292 1.03438 5.62787 3.38521 6.20567 6.00115L10.1115 5.13844C9.55284 2.60903 8.96066 -0.0978983 8.01692 -2.41716L4.31191 -0.909536ZM1.415 -4.51523C2.50518 -4.07912 3.45392 -3.01807 4.31191 -0.909536L8.01692 -2.41716C6.99362 -4.93194 5.47412 -7.19962 2.90068 -8.22909L1.415 -4.51523ZM-1.17284 -4.99191C-0.97207 -5.03818 -0.185211 -5.15537 1.415 -4.51523L2.90068 -8.22909C0.703584 -9.10801 -0.922257 -9.15447 -2.07099 -8.88978L-1.17284 -4.99191ZM-1.27733 -4.95994C-1.28132 -4.95801 -1.24897 -4.97437 -1.17284 -4.99192L-2.07099 -8.88978C-2.44462 -8.80368 -2.75894 -8.6865 -3.01741 -8.56162L-1.27733 -4.95994ZM41.9889 23.4516L41.9873 23.4335L38.002 23.776L38.0035 23.7941L41.9889 23.4516ZM42 37V23.6683H38V37H42ZM-4 39H40V35H-4V39ZM-6 -7.69455V37H-2V-7.69455H-6Z" fill="#0A0A0A" mask="url(#path-4-outside-1)"/>
</g>
<path id="Vector 2_2" d="M5.00005 5.99996C-8.49991 1.9999 -7.49995 21 -7.49995 21V37.5H37.5V35C37.5 35 18.5 10 5.00005 5.99996Z" fill="#0A0A0A"/>
<path id="Vector 2 (Stroke)_2" d="M-5.49995 20.9737V20.9474L-5.50134 20.9212L-5.50249 20.8994L-5.50269 20.8955L-5.50269 20.8954L-5.50291 20.8907L-5.50412 20.8631C-5.50413 20.8627 -5.50415 20.8623 -5.50417 20.8619C-5.50532 20.8338 -5.50699 20.7892 -5.50874 20.7293C-5.51228 20.6079 -5.51611 20.4239 -5.51656 20.1876C-5.51746 19.7142 -5.50479 19.035 -5.44989 18.2298C-5.33888 16.6016 -5.0603 14.5401 -4.41788 12.6408C-3.76748 10.7179 -2.82106 9.18622 -1.52906 8.31369C-0.32455 7.50026 1.49656 7.04788 4.43186 7.91761C7.44249 8.80967 10.9232 10.9366 14.5338 13.7883C18.1137 16.6157 21.683 20.0437 24.8652 23.3804C28.043 26.7124 30.8082 29.9253 32.7798 32.3067C33.7649 33.4965 34.5501 34.4766 35.0876 35.1574C35.1858 35.2818 35.2757 35.3962 35.3571 35.5H-5.49995V20.9737ZM39.0924 33.7898L39.0915 33.7887L39.0764 33.7689L39.0753 33.7674L39.0329 33.712L39.0323 33.7112C38.9942 33.6615 38.9382 33.5887 38.8651 33.4942C38.7189 33.3053 38.5042 33.0297 38.227 32.6786C37.6727 31.9766 36.868 30.9723 35.8609 29.7558C33.8482 27.3248 31.0196 24.0377 27.7598 20.6197C24.5046 17.2064 20.7926 13.6344 17.0131 10.6493C13.2643 7.68843 9.3075 5.19038 5.56823 4.08243C1.75474 2.95248 -1.36198 3.37417 -3.76769 4.9988C-6.08525 6.5639 -7.42001 9.03244 -8.207 11.3592C-9.00207 13.7098 -9.31726 16.1483 -9.44063 17.9577C-9.50292 18.8713 -9.5176 19.6452 -9.51655 20.1952C-9.51603 20.4706 -9.51155 20.691 -9.50704 20.8459C-9.50478 20.9234 -9.50251 20.9846 -9.50071 21.0282L-9.5006 21.0308L-9.49995 21.0454V38.5V39.5H-8.49995H38.5H39.5V38.5V34.6631V34.3263L39.2962 34.0581L39.095 33.7933L39.0924 33.7898Z" fill="#1AD9FF" stroke="#0A0A0A" stroke-width="2"/>
<path id="Vector 2_3" d="M0.646683 36.4919C0.646683 36.4919 -11.8763 9.24465 -24.6775 13.4389C-36.7853 17.4059 -19.6127 40 -19.6127 40H38V21.4574C38 21.4574 31.0433 14.6728 24.7047 13.4389C10.3796 10.6504 0.646683 36.4919 0.646683 36.4919Z" fill="#0A0A0A"/>
<g id="Vector 2 (Stroke)_3">
<mask id="path-9-outside-2" maskUnits="userSpaceOnUse" x="-32" y="9" width="74" height="33" fill="black">
<rect fill="white" x="-32" y="9" width="74" height="33"/>
<path fill-rule="evenodd" clip-rule="evenodd" d="M-15.9734 15.905C-18.7616 14.1134 -21.4226 13.4741 -23.9736 14.2871C-26.3455 15.0431 -27.3971 16.6702 -27.4816 19.0413C-27.5671 21.443 -26.6266 24.3923 -25.2638 27.3226C-23.9101 30.2334 -22.1821 33.0379 -20.7863 35.1213C-20.0897 36.1612 -19.4786 37.0173 -19.0426 37.6124C-18.9151 37.7863 -18.8027 37.9378 -18.7076 38.065H0.481939L-0.504598 35.977L-0.506244 35.9735L-0.512377 35.9606L-0.538011 35.9071C-0.560997 35.8594 -0.595708 35.7878 -0.641773 35.694C-0.733906 35.5064 -0.871429 35.2302 -1.05137 34.8791C-1.41133 34.1769 -1.94059 33.1762 -2.61542 31.9872C-3.96696 29.6058 -5.89379 26.4842 -8.20482 23.4965C-10.5274 20.4938 -13.1851 17.6966 -15.9734 15.905ZM1.88029 35.9227L1.05082 38.065H36.487V21.485C36.4843 21.4826 36.4815 21.4801 36.4788 21.4777C36.2851 21.3029 35.9993 21.0498 35.636 20.7416C34.9085 20.1243 33.8754 19.2898 32.6531 18.4207C30.1597 16.6479 27.0622 14.8652 24.25 14.3327C21.242 13.7631 18.3819 14.6191 15.6508 16.4622C12.9079 18.3132 10.4519 21.0649 8.38465 23.9746C6.32639 26.8717 4.69819 29.861 3.58275 32.1327C3.02588 33.2669 2.59876 34.2182 2.31146 34.8844C2.16784 35.2175 2.05926 35.4791 1.98697 35.6564C1.95083 35.7451 1.92376 35.8127 1.90594 35.8576L1.88614 35.9077L1.88148 35.9196L1.88029 35.9227ZM37.7435 21.1333L38.7191 20.5236L39 20.7901V40H-20.1385L-20.5048 39.5313L-19.4281 39.0325C-20.5048 39.5313 -20.5045 39.5316 -20.5048 39.5313L-20.5061 39.5296L-20.5089 39.526L-20.5191 39.5129L-20.5574 39.4634C-20.5906 39.4202 -20.6392 39.3568 -20.7016 39.2746C-20.8264 39.11 -21.0067 38.8697 -21.2312 38.5633C-21.6802 37.9507 -22.3065 37.073 -23.0197 36.0084C-24.4437 33.8828 -26.225 30.9954 -27.6297 27.975C-29.0253 24.9742 -30.0922 21.753 -29.9937 18.9883C-29.8941 16.193 -28.5703 13.6579 -24.9347 12.4992C-21.134 11.2878 -17.478 12.418 -14.3633 14.4193C-11.2488 16.4205 -8.41779 19.4397 -6.04573 22.5063C-3.66207 25.5879 -1.68818 28.7887 -0.312662 31.2123C0.0191762 31.797 0.316688 32.3374 0.577219 32.821C0.771159 32.4023 0.989702 31.9421 1.2321 31.4484C2.37183 29.1272 4.04669 26.0485 6.17996 23.0459C8.30426 20.0558 10.9283 17.0761 13.9944 15.0069C17.0723 12.9299 20.7503 11.6773 24.8501 12.4536C28.328 13.1122 31.8271 15.1996 34.358 16.9991C35.6478 17.9162 36.7336 18.7934 37.4971 19.4412C37.8793 19.7656 38.182 20.0335 38.3904 20.2215C38.4946 20.3156 38.5753 20.3897 38.6307 20.441L38.6946 20.5005L38.7118 20.5167L38.7167 20.5213L38.7191 20.5236C38.7193 20.5238 38.7191 20.5236 37.7435 21.1333Z"/>
</mask>
<path fill-rule="evenodd" clip-rule="evenodd" d="M-15.9734 15.905C-18.7616 14.1134 -21.4226 13.4741 -23.9736 14.2871C-26.3455 15.0431 -27.3971 16.6702 -27.4816 19.0413C-27.5671 21.443 -26.6266 24.3923 -25.2638 27.3226C-23.9101 30.2334 -22.1821 33.0379 -20.7863 35.1213C-20.0897 36.1612 -19.4786 37.0173 -19.0426 37.6124C-18.9151 37.7863 -18.8027 37.9378 -18.7076 38.065H0.481939L-0.504598 35.977L-0.506244 35.9735L-0.512377 35.9606L-0.538011 35.9071C-0.560997 35.8594 -0.595708 35.7878 -0.641773 35.694C-0.733906 35.5064 -0.871429 35.2302 -1.05137 34.8791C-1.41133 34.1769 -1.94059 33.1762 -2.61542 31.9872C-3.96696 29.6058 -5.89379 26.4842 -8.20482 23.4965C-10.5274 20.4938 -13.1851 17.6966 -15.9734 15.905ZM1.88029 35.9227L1.05082 38.065H36.487V21.485C36.4843 21.4826 36.4815 21.4801 36.4788 21.4777C36.2851 21.3029 35.9993 21.0498 35.636 20.7416C34.9085 20.1243 33.8754 19.2898 32.6531 18.4207C30.1597 16.6479 27.0622 14.8652 24.25 14.3327C21.242 13.7631 18.3819 14.6191 15.6508 16.4622C12.9079 18.3132 10.4519 21.0649 8.38465 23.9746C6.32639 26.8717 4.69819 29.861 3.58275 32.1327C3.02588 33.2669 2.59876 34.2182 2.31146 34.8844C2.16784 35.2175 2.05926 35.4791 1.98697 35.6564C1.95083 35.7451 1.92376 35.8127 1.90594 35.8576L1.88614 35.9077L1.88148 35.9196L1.88029 35.9227ZM37.7435 21.1333L38.7191 20.5236L39 20.7901V40H-20.1385L-20.5048 39.5313L-19.4281 39.0325C-20.5048 39.5313 -20.5045 39.5316 -20.5048 39.5313L-20.5061 39.5296L-20.5089 39.526L-20.5191 39.5129L-20.5574 39.4634C-20.5906 39.4202 -20.6392 39.3568 -20.7016 39.2746C-20.8264 39.11 -21.0067 38.8697 -21.2312 38.5633C-21.6802 37.9507 -22.3065 37.073 -23.0197 36.0084C-24.4437 33.8828 -26.225 30.9954 -27.6297 27.975C-29.0253 24.9742 -30.0922 21.753 -29.9937 18.9883C-29.8941 16.193 -28.5703 13.6579 -24.9347 12.4992C-21.134 11.2878 -17.478 12.418 -14.3633 14.4193C-11.2488 16.4205 -8.41779 19.4397 -6.04573 22.5063C-3.66207 25.5879 -1.68818 28.7887 -0.312662 31.2123C0.0191762 31.797 0.316688 32.3374 0.577219 32.821C0.771159 32.4023 0.989702 31.9421 1.2321 31.4484C2.37183 29.1272 4.04669 26.0485 6.17996 23.0459C8.30426 20.0558 10.9283 17.0761 13.9944 15.0069C17.0723 12.9299 20.7503 11.6773 24.8501 12.4536C28.328 13.1122 31.8271 15.1996 34.358 16.9991C35.6478 17.9162 36.7336 18.7934 37.4971 19.4412C37.8793 19.7656 38.182 20.0335 38.3904 20.2215C38.4946 20.3156 38.5753 20.3897 38.6307 20.441L38.6946 20.5005L38.7118 20.5167L38.7167 20.5213L38.7191 20.5236C38.7193 20.5238 38.7191 20.5236 37.7435 21.1333Z" fill="#FF2D1A"/>
<path d="M-23.9736 14.2871L-24.5809 12.3816L-24.5809 12.3816L-23.9736 14.2871ZM-15.9734 15.905L-14.8923 14.2224L-14.8923 14.2224L-15.9734 15.905ZM-27.4816 19.0413L-25.4829 19.1125L-27.4816 19.0413ZM-25.2638 27.3226L-27.0773 28.166L-27.0773 28.166L-25.2638 27.3226ZM-20.7863 35.1213L-19.1247 34.0081L-19.1247 34.0081L-20.7863 35.1213ZM-19.0426 37.6124L-17.4293 36.4302L-17.4293 36.4302L-19.0426 37.6124ZM-18.7076 38.065L-20.3089 39.2631L-19.709 40.065H-18.7076V38.065ZM0.481939 38.065V40.065H3.63891L2.29025 37.2106L0.481939 38.065ZM-0.504598 35.977L1.30372 35.1226L1.30261 35.1202L-0.504598 35.977ZM-0.506244 35.9735L1.30096 35.1168L1.29962 35.1139L-0.506244 35.9735ZM-0.512377 35.9606L1.29349 35.101L1.29107 35.096L-0.512377 35.9606ZM-0.538011 35.9071L1.26544 35.0425L1.26398 35.0395L-0.538011 35.9071ZM-0.641773 35.694L-2.43698 36.5756L-2.43696 36.5756L-0.641773 35.694ZM-1.05137 34.8791L-2.83115 35.7915L-2.83115 35.7915L-1.05137 34.8791ZM-2.61542 31.9872L-4.35481 32.9744L-4.35481 32.9744L-2.61542 31.9872ZM-8.20482 23.4965L-6.62284 22.2728L-6.62284 22.2728L-8.20482 23.4965ZM1.05082 38.065L-0.814256 37.3428L-1.86824 40.065H1.05082V38.065ZM1.88029 35.9227L0.0166281 35.1969L0.0152073 35.2005L1.88029 35.9227ZM36.487 38.065V40.065H38.487V38.065H36.487ZM36.487 21.485H38.487V20.5967L37.8278 20.0011L36.487 21.485ZM36.4788 21.4777L37.8189 19.9931L37.8186 19.9927L36.4788 21.4777ZM35.636 20.7416L34.342 22.2665L34.342 22.2665L35.636 20.7416ZM32.6531 18.4207L33.812 16.7907L33.812 16.7907L32.6531 18.4207ZM24.25 14.3327L24.6221 12.3676L24.6221 12.3676L24.25 14.3327ZM15.6508 16.4622L16.7695 18.12L16.7695 18.12L15.6508 16.4622ZM8.38465 23.9746L6.75424 22.8162L6.75424 22.8162L8.38465 23.9746ZM3.58275 32.1327L5.37802 33.0142L5.37802 33.0142L3.58275 32.1327ZM2.31146 34.8844L4.14798 35.6764L4.14798 35.6764L2.31146 34.8844ZM1.98697 35.6564L0.134944 34.9014L0.134925 34.9015L1.98697 35.6564ZM1.90594 35.8576L0.0470919 35.1195L0.0457036 35.123L1.90594 35.8576ZM1.88614 35.9077L0.0258989 35.1732L0.023399 35.1796L1.88614 35.9077ZM1.88148 35.9196L0.0187361 35.1915L0.0178276 35.1938L1.88148 35.9196ZM39 20.7901H41V19.9306L40.3765 19.3391L39 20.7901ZM39 40V42H41V40H39ZM-20.1385 40L-21.7145 41.2314L-21.114 42H-20.1385V40ZM-20.5061 39.5296L-22.0838 40.7588L-22.0829 40.7599L-20.5061 39.5296ZM-20.5089 39.526L-22.088 40.7533L-22.0866 40.7551L-20.5089 39.526ZM-20.5191 39.5129L-22.1016 40.7358L-22.0982 40.7402L-20.5191 39.5129ZM-20.5574 39.4634L-22.1418 40.6838L-22.1399 40.6863L-20.5574 39.4634ZM-20.7016 39.2746L-19.1081 38.0659L-19.1081 38.0659L-20.7016 39.2746ZM-21.2312 38.5633L-22.8444 39.7455L-22.8444 39.7455L-21.2312 38.5633ZM-23.0197 36.0084L-21.3581 34.8952L-21.3581 34.8952L-23.0197 36.0084ZM-27.6297 27.975L-29.4432 28.8184L-29.4432 28.8184L-27.6297 27.975ZM-29.9937 18.9883L-31.9924 18.9171L-29.9937 18.9883ZM-24.9347 12.4992L-25.542 10.5936L-25.542 10.5936L-24.9347 12.4992ZM-14.3633 14.4193L-13.2822 12.7367L-13.2822 12.7367L-14.3633 14.4193ZM-6.04573 22.5063L-4.46376 21.2826L-4.46376 21.2826L-6.04573 22.5063ZM-0.312662 31.2123L1.42673 30.2252L1.42673 30.2252L-0.312662 31.2123ZM0.577219 32.821L-1.1835 33.7696L0.712188 37.2882L2.392 33.6615L0.577219 32.821ZM1.2321 31.4484L3.02737 32.3299L3.02737 32.3299L1.2321 31.4484ZM6.17996 23.0459L7.81037 24.2042L7.81037 24.2042L6.17996 23.0459ZM13.9944 15.0069L15.1132 16.6648L15.1132 16.6648L13.9944 15.0069ZM24.8501 12.4536L24.478 14.4187L24.478 14.4187L24.8501 12.4536ZM34.358 16.9991L33.199 18.629L33.199 18.629L34.358 16.9991ZM37.4971 19.4412L38.7911 17.9163L38.7911 17.9163L37.4971 19.4412ZM38.3904 20.2215L37.0506 21.7064L37.0506 21.7064L38.3904 20.2215ZM38.6307 20.441L39.9938 18.9775L39.9898 18.9738L38.6307 20.441ZM38.6946 20.5005L40.0645 19.0433L40.0577 19.037L38.6946 20.5005ZM38.7118 20.5167L40.085 19.0627L40.0817 19.0596L38.7118 20.5167ZM38.7167 20.5213L40.0919 19.0691L40.0899 19.0673L38.7167 20.5213ZM-23.3662 16.1927C-21.5824 15.6241 -19.5486 15.985 -17.0546 17.5876L-14.8923 14.2224C-17.9746 12.2418 -21.2629 11.3241 -24.5809 12.3816L-23.3662 16.1927ZM-25.4829 19.1125C-25.4504 18.2011 -25.2395 17.6151 -24.9581 17.2213C-24.6866 16.8413 -24.2263 16.4668 -23.3662 16.1927L-24.5809 12.3816C-26.0928 12.8634 -27.3443 13.6805 -28.2127 14.8958C-29.0712 16.0973 -29.4283 17.5105 -29.4803 18.9701L-25.4829 19.1125ZM-23.4503 26.4793C-24.7792 23.6218 -25.5511 21.027 -25.4829 19.1125L-29.4803 18.9701C-29.5832 21.8589 -28.4739 25.1629 -27.0773 28.166L-23.4503 26.4793ZM-19.1247 34.0081C-20.4905 31.9694 -22.157 29.2601 -23.4503 26.4793L-27.0773 28.166C-25.6632 31.2067 -23.8736 34.1063 -22.4479 36.2344L-19.1247 34.0081ZM-17.4293 36.4302C-17.8517 35.8539 -18.4462 35.0209 -19.1247 34.0081L-22.4479 36.2344C-21.7332 37.3014 -21.1055 38.1808 -20.6558 38.7946L-17.4293 36.4302ZM-17.1062 36.8668C-17.1976 36.7447 -17.306 36.5985 -17.4293 36.4302L-20.6558 38.7946C-20.5243 38.974 -20.4079 39.1309 -20.3089 39.2631L-17.1062 36.8668ZM0.481939 36.065H-18.7076V40.065H0.481939V36.065ZM-2.31291 36.8314L-1.32638 38.9194L2.29025 37.2106L1.30372 35.1226L-2.31291 36.8314ZM-2.31345 36.8302L-2.3118 36.8337L1.30261 35.1202L1.30096 35.1168L-2.31345 36.8302ZM-2.31824 36.8202L-2.31211 36.8331L1.29962 35.1139L1.29348 35.101L-2.31824 36.8202ZM-2.34146 36.7718L-2.31583 36.8252L1.29107 35.096L1.26544 35.0425L-2.34146 36.7718ZM-2.43696 36.5756C-2.39327 36.6646 -2.36083 36.7315 -2.34 36.7748L1.26398 35.0395C1.23883 34.9873 1.20186 34.911 1.15342 34.8123L-2.43696 36.5756ZM-2.83115 35.7915C-2.65677 36.1316 -2.52439 36.3976 -2.43698 36.5756L1.15343 34.8124C1.05658 34.6151 0.913915 34.3287 0.72841 33.9668L-2.83115 35.7915ZM-4.35481 32.9744C-3.69594 34.1353 -3.18013 35.1107 -2.83115 35.7915L0.728412 33.9668C0.357481 33.2432 -0.185241 32.2172 -0.876024 31L-4.35481 32.9744ZM-9.78679 24.7201C-7.55289 27.6082 -5.67803 30.6429 -4.35481 32.9744L-0.876023 31C-2.25589 28.5687 -4.23469 25.3602 -6.62284 22.2728L-9.78679 24.7201ZM-17.0546 17.5876C-14.5418 19.2022 -12.0475 21.7975 -9.78679 24.7201L-6.62284 22.2728C-9.00739 19.19 -11.8284 16.1911 -14.8923 14.2224L-17.0546 17.5876ZM2.9159 38.7871L3.74536 36.6448L0.0152073 35.2005L-0.814256 37.3428L2.9159 38.7871ZM36.487 36.065H1.05082V40.065H36.487V36.065ZM34.487 21.485V38.065H38.487V21.485H34.487ZM35.1386 22.9622C35.1426 22.9658 35.1438 22.9669 35.1461 22.969L37.8278 20.0011C37.8247 19.9983 37.8205 19.9945 37.8189 19.9931L35.1386 22.9622ZM34.342 22.2665C34.6882 22.5603 34.9587 22.7999 35.139 22.9626L37.8186 19.9927C37.6114 19.8058 37.3103 19.5393 36.93 19.2166L34.342 22.2665ZM31.4941 20.0507C32.6595 20.8793 33.6471 21.6768 34.342 22.2665L36.93 19.2166C36.17 18.5717 35.0912 17.7002 33.812 16.7907L31.4941 20.0507ZM23.8779 16.2978C26.2502 16.747 29.0572 18.318 31.4941 20.0507L33.812 16.7907C31.2623 14.9778 27.8741 12.9834 24.6221 12.3676L23.8779 16.2978ZM16.7695 18.12C19.1947 16.4834 21.525 15.8522 23.8779 16.2978L24.6221 12.3676C20.959 11.674 17.5691 12.7549 14.532 14.8044L16.7695 18.12ZM10.0151 25.1329C12.0112 22.3233 14.3042 19.7837 16.7695 18.12L14.532 14.8044C11.5115 16.8427 8.89256 19.8065 6.75424 22.8162L10.0151 25.1329ZM5.37802 33.0142C6.46379 30.8029 8.03875 27.9147 10.0151 25.1329L6.75424 22.8162C4.61403 25.8287 2.93258 28.9191 1.78747 31.2513L5.37802 33.0142ZM4.14798 35.6764C4.42418 35.0359 4.83762 34.1148 5.37802 33.0142L1.78748 31.2513C1.21414 32.4189 0.773342 33.4005 0.474934 34.0925L4.14798 35.6764ZM3.83899 36.4114C3.90657 36.2456 4.00999 35.9964 4.14798 35.6764L0.474936 34.0925C0.325691 34.4386 0.211947 34.7125 0.134944 34.9014L3.83899 36.4114ZM3.76478 36.5956C3.78041 36.5562 3.80521 36.4943 3.83901 36.4114L0.134925 34.9015C0.0964417 34.9959 0.0671113 35.0691 0.0470952 35.1195L3.76478 36.5956ZM3.74638 36.6422L3.76617 36.5921L0.0457036 35.123L0.0259099 35.1732L3.74638 36.6422ZM3.74423 36.6478L3.74889 36.6358L0.023399 35.1796L0.0187376 35.1915L3.74423 36.6478ZM3.74394 36.6485L3.74514 36.6454L0.0178276 35.1938L0.0166317 35.1969L3.74394 36.6485ZM37.6591 18.8276L36.6835 19.4373L38.8035 22.8293L39.7791 22.2196L37.6591 18.8276ZM40.3765 19.3391L40.0956 19.0726L37.3426 21.9745L37.6235 22.241L40.3765 19.3391ZM-22.0808 40.7626L-21.7145 41.2314L-18.5626 38.7686L-18.9288 38.2999L-22.0808 40.7626ZM-20.2688 37.2177L-21.3455 37.7165L-19.6641 41.346L-18.5874 40.8472L-20.2688 37.2177ZM-22.083 40.7598C-22.0779 40.7663 -21.7766 41.1956 -21.1919 41.4095C-20.7132 41.5847 -20.3074 41.525 -20.1915 41.5066C-20.0415 41.4828 -19.9281 41.4468 -19.8907 41.4347C-19.8408 41.4186 -19.802 41.4039 -19.7831 41.3966C-19.7452 41.3819 -19.716 41.3692 -19.7086 41.366C-19.697 41.361 -19.6878 41.3569 -19.6834 41.3549C-19.6695 41.3486 -19.6547 41.3418 -19.649 41.3392C-19.6306 41.3307 -19.5951 41.3142 -19.5288 41.2835C-19.3944 41.2212 -19.1255 41.0965 -18.5874 40.8472L-20.2688 37.2177C-20.8074 37.4673 -21.0767 37.5921 -21.2114 37.6546C-21.2796 37.6862 -21.3115 37.701 -21.3267 37.708C-21.3379 37.7132 -21.3315 37.7102 -21.3218 37.7059C-21.3185 37.7044 -21.3101 37.7006 -21.2991 37.6958C-21.2923 37.6929 -21.2635 37.6804 -21.2259 37.6658C-21.2071 37.6586 -21.1685 37.6439 -21.1186 37.6278C-21.0813 37.6158 -20.968 37.5797 -20.818 37.556C-20.7021 37.5376 -20.2964 37.4779 -19.8176 37.653C-19.233 37.8669 -18.9317 38.2962 -18.9266 38.3027L-22.083 40.7598ZM-22.0829 40.7599L-22.0816 40.7616L-18.928 38.301L-18.9293 38.2993L-22.0829 40.7599ZM-22.0866 40.7551L-22.0838 40.7588L-18.9283 38.3005L-18.9312 38.2969L-22.0866 40.7551ZM-22.0982 40.7402L-22.088 40.7533L-18.9297 38.2987L-18.94 38.2855L-22.0982 40.7402ZM-22.1399 40.6863L-22.1016 40.7358L-18.9366 38.2899L-18.9748 38.2404L-22.1399 40.6863ZM-22.295 40.4833C-22.2295 40.5696 -22.178 40.6369 -22.1418 40.6838L-18.9729 38.2429C-19.0033 38.2035 -19.0488 38.1441 -19.1081 38.0659L-22.295 40.4833ZM-22.8444 39.7455C-22.6129 40.0614 -22.426 40.3106 -22.295 40.4833L-19.1081 38.0659C-19.2268 37.9095 -19.4005 37.678 -19.618 37.3811L-22.8444 39.7455ZM-24.6813 37.1215C-23.95 38.2132 -23.3071 39.1141 -22.8444 39.7455L-19.618 37.3811C-20.0532 36.7872 -20.6631 35.9328 -21.3581 34.8952L-24.6813 37.1215ZM-29.4432 28.8184C-27.9781 31.9687 -26.1353 34.9512 -24.6813 37.1215L-21.3581 34.8952C-22.7522 32.8144 -24.472 30.0221 -25.8162 27.1316L-29.4432 28.8184ZM-31.9924 18.9171C-32.1082 22.1686 -30.8729 25.7442 -29.4432 28.8184L-25.8162 27.1316C-27.1777 24.2042 -28.0761 21.3375 -27.995 19.0595L-31.9924 18.9171ZM-25.542 10.5936C-27.7111 11.2849 -29.3383 12.4415 -30.423 13.9751C-31.497 15.4934 -31.9323 17.2295 -31.9924 18.9171L-27.995 19.0595C-27.9555 17.9517 -27.6791 17.0226 -27.1574 16.2849C-26.6464 15.5625 -25.7939 14.8721 -24.3274 14.4047L-25.542 10.5936ZM-13.2822 12.7367C-16.6836 10.5511 -20.9683 9.13592 -25.542 10.5936L-24.3274 14.4047C-21.2997 13.4398 -18.2723 14.2848 -15.4444 16.1019L-13.2822 12.7367ZM-4.46376 21.2826C-6.89795 18.1357 -9.89226 14.9149 -13.2822 12.7367L-15.4444 16.1019C-12.6053 17.9262 -9.93763 20.7436 -7.6277 23.73L-4.46376 21.2826ZM1.42673 30.2252C0.0228832 27.7516 -2.00298 24.4639 -4.46376 21.2826L-7.6277 23.73C-5.32117 26.7119 -3.39923 29.8258 -2.05205 32.1995L1.42673 30.2252ZM2.33794 31.8724C2.07096 31.3768 1.76634 30.8235 1.42673 30.2252L-2.05206 32.1995C-1.72799 32.7705 -1.43758 33.298 -1.1835 33.7696L2.33794 31.8724ZM-0.56317 30.5669C-0.812636 31.075 -1.03768 31.5488 -1.23756 31.9804L2.392 33.6615C2.57999 33.2557 2.79204 32.8092 3.02737 32.3299L-0.56317 30.5669ZM4.54954 21.8875C2.33434 25.0055 0.60624 28.1853 -0.563173 30.567L3.02737 32.3299C4.13743 30.0691 5.75904 27.0915 7.81037 24.2042L4.54954 21.8875ZM12.8757 13.3491C9.53202 15.6055 6.7451 18.7972 4.54954 21.8875L7.81037 24.2042C9.86343 21.3145 12.3245 18.5466 15.1132 16.6648L12.8757 13.3491ZM25.2222 10.4885C20.4643 9.5876 16.2561 11.0679 12.8757 13.3491L15.1132 16.6648C17.8885 14.7919 21.0364 13.767 24.478 14.4187L25.2222 10.4885ZM35.5169 15.3691C32.9284 13.5286 29.1391 11.2302 25.2222 10.4885L24.478 14.4187C27.5168 14.9941 30.7257 16.8705 33.199 18.629L35.5169 15.3691ZM38.7911 17.9163C37.9951 17.2408 36.8636 16.3266 35.5169 15.3691L33.199 18.629C34.432 19.5057 35.4722 20.346 36.203 20.9662L38.7911 17.9163ZM39.7302 18.7366C39.5083 18.5364 39.1903 18.2551 38.7911 17.9163L36.203 20.9662C36.5683 21.2761 36.8556 21.5306 37.0506 21.7064L39.7302 18.7366ZM39.9898 18.9738C39.9283 18.9168 39.8411 18.8368 39.7301 18.7366L37.0506 21.7064C37.148 21.7944 37.2223 21.8626 37.2715 21.9082L39.9898 18.9738ZM40.0577 19.037L39.9938 18.9775L37.2675 21.9045L37.3314 21.964L40.0577 19.037ZM40.0817 19.0596L40.0645 19.0433L37.3246 21.9577L37.3419 21.9739L40.0817 19.0596ZM40.0899 19.0673L40.085 19.0627L37.3386 21.9708L37.3435 21.9754L40.0899 19.0673ZM38.8035 22.8293C39.2911 22.5246 39.5349 22.3723 39.6568 22.2961C39.7172 22.2584 39.7488 22.2386 39.765 22.2285C39.771 22.2248 39.7813 22.2183 39.7904 22.2126C39.7932 22.2108 39.799 22.2071 39.8061 22.2024C39.8105 22.1996 39.8289 22.1877 39.8519 22.1719C39.8631 22.1642 39.8876 22.1472 39.918 22.1245C39.9365 22.1106 40.0151 22.052 40.1053 21.9653C40.1502 21.9221 40.2421 21.8303 40.3384 21.6975C40.424 21.5793 40.6106 21.2978 40.6864 20.8836C40.7789 20.3783 40.6694 19.8906 40.4385 19.502C40.3423 19.34 40.243 19.2255 40.1851 19.1631C40.162 19.1387 40.1268 19.1029 40.115 19.0913C40.1032 19.0799 40.0914 19.0687 40.0914 19.0687L37.3468 21.9785C37.3468 21.9785 37.3349 21.9672 37.3232 21.9559C37.3114 21.9443 37.2762 21.9085 37.2531 21.8841C37.1952 21.8217 37.0959 21.7072 36.9997 21.5452C36.7688 21.1566 36.6593 20.6688 36.7518 20.1636C36.8276 19.7494 37.0141 19.4679 37.0998 19.3498C37.1961 19.2169 37.288 19.1251 37.3329 19.082C37.423 18.9953 37.5016 18.9367 37.5201 18.9229C37.5503 18.9002 37.5748 18.8833 37.5858 18.8757C37.6086 18.86 37.6267 18.8483 37.6305 18.8458C37.6371 18.8415 37.6422 18.8383 37.6441 18.8371C37.6494 18.8337 37.6521 18.8321 37.6428 18.8379C37.6286 18.8468 37.5992 18.8652 37.5376 18.9036C37.4155 18.9799 37.1715 19.1323 36.6835 19.4373L38.8035 22.8293ZM41 40V20.7901H37V40H41ZM-20.1385 42H39V38H-20.1385V42ZM40.0943 19.0714L40.0919 19.0691L37.3416 21.9736L37.3439 21.9758L40.0943 19.0714Z" fill="#0A0A0A" mask="url(#path-9-outside-2)"/>
</g>
<path id="Vector" d="M50 34.5C50 34.5 28.0252 20.2659 13 22.5C4.61756 23.7464 -7 30.9211 -7 30.9211V38H50V34.5Z" fill="#0A0A0A"/>
<path id="Vector (Stroke)" d="M-8.05089 29.2194L-8.05089 29.2194L-8.52545 29.5124L-9 29.8055V30.3633V39V40H-8H51H52V39V33.9562V33.4125L51.5437 33.1169L51.0952 32.8265L51.0873 32.8213L51.0869 32.8211L51.0857 32.8203L51.0839 32.8191L51.067 32.8082L51.0648 32.8068L51.0147 32.7747L51.0135 32.7739C50.9679 32.7448 50.9017 32.7027 50.8156 32.6485L50.2839 33.4924L50.8156 32.6485C50.6435 32.5401 50.3922 32.3833 50.0688 32.1858C49.422 31.7908 48.4858 31.2322 47.3172 30.5705C44.9821 29.2482 41.7068 27.5072 37.9473 25.8348C30.5398 22.5397 20.8289 19.3139 12.7059 20.5217C8.18872 21.1934 2.95428 23.4198 -1.02816 25.3842C-3.04659 26.3798 -4.79549 27.3346 -6.04056 28.0409C-6.66366 28.3943 -7.16206 28.6864 -7.50658 28.8912C-7.67888 28.9937 -7.8128 29.0744 -7.90471 29.1301L-7.90629 29.1311L-8.00872 29.1935L-8.00873 29.1935L-8.01141 29.1951L-8.03822 29.2116L-8.03973 29.2125L-8.04983 29.2187L-8.05002 29.2188L-8.05089 29.2194ZM13.2941 24.4782C20.1961 23.452 28.9851 26.226 36.3216 29.4895C39.9339 31.0964 43.0914 32.7743 45.3462 34.0511C46.4724 34.6889 47.3704 35.2249 47.9841 35.5996C47.9894 35.6029 47.9947 35.6061 48 35.6093V36H-5V32.057C-4.73677 31.9032 -4.42371 31.7225 -4.067 31.5201L-4.56039 30.6503L-4.067 31.5201C-2.87183 30.8422 -1.19244 29.9254 0.74133 28.9715C4.66349 27.0369 9.42896 25.0529 13.2941 24.4782Z" fill="#FFEB33" stroke="#0A0A0A" stroke-width="2"/>
</g>
</g>
</svg>
