<svg width="1305" height="953" viewBox="0 0 1305 953" fill="none" xmlns="http://www.w3.org/2000/svg" preserve-aspect-ratio="none">
<mask id="mountains-mask" mask-type="alpha" maskUnits="userSpaceOnUse" x="0" y="0" width="1305" height="953">
<rect width="1305" height="953" fill="#C4C4C4"/>
</mask>
<g mask="url(#mountains-mask)">
<rect width="1305" height="835.138" fill="white"/>
<path d="M108.5 55.5636C34.2884 32.4039 -11.5 310.651 -11.5 310.651L-18 2312.62H1362.5V335.907C1362.5 335.907 1249.02 137.776 1164.5 149.853C1092.78 160.102 1076.45 356.299 1005.5 335.907C929.582 314.089 959.154 110.297 885.5 72.4011C796.205 26.4577 761.643 314.353 674 260.139C618.975 226.101 631.923 64.2899 573.5 72.4011C507.84 81.5171 562.415 267.607 510.5 335.907C417.53 458.22 319.362 -30.1691 238.5 114.495C212.822 160.434 230.815 232.972 197 260.139C144.02 302.702 166.218 73.5762 108.5 55.5636Z" fill="#EFF2F4"/>
<path d="M53 399.048C19.2456 387.499 -17.5 309.809 -17.5 309.809V2334.51H1371.5V432.723C1371.5 432.723 1317.61 19.5191 1210.5 50.5124C1146.34 69.076 1152.58 237.374 1087.5 239.934C1035.8 241.967 1024.12 141.051 973 127.965C897.478 108.633 857.767 334.745 794.5 262.664C748.625 210.399 788 185.212 728 116.178C668 47.1449 733.099 267.589 672 293.814C622.176 315.199 624.333 224.78 588 185.212C551.667 145.644 522.7 271.087 475.5 262.664C406.755 250.398 430.027 41.6962 361 35.3587C292.04 29.0273 299.758 266.341 232.5 239.934C203.226 228.44 198.377 177.41 169 166.691C100.194 141.585 121.993 422.653 53 399.048Z" fill="#E2E6E9"/>
<path d="M5.00037 306.442C-27.523 301.366 -17.9998 500.683 -17.9998 500.683V2308.42L1321 2280.63V209.614C1321 209.614 1286.11 371.366 1232.24 406.464C1148.03 461.333 1129.09 165.613 1040.01 191.948C951.398 218.147 993.897 510.595 904.084 500.683C843.341 493.98 840.427 308.853 782.357 339.165C736.473 363.116 762.539 483.399 717.943 513.302C665.564 548.424 627.998 363.575 584.043 422.448C567.234 444.962 570.271 475.116 555.133 500.683C490.455 609.915 532.274 154.299 439.999 158.298C370.933 161.292 378.433 380.812 310.664 358.514C265.73 343.729 269.598 247.04 225.962 223.915C147.407 182.284 125.449 484.619 51.9934 422.448C35.2958 408.316 23.6638 309.354 5.00037 306.442Z" fill="#D8DCDE"/>
<path d="M159 416.727C79.2479 434.468 -34 295.497 -34 295.497L-11.5 2305.05H1373V581.734C1373 581.734 1284.77 467.827 1221 416.727C1151.52 361.053 1109.91 321.28 1033 317.386C925.476 311.942 871.999 558.177 775 479.867C699.414 418.845 724 114.495 667 167.533C610 220.571 515.327 413.701 428.5 430.197C367.938 441.703 355.434 297.562 294.5 295.497C234.59 293.467 218.406 403.512 159 416.727Z" fill="#CED2D4"/>
<path d="M36 239.934C-35.0029 304.737 -3.5 581.734 -3.5 581.734L-23.5 2305.89H1388.5V498.389C1388.5 498.389 1354.4 209.868 1278.5 225.622C1217.68 238.246 1244.27 436.872 1183 435.248C1136.2 434.008 1136.3 307.836 1089.5 308.967C1018.56 310.681 1103.85 539.862 1044.5 605.307C959.288 699.271 949.297 258.206 852 308.967C795.102 338.652 805.408 466.164 749 498.389C669.771 543.65 629.41 295.364 553 352.745C491.596 398.856 531.368 565.177 468.5 605.307C372.055 666.868 429.962 176.676 331 225.622C273.79 253.917 289.612 389.504 233.5 423.462C150.597 473.634 113.449 169.247 36 239.934Z" fill="#C1C4C7"/>
<path d="M144 252.562C50.9085 227.939 -8.5 567.422 -8.5 567.422V2305.05H1314.5V649.084C1314.5 649.084 1194.73 410.976 1090.5 404.099C1017.57 399.287 985.953 519.952 913.5 505.124C822.666 486.534 822.536 217.031 733.5 252.562C644.681 288.006 730.697 606.374 639.5 612.884C552.927 619.063 596.327 355.658 515.5 303.074C413.167 236.499 363.202 574.387 261.5 505.124C192.518 458.144 217.51 272.006 144 252.562Z" fill="#AEB2B5"/>
<path d="M293 413.36C163.404 389.028 -8.5 654.978 -8.5 654.978V2363.14H1376V262.665C1376 262.665 1211.24 695.276 1074.5 619.619C976.405 565.345 1054 241.619 916.5 262.665C779 283.711 670.884 643.17 492.5 585.102C406.589 557.136 379.963 429.687 293 413.36Z" fill="#9A9FA2"/>
</g>
</svg>
