<svg width="128" height="181" viewBox="0 0 128 181" fill="none" xmlns="http://www.w3.org/2000/svg">
<path d="M54.5997 20.9531C54.681 14.2889 56.1889 3.96125 56.1889 3.96125C56.1889 3.96125 55.9776 12.4603 58.6206 16.9742C61.2636 21.4881 67.047 31.0186 67.047 31.0186C67.047 31.0186 68.4691 45.8596 68.9315 53.0288L58.4448 50.4737C58.4448 50.4737 54.4579 32.5782 54.5997 20.9531Z" fill="#55B09A"/>
<path d="M57.0472 30.9659C52.4174 21.3389 42.676 6.39014 42.676 6.39014C42.676 6.39014 43.4473 26.2682 47.0185 36.4133C49.5203 43.5206 49.5765 45.6996 52.9344 52.4446C57.3141 61.2421 63.8161 75.0021 63.8161 75.0021L71.3213 74.0414C71.3213 74.0414 65.0026 47.5079 57.0472 30.9659Z" fill="#2C977C"/>
<path d="M44.5159 36.9004C38.5527 29.869 28.0791 24.814 28.0791 24.814C28.0791 24.814 33.1206 33.5663 36.0029 39.3558C39.6255 46.6325 39.6513 51.805 44.403 58.4001C50.1613 66.3924 63.8188 74.5023 63.8188 74.5023L73.3186 74.5521C73.3186 74.5521 63.4212 61.9299 57.4265 53.9684C52.0878 46.8783 50.2564 43.6693 44.5159 36.9004Z" fill="#51AF93"/>
<path d="M44.3767 63.4C53.3241 73.4471 65.3239 73.5101 65.3239 73.5101L69.3239 73.5311C69.3239 73.5311 56.77 57.5315 48.4423 50.9212C42.3766 46.1065 32.0002 39.8347 32.0002 39.8347C32.0002 39.8347 37.4636 55.6372 44.3767 63.4Z" fill="#38A58A"/>
<path d="M78.1309 15.0764C78.5725 9.54017 80.7044 1.08973 80.7044 1.08973C80.7044 1.08973 75.7301 9.41858 73.131 15.0502C67.7466 26.7164 63.4657 46.4999 63.4657 46.4999L80.0128 37.5866C80.0128 37.5866 77.4294 23.8699 78.1309 15.0764Z" fill="#2C977C"/>
<path d="M85.1334 14.6133C88.8735 11.4042 95.67 7.66853 95.67 7.66853C95.67 7.66853 88.6516 19.631 86.5625 28.121C84.6445 35.9157 84.9549 48.6128 84.9549 48.6128L75.2975 78.5626L63.7977 78.5022L63.9552 48.5026C63.9552 48.5026 68.9449 36.1577 73.5574 29.0527C77.4928 22.9908 79.6483 19.3195 85.1334 14.6133Z" fill="#5DC2A4"/>
<path d="M92.5729 26.1526C94.862 24.8059 99.0833 24.1867 99.0833 24.1867C99.0833 24.1867 94.1349 29.1225 92.5362 33.1525C91.2223 36.4646 91.7932 38.6732 90.989 42.1445C89.5953 48.1599 88.3709 51.4547 85.9103 57.118C82.5999 64.7372 75.3133 75.5626 75.3133 75.5626L70.3134 75.5364C70.3134 75.5364 74.6092 59.4875 78.4498 49.5788C80.7955 43.5266 81.651 40.156 85.0284 34.6131C87.2028 31.0446 88.9712 28.2715 92.5729 26.1526Z" fill="#3DA485"/>
<path d="M83.434 52.6049C78.6649 59.7298 72.3344 71.5468 72.3344 71.5468L75.3107 76.0625C75.3107 76.0625 84.8756 67.7849 89.384 62.1362C93.0886 57.4947 94.847 54.39 96.4548 48.6732C97.9915 43.2091 97.5309 34.1786 97.5309 34.1786C97.5309 34.1786 88.4737 45.0756 83.434 52.6049Z" fill="#34AB8E"/>
<path d="M59.9211 54.9815C60.9304 64.9366 68.295 79.0258 68.295 79.0258L74.8264 73.06C74.8264 73.06 76.0161 60.1899 74.9367 52.0603C73.7575 43.1795 69.9155 38.4831 69.5549 29.5317C69.2524 22.0259 69.5549 9.5 69.5549 9.5C69.5549 9.5 64.684 23.0174 62.5445 31.4949C60.3418 40.2224 59.0132 46.0262 59.9211 54.9815Z" fill="#3A8F79"/>
<g filter="url(#filter0_f)">
<ellipse cx="61" cy="168.5" rx="49" ry="4.5" fill="#4C4C4C" fill-opacity="0.2"/>
</g>
<mask id="mask0" mask-type="alpha" maskUnits="userSpaceOnUse" x="0" y="65" width="128" height="104">
<path d="M29.8568 68.9068L34.2158 65.889C35.052 65.3101 36.0449 65 37.0619 65H79.6134C79.8708 65 80.1277 65.0199 80.382 65.0594L100.328 68.1621C101.712 68.3774 102.942 69.1636 103.719 70.3292L126.377 104.315C127.097 105.396 127.369 106.714 127.134 107.992L123.161 129.623C123.055 130.203 122.846 130.76 122.546 131.267L101.952 166.047C101.052 167.568 99.4165 168.5 97.6498 168.5H26.5232C24.9364 168.5 23.4437 167.747 22.5011 166.47L1.18276 137.602C0.423254 136.573 0.0865976 135.293 0.241992 134.024L2.86651 112.59C2.95445 111.872 3.19724 111.181 3.57811 110.566L28.4515 70.386C28.8133 69.8016 29.2917 69.2981 29.8568 68.9068Z" fill="#C4C4C4"/>
</mask>
<g mask="url(#mask0)">
<path d="M0 136L24 168.5H55L50 130.5L17 111.5L0 136Z" fill="#868686"/>
<path d="M29 69.5L35.5 65L17 111.5L0 136L3 111.5L29 69.5Z" fill="#E3E3E3"/>
<path d="M80 65H35.5L17 111.5L50 130.5L92.5 104L80 65Z" fill="#C4C4C4"/>
<path d="M100.5 168.5L123 130.5L92.5 104L50 130.5L55 168.5H100.5Z" fill="#737373"/>
<path d="M102.5 68.5L80 65L92.5 104L123 130.5L127.5 106L102.5 68.5Z" fill="#A8A8A8"/>
</g>
<defs>
<filter id="filter0_f" x="4" y="156" width="114" height="25" filterUnits="userSpaceOnUse" color-interpolation-filters="sRGB">
<feFlood flood-opacity="0" result="BackgroundImageFix"/>
<feBlend mode="normal" in="SourceGraphic" in2="BackgroundImageFix" result="shape"/>
<feGaussianBlur stdDeviation="4" result="effect1_foregroundBlur"/>
</filter>
</defs>
</svg>
