<svg width="152" height="77" viewBox="0 0 152 77" fill="none" xmlns="http://www.w3.org/2000/svg">
<rect x="2" y="8" width="148" height="61" rx="4" fill="#333"/>
<path d="M5.5 14C5.5 12.6193 6.61929 11.5 8 11.5H144C145.381 11.5 146.5 12.6193 146.5 14V63C146.5 64.3807 145.381 65.5 144 65.5H8C6.61929 65.5 5.5 64.3807 5.5 63V38.5V14Z" stroke="#555"/>
<path d="M110.59 14.6403C112.406 12.9505 114.536 11.6348 116.86 10.7684C119.185 9.90196 121.656 9.5018 124.135 9.59073C126.614 9.67966 129.051 10.2559 131.307 11.2867C133.563 12.3174 135.594 13.7824 137.284 15.598C138.973 17.4136 140.289 19.5442 141.156 21.8683C142.022 24.1924 142.422 26.6644 142.333 29.1431C142.244 31.6218 141.668 34.0587 140.637 36.3148C139.607 38.5708 138.142 40.6017 136.326 42.2915" stroke="#333" stroke-width="2" stroke-linejoin="round"/>
<path d="M119.116 25.0289C119.693 24.4921 120.37 24.0741 121.108 23.7989C121.846 23.5236 122.632 23.3965 123.419 23.4248C124.206 23.453 124.981 23.6361 125.697 23.9635C126.414 24.2909 127.059 24.7563 127.596 25.3331C128.133 25.9099 128.551 26.5867 128.826 27.325C129.101 28.0633 129.228 28.8486 129.2 29.636C129.172 30.4234 128.989 31.1976 128.661 31.9143C128.334 32.6309 127.869 33.2761 127.292 33.8129" stroke="#FF27E9" stroke-width="2"/>
<path d="M116.391 22.1009C117.352 21.2062 118.48 20.5096 119.711 20.0509C120.941 19.5921 122.25 19.3803 123.562 19.4273C124.875 19.4744 126.165 19.7795 127.36 20.3253C128.554 20.871 129.629 21.6466 130.524 22.6079C131.419 23.5692 132.115 24.6973 132.574 25.9278C133.033 27.1583 133.245 28.4671 133.198 29.7795C133.15 31.0918 132.845 32.3821 132.3 33.5765C131.754 34.771 130.978 35.8463 130.017 36.741" stroke="#32FF98" stroke-width="2" stroke-linejoin="round"/>
<path d="M113.666 19.1728C115.012 17.9202 116.591 16.945 118.314 16.3028C120.036 15.6606 121.869 15.364 123.706 15.4299C125.543 15.4958 127.35 15.923 129.022 16.687C130.694 17.451 132.199 18.5369 133.452 19.8827C134.705 21.2285 135.68 22.8078 136.322 24.5305C136.964 26.2532 137.261 28.0855 137.195 29.9228C137.129 31.7602 136.702 33.5665 135.938 35.2387C135.174 36.911 134.088 38.4164 132.742 39.6689" stroke="#1AD9FF" stroke-width="2" stroke-linejoin="round"/>
<path d="M110.941 16.2448C112.671 14.6344 114.701 13.3805 116.916 12.5548C119.131 11.7291 121.487 11.3477 123.849 11.4325C126.212 11.5172 128.534 12.0664 130.684 13.0487C132.834 14.031 134.77 15.4272 136.38 17.1575C137.99 18.8878 139.244 20.9184 140.07 23.1333C140.896 25.3482 141.277 27.704 141.192 30.0663C141.108 32.4285 140.558 34.751 139.576 36.901C138.594 39.051 137.198 40.9865 135.467 42.597" stroke="#FFEB33" stroke-width="2" stroke-linejoin="round"/>
<mask id="mask0" mask-type="alpha" maskUnits="userSpaceOnUse" x="8" y="14" width="136" height="49">
<rect x="8" y="14" width="136" height="49" rx="2" fill="#C4C4C4"/>
</mask>
<g mask="url(#mask0)">
<path d="M145.708 48.3223C145.45 49.2048 144.992 50.0161 144.37 50.6936C143.748 51.371 142.978 51.8963 142.121 52.2291C141.264 52.5618 140.341 52.693 139.425 52.6126C138.509 52.5321 137.624 52.2422 136.837 51.7651C136.051 51.288 135.385 50.6366 134.891 49.8611C134.396 49.0857 134.087 48.2069 133.986 47.2928C133.885 46.3787 133.996 45.4537 134.31 44.5892C134.623 43.7247 135.132 42.9438 135.795 42.307" stroke="#FFEB33" stroke-width="2"/>
<path d="M148.119 52.4028C147.316 53.5414 146.283 54.4994 145.087 55.2153C143.891 55.9312 142.559 56.3893 141.176 56.5602C139.793 56.731 138.389 56.6108 137.055 56.2074C135.721 55.8039 134.486 55.126 133.429 54.2173C132.373 53.3085 131.518 52.1889 130.919 50.9303C130.321 49.6717 129.992 48.3019 129.954 46.9087C129.916 45.5155 130.169 44.1298 130.698 42.8404C131.227 41.551 132.02 40.3863 133.025 39.4212" stroke="#1AD9FF" stroke-width="2" stroke-linejoin="round"/>
<path d="M149.645 56.7357C148.318 58.0088 146.754 59.0082 145.042 59.6769C143.329 60.3455 141.502 60.6703 139.663 60.6327C137.825 60.595 136.013 60.1957 134.329 59.4575C132.645 58.7193 131.123 57.6567 129.85 56.3304C128.577 55.004 127.577 53.4399 126.909 51.7273C126.24 50.0147 125.915 48.1871 125.953 46.349C125.991 44.5109 126.39 42.6982 127.128 41.0144C127.866 39.3306 128.929 37.8087 130.255 36.5355" stroke="#32FF98" stroke-width="2" stroke-linejoin="round"/>
<path d="M152.415 59.6214C150.709 61.2583 148.698 62.5432 146.496 63.4029C144.295 64.2626 141.945 64.6802 139.582 64.6318C137.218 64.5834 134.888 64.07 132.723 63.1209C130.558 62.1718 128.601 60.8056 126.964 59.1003C125.327 57.395 124.042 55.3839 123.183 53.182C122.323 50.9801 121.905 48.6304 121.954 46.2671C122.002 43.9038 122.516 41.5732 123.465 39.4083C124.414 37.2434 125.78 35.2867 127.485 33.6498" stroke="#FF27FF" stroke-width="2" stroke-linejoin="round"/>
<path d="M13.1466 7.3956C13.4288 8.13126 13.5633 8.9153 13.5425 9.70296C13.5217 10.4906 13.346 11.2665 13.0253 11.9862C12.7047 12.7059 12.2454 13.3555 11.6738 13.8977C11.1021 14.44 10.4292 14.8643 9.69356 15.1465C8.9579 15.4287 8.17386 15.5633 7.3862 15.5425C6.59854 15.5217 5.8227 15.3459 5.10296 15.0253C4.38322 14.7047 3.73368 14.2454 3.19143 13.6737C2.64918 13.1021 2.22484 12.4292 1.94263 11.6935" stroke="#FFEB33" stroke-width="2"/>
<path d="M16.8812 5.96296C17.3515 7.18906 17.5758 8.4958 17.5411 9.80856C17.5064 11.1213 17.2135 12.4144 16.6791 13.614C16.1447 14.8135 15.3793 15.8961 14.4265 16.7998C13.4738 17.7036 12.3523 18.4108 11.1262 18.8812C9.9001 19.3515 8.59337 19.5758 7.2806 19.5411C5.96784 19.5064 4.67477 19.2135 3.4752 18.6791C2.27563 18.1447 1.19307 17.3793 0.289322 16.4265C-0.614427 15.4737 -1.32166 14.3523 -1.79201 13.1262" stroke="#1AD9FF" stroke-width="2" stroke-linejoin="round"/>
<path d="M20.6158 4.53032C21.2743 6.24686 21.5882 8.07629 21.5397 9.91416C21.4912 11.752 21.0811 13.5623 20.333 15.2417C19.5848 16.9211 18.5132 18.4367 17.1793 19.702C15.8454 20.9672 14.2754 21.9573 12.5588 22.6158C10.8423 23.2743 9.01287 23.5882 7.17501 23.5397C5.33714 23.4912 3.52683 23.0811 1.84744 22.3329C0.168048 21.5848 -1.34754 20.5132 -2.61279 19.1793C-3.87804 17.8454 -4.86817 16.2754 -5.52665 14.5588" stroke="#32FF98" stroke-width="2" stroke-linejoin="round"/>
<path d="M24.3505 3.09769C25.1971 5.30467 25.6007 7.65679 25.5383 10.0198C25.4759 12.3827 24.9487 14.7103 23.9868 16.8695C23.0249 19.0287 21.6471 20.9773 19.9321 22.6041C18.2171 24.2308 16.1985 25.5038 13.9915 26.3505C11.7845 27.1971 9.43238 27.6007 7.06941 27.5383C4.70644 27.4759 2.3789 26.9487 0.219683 25.9868C-1.93954 25.0249 -3.88815 23.6471 -5.5149 21.9321C-7.14164 20.2171 -8.41467 18.1985 -9.26129 15.9915" stroke="#FF27FF" stroke-width="2" stroke-linejoin="round"/>
<path d="M110.956 16.2305C110.102 17.0311 109.032 17.5643 107.879 17.7644C106.725 17.9646 105.539 17.823 104.465 17.357C103.391 16.8911 102.477 16.1212 101.835 15.1421C101.193 14.1631 100.852 13.0177 100.853 11.847" stroke="#FFEB33" stroke-width="2"/>
<path d="M113.691 19.149C112.268 20.4832 110.485 21.3719 108.563 21.7055C106.64 22.0391 104.662 21.8031 102.873 21.0265C101.083 20.2499 99.5591 18.9667 98.4895 17.335C97.4199 15.7033 96.8509 13.7943 96.8528 11.8432" stroke="#1AD9FF" stroke-width="2" stroke-linejoin="round"/>
<path d="M116.427 22.0675C114.434 23.9354 111.938 25.1796 109.247 25.6466C106.555 26.1137 103.786 25.7833 101.28 24.6961C98.7747 23.6089 96.6416 21.8124 95.1442 19.5279C93.6467 17.2435 92.8502 14.5709 92.8528 11.8394" stroke="#32FF98" stroke-width="2" stroke-linejoin="round"/>
<path d="M119.162 24.986C116.6 27.3876 113.391 28.9872 109.931 29.5877C106.47 30.1882 102.91 29.7634 99.6884 28.3655C96.4666 26.9677 93.7242 24.6579 91.7988 21.7208C89.8735 18.7837 88.8495 15.3475 88.8528 11.8356" stroke="#FF27FF" stroke-width="2" stroke-linejoin="round"/>
</g>
<path d="M19.81 60.24C17.15 60.24 15.02 59.74 13.42 58.74C11.82 57.72 11.02 56.17 11.02 54.09C11.02 52.99 11.21 52.15 11.59 51.57C11.97 50.99 12.53 50.7 13.27 50.7C13.81 50.7 14.25 50.84 14.59 51.12C14.93 51.4 15.1 51.76 15.1 52.2C15.1 52.6 15.07 52.95 15.01 53.25C15.01 53.33 14.99 53.47 14.95 53.67C14.93 53.87 14.92 54.08 14.92 54.3C14.92 55.2 15.37 55.87 16.27 56.31C17.19 56.75 18.47 56.97 20.11 56.97C21.81 56.97 23.14 56.67 24.1 56.07C25.06 55.45 25.54 54.59 25.54 53.49C25.54 52.81 25.32 52.23 24.88 51.75C24.44 51.25 23.89 50.84 23.23 50.52C22.57 50.18 21.64 49.77 20.44 49.29C18.9 48.69 17.64 48.12 16.66 47.58C15.7 47.04 14.87 46.31 14.17 45.39C13.49 44.45 13.15 43.29 13.15 41.91C13.15 40.47 13.53 39.19 14.29 38.07C15.07 36.95 16.18 36.08 17.62 35.46C19.08 34.84 20.79 34.53 22.75 34.53C24.21 34.53 25.55 34.75 26.77 35.19C27.99 35.61 28.96 36.26 29.68 37.14C30.42 38.02 30.79 39.1 30.79 40.38C30.79 41.64 30.6 42.59 30.22 43.23C29.84 43.87 29.28 44.19 28.54 44.19C28.02 44.19 27.58 44.03 27.22 43.71C26.88 43.39 26.71 43.01 26.71 42.57C26.71 42.19 26.74 41.84 26.8 41.52C26.86 40.92 26.89 40.54 26.89 40.38C26.89 39.54 26.48 38.9 25.66 38.46C24.84 38.02 23.82 37.8 22.6 37.8C20.88 37.8 19.56 38.12 18.64 38.76C17.74 39.38 17.29 40.26 17.29 41.4C17.29 42.16 17.52 42.81 17.98 43.35C18.46 43.89 19.05 44.34 19.75 44.7C20.45 45.06 21.43 45.49 22.69 45.99C24.21 46.61 25.43 47.17 26.35 47.67C27.27 48.17 28.05 48.85 28.69 49.71C29.35 50.57 29.68 51.63 29.68 52.89C29.68 55.25 28.78 57.07 26.98 58.35C25.2 59.61 22.81 60.24 19.81 60.24ZM43.6108 53.31C43.8708 53.31 44.0708 53.43 44.2108 53.67C44.3708 53.91 44.4508 54.24 44.4508 54.66C44.4508 55.46 44.2608 56.08 43.8808 56.52C43.0208 57.58 42.0808 58.45 41.0608 59.13C40.0608 59.81 38.9208 60.15 37.6408 60.15C35.8808 60.15 34.5708 59.35 33.7108 57.75C32.8708 56.15 32.4508 54.08 32.4508 51.54C32.4508 49.1 32.7608 46.32 33.3808 43.2C34.0208 40.08 34.9508 37.4 36.1708 35.16C37.4108 32.92 38.8808 31.8 40.5808 31.8C41.5408 31.8 42.2908 32.25 42.8308 33.15C43.3908 34.03 43.6708 35.3 43.6708 36.96C43.6708 39.34 43.0108 42.1 41.6908 45.24C40.3708 48.38 38.5808 51.49 36.3208 54.57C36.4608 55.39 36.6908 55.98 37.0108 56.34C37.3308 56.68 37.7508 56.85 38.2708 56.85C39.0908 56.85 39.8108 56.62 40.4308 56.16C41.0508 55.68 41.8408 54.87 42.8008 53.73C43.0408 53.45 43.3108 53.31 43.6108 53.31ZM39.9208 34.77C39.4608 34.77 38.9408 35.6 38.3608 37.26C37.7808 38.92 37.2708 40.98 36.8308 43.44C36.3908 45.9 36.1508 48.26 36.1108 50.52C37.5308 48.18 38.6608 45.84 39.5008 43.5C40.3408 41.14 40.7608 38.99 40.7608 37.05C40.7608 35.53 40.4808 34.77 39.9208 34.77ZM57.3259 50.79C57.5859 50.79 57.7859 50.92 57.9259 51.18C58.0659 51.44 58.1359 51.77 58.1359 52.17C58.1359 53.13 57.8459 53.7 57.2659 53.88C56.0659 54.3 54.7459 54.54 53.3059 54.6C52.9259 56.28 52.1759 57.63 51.0559 58.65C49.9359 59.65 48.6659 60.15 47.2459 60.15C46.0459 60.15 45.0159 59.86 44.1559 59.28C43.3159 58.7 42.6759 57.93 42.2359 56.97C41.7959 56.01 41.5759 54.97 41.5759 53.85C41.5759 52.33 41.8659 50.98 42.4459 49.8C43.0259 48.6 43.8259 47.67 44.8459 47.01C45.8659 46.33 46.9959 45.99 48.2359 45.99C49.7559 45.99 50.9759 46.52 51.8959 47.58C52.8359 48.62 53.3859 49.91 53.5459 51.45C54.4859 51.39 55.6059 51.19 56.9059 50.85C57.0659 50.81 57.2059 50.79 57.3259 50.79ZM47.4859 56.97C48.1259 56.97 48.6759 56.71 49.1359 56.19C49.6159 55.67 49.9359 54.92 50.0959 53.94C49.4759 53.52 48.9959 52.97 48.6559 52.29C48.3359 51.61 48.1759 50.89 48.1759 50.13C48.1759 49.81 48.2059 49.49 48.2659 49.17H48.1159C47.3159 49.17 46.6459 49.56 46.1059 50.34C45.5859 51.1 45.3259 52.18 45.3259 53.58C45.3259 54.68 45.5359 55.52 45.9559 56.1C46.3959 56.68 46.9059 56.97 47.4859 56.97ZM71.5811 53.31C71.8411 53.31 72.0411 53.43 72.1811 53.67C72.3411 53.91 72.4211 54.24 72.4211 54.66C72.4211 55.46 72.2311 56.08 71.8511 56.52C70.9911 57.58 70.0611 58.45 69.0611 59.13C68.0811 59.81 66.9611 60.15 65.7011 60.15C64.6411 60.15 63.7811 59.77 63.1211 59.01C61.9811 59.75 60.7911 60.13 59.5511 60.15C59.2911 64.01 58.7011 67.23 57.7811 69.81C56.8611 72.41 55.5111 73.71 53.7311 73.71C52.6511 73.71 51.8511 73.32 51.3311 72.54C50.8111 71.76 50.5511 70.68 50.5511 69.3C50.5511 67.34 51.0011 65.05 51.9011 62.43C52.8011 59.83 54.1911 56.96 56.0711 53.82C56.0711 50.9 56.0511 48.87 56.0111 47.73C55.9911 47.15 56.2211 46.69 56.7011 46.35C57.1811 46.01 57.7811 45.84 58.5011 45.84C58.9211 45.84 59.2211 45.93 59.4011 46.11C59.6011 46.27 59.7111 46.6 59.7311 47.1C59.7311 47.6 59.7411 47.97 59.7611 48.21C60.4011 47.41 61.0311 46.84 61.6511 46.5C62.2711 46.14 62.9311 45.96 63.6311 45.96C64.7511 45.96 65.6611 46.41 66.3611 47.31C67.0811 48.21 67.4411 49.39 67.4411 50.85C67.4411 51.91 67.2711 52.94 66.9311 53.94C66.5911 54.94 66.1211 55.85 65.5211 56.67C65.9411 56.79 66.2911 56.85 66.5711 56.85C67.2311 56.85 67.8611 56.61 68.4611 56.13C69.0611 55.65 69.8311 54.85 70.7711 53.73C71.0111 53.45 71.2811 53.31 71.5811 53.31ZM59.7011 57.27C60.4211 57.11 61.0811 56.72 61.6811 56.1C62.3011 55.46 62.7911 54.68 63.1511 53.76C63.5111 52.82 63.6911 51.84 63.6911 50.82C63.6911 50.22 63.5711 49.77 63.3311 49.47C63.0911 49.15 62.7711 48.99 62.3711 48.99C61.6511 48.99 60.7811 49.75 59.7611 51.27C59.7411 52.15 59.7311 53.44 59.7311 55.14C59.7311 56.06 59.7211 56.77 59.7011 57.27ZM53.9711 70.77C54.5111 70.77 54.9611 69.59 55.3211 67.23C55.6811 64.89 55.9111 61.97 56.0111 58.47C55.1511 60.47 54.4711 62.38 53.9711 64.2C53.4711 66.02 53.2211 67.55 53.2211 68.79C53.2211 69.43 53.3011 69.92 53.4611 70.26C53.6011 70.6 53.7711 70.77 53.9711 70.77ZM83.3845 53.31C83.6445 53.31 83.8445 53.43 83.9845 53.67C84.1445 53.91 84.2245 54.24 84.2245 54.66C84.2245 55.46 84.0345 56.08 83.6545 56.52C82.9145 57.42 81.8645 58.25 80.5045 59.01C79.1645 59.77 77.7245 60.15 76.1845 60.15C74.0845 60.15 72.4545 59.58 71.2945 58.44C70.1345 57.3 69.5545 55.74 69.5545 53.76C69.5545 52.38 69.8445 51.1 70.4245 49.92C71.0045 48.72 71.8045 47.77 72.8245 47.07C73.8645 46.37 75.0345 46.02 76.3345 46.02C77.4945 46.02 78.4245 46.37 79.1245 47.07C79.8245 47.75 80.1745 48.68 80.1745 49.86C80.1745 51.24 79.6745 52.43 78.6745 53.43C77.6945 54.41 76.0245 55.19 73.6645 55.77C74.1645 56.69 75.1145 57.15 76.5145 57.15C77.4145 57.15 78.4345 56.84 79.5745 56.22C80.7345 55.58 81.7345 54.75 82.5745 53.73C82.8145 53.45 83.0845 53.31 83.3845 53.31ZM75.8245 48.96C75.0845 48.96 74.4545 49.39 73.9345 50.25C73.4345 51.11 73.1845 52.15 73.1845 53.37V53.43C74.3645 53.15 75.2945 52.73 75.9745 52.17C76.6545 51.61 76.9945 50.96 76.9945 50.22C76.9945 49.84 76.8845 49.54 76.6645 49.32C76.4645 49.08 76.1845 48.96 75.8245 48.96ZM87.3618 60.81C86.3218 60.81 85.5218 60.57 84.9618 60.09C84.4218 59.61 84.1518 59.07 84.1518 58.47C84.1518 57.95 84.3418 57.5 84.7218 57.12C85.1018 56.74 85.6618 56.55 86.4018 56.55C86.6618 56.55 86.9618 56.58 87.3018 56.64C87.6618 56.68 87.9318 56.71 88.1118 56.73C88.0918 56.21 87.9718 55.72 87.7518 55.26C87.5518 54.8 87.2918 54.36 86.9718 53.94C86.6518 53.5 86.3518 53.12 86.0718 52.8C85.4518 53.98 84.8318 54.96 84.2118 55.74C83.6118 56.52 82.9518 57.26 82.2318 57.96C81.8718 58.32 81.4918 58.5 81.0918 58.5C80.7718 58.5 80.5118 58.39 80.3118 58.17C80.1118 57.93 80.0118 57.64 80.0118 57.3C80.0118 56.9 80.1518 56.53 80.4318 56.19L80.8218 55.71C81.9218 54.35 82.7518 53.23 83.3118 52.35C83.6718 51.77 84.0318 51.08 84.3918 50.28C84.7718 49.48 85.2618 48.39 85.8618 47.01C86.2418 46.13 87.0318 45.69 88.2318 45.69C88.7918 45.69 89.1818 45.74 89.4018 45.84C89.6218 45.94 89.7318 46.1 89.7318 46.32C89.7318 46.44 89.6918 46.63 89.6118 46.89C89.5318 47.15 89.4218 47.41 89.2818 47.67C88.9218 48.39 88.7418 49 88.7418 49.5C88.7418 49.8 88.8418 50.13 89.0418 50.49C89.2618 50.85 89.5918 51.3 90.0318 51.84C90.6718 52.68 91.1518 53.4 91.4718 54C91.8118 54.58 91.9818 55.22 91.9818 55.92C91.9818 56.76 91.7818 57.56 91.3818 58.32C91.0018 59.06 90.4618 59.66 89.7618 60.12C89.0618 60.58 88.2618 60.81 87.3618 60.81Z" fill="#606060"/>
<path d="M13.42 58.74L11.8073 61.2697L11.8186 61.2769L11.83 61.284L13.42 58.74ZM11.59 51.57L9.08062 49.9259H9.08062L11.59 51.57ZM14.59 51.12L16.4971 48.8042H16.4971L14.59 51.12ZM15.01 53.25L12.0683 52.6617L12.01 52.9529V53.25H15.01ZM14.95 53.67L12.0083 53.0816L11.9795 53.2255L11.9649 53.3715L14.95 53.67ZM16.27 56.31L14.9524 59.0052L14.964 59.0108L14.9756 59.0164L16.27 56.31ZM24.1 56.07L25.69 58.614L25.7089 58.6022L25.7276 58.5901L24.1 56.07ZM24.88 51.75L22.6279 53.7319L22.648 53.7547L22.6685 53.7772L24.88 51.75ZM23.23 50.52L21.8561 53.1869L21.8885 53.2036L21.9212 53.2194L23.23 50.52ZM20.44 49.29L21.5542 46.5046L21.5417 46.4996L21.5291 46.4947L20.44 49.29ZM16.66 47.58L15.1892 50.1947L15.2007 50.2012L15.2122 50.2075L16.66 47.58ZM14.17 45.39L11.7393 47.1484L11.7606 47.1777L11.7825 47.2066L14.17 45.39ZM14.29 38.07L11.8282 36.3555L11.8178 36.3704L11.8076 36.3855L14.29 38.07ZM17.62 35.46L16.4474 32.6987L16.4405 32.7016L16.4336 32.7045L17.62 35.46ZM26.77 35.19L25.7522 38.0121L25.7728 38.0195L25.7935 38.0266L26.77 35.19ZM29.68 37.14L27.3581 39.0397L27.3709 39.0553L27.3839 39.0708L29.68 37.14ZM27.22 43.71L25.1639 45.8946L25.195 45.9239L25.2269 45.9522L27.22 43.71ZM26.8 41.52L29.7486 42.0729L29.7723 41.9465L29.7851 41.8185L26.8 41.52ZM25.66 38.46L27.0785 35.8165L27.0785 35.8165L25.66 38.46ZM18.64 38.76L20.3419 41.2305L20.3532 41.2227L18.64 38.76ZM17.98 43.35L15.6963 45.2954L15.7168 45.3195L15.7378 45.3431L17.98 43.35ZM19.75 44.7L21.122 42.0321L21.122 42.0321L19.75 44.7ZM22.69 45.99L23.8231 43.2122L23.8098 43.2068L23.7965 43.2015L22.69 45.99ZM26.35 47.67L27.7825 45.0341L26.35 47.67ZM28.69 49.71L26.2833 51.501L26.2966 51.5188L26.3101 51.5365L28.69 49.71ZM26.98 58.35L28.7133 60.7986L28.7186 60.7949L26.98 58.35ZM19.81 57.24C17.4923 57.24 15.9759 56.7997 15.01 56.196L11.83 61.284C14.0641 62.6803 16.8077 63.24 19.81 63.24V57.24ZM15.0327 56.2103C14.3914 55.8015 14.02 55.2626 14.02 54.09H8.02C8.02 57.0774 9.24859 59.6385 11.8073 61.2697L15.0327 56.2103ZM14.02 54.09C14.02 53.7046 14.054 53.4495 14.0886 53.2969C14.1229 53.145 14.147 53.1415 14.0994 53.2141L9.08062 49.9259C8.24358 51.2035 8.02 52.7196 8.02 54.09H14.02ZM14.0994 53.2141C14.0356 53.3115 13.8971 53.4662 13.6746 53.5815C13.46 53.6926 13.2969 53.7 13.27 53.7V47.7C11.5996 47.7 10.058 48.4341 9.08062 49.9259L14.0994 53.2141ZM13.27 53.7C13.2824 53.7 13.2145 53.7017 13.0954 53.6638C12.9692 53.6236 12.8219 53.5503 12.6829 53.4358L16.4971 48.8042C15.5066 47.9885 14.3433 47.7 13.27 47.7V53.7ZM12.6829 53.4358C12.548 53.3247 12.383 53.142 12.2598 52.881C12.1365 52.62 12.1 52.3759 12.1 52.2H18.1C18.1 50.8625 17.5283 49.6534 16.4971 48.8042L12.6829 53.4358ZM12.1 52.2C12.1 52.459 12.0798 52.6039 12.0683 52.6617L17.9517 53.8383C18.0602 53.2961 18.1 52.741 18.1 52.2H12.1ZM12.01 53.25C12.01 53.1987 12.0116 53.1563 12.0132 53.1251C12.0149 53.0935 12.0169 53.0679 12.0186 53.0496C12.0218 53.0143 12.0248 52.9932 12.0252 52.9907C12.0256 52.9877 12.0217 53.0146 12.0083 53.0816L17.8917 54.2584C17.929 54.072 18.01 53.6633 18.01 53.25H12.01ZM11.9649 53.3715C11.9341 53.6795 11.92 53.9895 11.92 54.3H17.92C17.92 54.1705 17.9259 54.0605 17.9351 53.9685L11.9649 53.3715ZM11.92 54.3C11.92 55.2746 12.1723 56.2646 12.7671 57.1502C13.3494 58.0172 14.1416 58.6088 14.9524 59.0052L17.5876 53.6148C17.4984 53.5712 17.6156 53.6078 17.7479 53.8048C17.812 53.9002 17.8593 54.0043 17.8883 54.1053C17.9165 54.2037 17.92 54.2736 17.92 54.3H11.92ZM14.9756 59.0164C16.4724 59.7323 18.2639 59.97 20.11 59.97V53.97C18.6761 53.97 17.9076 53.7677 17.5644 53.6036L14.9756 59.0164ZM20.11 59.97C22.1094 59.97 24.0709 59.6259 25.69 58.614L22.51 53.526C22.2091 53.7141 21.5106 53.97 20.11 53.97V59.97ZM25.7276 58.5901C27.5031 57.4435 28.54 55.6554 28.54 53.49H22.54C22.54 53.546 22.534 53.5649 22.5361 53.5564C22.5386 53.5463 22.546 53.5238 22.5604 53.4979C22.5746 53.4724 22.5853 53.4623 22.5798 53.4679C22.5731 53.4749 22.5426 53.5046 22.4724 53.5499L25.7276 58.5901ZM28.54 53.49C28.54 52.096 28.0628 50.7825 27.0915 49.7228L22.6685 53.7772C22.6444 53.7508 22.6016 53.6923 22.57 53.609C22.5392 53.5278 22.54 53.4785 22.54 53.49H28.54ZM27.1321 49.7681C26.403 48.9395 25.5213 48.2969 24.5388 47.8206L21.9212 53.2194C22.2587 53.3831 22.477 53.5605 22.6279 53.7319L27.1321 49.7681ZM24.6039 47.8531C23.8196 47.4491 22.7882 46.9982 21.5542 46.5046L19.3258 52.0754C20.4918 52.5418 21.3204 52.9109 21.8561 53.1869L24.6039 47.8531ZM21.5291 46.4947C20.0601 45.9223 18.9316 45.4064 18.1078 44.9525L15.2122 50.2075C16.3484 50.8336 17.7399 51.4577 19.3509 52.0853L21.5291 46.4947ZM18.1308 44.9653C17.5452 44.6359 17.0221 44.1841 16.5575 43.5734L11.7825 47.2066C12.7179 48.4359 13.8548 49.4441 15.1892 50.1947L18.1308 44.9653ZM16.6007 43.6316C16.3568 43.2945 16.15 42.7814 16.15 41.91H10.15C10.15 43.7986 10.6232 45.6055 11.7393 47.1484L16.6007 43.6316ZM16.15 41.91C16.15 41.0302 16.3717 40.3451 16.7724 39.7545L11.8076 36.3855C10.6883 38.0349 10.15 39.9098 10.15 41.91H16.15ZM16.7518 39.7845C17.1668 39.1887 17.8022 38.6478 18.8064 38.2155L16.4336 32.7045C14.5578 33.5122 12.9732 34.7113 11.8282 36.3555L16.7518 39.7845ZM18.7926 38.2213C19.8054 37.7913 21.1008 37.53 22.75 37.53V31.53C20.4792 31.53 18.3546 31.8887 16.4474 32.6987L18.7926 38.2213ZM22.75 37.53C23.9062 37.53 24.897 37.7036 25.7522 38.0121L27.7878 32.3679C26.203 31.7964 24.5138 31.53 22.75 31.53V37.53ZM25.7935 38.0266C26.5595 38.2903 27.0366 38.6467 27.3581 39.0397L32.0019 35.2403C30.8834 33.8732 29.4205 32.9297 27.7465 32.3534L25.7935 38.0266ZM27.3839 39.0708C27.6172 39.3482 27.79 39.721 27.79 40.38H33.79C33.79 38.479 33.2228 36.6918 31.9761 35.2092L27.3839 39.0708ZM27.79 40.38C27.79 40.8678 27.7525 41.2155 27.7058 41.4492C27.6583 41.6864 27.6139 41.7431 27.6404 41.6984L32.7996 44.7616C33.5848 43.4391 33.79 41.8493 33.79 40.38H27.79ZM27.6404 41.6984C27.674 41.6418 27.7909 41.4799 28.0266 41.3453C28.2631 41.2101 28.4659 41.19 28.54 41.19V47.19C30.3463 47.19 31.8829 46.3054 32.7996 44.7616L27.6404 41.6984ZM28.54 41.19C28.5912 41.19 28.7023 41.1986 28.8452 41.2506C28.9917 41.3039 29.1181 41.3834 29.2131 41.4678L25.2269 45.9522C26.1817 46.8009 27.3487 47.19 28.54 47.19V41.19ZM29.2761 41.5254C29.3597 41.604 29.4806 41.7467 29.576 41.9599C29.6731 42.1771 29.71 42.3923 29.71 42.57H23.71C23.71 43.8922 24.2628 45.0465 25.1639 45.8946L29.2761 41.5254ZM29.71 42.57C29.71 42.3456 29.7279 42.1833 29.7486 42.0729L23.8514 40.9671C23.7521 41.4967 23.71 42.0344 23.71 42.57H29.71ZM29.7851 41.8185C29.8401 41.2681 29.89 40.722 29.89 40.38H23.89C23.89 40.3397 23.8914 40.3307 23.889 40.3748C23.8869 40.4119 23.8832 40.4685 23.8768 40.5489C23.8641 40.7097 23.8439 40.9318 23.8149 41.2215L29.7851 41.8185ZM29.89 40.38C29.89 39.4488 29.6551 38.5048 29.1086 37.6517C28.5723 36.8146 27.8388 36.2245 27.0785 35.8165L24.2415 41.1035C24.3012 41.1355 24.1827 41.0854 24.0564 40.8883C23.9199 40.6752 23.89 40.4711 23.89 40.38H29.89ZM27.0785 35.8165C25.7077 35.081 24.1662 34.8 22.6 34.8V40.8C23.4738 40.8 23.9723 40.959 24.2415 41.1035L27.0785 35.8165ZM22.6 34.8C20.5734 34.8 18.5529 35.1661 16.9268 36.2973L20.3532 41.2227C20.5671 41.0739 21.1866 40.8 22.6 40.8V34.8ZM16.9381 36.2895C15.1846 37.4975 14.29 39.3237 14.29 41.4H20.29C20.29 41.3125 20.2986 41.264 20.3026 41.2461C20.3062 41.2297 20.3069 41.2345 20.2985 41.2509C20.2948 41.2581 20.2906 41.2652 20.2864 41.2713C20.2844 41.2742 20.2826 41.2765 20.2813 41.2782C20.28 41.2799 20.2792 41.2807 20.2793 41.2806C20.2793 41.2806 20.2802 41.2796 20.2823 41.2775C20.2844 41.2755 20.2877 41.2724 20.2925 41.2682C20.302 41.2599 20.3179 41.2471 20.3419 41.2305L16.9381 36.2895ZM14.29 41.4C14.29 42.818 14.7395 44.1722 15.6963 45.2954L20.2637 41.4046C20.2619 41.4025 20.2665 41.4076 20.2734 41.4195C20.2767 41.4252 20.28 41.4315 20.2831 41.4382C20.2862 41.4449 20.2887 41.4512 20.2907 41.4568C20.2948 41.4685 20.295 41.4728 20.294 41.4664C20.2929 41.4596 20.29 41.4384 20.29 41.4H14.29ZM15.7378 45.3431C16.4849 46.1836 17.3783 46.8538 18.378 47.3679L21.122 42.0321C20.7217 41.8262 20.4351 41.5964 20.2222 41.3569L15.7378 45.3431ZM18.378 47.3679C19.2043 47.7929 20.2875 48.2642 21.5835 48.7785L23.7965 43.2015C22.5725 42.7158 21.6957 42.3271 21.122 42.0321L18.378 47.3679ZM21.5569 48.7678C23.025 49.3666 24.1329 49.8795 24.9175 50.3059L27.7825 45.0341C26.7271 44.4605 25.395 43.8534 23.8231 43.2122L21.5569 48.7678ZM24.9175 50.3059C25.4461 50.5932 25.8966 50.9814 26.2833 51.501L31.0967 47.919C30.2034 46.7186 29.0939 45.7468 27.7825 45.0341L24.9175 50.3059ZM26.3101 51.5365C26.5049 51.7903 26.68 52.1788 26.68 52.89H32.68C32.68 51.0812 32.1951 49.3497 31.0699 47.8835L26.3101 51.5365ZM26.68 52.89C26.68 54.3571 26.1884 55.2317 25.2414 55.9051L28.7186 60.7949C31.3716 58.9083 32.68 56.1429 32.68 52.89H26.68ZM25.2467 55.9014C24.132 56.6904 22.4166 57.24 19.81 57.24V63.24C23.2034 63.24 26.268 62.5296 28.7133 60.7986L25.2467 55.9014ZM44.2108 53.67L41.6194 55.1816L41.6648 55.2593L41.7146 55.3341L44.2108 53.67ZM43.8808 56.52L41.6103 54.5591L41.5802 54.5941L41.5511 54.6299L43.8808 56.52ZM41.0608 59.13L39.3967 56.6339L39.3852 56.6415L39.3739 56.6492L41.0608 59.13ZM33.7108 57.75L31.0546 59.1445L31.0614 59.1574L31.0683 59.1703L33.7108 57.75ZM33.3808 43.2L30.442 42.5972L30.4401 42.6062L30.4383 42.6153L33.3808 43.2ZM36.1708 35.16L33.5461 33.7071L33.5411 33.7161L33.5362 33.7251L36.1708 35.16ZM42.8308 33.15L40.2583 34.6935L40.2786 34.7273L40.2998 34.7606L42.8308 33.15ZM41.6908 45.24L38.9252 44.0774L41.6908 45.24ZM36.3208 54.57L33.9021 52.7952L33.1495 53.8209L33.3636 55.0749L36.3208 54.57ZM37.0108 56.34L34.7686 58.3331L34.7969 58.365L34.8262 58.3961L37.0108 56.34ZM40.4308 56.16L42.2183 58.5693L42.243 58.551L42.2673 58.5322L40.4308 56.16ZM42.8008 53.73L40.523 51.7776L40.5145 51.7876L40.506 51.7976L42.8008 53.73ZM38.3608 37.26L35.5287 36.2705V36.2705L38.3608 37.26ZM36.8308 43.44L33.8776 42.9118L36.8308 43.44ZM36.1108 50.52L33.1113 50.4669L32.9147 61.5694L38.6755 52.0764L36.1108 50.52ZM39.5008 43.5L42.3244 44.5136L42.3271 44.506L39.5008 43.5ZM43.6108 56.31C43.2611 56.31 42.8306 56.2234 42.4123 55.9725C42.0035 55.7272 41.7553 55.4144 41.6194 55.1816L46.8021 52.1584C46.1695 51.0739 45.0242 50.31 43.6108 50.31V56.31ZM41.7146 55.3341C41.5688 55.1153 41.5036 54.9213 41.4752 54.8043C41.4478 54.691 41.4508 54.6344 41.4508 54.66H47.4508C47.4508 53.9041 47.3135 52.9158 46.7069 52.0059L41.7146 55.3341ZM41.4508 54.66C41.4508 54.8288 41.4301 54.8783 41.4399 54.846C41.4455 54.8278 41.4594 54.7885 41.4879 54.7354C41.5169 54.6817 41.5571 54.6208 41.6103 54.5591L46.1513 58.4809C47.1529 57.3211 47.4508 55.9093 47.4508 54.66H41.4508ZM41.5511 54.6299C40.8599 55.4818 40.1389 56.139 39.3967 56.6339L42.7249 61.6262C44.0226 60.761 45.1817 59.6782 46.2105 58.4101L41.5511 54.6299ZM39.3739 56.6492C38.9012 56.9706 38.3562 57.15 37.6408 57.15V63.15C39.4853 63.15 41.2204 62.6494 42.7477 61.6108L39.3739 56.6492ZM37.6408 57.15C37.23 57.15 37.0202 57.062 36.9018 56.9897C36.7784 56.9143 36.5777 56.7472 36.3533 56.3297L31.0683 59.1703C31.7039 60.3528 32.5882 61.3857 33.7747 62.1103C34.9663 62.838 36.2916 63.15 37.6408 63.15V57.15ZM36.367 56.3555C35.8256 55.3244 35.4508 53.7797 35.4508 51.54H29.4508C29.4508 54.3803 29.9159 56.9756 31.0546 59.1445L36.367 56.3555ZM35.4508 51.54C35.4508 49.345 35.7307 46.7667 36.3232 43.7847L30.4383 42.6153C29.7909 45.8733 29.4508 48.855 29.4508 51.54H35.4508ZM36.3196 43.8028C36.9141 40.9047 37.7576 38.5187 38.8054 36.5949L33.5362 33.7251C32.144 36.2813 31.1275 39.2553 30.442 42.5972L36.3196 43.8028ZM38.7955 36.6129C39.7995 34.7991 40.4655 34.8 40.5808 34.8V28.8C37.2961 28.8 35.022 31.0409 33.5461 33.7071L38.7955 36.6129ZM40.5808 34.8C40.585 34.8 40.5537 34.8003 40.4979 34.7856C40.4404 34.7705 40.3781 34.745 40.3198 34.71C40.1959 34.6356 40.1913 34.5818 40.2583 34.6935L45.4033 31.6065C44.3821 29.9046 42.708 28.8 40.5808 28.8V34.8ZM40.2998 34.7606C40.4221 34.9528 40.6708 35.5628 40.6708 36.96H46.6708C46.6708 35.0372 46.3595 33.1072 45.3618 31.5394L40.2998 34.7606ZM40.6708 36.96C40.6708 38.8078 40.152 41.1591 38.9252 44.0774L44.4563 46.4026C45.8696 43.0409 46.6708 39.8722 46.6708 36.96H40.6708ZM38.9252 44.0774C37.7067 46.976 36.0394 49.8824 33.9021 52.7952L38.7395 56.3448C41.1221 53.0976 43.0349 49.784 44.4564 46.4026L38.9252 44.0774ZM33.3636 55.0749C33.5376 56.0945 33.8934 57.3485 34.7686 58.3331L39.253 54.3469C39.3243 54.4271 39.3652 54.4914 39.3839 54.5238C39.4025 54.5559 39.4035 54.5639 39.3934 54.5379C39.3708 54.4799 39.3238 54.3335 39.278 54.0651L33.3636 55.0749ZM34.8262 58.3961C35.7806 59.4102 37.0276 59.85 38.2708 59.85V53.85C38.3402 53.85 38.4949 53.8622 38.6914 53.9417C38.8949 54.024 39.0681 54.1486 39.1954 54.2839L34.8262 58.3961ZM38.2708 59.85C39.692 59.85 41.0481 59.4375 42.2183 58.5693L38.6432 53.7507C38.5735 53.8025 38.4896 53.85 38.2708 53.85V59.85ZM42.2673 58.5322C43.1439 57.8535 44.0977 56.8474 45.0955 55.6624L40.506 51.7976C39.5839 52.8926 38.9576 53.5065 38.5943 53.7878L42.2673 58.5322ZM45.0785 55.6824C44.9999 55.7742 44.8353 55.9377 44.5642 56.0783C44.2787 56.2263 43.9483 56.31 43.6108 56.31V50.31C42.2377 50.31 41.1906 50.9988 40.523 51.7776L45.0785 55.6824ZM39.9208 31.77C38.8594 31.77 38.0772 32.2539 37.6257 32.6364C37.1779 33.0156 36.8609 33.4528 36.6435 33.7998C36.2062 34.4978 35.8441 35.3677 35.5287 36.2705L41.1929 38.2495C41.3187 37.8895 41.4312 37.6037 41.5287 37.3829C41.6287 37.1566 41.6973 37.0343 41.7281 36.9852C41.7707 36.9172 41.7062 37.0432 41.5034 37.2149C41.2969 37.3898 40.7521 37.77 39.9208 37.77V31.77ZM35.5287 36.2705C34.8794 38.1288 34.335 40.3546 33.8776 42.9118L39.7839 43.9682C40.2065 41.6054 40.6822 39.7112 41.1929 38.2495L35.5287 36.2705ZM33.8776 42.9118C33.4125 45.5125 33.1543 48.0319 33.1113 50.4669L39.1103 50.5731C39.1472 48.4881 39.3691 46.2875 39.7839 43.9682L33.8776 42.9118ZM38.6755 52.0764C40.1894 49.5816 41.4101 47.0606 42.3244 44.5136L36.6772 42.4864C35.9115 44.6194 34.8722 46.7784 33.5461 48.9636L38.6755 52.0764ZM42.3271 44.506C43.2503 41.9123 43.7608 39.4162 43.7608 37.05H37.7608C37.7608 38.5638 37.4313 40.3677 36.6745 42.494L42.3271 44.506ZM43.7608 37.05C43.7608 36.1902 43.6928 35.1904 43.3658 34.3029C43.1956 33.841 42.8865 33.2176 42.301 32.6879C41.6514 32.1001 40.814 31.77 39.9208 31.77V37.77C39.3076 37.77 38.7152 37.5349 38.2755 37.1371C37.9 36.7974 37.7659 36.459 37.7358 36.3771C37.7004 36.2811 37.7131 36.2755 37.7307 36.4182C37.7469 36.5503 37.7608 36.7557 37.7608 37.05H43.7608ZM57.9259 51.18L55.2845 52.6023L55.2845 52.6023L57.9259 51.18ZM57.2659 53.88L56.3767 51.0148L56.3255 51.0307L56.2749 51.0484L57.2659 53.88ZM53.3059 54.6L53.181 51.6026L50.8865 51.6982L50.3799 53.9381L53.3059 54.6ZM51.0559 58.65L53.054 60.8878L53.065 60.878L53.0759 60.868L51.0559 58.65ZM44.1559 59.28L42.4514 61.7487L42.4649 61.758L42.4785 61.7672L44.1559 59.28ZM42.4459 49.8L45.1383 51.1234L45.1427 51.1144L45.147 51.1055L42.4459 49.8ZM44.8459 47.01L46.4757 49.5287L46.4929 49.5175L46.51 49.5062L44.8459 47.01ZM51.8959 47.58L49.6303 49.5464L49.6501 49.5692L49.6703 49.5916L51.8959 47.58ZM53.5459 51.45L50.562 51.76L50.8599 54.6276L53.737 54.4439L53.5459 51.45ZM56.9059 50.85L56.1783 47.9396L56.1626 47.9435L56.1469 47.9476L56.9059 50.85ZM49.1359 56.19L46.9315 54.1552L46.91 54.1785L46.889 54.2023L49.1359 56.19ZM50.0959 53.94L53.0567 54.4234L53.3656 52.5314L51.7785 51.4562L50.0959 53.94ZM48.6559 52.29L45.9415 53.5674L45.9567 53.5997L45.9727 53.6316L48.6559 52.29ZM48.2659 49.17L51.2146 49.7229L51.8807 46.17H48.2659V49.17ZM46.1059 50.34L43.6394 48.6324L43.6347 48.6391L43.63 48.6459L46.1059 50.34ZM45.9559 56.1L43.5261 57.8595L43.5457 57.8866L43.5659 57.9132L45.9559 56.1ZM57.3259 53.79C56.9299 53.79 56.4663 53.6825 56.036 53.4028C55.6251 53.1358 55.397 52.8113 55.2845 52.6023L60.5674 49.7577C59.9906 48.6866 58.8607 47.79 57.3259 47.79V53.79ZM55.2845 52.6023C55.1205 52.2978 55.1359 52.0982 55.1359 52.17H61.1359C61.1359 51.4418 61.0113 50.5822 60.5673 49.7577L55.2845 52.6023ZM55.1359 52.17C55.1359 52.3943 55.0947 52.2518 55.2446 51.9571C55.3288 51.7915 55.4694 51.5879 55.6877 51.3996C55.9088 51.2091 56.1512 51.0848 56.3767 51.0148L58.1551 56.7452C59.2635 56.4012 60.1017 55.642 60.5923 54.6779C61.0322 53.8132 61.1359 52.9057 61.1359 52.17H55.1359ZM56.2749 51.0484C55.3883 51.3587 54.3645 51.5533 53.181 51.6026L53.4308 57.5974C55.1274 57.5267 56.7436 57.2413 58.257 56.7116L56.2749 51.0484ZM50.3799 53.9381C50.1161 55.104 49.6412 55.8808 49.0359 56.432L53.0759 60.868C54.7107 59.3792 55.7357 57.456 56.232 55.2619L50.3799 53.9381ZM49.0579 56.4122C48.4532 56.9521 47.884 57.15 47.2459 57.15V63.15C49.4479 63.15 51.4186 62.3479 53.054 60.8878L49.0579 56.4122ZM47.2459 57.15C46.5473 57.15 46.1235 56.9885 45.8334 56.7928L42.4785 61.7672C43.9084 62.7315 45.5445 63.15 47.2459 63.15V57.15ZM45.8605 56.8113C45.4806 56.549 45.1863 56.2069 44.9631 55.72L39.5087 58.22C40.1656 59.6531 41.1512 60.851 42.4514 61.7487L45.8605 56.8113ZM44.9631 55.72C44.7137 55.1758 44.5759 54.5652 44.5759 53.85H38.5759C38.5759 55.3748 38.8782 56.8442 39.5087 58.22L44.9631 55.72ZM44.5759 53.85C44.5759 52.7173 44.7901 51.8318 45.1383 51.1234L39.7536 48.4766C38.9418 50.1282 38.5759 51.9427 38.5759 53.85H44.5759ZM45.147 51.1055C45.5118 50.3508 45.9614 49.8615 46.4757 49.5287L43.2162 44.4913C41.6905 45.4785 40.5401 46.8492 39.7449 48.4945L45.147 51.1055ZM46.51 49.5062C47.0312 49.1587 47.5809 48.99 48.2359 48.99V42.99C46.4109 42.99 44.7006 43.5013 43.1818 44.5138L46.51 49.5062ZM48.2359 48.99C48.9681 48.99 49.3314 49.202 49.6303 49.5464L54.1616 45.6136C52.6205 43.838 50.5438 42.99 48.2359 42.99V48.99ZM49.6703 49.5916C50.1388 50.1099 50.4606 50.7838 50.562 51.76L56.5299 51.14C56.3113 49.0362 55.5331 47.1301 54.1216 45.5684L49.6703 49.5916ZM53.737 54.4439C54.9308 54.3677 56.2507 54.1223 57.665 53.7524L56.1469 47.9476C54.9612 48.2577 54.0411 48.4123 53.3548 48.4561L53.737 54.4439ZM57.6335 53.7604C57.6295 53.7614 57.6024 53.7681 57.5552 53.7748C57.5087 53.7815 57.4303 53.79 57.3259 53.79V47.79C56.8886 47.79 56.4944 47.8605 56.1783 47.9396L57.6335 53.7604ZM47.4859 59.97C49.0641 59.97 50.4078 59.28 51.3829 58.1777L46.889 54.2023C46.8884 54.2029 46.9045 54.1846 46.9404 54.1569C46.9769 54.1286 47.029 54.0946 47.0963 54.0628C47.243 53.9934 47.3862 53.97 47.4859 53.97V59.97ZM51.3404 58.2248C52.3496 57.1315 52.8387 55.7586 53.0567 54.4234L47.1351 53.4566C47.0331 54.0814 46.8822 54.2085 46.9315 54.1552L51.3404 58.2248ZM51.7785 51.4562C51.5912 51.3294 51.4528 51.1755 51.3392 50.9484L45.9727 53.6316C46.5391 54.7645 47.3606 55.7106 48.4134 56.4238L51.7785 51.4562ZM51.3704 51.0126C51.2406 50.7368 51.1759 50.4535 51.1759 50.13H45.1759C45.1759 51.3265 45.4313 52.4832 45.9415 53.5674L51.3704 51.0126ZM51.1759 50.13C51.1759 49.9987 51.1881 49.8637 51.2146 49.7229L45.3173 48.6171C45.2237 49.1163 45.1759 49.6213 45.1759 50.13H51.1759ZM48.2659 46.17H48.1159V52.17H48.2659V46.17ZM48.1159 46.17C46.1391 46.17 44.6205 47.2152 43.6394 48.6324L48.5725 52.0476C48.647 51.94 48.6431 51.9851 48.5226 52.0552C48.4629 52.09 48.3902 52.1214 48.3096 52.1428C48.2296 52.164 48.1621 52.17 48.1159 52.17V46.17ZM43.63 48.6459C42.6335 50.1025 42.3259 51.8698 42.3259 53.58H48.3259C48.3259 52.4902 48.5384 52.0975 48.5819 52.034L43.63 48.6459ZM42.3259 53.58C42.3259 54.9942 42.5847 56.5595 43.5261 57.8595L48.3858 54.3405C48.442 54.4181 48.4249 54.4316 48.3939 54.3074C48.3618 54.1793 48.3259 53.9473 48.3259 53.58H42.3259ZM43.5659 57.9132C44.4131 59.0299 45.7311 59.97 47.4859 59.97V53.97C47.7221 53.97 47.9598 54.0357 48.1513 54.1446C48.3235 54.2425 48.3779 54.3289 48.346 54.2868L43.5659 57.9132ZM72.1811 53.67L69.5898 55.1816L69.6351 55.2593L69.6849 55.3341L72.1811 53.67ZM71.8511 56.52L69.5806 54.5591L69.5505 54.5941L69.5214 54.6299L71.8511 56.52ZM69.0611 59.13L67.3742 56.6492L67.3625 56.6572L67.3508 56.6652L69.0611 59.13ZM63.1211 59.01L65.3862 57.0429L63.6757 55.0733L61.4877 56.4937L63.1211 59.01ZM59.5511 60.15L59.5027 57.1504L56.7433 57.1949L56.5579 59.9484L59.5511 60.15ZM57.7811 69.81L54.9554 68.8024L54.9529 68.8093L57.7811 69.81ZM51.9011 62.43L49.0661 61.4487L49.0638 61.4554L51.9011 62.43ZM56.0711 53.82L58.645 55.3611L59.0711 54.6494V53.82H56.0711ZM56.0111 47.73L53.0129 47.8334L53.0129 47.8352L56.0111 47.73ZM56.7011 46.35L58.4351 48.7981L56.7011 46.35ZM59.4011 46.11L57.2798 48.2313L57.3973 48.3488L57.527 48.4526L59.4011 46.11ZM59.7311 47.1H62.7311V47.04L62.7287 46.9801L59.7311 47.1ZM59.7611 48.21L56.7715 48.4591L57.3971 55.9673L62.1037 50.0841L59.7611 48.21ZM61.6511 46.5L63.0936 49.1304L63.1258 49.1128L63.1575 49.0944L61.6511 46.5ZM66.3611 47.31L63.993 49.1518L64.0057 49.168L64.0185 49.1841L66.3611 47.31ZM66.9311 53.94L64.0908 52.9743V52.9743L66.9311 53.94ZM65.5211 56.67L63.1 54.8985L60.5583 58.3721L64.6969 59.5546L65.5211 56.67ZM70.7711 53.73L68.4933 51.7776L68.4832 51.7895L68.4732 51.8014L70.7711 53.73ZM59.7011 57.27L56.7035 57.1501L56.5477 61.0439L60.3519 60.1986L59.7011 57.27ZM61.6811 56.1L59.5264 54.0126L59.5253 54.0137L61.6811 56.1ZM63.1511 53.76L65.9448 54.8532L65.9488 54.8431L65.9527 54.8329L63.1511 53.76ZM63.3311 49.47L60.9311 51.27L60.9592 51.3075L60.9885 51.3441L63.3311 49.47ZM59.7611 51.27L57.27 49.5983L56.7818 50.3259L56.7619 51.2018L59.7611 51.27ZM55.3211 67.23L52.356 66.7738L52.3554 66.7776L55.3211 67.23ZM56.0111 58.47L59.0099 58.5557L53.2551 57.2849L56.0111 58.47ZM53.9711 64.2L51.0783 63.4053L53.9711 64.2ZM53.4611 70.26L56.2351 69.1178L56.207 69.0494L56.1755 68.9826L53.4611 70.26ZM71.5811 56.31C71.2314 56.31 70.8009 56.2234 70.3826 55.9725C69.9738 55.7272 69.7256 55.4144 69.5898 55.1816L74.7724 52.1584C74.1398 51.0739 72.9945 50.31 71.5811 50.31V56.31ZM69.6849 55.3341C69.5391 55.1153 69.4739 54.9213 69.4455 54.8043C69.4181 54.691 69.4211 54.6344 69.4211 54.66H75.4211C75.4211 53.9041 75.2838 52.9158 74.6773 52.0059L69.6849 55.3341ZM69.4211 54.66C69.4211 54.8288 69.4004 54.8783 69.4103 54.846C69.4158 54.8278 69.4297 54.7885 69.4583 54.7354C69.4872 54.6817 69.5274 54.6208 69.5806 54.5591L74.1216 58.4809C75.1232 57.3211 75.4211 55.9093 75.4211 54.66H69.4211ZM69.5214 54.6299C68.8224 55.4915 68.1034 56.1533 67.3742 56.6492L70.748 61.6108C72.0188 60.7467 73.1598 59.6685 74.1808 58.4101L69.5214 54.6299ZM67.3508 56.6652C66.9022 56.9765 66.3862 57.15 65.7011 57.15V63.15C67.536 63.15 69.26 62.6435 70.7713 61.5948L67.3508 56.6652ZM65.7011 57.15C65.5354 57.15 65.4758 57.1219 65.4736 57.1209C65.469 57.1189 65.4634 57.1161 65.4536 57.1087C65.4433 57.101 65.4202 57.0821 65.3862 57.0429L60.856 60.9771C62.1193 62.4318 63.8246 63.15 65.7011 63.15V57.15ZM61.4877 56.4937C60.7732 56.9574 60.126 57.1403 59.5027 57.1504L59.5995 63.1496C61.4562 63.1197 63.189 62.5426 64.7545 61.5263L61.4877 56.4937ZM56.5579 59.9484C56.3094 63.6368 55.7534 66.5644 54.9554 68.8024L60.6068 70.8176C61.6488 67.8956 62.2728 64.3832 62.5443 60.3516L56.5579 59.9484ZM54.9529 68.8093C54.5808 69.8609 54.2162 70.3636 53.9977 70.574C53.849 70.7172 53.8008 70.71 53.7311 70.71V76.71C57.4409 76.71 59.5377 73.839 60.6093 70.8107L54.9529 68.8093ZM53.7311 70.71C53.5509 70.71 53.5481 70.6782 53.6357 70.7209C53.678 70.7415 53.7231 70.771 53.7635 70.8068C53.8033 70.8421 53.8232 70.8698 53.8272 70.8759L48.8349 74.2041C50.0031 75.9563 51.8255 76.71 53.7311 76.71V70.71ZM53.8272 70.8759C53.7568 70.7703 53.5511 70.352 53.5511 69.3H47.5511C47.5511 71.008 47.8654 72.7497 48.8349 74.2041L53.8272 70.8759ZM53.5511 69.3C53.5511 67.7777 53.9052 65.83 54.7384 63.4046L49.0638 61.4554C48.097 64.27 47.5511 66.9024 47.5511 69.3H53.5511ZM54.7361 63.4113C55.5506 61.0582 56.8386 58.3781 58.645 55.3611L53.4972 52.2789C51.5436 55.5419 50.0516 58.6018 49.0661 61.4487L54.7361 63.4113ZM59.0711 53.82C59.0711 50.9024 59.0513 48.8238 59.0093 47.6248L53.0129 47.8352C53.0509 48.9162 53.0711 50.8976 53.0711 53.82H59.0711ZM59.0093 47.6266C59.0143 47.7718 58.9883 48.0189 58.8519 48.2916C58.7163 48.5627 58.5393 48.7243 58.4351 48.7981L54.967 43.9019C53.6767 44.8159 52.9575 46.2279 53.0129 47.8334L59.0093 47.6266ZM58.4351 48.7981C58.41 48.8159 58.3856 48.8297 58.3646 48.8396C58.3438 48.8494 58.3308 48.8533 58.3289 48.8539C58.3255 48.8548 58.3759 48.84 58.5011 48.84V42.84C57.3012 42.84 56.0582 43.129 54.967 43.9019L58.4351 48.7981ZM58.5011 48.84C58.5006 48.84 58.4724 48.8401 58.4215 48.8337C58.3709 48.8274 58.287 48.8133 58.1791 48.781C57.9617 48.7158 57.6129 48.5644 57.2798 48.2313L61.5224 43.9887C60.5082 42.9745 59.2256 42.84 58.5011 42.84V48.84ZM57.527 48.4526C57.0406 48.0635 56.8518 47.6191 56.7875 47.4262C56.7236 47.2345 56.7303 47.1397 56.7335 47.2199L62.7287 46.9801C62.7037 46.3545 62.5741 44.8065 61.2752 43.7674L57.527 48.4526ZM56.7311 47.1C56.7311 47.6147 56.7406 48.0884 56.7715 48.4591L62.7507 47.9609C62.7416 47.8516 62.7311 47.5853 62.7311 47.1H56.7311ZM62.1037 50.0841C62.5983 49.4658 62.9395 49.2149 63.0936 49.1304L60.2086 43.8696C59.1227 44.4651 58.2039 45.3542 57.4185 46.3359L62.1037 50.0841ZM63.1575 49.0944C63.3315 48.9933 63.4735 48.96 63.6311 48.96V42.96C62.3887 42.96 61.2107 43.2867 60.1447 43.9056L63.1575 49.0944ZM63.6311 48.96C63.7781 48.96 63.8235 48.9865 63.8238 48.9867C63.8258 48.9876 63.8864 49.0147 63.993 49.1518L68.7292 45.4682C67.4728 43.8528 65.6962 42.96 63.6311 42.96V48.96ZM64.0185 49.1841C64.2101 49.4237 64.4411 49.8861 64.4411 50.85H70.4411C70.4411 48.8939 69.952 46.9963 68.7037 45.4359L64.0185 49.1841ZM64.4411 50.85C64.4411 51.5827 64.3247 52.2864 64.0908 52.9743L69.7714 54.9057C70.2175 53.5936 70.4411 52.2373 70.4411 50.85H64.4411ZM64.0908 52.9743C63.8449 53.6974 63.5131 54.3338 63.1 54.8985L67.9422 58.4415C68.729 57.3662 69.3373 56.1826 69.7714 54.9057L64.0908 52.9743ZM64.6969 59.5546C65.253 59.7135 65.9022 59.85 66.5711 59.85V53.85C66.639 53.85 66.6552 53.8567 66.6055 53.8481C66.5585 53.8401 66.4736 53.8221 66.3453 53.7854L64.6969 59.5546ZM66.5711 59.85C68.0208 59.85 69.2946 59.305 70.3352 58.4726L66.587 53.7874C66.4968 53.8596 66.4572 53.8717 66.4706 53.8665C66.4768 53.8642 66.4911 53.8595 66.5117 53.8556C66.5326 53.8517 66.5531 53.85 66.5711 53.85V59.85ZM70.3352 58.4726C71.1716 57.8035 72.0939 56.8205 73.069 55.6586L68.4732 51.8014C67.5683 52.8795 66.9506 53.4965 66.587 53.7874L70.3352 58.4726ZM73.0489 55.6824C72.9702 55.7742 72.8056 55.9377 72.5345 56.0783C72.249 56.2263 71.9186 56.31 71.5811 56.31V50.31C70.208 50.31 69.1609 50.9988 68.4933 51.7776L73.0489 55.6824ZM60.3519 60.1986C61.7372 59.8907 62.8993 59.1551 63.8369 58.1863L59.5253 54.0137C59.2629 54.2849 59.105 54.3293 59.0503 54.3414L60.3519 60.1986ZM63.8358 58.1874C64.7613 57.2321 65.4556 56.1033 65.9448 54.8532L60.3574 52.6668C60.1265 53.2567 59.8409 53.6879 59.5264 54.0126L63.8358 58.1874ZM65.9527 54.8329C66.4456 53.5458 66.6911 52.2018 66.6911 50.82H60.6911C60.6911 51.4782 60.5766 52.0942 60.3495 52.6871L65.9527 54.8329ZM66.6911 50.82C66.6911 49.8995 66.5201 48.6539 65.6737 47.5959L60.9885 51.3441C60.7999 51.1083 60.7272 50.8987 60.7024 50.8055C60.6791 50.718 60.6911 50.7102 60.6911 50.82H66.6911ZM65.7311 47.67C64.9245 46.5946 63.7154 45.99 62.3711 45.99V51.99C62.1609 51.99 61.873 51.9451 61.5695 51.7933C61.2659 51.6415 61.0572 51.4381 60.9311 51.27L65.7311 47.67ZM62.3711 45.99C60.9575 45.99 59.875 46.7153 59.2049 47.3007C58.4923 47.9232 57.8516 48.7317 57.27 49.5983L62.2522 52.9417C62.4634 52.6269 62.6488 52.3786 62.8076 52.1871C62.9683 51.9932 63.084 51.879 63.1523 51.8193C63.2243 51.7564 63.2065 51.7867 63.0967 51.8392C62.9802 51.8949 62.7277 51.99 62.3711 51.99V45.99ZM56.7619 51.2018C56.7411 52.1167 56.7311 53.434 56.7311 55.14H62.7311C62.7311 53.446 62.7411 52.1833 62.7603 51.3382L56.7619 51.2018ZM56.7311 55.14C56.7311 56.0471 56.7211 56.7102 56.7035 57.1501L62.6987 57.3899C62.7211 56.8298 62.7311 56.0729 62.7311 55.14H56.7311ZM53.9711 73.77C55.3217 73.77 56.2156 73.0036 56.6575 72.477C57.0897 71.9618 57.3511 71.3882 57.5167 70.954C57.8575 70.0602 58.0977 68.9221 58.2868 67.6824L52.3554 66.7776C52.1845 67.8979 52.0196 68.5298 51.9105 68.816C51.8511 68.9718 51.8762 68.8407 52.061 68.6205C52.2553 68.3889 52.8905 67.77 53.9711 67.77V73.77ZM58.2862 67.6862C58.6717 65.1805 58.9078 62.127 59.0099 58.5557L53.0123 58.3843C52.9144 61.813 52.6905 64.5995 52.356 66.7738L58.2862 67.6862ZM53.2551 57.2849C52.3486 59.3929 51.6199 61.4338 51.0783 63.4053L56.8639 64.9947C57.3223 63.3262 57.9536 61.5471 58.7671 59.6551L53.2551 57.2849ZM51.0783 63.4053C50.5401 65.3643 50.2211 67.1805 50.2211 68.79H56.2211C56.2211 67.9195 56.4021 66.6757 56.8639 64.9947L51.0783 63.4053ZM50.2211 68.79C50.2211 69.6028 50.3104 70.6105 50.7466 71.5374L56.1755 68.9826C56.2121 69.0603 56.2304 69.1171 56.238 69.1435C56.2457 69.1702 56.2454 69.1755 56.2419 69.1541C56.2342 69.1069 56.2211 68.9918 56.2211 68.79H50.2211ZM50.6871 71.4022C50.8822 71.8761 51.7578 73.77 53.9711 73.77V67.77C54.8237 67.77 55.4589 68.1652 55.8149 68.5212C56.118 68.8243 56.2261 69.0958 56.2351 69.1178L50.6871 71.4022ZM83.9845 53.67L81.3931 55.1816L81.4384 55.2593L81.4883 55.3341L83.9845 53.67ZM83.6545 56.52L81.384 54.5591L81.3602 54.5866L81.3372 54.6147L83.6545 56.52ZM80.5045 59.01L79.041 56.3912L79.0327 56.3958L79.0244 56.4005L80.5045 59.01ZM71.2945 58.44L73.3972 56.3003L71.2945 58.44ZM70.4245 49.92L73.1168 51.2434L73.1212 51.2344L73.1255 51.2255L70.4245 49.92ZM72.8245 47.07L71.1493 44.5812L71.1381 44.5888L71.1269 44.5965L72.8245 47.07ZM79.1245 47.07L77.0031 49.1913L77.0185 49.2067L77.0341 49.2218L79.1245 47.07ZM78.6745 53.43L76.5531 51.3087L78.6745 53.43ZM73.6645 55.77L72.9485 52.8567L69.1712 53.785L71.0286 57.2025L73.6645 55.77ZM79.5745 56.22L81.0078 58.8555L81.0157 58.8511L81.0237 58.8467L79.5745 56.22ZM82.5745 53.73L80.2967 51.7776L80.2775 51.8001L80.2587 51.8229L82.5745 53.73ZM73.9345 50.25L71.3673 48.6977L71.3539 48.7198L71.3409 48.7421L73.9345 50.25ZM73.1845 53.43H70.1845V57.2252L73.8771 56.3489L73.1845 53.43ZM75.9745 52.17L74.0673 49.8542V49.8542L75.9745 52.17ZM76.6645 49.32L74.3598 51.2405L74.4469 51.3451L74.5431 51.4413L76.6645 49.32ZM83.3845 56.31C83.0348 56.31 82.6042 56.2234 82.186 55.9725C81.7771 55.7272 81.5289 55.4144 81.3931 55.1816L86.5758 52.1584C85.9432 51.0739 84.7979 50.31 83.3845 50.31V56.31ZM81.4883 55.3341C81.3425 55.1153 81.2773 54.9213 81.2489 54.8043C81.2214 54.691 81.2245 54.6344 81.2245 54.66H87.2245C87.2245 53.9041 87.0872 52.9158 86.4806 52.0059L81.4883 55.3341ZM81.2245 54.66C81.2245 54.8288 81.2037 54.8783 81.2136 54.846C81.2192 54.8278 81.2331 54.7885 81.2616 54.7354C81.2905 54.6817 81.3308 54.6208 81.384 54.5591L85.9249 58.4809C86.9265 57.3211 87.2245 55.9093 87.2245 54.66H81.2245ZM81.3372 54.6147C80.9001 55.1463 80.178 55.7558 79.041 56.3912L81.9679 61.6288C83.5509 60.7442 84.9288 59.6937 85.9717 58.4253L81.3372 54.6147ZM79.0244 56.4005C78.1356 56.9046 77.2055 57.15 76.1845 57.15V63.15C78.2434 63.15 80.1934 62.6354 81.9845 61.6195L79.0244 56.4005ZM76.1845 57.15C74.6324 57.15 73.8463 56.7416 73.3972 56.3003L69.1917 60.5797C71.0626 62.4184 73.5365 63.15 76.1845 63.15V57.15ZM73.3972 56.3003C72.932 55.8431 72.5545 55.1222 72.5545 53.76H66.5545C66.5545 56.3578 67.3369 58.7569 69.1917 60.5797L73.3972 56.3003ZM72.5545 53.76C72.5545 52.8155 72.7493 51.9911 73.1168 51.2434L67.7321 48.5966C66.9396 50.2089 66.5545 51.9445 66.5545 53.76H72.5545ZM73.1255 51.2255C73.4965 50.458 73.9655 49.9254 74.522 49.5435L71.1269 44.5965C69.6434 45.6146 68.5124 46.982 67.7234 48.6145L73.1255 51.2255ZM74.4996 49.5588C75.0254 49.2048 75.6079 49.02 76.3344 49.02V43.02C74.461 43.02 72.7035 43.5352 71.1493 44.5812L74.4996 49.5588ZM76.3344 49.02C76.8462 49.02 76.962 49.1502 77.0031 49.1913L81.2458 44.9487C79.8869 43.5898 78.1427 43.02 76.3344 43.02V49.02ZM77.0341 49.2218C77.0614 49.2483 77.0819 49.2748 77.1042 49.3342C77.1307 49.4046 77.1745 49.5648 77.1745 49.86H83.1745C83.1745 48.0511 82.615 46.2783 81.2148 44.9182L77.0341 49.2218ZM77.1745 49.86C77.1745 50.4225 77.0061 50.8557 76.5531 51.3087L80.7958 55.5513C82.3428 54.0043 83.1745 52.0575 83.1745 49.86H77.1745ZM76.5531 51.3087C76.1536 51.7082 75.1256 52.3216 72.9485 52.8567L74.3804 58.6833C76.9233 58.0584 79.2353 57.1118 80.7958 55.5513L76.5531 51.3087ZM71.0286 57.2025C72.2298 59.4128 74.4413 60.15 76.5145 60.15V54.15C76.3263 54.15 76.2003 54.1343 76.1251 54.1196C76.0513 54.1052 76.036 54.0936 76.0594 54.1049C76.0859 54.1177 76.1365 54.1477 76.192 54.2006C76.2478 54.2537 76.2828 54.3053 76.3003 54.3375L71.0286 57.2025ZM76.5145 60.15C78.0878 60.15 79.6097 59.6158 81.0078 58.8555L78.1411 53.5845C77.2592 54.0642 76.7411 54.15 76.5145 54.15V60.15ZM81.0237 58.8467C82.5145 58.0242 83.8088 56.9503 84.8902 55.6371L80.2587 51.8229C79.6601 52.5497 78.9544 53.1358 78.1252 53.5933L81.0237 58.8467ZM84.8522 55.6824C84.7735 55.7742 84.609 55.9377 84.3379 56.0783C84.0523 56.2263 83.722 56.31 83.3845 56.31V50.31C82.0113 50.31 80.9643 50.9988 80.2967 51.7776L84.8522 55.6824ZM75.8245 45.96C73.6722 45.96 72.2125 47.2998 71.3673 48.6977L76.5016 51.8023C76.6067 51.6285 76.6218 51.6691 76.4882 51.7603C76.417 51.8089 76.3161 51.8629 76.1885 51.9029C76.0601 51.9432 75.9347 51.96 75.8245 51.96V45.96ZM71.3409 48.7421C70.5205 50.1532 70.1845 51.7396 70.1845 53.37H76.1845C76.1845 52.5604 76.3484 52.0668 76.528 51.7579L71.3409 48.7421ZM70.1845 53.37V53.43H76.1845V53.37H70.1845ZM73.8771 56.3489C75.3442 56.0008 76.7408 55.4252 77.8816 54.4858L74.0673 49.8542C73.8481 50.0348 73.3847 50.2992 72.4918 50.5111L73.8771 56.3489ZM77.8816 54.4858C79.1075 53.4762 79.9945 52.0299 79.9945 50.22H73.9945C73.9945 50.1731 74.0001 50.1128 74.0166 50.0453C74.0331 49.9778 74.0567 49.9188 74.0812 49.872C74.1305 49.7776 74.1585 49.7791 74.0673 49.8542L77.8816 54.4858ZM79.9945 50.22C79.9945 49.2318 79.6884 48.1013 78.7858 47.1987L74.5431 51.4413C74.3366 51.2348 74.1861 50.9904 74.0953 50.7428C74.0085 50.5059 73.9945 50.3173 73.9945 50.22H79.9945ZM78.9691 47.3995C78.1088 46.367 76.9233 45.96 75.8245 45.96V51.96C75.6709 51.96 75.4176 51.9338 75.1227 51.8074C74.8162 51.6761 74.5548 51.4746 74.3598 51.2405L78.9691 47.3995ZM84.9618 60.09L82.9687 62.3322L82.9889 62.3502L83.0094 62.3678L84.9618 60.09ZM84.7218 57.12L86.8431 59.2413L84.7218 57.12ZM87.3018 56.64L86.7804 59.5943L86.875 59.611L86.9705 59.6217L87.3018 56.64ZM88.1118 56.73L87.7805 59.7117L91.2435 60.0964L91.1096 56.6147L88.1118 56.73ZM87.7518 55.26L85.0006 56.4562L85.0221 56.5057L85.0454 56.5544L87.7518 55.26ZM86.9718 53.94L84.5456 55.7045L84.5652 55.7315L84.5855 55.7581L86.9718 53.94ZM86.0718 52.8L88.3295 50.8245L85.45 47.5336L83.4161 51.4046L86.0718 52.8ZM84.2118 55.74L81.8633 53.8733L81.8485 53.8919L81.8339 53.9109L84.2118 55.74ZM82.2318 57.96L80.1406 55.809L80.1254 55.8237L80.1105 55.8387L82.2318 57.96ZM80.3118 58.17L78.0071 60.0906L78.0485 60.1402L78.092 60.188L80.3118 58.17ZM80.4318 56.19L82.7476 58.0971L82.7539 58.0895L82.7601 58.0818L80.4318 56.19ZM80.8218 55.71L83.1501 57.6018L83.1543 57.5966L80.8218 55.71ZM83.3118 52.35L85.8428 53.9606L85.8518 53.9464L85.8607 53.9321L83.3118 52.35ZM84.3918 50.28L81.682 48.9928L81.6687 49.0207L81.656 49.0489L84.3918 50.28ZM85.8618 47.01L88.613 48.2062L88.616 48.1993L85.8618 47.01ZM89.4018 45.84L90.6432 43.1089L90.6432 43.1089L89.4018 45.84ZM89.6118 46.89L92.4791 47.7723V47.7723L89.6118 46.89ZM89.2818 47.67L86.6404 46.2477L86.6188 46.2877L86.5985 46.3284L89.2818 47.67ZM89.0418 50.49L86.4193 51.9469L86.4495 52.0013L86.482 52.0544L89.0418 50.49ZM90.0318 51.84L92.4181 50.0219L92.3884 49.9829L92.3575 49.945L90.0318 51.84ZM91.4718 54L88.8247 55.4118L88.8532 55.4651L88.8837 55.5172L91.4718 54ZM91.3818 58.32L88.727 56.9228L88.72 56.9361L88.7131 56.9496L91.3818 58.32ZM89.7618 60.12L91.4093 62.6271L89.7618 60.12ZM87.3618 57.81C87.0654 57.81 86.9055 57.775 86.8438 57.7565C86.7918 57.7409 86.8367 57.7459 86.9142 57.8122L83.0094 62.3678C84.2993 63.4734 85.8963 63.81 87.3618 63.81V57.81ZM86.9549 57.8478C86.9153 57.8126 86.9719 57.852 87.0376 57.9834C87.1095 58.1272 87.1518 58.3013 87.1518 58.47H81.1518C81.1518 60.1007 81.9307 61.4096 82.9687 62.3322L86.9549 57.8478ZM87.1518 58.47C87.1518 58.5846 87.1289 58.7417 87.058 58.9094C86.9881 59.0752 86.8993 59.1851 86.8431 59.2413L82.6005 54.9987C81.6789 55.9202 81.1518 57.1251 81.1518 58.47H87.1518ZM86.8431 59.2413C86.676 59.4084 86.5022 59.4956 86.3907 59.5334C86.2935 59.5664 86.2808 59.55 86.4018 59.55V53.55C85.1724 53.55 83.7279 53.8713 82.6005 54.9987L86.8431 59.2413ZM86.4018 59.55C86.441 59.55 86.5604 59.5555 86.7804 59.5943L87.8232 53.6856C87.3632 53.6045 86.8826 53.55 86.4018 53.55V59.55ZM86.9705 59.6217C87.3305 59.6617 87.6005 59.6917 87.7805 59.7117L88.4431 53.7483C88.2631 53.7283 87.9931 53.6983 87.6331 53.6583L86.9705 59.6217ZM91.1096 56.6147C91.0742 55.6945 90.8584 54.8024 90.4582 53.9656L85.0454 56.5544C85.0852 56.6376 85.1094 56.7254 85.114 56.8453L91.1096 56.6147ZM90.503 54.0638C90.2019 53.3713 89.8166 52.7237 89.3581 52.1219L84.5855 55.7581C84.767 55.9963 84.9017 56.2287 85.0006 56.4562L90.503 54.0638ZM89.398 52.1755C89.0388 51.6816 88.6825 51.2279 88.3295 50.8245L83.8141 54.7755C84.0211 55.0121 84.2647 55.3184 84.5456 55.7045L89.398 52.1755ZM83.4161 51.4046C82.8562 52.4701 82.3348 53.2801 81.8633 53.8733L86.5603 57.6067C87.3288 56.6399 88.0474 55.4899 88.7275 54.1954L83.4161 51.4046ZM81.8339 53.9109C81.3234 54.5745 80.7595 55.2072 80.1406 55.809L84.323 60.111C85.1441 59.3128 85.9002 58.4655 86.5897 57.5691L81.8339 53.9109ZM80.1105 55.8387C80.124 55.8252 80.2141 55.7383 80.3925 55.6538C80.5829 55.5636 80.8249 55.5 81.0918 55.5V61.5C82.4895 61.5 83.5916 60.8428 84.3531 60.0813L80.1105 55.8387ZM81.0918 55.5C81.28 55.5 81.5397 55.5336 81.8257 55.6546C82.117 55.7778 82.3553 55.958 82.5316 56.152L78.092 60.188C78.9075 61.0851 79.9989 61.5 81.0918 61.5V55.5ZM82.6165 56.2494C82.7449 56.4036 82.8521 56.5893 82.9229 56.7945C82.9925 56.9963 83.0118 57.173 83.0118 57.3H77.0118C77.0118 58.2753 77.317 59.2624 78.0071 60.0906L82.6165 56.2494ZM83.0118 57.3C83.0118 57.4586 82.9825 57.6261 82.9227 57.7842C82.8642 57.9386 82.7926 58.0424 82.7476 58.0971L78.116 54.2829C77.4414 55.102 77.0118 56.1326 77.0118 57.3H83.0118ZM82.7601 58.0818L83.1501 57.6018L78.4935 53.8182L78.1035 54.2982L82.7601 58.0818ZM83.1543 57.5966C84.2849 56.1988 85.1949 54.9787 85.8428 53.9606L80.7808 50.7394C80.3087 51.4813 79.5587 52.5012 78.4893 53.8234L83.1543 57.5966ZM85.8607 53.9321C86.3071 53.2129 86.7276 52.3999 87.1276 51.5111L81.656 49.0489C81.336 49.7601 81.0365 50.3271 80.7629 50.7679L85.8607 53.9321ZM87.1016 51.5672C87.5024 50.7235 88.0075 49.5989 88.613 48.2062L83.1106 45.8138C82.5161 47.1811 82.0412 48.2365 81.682 48.9928L87.1016 51.5672ZM88.616 48.1993C88.5957 48.2462 88.5511 48.3295 88.4687 48.4224C88.3849 48.5169 88.2894 48.5906 88.199 48.6409C88.0252 48.7377 87.9814 48.69 88.2318 48.69V42.69C87.2822 42.69 86.2433 42.8623 85.2795 43.3991C84.2712 43.9607 83.5428 44.8129 83.1076 45.8207L88.616 48.1993ZM88.2318 48.69C88.3281 48.69 88.4042 48.6922 88.4622 48.6952C88.5211 48.6983 88.5531 48.7019 88.5628 48.7031C88.5743 48.7046 88.546 48.7017 88.4886 48.6876C88.4586 48.6802 88.4157 48.6686 88.3626 48.6509C88.3099 48.6333 88.2409 48.6077 88.1604 48.5711L90.6432 43.1089C89.7773 42.7153 88.7998 42.69 88.2318 42.69V48.69ZM88.1604 48.5711C87.8946 48.4503 87.4983 48.2017 87.1772 47.7346C86.8438 47.2497 86.7318 46.7332 86.7318 46.32H92.7318C92.7318 45.6868 92.5648 44.9803 92.1214 44.3354C91.6903 43.7083 91.129 43.3297 90.6432 43.1089L88.1604 48.5711ZM86.7318 46.32C86.7318 46.19 86.7421 46.092 86.749 46.0392C86.7562 45.9833 86.7636 45.9468 86.7662 45.9345C86.7706 45.9131 86.7674 45.9332 86.7445 46.0077L92.4791 47.7723C92.5644 47.4951 92.7318 46.9289 92.7318 46.32H86.7318ZM86.7445 46.0077C86.7266 46.0657 86.6955 46.1454 86.6404 46.2477L91.9232 49.0923C92.1481 48.6746 92.337 48.2343 92.4791 47.7723L86.7445 46.0077ZM86.5985 46.3284C86.1433 47.2388 85.7418 48.3343 85.7418 49.5H91.7418C91.7418 49.6031 91.7245 49.6169 91.7541 49.5166C91.783 49.4188 91.8444 49.253 91.9651 49.0116L86.5985 46.3284ZM85.7418 49.5C85.7418 50.4647 86.0598 51.2997 86.4193 51.9469L91.6643 49.0331C91.6238 48.9603 91.7418 49.1353 91.7418 49.5H85.7418ZM86.482 52.0544C86.8029 52.5796 87.2279 53.1482 87.7061 53.735L92.3575 49.945C91.9557 49.4518 91.7207 49.1204 91.6016 48.9256L86.482 52.0544ZM87.6455 53.6581C88.2349 54.4318 88.61 55.0092 88.8247 55.4118L94.1189 52.5882C93.6936 51.7908 93.1087 50.9282 92.4181 50.0219L87.6455 53.6581ZM88.8837 55.5172C88.9426 55.6177 88.9818 55.7304 88.9818 55.92H94.9818C94.9818 54.7096 94.681 53.5423 94.0599 52.4828L88.8837 55.5172ZM88.9818 55.92C88.9818 56.2619 88.9056 56.5835 88.727 56.9228L94.0366 59.7172C94.658 58.5364 94.9818 57.2581 94.9818 55.92H88.9818ZM88.7131 56.9496C88.5714 57.2256 88.3846 57.4352 88.1143 57.6129L91.4093 62.6271C92.539 61.8848 93.4322 60.8944 94.0505 59.6904L88.7131 56.9496ZM88.1143 57.6129C87.9404 57.7271 87.7219 57.81 87.3618 57.81V63.81C88.8017 63.81 90.1832 63.4328 91.4093 62.6271L88.1143 57.6129Z" fill="#333"/>
<path d="M19.81 59.24C17.15 59.24 15.02 58.74 13.42 57.74C11.82 56.72 11.02 55.17 11.02 53.09C11.02 51.99 11.21 51.15 11.59 50.57C11.97 49.99 12.53 49.7 13.27 49.7C13.81 49.7 14.25 49.84 14.59 50.12C14.93 50.4 15.1 50.76 15.1 51.2C15.1 51.6 15.07 51.95 15.01 52.25C15.01 52.33 14.99 52.47 14.95 52.67C14.93 52.87 14.92 53.08 14.92 53.3C14.92 54.2 15.37 54.87 16.27 55.31C17.19 55.75 18.47 55.97 20.11 55.97C21.81 55.97 23.14 55.67 24.1 55.07C25.06 54.45 25.54 53.59 25.54 52.49C25.54 51.81 25.32 51.23 24.88 50.75C24.44 50.25 23.89 49.84 23.23 49.52C22.57 49.18 21.64 48.77 20.44 48.29C18.9 47.69 17.64 47.12 16.66 46.58C15.7 46.04 14.87 45.31 14.17 44.39C13.49 43.45 13.15 42.29 13.15 40.91C13.15 39.47 13.53 38.19 14.29 37.07C15.07 35.95 16.18 35.08 17.62 34.46C19.08 33.84 20.79 33.53 22.75 33.53C24.21 33.53 25.55 33.75 26.77 34.19C27.99 34.61 28.96 35.26 29.68 36.14C30.42 37.02 30.79 38.1 30.79 39.38C30.79 40.64 30.6 41.59 30.22 42.23C29.84 42.87 29.28 43.19 28.54 43.19C28.02 43.19 27.58 43.03 27.22 42.71C26.88 42.39 26.71 42.01 26.71 41.57C26.71 41.19 26.74 40.84 26.8 40.52C26.86 39.92 26.89 39.54 26.89 39.38C26.89 38.54 26.48 37.9 25.66 37.46C24.84 37.02 23.82 36.8 22.6 36.8C20.88 36.8 19.56 37.12 18.64 37.76C17.74 38.38 17.29 39.26 17.29 40.4C17.29 41.16 17.52 41.81 17.98 42.35C18.46 42.89 19.05 43.34 19.75 43.7C20.45 44.06 21.43 44.49 22.69 44.99C24.21 45.61 25.43 46.17 26.35 46.67C27.27 47.17 28.05 47.85 28.69 48.71C29.35 49.57 29.68 50.63 29.68 51.89C29.68 54.25 28.78 56.07 26.98 57.35C25.2 58.61 22.81 59.24 19.81 59.24ZM43.6108 52.31C43.8708 52.31 44.0708 52.43 44.2108 52.67C44.3708 52.91 44.4508 53.24 44.4508 53.66C44.4508 54.46 44.2608 55.08 43.8808 55.52C43.0208 56.58 42.0808 57.45 41.0608 58.13C40.0608 58.81 38.9208 59.15 37.6408 59.15C35.8808 59.15 34.5708 58.35 33.7108 56.75C32.8708 55.15 32.4508 53.08 32.4508 50.54C32.4508 48.1 32.7608 45.32 33.3808 42.2C34.0208 39.08 34.9508 36.4 36.1708 34.16C37.4108 31.92 38.8808 30.8 40.5808 30.8C41.5408 30.8 42.2908 31.25 42.8308 32.15C43.3908 33.03 43.6708 34.3 43.6708 35.96C43.6708 38.34 43.0108 41.1 41.6908 44.24C40.3708 47.38 38.5808 50.49 36.3208 53.57C36.4608 54.39 36.6908 54.98 37.0108 55.34C37.3308 55.68 37.7508 55.85 38.2708 55.85C39.0908 55.85 39.8108 55.62 40.4308 55.16C41.0508 54.68 41.8408 53.87 42.8008 52.73C43.0408 52.45 43.3108 52.31 43.6108 52.31ZM39.9208 33.77C39.4608 33.77 38.9408 34.6 38.3608 36.26C37.7808 37.92 37.2708 39.98 36.8308 42.44C36.3908 44.9 36.1508 47.26 36.1108 49.52C37.5308 47.18 38.6608 44.84 39.5008 42.5C40.3408 40.14 40.7608 37.99 40.7608 36.05C40.7608 34.53 40.4808 33.77 39.9208 33.77ZM57.3259 49.79C57.5859 49.79 57.7859 49.92 57.9259 50.18C58.0659 50.44 58.1359 50.77 58.1359 51.17C58.1359 52.13 57.8459 52.7 57.2659 52.88C56.0659 53.3 54.7459 53.54 53.3059 53.6C52.9259 55.28 52.1759 56.63 51.0559 57.65C49.9359 58.65 48.6659 59.15 47.2459 59.15C46.0459 59.15 45.0159 58.86 44.1559 58.28C43.3159 57.7 42.6759 56.93 42.2359 55.97C41.7959 55.01 41.5759 53.97 41.5759 52.85C41.5759 51.33 41.8659 49.98 42.4459 48.8C43.0259 47.6 43.8259 46.67 44.8459 46.01C45.8659 45.33 46.9959 44.99 48.2359 44.99C49.7559 44.99 50.9759 45.52 51.8959 46.58C52.8359 47.62 53.3859 48.91 53.5459 50.45C54.4859 50.39 55.6059 50.19 56.9059 49.85C57.0659 49.81 57.2059 49.79 57.3259 49.79ZM47.4859 55.97C48.1259 55.97 48.6759 55.71 49.1359 55.19C49.6159 54.67 49.9359 53.92 50.0959 52.94C49.4759 52.52 48.9959 51.97 48.6559 51.29C48.3359 50.61 48.1759 49.89 48.1759 49.13C48.1759 48.81 48.2059 48.49 48.2659 48.17H48.1159C47.3159 48.17 46.6459 48.56 46.1059 49.34C45.5859 50.1 45.3259 51.18 45.3259 52.58C45.3259 53.68 45.5359 54.52 45.9559 55.1C46.3959 55.68 46.9059 55.97 47.4859 55.97ZM71.5811 52.31C71.8411 52.31 72.0411 52.43 72.1811 52.67C72.3411 52.91 72.4211 53.24 72.4211 53.66C72.4211 54.46 72.2311 55.08 71.8511 55.52C70.9911 56.58 70.0611 57.45 69.0611 58.13C68.0811 58.81 66.9611 59.15 65.7011 59.15C64.6411 59.15 63.7811 58.77 63.1211 58.01C61.9811 58.75 60.7911 59.13 59.5511 59.15C59.2911 63.01 58.7011 66.23 57.7811 68.81C56.8611 71.41 55.5111 72.71 53.7311 72.71C52.6511 72.71 51.8511 72.32 51.3311 71.54C50.8111 70.76 50.5511 69.68 50.5511 68.3C50.5511 66.34 51.0011 64.05 51.9011 61.43C52.8011 58.83 54.1911 55.96 56.0711 52.82C56.0711 49.9 56.0511 47.87 56.0111 46.73C55.9911 46.15 56.2211 45.69 56.7011 45.35C57.1811 45.01 57.7811 44.84 58.5011 44.84C58.9211 44.84 59.2211 44.93 59.4011 45.11C59.6011 45.27 59.7111 45.6 59.7311 46.1C59.7311 46.6 59.7411 46.97 59.7611 47.21C60.4011 46.41 61.0311 45.84 61.6511 45.5C62.2711 45.14 62.9311 44.96 63.6311 44.96C64.7511 44.96 65.6611 45.41 66.3611 46.31C67.0811 47.21 67.4411 48.39 67.4411 49.85C67.4411 50.91 67.2711 51.94 66.9311 52.94C66.5911 53.94 66.1211 54.85 65.5211 55.67C65.9411 55.79 66.2911 55.85 66.5711 55.85C67.2311 55.85 67.8611 55.61 68.4611 55.13C69.0611 54.65 69.8311 53.85 70.7711 52.73C71.0111 52.45 71.2811 52.31 71.5811 52.31ZM59.7011 56.27C60.4211 56.11 61.0811 55.72 61.6811 55.1C62.3011 54.46 62.7911 53.68 63.1511 52.76C63.5111 51.82 63.6911 50.84 63.6911 49.82C63.6911 49.22 63.5711 48.77 63.3311 48.47C63.0911 48.15 62.7711 47.99 62.3711 47.99C61.6511 47.99 60.7811 48.75 59.7611 50.27C59.7411 51.15 59.7311 52.44 59.7311 54.14C59.7311 55.06 59.7211 55.77 59.7011 56.27ZM53.9711 69.77C54.5111 69.77 54.9611 68.59 55.3211 66.23C55.6811 63.89 55.9111 60.97 56.0111 57.47C55.1511 59.47 54.4711 61.38 53.9711 63.2C53.4711 65.02 53.2211 66.55 53.2211 67.79C53.2211 68.43 53.3011 68.92 53.4611 69.26C53.6011 69.6 53.7711 69.77 53.9711 69.77ZM83.3845 52.31C83.6445 52.31 83.8445 52.43 83.9845 52.67C84.1445 52.91 84.2245 53.24 84.2245 53.66C84.2245 54.46 84.0345 55.08 83.6545 55.52C82.9145 56.42 81.8645 57.25 80.5045 58.01C79.1645 58.77 77.7245 59.15 76.1845 59.15C74.0845 59.15 72.4545 58.58 71.2945 57.44C70.1345 56.3 69.5545 54.74 69.5545 52.76C69.5545 51.38 69.8445 50.1 70.4245 48.92C71.0045 47.72 71.8045 46.77 72.8245 46.07C73.8645 45.37 75.0345 45.02 76.3345 45.02C77.4945 45.02 78.4245 45.37 79.1245 46.07C79.8245 46.75 80.1745 47.68 80.1745 48.86C80.1745 50.24 79.6745 51.43 78.6745 52.43C77.6945 53.41 76.0245 54.19 73.6645 54.77C74.1645 55.69 75.1145 56.15 76.5145 56.15C77.4145 56.15 78.4345 55.84 79.5745 55.22C80.7345 54.58 81.7345 53.75 82.5745 52.73C82.8145 52.45 83.0845 52.31 83.3845 52.31ZM75.8245 47.96C75.0845 47.96 74.4545 48.39 73.9345 49.25C73.4345 50.11 73.1845 51.15 73.1845 52.37V52.43C74.3645 52.15 75.2945 51.73 75.9745 51.17C76.6545 50.61 76.9945 49.96 76.9945 49.22C76.9945 48.84 76.8845 48.54 76.6645 48.32C76.4645 48.08 76.1845 47.96 75.8245 47.96ZM87.3618 59.81C86.3218 59.81 85.5218 59.57 84.9618 59.09C84.4218 58.61 84.1518 58.07 84.1518 57.47C84.1518 56.95 84.3418 56.5 84.7218 56.12C85.1018 55.74 85.6618 55.55 86.4018 55.55C86.6618 55.55 86.9618 55.58 87.3018 55.64C87.6618 55.68 87.9318 55.71 88.1118 55.73C88.0918 55.21 87.9718 54.72 87.7518 54.26C87.5518 53.8 87.2918 53.36 86.9718 52.94C86.6518 52.5 86.3518 52.12 86.0718 51.8C85.4518 52.98 84.8318 53.96 84.2118 54.74C83.6118 55.52 82.9518 56.26 82.2318 56.96C81.8718 57.32 81.4918 57.5 81.0918 57.5C80.7718 57.5 80.5118 57.39 80.3118 57.17C80.1118 56.93 80.0118 56.64 80.0118 56.3C80.0118 55.9 80.1518 55.53 80.4318 55.19L80.8218 54.71C81.9218 53.35 82.7518 52.23 83.3118 51.35C83.6718 50.77 84.0318 50.08 84.3918 49.28C84.7718 48.48 85.2618 47.39 85.8618 46.01C86.2418 45.13 87.0318 44.69 88.2318 44.69C88.7918 44.69 89.1818 44.74 89.4018 44.84C89.6218 44.94 89.7318 45.1 89.7318 45.32C89.7318 45.44 89.6918 45.63 89.6118 45.89C89.5318 46.15 89.4218 46.41 89.2818 46.67C88.9218 47.39 88.7418 48 88.7418 48.5C88.7418 48.8 88.8418 49.13 89.0418 49.49C89.2618 49.85 89.5918 50.3 90.0318 50.84C90.6718 51.68 91.1518 52.4 91.4718 53C91.8118 53.58 91.9818 54.22 91.9818 54.92C91.9818 55.76 91.7818 56.56 91.3818 57.32C91.0018 58.06 90.4618 58.66 89.7618 59.12C89.0618 59.58 88.2618 59.81 87.3618 59.81Z" fill="#606060"/>
<path d="M19.81 58.24C17.15 58.24 15.02 57.74 13.42 56.74C11.82 55.72 11.02 54.17 11.02 52.09C11.02 50.99 11.21 50.15 11.59 49.57C11.97 48.99 12.53 48.7 13.27 48.7C13.81 48.7 14.25 48.84 14.59 49.12C14.93 49.4 15.1 49.76 15.1 50.2C15.1 50.6 15.07 50.95 15.01 51.25C15.01 51.33 14.99 51.47 14.95 51.67C14.93 51.87 14.92 52.08 14.92 52.3C14.92 53.2 15.37 53.87 16.27 54.31C17.19 54.75 18.47 54.97 20.11 54.97C21.81 54.97 23.14 54.67 24.1 54.07C25.06 53.45 25.54 52.59 25.54 51.49C25.54 50.81 25.32 50.23 24.88 49.75C24.44 49.25 23.89 48.84 23.23 48.52C22.57 48.18 21.64 47.77 20.44 47.29C18.9 46.69 17.64 46.12 16.66 45.58C15.7 45.04 14.87 44.31 14.17 43.39C13.49 42.45 13.15 41.29 13.15 39.91C13.15 38.47 13.53 37.19 14.29 36.07C15.07 34.95 16.18 34.08 17.62 33.46C19.08 32.84 20.79 32.53 22.75 32.53C24.21 32.53 25.55 32.75 26.77 33.19C27.99 33.61 28.96 34.26 29.68 35.14C30.42 36.02 30.79 37.1 30.79 38.38C30.79 39.64 30.6 40.59 30.22 41.23C29.84 41.87 29.28 42.19 28.54 42.19C28.02 42.19 27.58 42.03 27.22 41.71C26.88 41.39 26.71 41.01 26.71 40.57C26.71 40.19 26.74 39.84 26.8 39.52C26.86 38.92 26.89 38.54 26.89 38.38C26.89 37.54 26.48 36.9 25.66 36.46C24.84 36.02 23.82 35.8 22.6 35.8C20.88 35.8 19.56 36.12 18.64 36.76C17.74 37.38 17.29 38.26 17.29 39.4C17.29 40.16 17.52 40.81 17.98 41.35C18.46 41.89 19.05 42.34 19.75 42.7C20.45 43.06 21.43 43.49 22.69 43.99C24.21 44.61 25.43 45.17 26.35 45.67C27.27 46.17 28.05 46.85 28.69 47.71C29.35 48.57 29.68 49.63 29.68 50.89C29.68 53.25 28.78 55.07 26.98 56.35C25.2 57.61 22.81 58.24 19.81 58.24ZM43.6108 51.31C43.8708 51.31 44.0708 51.43 44.2108 51.67C44.3708 51.91 44.4508 52.24 44.4508 52.66C44.4508 53.46 44.2608 54.08 43.8808 54.52C43.0208 55.58 42.0808 56.45 41.0608 57.13C40.0608 57.81 38.9208 58.15 37.6408 58.15C35.8808 58.15 34.5708 57.35 33.7108 55.75C32.8708 54.15 32.4508 52.08 32.4508 49.54C32.4508 47.1 32.7608 44.32 33.3808 41.2C34.0208 38.08 34.9508 35.4 36.1708 33.16C37.4108 30.92 38.8808 29.8 40.5808 29.8C41.5408 29.8 42.2908 30.25 42.8308 31.15C43.3908 32.03 43.6708 33.3 43.6708 34.96C43.6708 37.34 43.0108 40.1 41.6908 43.24C40.3708 46.38 38.5808 49.49 36.3208 52.57C36.4608 53.39 36.6908 53.98 37.0108 54.34C37.3308 54.68 37.7508 54.85 38.2708 54.85C39.0908 54.85 39.8108 54.62 40.4308 54.16C41.0508 53.68 41.8408 52.87 42.8008 51.73C43.0408 51.45 43.3108 51.31 43.6108 51.31ZM39.9208 32.77C39.4608 32.77 38.9408 33.6 38.3608 35.26C37.7808 36.92 37.2708 38.98 36.8308 41.44C36.3908 43.9 36.1508 46.26 36.1108 48.52C37.5308 46.18 38.6608 43.84 39.5008 41.5C40.3408 39.14 40.7608 36.99 40.7608 35.05C40.7608 33.53 40.4808 32.77 39.9208 32.77ZM57.3259 48.79C57.5859 48.79 57.7859 48.92 57.9259 49.18C58.0659 49.44 58.1359 49.77 58.1359 50.17C58.1359 51.13 57.8459 51.7 57.2659 51.88C56.0659 52.3 54.7459 52.54 53.3059 52.6C52.9259 54.28 52.1759 55.63 51.0559 56.65C49.9359 57.65 48.6659 58.15 47.2459 58.15C46.0459 58.15 45.0159 57.86 44.1559 57.28C43.3159 56.7 42.6759 55.93 42.2359 54.97C41.7959 54.01 41.5759 52.97 41.5759 51.85C41.5759 50.33 41.8659 48.98 42.4459 47.8C43.0259 46.6 43.8259 45.67 44.8459 45.01C45.8659 44.33 46.9959 43.99 48.2359 43.99C49.7559 43.99 50.9759 44.52 51.8959 45.58C52.8359 46.62 53.3859 47.91 53.5459 49.45C54.4859 49.39 55.6059 49.19 56.9059 48.85C57.0659 48.81 57.2059 48.79 57.3259 48.79ZM47.4859 54.97C48.1259 54.97 48.6759 54.71 49.1359 54.19C49.6159 53.67 49.9359 52.92 50.0959 51.94C49.4759 51.52 48.9959 50.97 48.6559 50.29C48.3359 49.61 48.1759 48.89 48.1759 48.13C48.1759 47.81 48.2059 47.49 48.2659 47.17H48.1159C47.3159 47.17 46.6459 47.56 46.1059 48.34C45.5859 49.1 45.3259 50.18 45.3259 51.58C45.3259 52.68 45.5359 53.52 45.9559 54.1C46.3959 54.68 46.9059 54.97 47.4859 54.97ZM71.5811 51.31C71.8411 51.31 72.0411 51.43 72.1811 51.67C72.3411 51.91 72.4211 52.24 72.4211 52.66C72.4211 53.46 72.2311 54.08 71.8511 54.52C70.9911 55.58 70.0611 56.45 69.0611 57.13C68.0811 57.81 66.9611 58.15 65.7011 58.15C64.6411 58.15 63.7811 57.77 63.1211 57.01C61.9811 57.75 60.7911 58.13 59.5511 58.15C59.2911 62.01 58.7011 65.23 57.7811 67.81C56.8611 70.41 55.5111 71.71 53.7311 71.71C52.6511 71.71 51.8511 71.32 51.3311 70.54C50.8111 69.76 50.5511 68.68 50.5511 67.3C50.5511 65.34 51.0011 63.05 51.9011 60.43C52.8011 57.83 54.1911 54.96 56.0711 51.82C56.0711 48.9 56.0511 46.87 56.0111 45.73C55.9911 45.15 56.2211 44.69 56.7011 44.35C57.1811 44.01 57.7811 43.84 58.5011 43.84C58.9211 43.84 59.2211 43.93 59.4011 44.11C59.6011 44.27 59.7111 44.6 59.7311 45.1C59.7311 45.6 59.7411 45.97 59.7611 46.21C60.4011 45.41 61.0311 44.84 61.6511 44.5C62.2711 44.14 62.9311 43.96 63.6311 43.96C64.7511 43.96 65.6611 44.41 66.3611 45.31C67.0811 46.21 67.4411 47.39 67.4411 48.85C67.4411 49.91 67.2711 50.94 66.9311 51.94C66.5911 52.94 66.1211 53.85 65.5211 54.67C65.9411 54.79 66.2911 54.85 66.5711 54.85C67.2311 54.85 67.8611 54.61 68.4611 54.13C69.0611 53.65 69.8311 52.85 70.7711 51.73C71.0111 51.45 71.2811 51.31 71.5811 51.31ZM59.7011 55.27C60.4211 55.11 61.0811 54.72 61.6811 54.1C62.3011 53.46 62.7911 52.68 63.1511 51.76C63.5111 50.82 63.6911 49.84 63.6911 48.82C63.6911 48.22 63.5711 47.77 63.3311 47.47C63.0911 47.15 62.7711 46.99 62.3711 46.99C61.6511 46.99 60.7811 47.75 59.7611 49.27C59.7411 50.15 59.7311 51.44 59.7311 53.14C59.7311 54.06 59.7211 54.77 59.7011 55.27ZM53.9711 68.77C54.5111 68.77 54.9611 67.59 55.3211 65.23C55.6811 62.89 55.9111 59.97 56.0111 56.47C55.1511 58.47 54.4711 60.38 53.9711 62.2C53.4711 64.02 53.2211 65.55 53.2211 66.79C53.2211 67.43 53.3011 67.92 53.4611 68.26C53.6011 68.6 53.7711 68.77 53.9711 68.77ZM83.3845 51.31C83.6445 51.31 83.8445 51.43 83.9845 51.67C84.1445 51.91 84.2245 52.24 84.2245 52.66C84.2245 53.46 84.0345 54.08 83.6545 54.52C82.9145 55.42 81.8645 56.25 80.5045 57.01C79.1645 57.77 77.7245 58.15 76.1845 58.15C74.0845 58.15 72.4545 57.58 71.2945 56.44C70.1345 55.3 69.5545 53.74 69.5545 51.76C69.5545 50.38 69.8445 49.1 70.4245 47.92C71.0045 46.72 71.8045 45.77 72.8245 45.07C73.8645 44.37 75.0345 44.02 76.3345 44.02C77.4945 44.02 78.4245 44.37 79.1245 45.07C79.8245 45.75 80.1745 46.68 80.1745 47.86C80.1745 49.24 79.6745 50.43 78.6745 51.43C77.6945 52.41 76.0245 53.19 73.6645 53.77C74.1645 54.69 75.1145 55.15 76.5145 55.15C77.4145 55.15 78.4345 54.84 79.5745 54.22C80.7345 53.58 81.7345 52.75 82.5745 51.73C82.8145 51.45 83.0845 51.31 83.3845 51.31ZM75.8245 46.96C75.0845 46.96 74.4545 47.39 73.9345 48.25C73.4345 49.11 73.1845 50.15 73.1845 51.37V51.43C74.3645 51.15 75.2945 50.73 75.9745 50.17C76.6545 49.61 76.9945 48.96 76.9945 48.22C76.9945 47.84 76.8845 47.54 76.6645 47.32C76.4645 47.08 76.1845 46.96 75.8245 46.96ZM87.3618 58.81C86.3218 58.81 85.5218 58.57 84.9618 58.09C84.4218 57.61 84.1518 57.07 84.1518 56.47C84.1518 55.95 84.3418 55.5 84.7218 55.12C85.1018 54.74 85.6618 54.55 86.4018 54.55C86.6618 54.55 86.9618 54.58 87.3018 54.64C87.6618 54.68 87.9318 54.71 88.1118 54.73C88.0918 54.21 87.9718 53.72 87.7518 53.26C87.5518 52.8 87.2918 52.36 86.9718 51.94C86.6518 51.5 86.3518 51.12 86.0718 50.8C85.4518 51.98 84.8318 52.96 84.2118 53.74C83.6118 54.52 82.9518 55.26 82.2318 55.96C81.8718 56.32 81.4918 56.5 81.0918 56.5C80.7718 56.5 80.5118 56.39 80.3118 56.17C80.1118 55.93 80.0118 55.64 80.0118 55.3C80.0118 54.9 80.1518 54.53 80.4318 54.19L80.8218 53.71C81.9218 52.35 82.7518 51.23 83.3118 50.35C83.6718 49.77 84.0318 49.08 84.3918 48.28C84.7718 47.48 85.2618 46.39 85.8618 45.01C86.2418 44.13 87.0318 43.69 88.2318 43.69C88.7918 43.69 89.1818 43.74 89.4018 43.84C89.6218 43.94 89.7318 44.1 89.7318 44.32C89.7318 44.44 89.6918 44.63 89.6118 44.89C89.5318 45.15 89.4218 45.41 89.2818 45.67C88.9218 46.39 88.7418 47 88.7418 47.5C88.7418 47.8 88.8418 48.13 89.0418 48.49C89.2618 48.85 89.5918 49.3 90.0318 49.84C90.6718 50.68 91.1518 51.4 91.4718 52C91.8118 52.58 91.9818 53.22 91.9818 53.92C91.9818 54.76 91.7818 55.56 91.3818 56.32C91.0018 57.06 90.4618 57.66 89.7618 58.12C89.0618 58.58 88.2618 58.81 87.3618 58.81Z" fill="#606060"/>
<path d="M19.81 57.24C17.15 57.24 15.02 56.74 13.42 55.74C11.82 54.72 11.02 53.17 11.02 51.09C11.02 49.99 11.21 49.15 11.59 48.57C11.97 47.99 12.53 47.7 13.27 47.7C13.81 47.7 14.25 47.84 14.59 48.12C14.93 48.4 15.1 48.76 15.1 49.2C15.1 49.6 15.07 49.95 15.01 50.25C15.01 50.33 14.99 50.47 14.95 50.67C14.93 50.87 14.92 51.08 14.92 51.3C14.92 52.2 15.37 52.87 16.27 53.31C17.19 53.75 18.47 53.97 20.11 53.97C21.81 53.97 23.14 53.67 24.1 53.07C25.06 52.45 25.54 51.59 25.54 50.49C25.54 49.81 25.32 49.23 24.88 48.75C24.44 48.25 23.89 47.84 23.23 47.52C22.57 47.18 21.64 46.77 20.44 46.29C18.9 45.69 17.64 45.12 16.66 44.58C15.7 44.04 14.87 43.31 14.17 42.39C13.49 41.45 13.15 40.29 13.15 38.91C13.15 37.47 13.53 36.19 14.29 35.07C15.07 33.95 16.18 33.08 17.62 32.46C19.08 31.84 20.79 31.53 22.75 31.53C24.21 31.53 25.55 31.75 26.77 32.19C27.99 32.61 28.96 33.26 29.68 34.14C30.42 35.02 30.79 36.1 30.79 37.38C30.79 38.64 30.6 39.59 30.22 40.23C29.84 40.87 29.28 41.19 28.54 41.19C28.02 41.19 27.58 41.03 27.22 40.71C26.88 40.39 26.71 40.01 26.71 39.57C26.71 39.19 26.74 38.84 26.8 38.52C26.86 37.92 26.89 37.54 26.89 37.38C26.89 36.54 26.48 35.9 25.66 35.46C24.84 35.02 23.82 34.8 22.6 34.8C20.88 34.8 19.56 35.12 18.64 35.76C17.74 36.38 17.29 37.26 17.29 38.4C17.29 39.16 17.52 39.81 17.98 40.35C18.46 40.89 19.05 41.34 19.75 41.7C20.45 42.06 21.43 42.49 22.69 42.99C24.21 43.61 25.43 44.17 26.35 44.67C27.27 45.17 28.05 45.85 28.69 46.71C29.35 47.57 29.68 48.63 29.68 49.89C29.68 52.25 28.78 54.07 26.98 55.35C25.2 56.61 22.81 57.24 19.81 57.24ZM43.6108 50.31C43.8708 50.31 44.0708 50.43 44.2108 50.67C44.3708 50.91 44.4508 51.24 44.4508 51.66C44.4508 52.46 44.2608 53.08 43.8808 53.52C43.0208 54.58 42.0808 55.45 41.0608 56.13C40.0608 56.81 38.9208 57.15 37.6408 57.15C35.8808 57.15 34.5708 56.35 33.7108 54.75C32.8708 53.15 32.4508 51.08 32.4508 48.54C32.4508 46.1 32.7608 43.32 33.3808 40.2C34.0208 37.08 34.9508 34.4 36.1708 32.16C37.4108 29.92 38.8808 28.8 40.5808 28.8C41.5408 28.8 42.2908 29.25 42.8308 30.15C43.3908 31.03 43.6708 32.3 43.6708 33.96C43.6708 36.34 43.0108 39.1 41.6908 42.24C40.3708 45.38 38.5808 48.49 36.3208 51.57C36.4608 52.39 36.6908 52.98 37.0108 53.34C37.3308 53.68 37.7508 53.85 38.2708 53.85C39.0908 53.85 39.8108 53.62 40.4308 53.16C41.0508 52.68 41.8408 51.87 42.8008 50.73C43.0408 50.45 43.3108 50.31 43.6108 50.31ZM39.9208 31.77C39.4608 31.77 38.9408 32.6 38.3608 34.26C37.7808 35.92 37.2708 37.98 36.8308 40.44C36.3908 42.9 36.1508 45.26 36.1108 47.52C37.5308 45.18 38.6608 42.84 39.5008 40.5C40.3408 38.14 40.7608 35.99 40.7608 34.05C40.7608 32.53 40.4808 31.77 39.9208 31.77ZM57.3259 47.79C57.5859 47.79 57.7859 47.92 57.9259 48.18C58.0659 48.44 58.1359 48.77 58.1359 49.17C58.1359 50.13 57.8459 50.7 57.2659 50.88C56.0659 51.3 54.7459 51.54 53.3059 51.6C52.9259 53.28 52.1759 54.63 51.0559 55.65C49.9359 56.65 48.6659 57.15 47.2459 57.15C46.0459 57.15 45.0159 56.86 44.1559 56.28C43.3159 55.7 42.6759 54.93 42.2359 53.97C41.7959 53.01 41.5759 51.97 41.5759 50.85C41.5759 49.33 41.8659 47.98 42.4459 46.8C43.0259 45.6 43.8259 44.67 44.8459 44.01C45.8659 43.33 46.9959 42.99 48.2359 42.99C49.7559 42.99 50.9759 43.52 51.8959 44.58C52.8359 45.62 53.3859 46.91 53.5459 48.45C54.4859 48.39 55.6059 48.19 56.9059 47.85C57.0659 47.81 57.2059 47.79 57.3259 47.79ZM47.4859 53.97C48.1259 53.97 48.6759 53.71 49.1359 53.19C49.6159 52.67 49.9359 51.92 50.0959 50.94C49.4759 50.52 48.9959 49.97 48.6559 49.29C48.3359 48.61 48.1759 47.89 48.1759 47.13C48.1759 46.81 48.2059 46.49 48.2659 46.17H48.1159C47.3159 46.17 46.6459 46.56 46.1059 47.34C45.5859 48.1 45.3259 49.18 45.3259 50.58C45.3259 51.68 45.5359 52.52 45.9559 53.1C46.3959 53.68 46.9059 53.97 47.4859 53.97ZM71.5811 50.31C71.8411 50.31 72.0411 50.43 72.1811 50.67C72.3411 50.91 72.4211 51.24 72.4211 51.66C72.4211 52.46 72.2311 53.08 71.8511 53.52C70.9911 54.58 70.0611 55.45 69.0611 56.13C68.0811 56.81 66.9611 57.15 65.7011 57.15C64.6411 57.15 63.7811 56.77 63.1211 56.01C61.9811 56.75 60.7911 57.13 59.5511 57.15C59.2911 61.01 58.7011 64.23 57.7811 66.81C56.8611 69.41 55.5111 70.71 53.7311 70.71C52.6511 70.71 51.8511 70.32 51.3311 69.54C50.8111 68.76 50.5511 67.68 50.5511 66.3C50.5511 64.34 51.0011 62.05 51.9011 59.43C52.8011 56.83 54.1911 53.96 56.0711 50.82C56.0711 47.9 56.0511 45.87 56.0111 44.73C55.9911 44.15 56.2211 43.69 56.7011 43.35C57.1811 43.01 57.7811 42.84 58.5011 42.84C58.9211 42.84 59.2211 42.93 59.4011 43.11C59.6011 43.27 59.7111 43.6 59.7311 44.1C59.7311 44.6 59.7411 44.97 59.7611 45.21C60.4011 44.41 61.0311 43.84 61.6511 43.5C62.2711 43.14 62.9311 42.96 63.6311 42.96C64.7511 42.96 65.6611 43.41 66.3611 44.31C67.0811 45.21 67.4411 46.39 67.4411 47.85C67.4411 48.91 67.2711 49.94 66.9311 50.94C66.5911 51.94 66.1211 52.85 65.5211 53.67C65.9411 53.79 66.2911 53.85 66.5711 53.85C67.2311 53.85 67.8611 53.61 68.4611 53.13C69.0611 52.65 69.8311 51.85 70.7711 50.73C71.0111 50.45 71.2811 50.31 71.5811 50.31ZM59.7011 54.27C60.4211 54.11 61.0811 53.72 61.6811 53.1C62.3011 52.46 62.7911 51.68 63.1511 50.76C63.5111 49.82 63.6911 48.84 63.6911 47.82C63.6911 47.22 63.5711 46.77 63.3311 46.47C63.0911 46.15 62.7711 45.99 62.3711 45.99C61.6511 45.99 60.7811 46.75 59.7611 48.27C59.7411 49.15 59.7311 50.44 59.7311 52.14C59.7311 53.06 59.7211 53.77 59.7011 54.27ZM53.9711 67.77C54.5111 67.77 54.9611 66.59 55.3211 64.23C55.6811 61.89 55.9111 58.97 56.0111 55.47C55.1511 57.47 54.4711 59.38 53.9711 61.2C53.4711 63.02 53.2211 64.55 53.2211 65.79C53.2211 66.43 53.3011 66.92 53.4611 67.26C53.6011 67.6 53.7711 67.77 53.9711 67.77ZM83.3845 50.31C83.6445 50.31 83.8445 50.43 83.9845 50.67C84.1445 50.91 84.2245 51.24 84.2245 51.66C84.2245 52.46 84.0345 53.08 83.6545 53.52C82.9145 54.42 81.8645 55.25 80.5045 56.01C79.1645 56.77 77.7245 57.15 76.1845 57.15C74.0845 57.15 72.4545 56.58 71.2945 55.44C70.1345 54.3 69.5545 52.74 69.5545 50.76C69.5545 49.38 69.8445 48.1 70.4245 46.92C71.0045 45.72 71.8045 44.77 72.8245 44.07C73.8645 43.37 75.0345 43.02 76.3345 43.02C77.4945 43.02 78.4245 43.37 79.1245 44.07C79.8245 44.75 80.1745 45.68 80.1745 46.86C80.1745 48.24 79.6745 49.43 78.6745 50.43C77.6945 51.41 76.0245 52.19 73.6645 52.77C74.1645 53.69 75.1145 54.15 76.5145 54.15C77.4145 54.15 78.4345 53.84 79.5745 53.22C80.7345 52.58 81.7345 51.75 82.5745 50.73C82.8145 50.45 83.0845 50.31 83.3845 50.31ZM75.8245 45.96C75.0845 45.96 74.4545 46.39 73.9345 47.25C73.4345 48.11 73.1845 49.15 73.1845 50.37V50.43C74.3645 50.15 75.2945 49.73 75.9745 49.17C76.6545 48.61 76.9945 47.96 76.9945 47.22C76.9945 46.84 76.8845 46.54 76.6645 46.32C76.4645 46.08 76.1845 45.96 75.8245 45.96ZM87.3618 57.81C86.3218 57.81 85.5218 57.57 84.9618 57.09C84.4218 56.61 84.1518 56.07 84.1518 55.47C84.1518 54.95 84.3418 54.5 84.7218 54.12C85.1018 53.74 85.6618 53.55 86.4018 53.55C86.6618 53.55 86.9618 53.58 87.3018 53.64C87.6618 53.68 87.9318 53.71 88.1118 53.73C88.0918 53.21 87.9718 52.72 87.7518 52.26C87.5518 51.8 87.2918 51.36 86.9718 50.94C86.6518 50.5 86.3518 50.12 86.0718 49.8C85.4518 50.98 84.8318 51.96 84.2118 52.74C83.6118 53.52 82.9518 54.26 82.2318 54.96C81.8718 55.32 81.4918 55.5 81.0918 55.5C80.7718 55.5 80.5118 55.39 80.3118 55.17C80.1118 54.93 80.0118 54.64 80.0118 54.3C80.0118 53.9 80.1518 53.53 80.4318 53.19L80.8218 52.71C81.9218 51.35 82.7518 50.23 83.3118 49.35C83.6718 48.77 84.0318 48.08 84.3918 47.28C84.7718 46.48 85.2618 45.39 85.8618 44.01C86.2418 43.13 87.0318 42.69 88.2318 42.69C88.7918 42.69 89.1818 42.74 89.4018 42.84C89.6218 42.94 89.7318 43.1 89.7318 43.32C89.7318 43.44 89.6918 43.63 89.6118 43.89C89.5318 44.15 89.4218 44.41 89.2818 44.67C88.9218 45.39 88.7418 46 88.7418 46.5C88.7418 46.8 88.8418 47.13 89.0418 47.49C89.2618 47.85 89.5918 48.3 90.0318 48.84C90.6718 49.68 91.1518 50.4 91.4718 51C91.8118 51.58 91.9818 52.22 91.9818 52.92C91.9818 53.76 91.7818 54.56 91.3818 55.32C91.0018 56.06 90.4618 56.66 89.7618 57.12C89.0618 57.58 88.2618 57.81 87.3618 57.81Z" fill="white"/>
<circle cx="146.5" cy="38.5" r="5.5" fill="#333"/>
<circle cx="146.5" cy="38.5" r="2.5" fill="#EAEAEA"/>
<g filter="url(#filter0_i)">
<circle cx="146.5" cy="38.5" r="1.5" fill="#8F8F8F"/>
</g>
<circle cx="5.5" cy="38.5" r="5.5" fill="#333"/>
<circle cx="5.5" cy="38.5" r="2.5" fill="#EAEAEA"/>
<g filter="url(#filter1_i)">
<circle cx="5.5" cy="38.5" r="1.5" fill="#8F8F8F"/>
</g>
<defs>
<filter id="filter0_i" x="145" y="37" width="3" height="4" filterUnits="userSpaceOnUse" color-interpolation-filters="sRGB">
<feFlood flood-opacity="0" result="BackgroundImageFix"/>
<feBlend mode="normal" in="SourceGraphic" in2="BackgroundImageFix" result="shape"/>
<feColorMatrix in="SourceAlpha" type="matrix" values="0 0 0 0 0 0 0 0 0 0 0 0 0 0 0 0 0 0 127 0" result="hardAlpha"/>
<feOffset dy="1"/>
<feGaussianBlur stdDeviation="0.5"/>
<feComposite in2="hardAlpha" operator="arithmetic" k2="-1" k3="1"/>
<feColorMatrix type="matrix" values="0 0 0 0 0 0 0 0 0 0 0 0 0 0 0 0 0 0 0.5 0"/>
<feBlend mode="normal" in2="shape" result="effect1_innerShadow"/>
</filter>
<filter id="filter1_i" x="4" y="37" width="3" height="4" filterUnits="userSpaceOnUse" color-interpolation-filters="sRGB">
<feFlood flood-opacity="0" result="BackgroundImageFix"/>
<feBlend mode="normal" in="SourceGraphic" in2="BackgroundImageFix" result="shape"/>
<feColorMatrix in="SourceAlpha" type="matrix" values="0 0 0 0 0 0 0 0 0 0 0 0 0 0 0 0 0 0 127 0" result="hardAlpha"/>
<feOffset dy="1"/>
<feGaussianBlur stdDeviation="0.5"/>
<feComposite in2="hardAlpha" operator="arithmetic" k2="-1" k3="1"/>
<feColorMatrix type="matrix" values="0 0 0 0 0 0 0 0 0 0 0 0 0 0 0 0 0 0 0.5 0"/>
<feBlend mode="normal" in2="shape" result="effect1_innerShadow"/>
</filter>
</defs>
</svg>
