<svg width="152" height="80" viewBox="0 0 152 80" fill="none">
<rect x="2" y="11" width="148" height="61" rx="4" fill="#2B2B2B"/>
<path d="M8 14.5H144C145.381 14.5 146.5 15.6193 146.5 17V66C146.5 67.3807 145.381 68.5 144 68.5H8C6.61929 68.5 5.5 67.3807 5.5 66V41.5V17C5.5 15.6193 6.61929 14.5 8 14.5Z" stroke="#545454"/>
<path d="M110.59 17.6403C112.406 15.9505 114.536 14.6348 116.86 13.7684C119.185 12.902 121.656 12.5018 124.135 12.5907C126.614 12.6797 129.051 13.2559 131.307 14.2867C133.563 15.3174 135.594 16.7824 137.284 18.598C138.973 20.4136 140.289 22.5442 141.156 24.8683C142.022 27.1924 142.422 29.6644 142.333 32.1431C142.244 34.6218 141.668 37.0587 140.637 39.3148C139.607 41.5708 138.142 43.6017 136.326 45.2915" stroke="#2B2B2B" stroke-width="2" stroke-linejoin="round"/>
<path d="M119.116 28.0289C119.693 27.4921 120.37 27.0741 121.108 26.7989C121.846 26.5236 122.632 26.3965 123.419 26.4248C124.206 26.453 124.981 26.6361 125.697 26.9635C126.414 27.2909 127.059 27.7563 127.596 28.3331C128.133 28.9099 128.551 29.5867 128.826 30.325C129.101 31.0633 129.228 31.8486 129.2 32.636C129.172 33.4234 128.989 34.1976 128.661 34.9143C128.334 35.6309 127.869 36.2761 127.292 36.8129" stroke="#FF27E9" stroke-width="2"/>
<path d="M116.391 25.1009C117.352 24.2062 118.48 23.5096 119.711 23.0509C120.941 22.5921 122.25 22.3803 123.562 22.4273C124.875 22.4744 126.165 22.7795 127.36 23.3253C128.554 23.871 129.629 24.6466 130.524 25.6079C131.419 26.5692 132.115 27.6973 132.574 28.9278C133.033 30.1583 133.245 31.4671 133.198 32.7795C133.15 34.0918 132.845 35.3821 132.3 36.5765C131.754 37.771 130.978 38.8463 130.017 39.741" stroke="#32FF98" stroke-width="2" stroke-linejoin="round"/>
<path d="M113.666 22.1728C115.012 20.9202 116.591 19.945 118.314 19.3028C120.036 18.6606 121.869 18.364 123.706 18.4299C125.543 18.4958 127.35 18.923 129.022 19.687C130.694 20.451 132.199 21.5369 133.452 22.8827C134.705 24.2285 135.68 25.8078 136.322 27.5305C136.964 29.2532 137.261 31.0855 137.195 32.9228C137.129 34.7602 136.702 36.5665 135.938 38.2387C135.174 39.911 134.088 41.4164 132.742 42.6689" stroke="#1AD9FF" stroke-width="2" stroke-linejoin="round"/>
<path d="M110.941 19.2448C112.671 17.6344 114.701 16.3805 116.916 15.5548C119.131 14.7291 121.487 14.3477 123.849 14.4325C126.212 14.5172 128.534 15.0664 130.684 16.0487C132.834 17.031 134.77 18.4272 136.38 20.1575C137.99 21.8878 139.244 23.9184 140.07 26.1333C140.896 28.3482 141.277 30.704 141.192 33.0663C141.108 35.4285 140.558 37.751 139.576 39.901C138.594 42.051 137.198 43.9865 135.467 45.597" stroke="#FFEB33" stroke-width="2" stroke-linejoin="round"/>
<mask id="mask0" mask-type="alpha" maskUnits="userSpaceOnUse" x="8" y="17" width="136" height="49">
<rect x="8" y="17" width="136" height="49" rx="2" fill="#C4C4C4"/>
</mask>
<g mask="url(#mask0)">
<path d="M145.708 51.3223C145.45 52.2048 144.992 53.0161 144.37 53.6936C143.748 54.371 142.978 54.8963 142.121 55.2291C141.264 55.5618 140.341 55.693 139.425 55.6126C138.509 55.5321 137.624 55.2422 136.837 54.7651C136.051 54.288 135.385 53.6366 134.891 52.8611C134.396 52.0857 134.087 51.2069 133.986 50.2928C133.885 49.3787 133.996 48.4537 134.31 47.5892C134.623 46.7247 135.132 45.9438 135.795 45.307" stroke="#FFEB33" stroke-width="2"/>
<path d="M148.119 55.4028C147.316 56.5414 146.283 57.4994 145.087 58.2153C143.891 58.9312 142.559 59.3893 141.176 59.5602C139.793 59.731 138.389 59.6108 137.055 59.2074C135.721 58.8039 134.486 58.126 133.429 57.2173C132.373 56.3085 131.518 55.1889 130.919 53.9303C130.321 52.6717 129.992 51.3019 129.954 49.9087C129.916 48.5155 130.169 47.1298 130.698 45.8404C131.227 44.551 132.02 43.3863 133.025 42.4212" stroke="#1AD9FF" stroke-width="2" stroke-linejoin="round"/>
<path d="M149.645 59.7357C148.318 61.0088 146.754 62.0082 145.042 62.6769C143.329 63.3455 141.502 63.6703 139.663 63.6327C137.825 63.595 136.013 63.1957 134.329 62.4575C132.645 61.7193 131.123 60.6567 129.85 59.3304C128.577 58.004 127.577 56.4399 126.909 54.7273C126.24 53.0147 125.915 51.1871 125.953 49.349C125.991 47.5109 126.39 45.6982 127.128 44.0144C127.866 42.3306 128.929 40.8087 130.255 39.5355" stroke="#32FF98" stroke-width="2" stroke-linejoin="round"/>
<path d="M152.415 62.6214C150.709 64.2583 148.698 65.5432 146.496 66.4029C144.295 67.2626 141.945 67.6802 139.582 67.6318C137.218 67.5834 134.888 67.07 132.723 66.1209C130.558 65.1718 128.601 63.8056 126.964 62.1003C125.327 60.395 124.042 58.3839 123.183 56.182C122.323 53.9801 121.905 51.6304 121.954 49.2671C122.002 46.9038 122.516 44.5732 123.465 42.4083C124.414 40.2434 125.78 38.2867 127.485 36.6498" stroke="#FF27FF" stroke-width="2" stroke-linejoin="round"/>
<path d="M13.1466 10.3956C13.4288 11.1313 13.5633 11.9153 13.5425 12.703C13.5217 13.4906 13.346 14.2665 13.0253 14.9862C12.7047 15.7059 12.2454 16.3555 11.6738 16.8977C11.1021 17.44 10.4292 17.8643 9.69356 18.1465C8.9579 18.4287 8.17386 18.5633 7.3862 18.5425C6.59854 18.5217 5.8227 18.3459 5.10296 18.0253C4.38322 17.7047 3.73368 17.2454 3.19143 16.6737C2.64918 16.1021 2.22484 15.4292 1.94263 14.6935" stroke="#FFEB33" stroke-width="2"/>
<path d="M16.8812 8.96296C17.3515 10.1891 17.5758 11.4958 17.5411 12.8086C17.5064 14.1213 17.2135 15.4144 16.6791 16.614C16.1447 17.8135 15.3793 18.8961 14.4265 19.7998C13.4738 20.7036 12.3523 21.4108 11.1262 21.8812C9.9001 22.3515 8.59337 22.5758 7.2806 22.5411C5.96784 22.5064 4.67477 22.2135 3.4752 21.6791C2.27563 21.1447 1.19307 20.3793 0.289322 19.4265C-0.614427 18.4737 -1.32166 17.3523 -1.79201 16.1262" stroke="#1AD9FF" stroke-width="2" stroke-linejoin="round"/>
<path d="M20.6158 7.53032C21.2743 9.24686 21.5882 11.0763 21.5397 12.9142C21.4912 14.752 21.0811 16.5623 20.333 18.2417C19.5848 19.9211 18.5132 21.4367 17.1793 22.702C15.8454 23.9672 14.2754 24.9573 12.5588 25.6158C10.8423 26.2743 9.01287 26.5882 7.17501 26.5397C5.33714 26.4912 3.52683 26.0811 1.84744 25.3329C0.168048 24.5848 -1.34754 23.5132 -2.61279 22.1793C-3.87804 20.8454 -4.86817 19.2754 -5.52665 17.5588" stroke="#32FF98" stroke-width="2" stroke-linejoin="round"/>
<path d="M24.3505 6.09769C25.1971 8.30467 25.6007 10.6568 25.5383 13.0198C25.4759 15.3827 24.9487 17.7103 23.9868 19.8695C23.0249 22.0287 21.6471 23.9773 19.9321 25.6041C18.2171 27.2308 16.1985 28.5038 13.9915 29.3505C11.7845 30.1971 9.43238 30.6007 7.06941 30.5383C4.70644 30.4759 2.3789 29.9487 0.219683 28.9868C-1.93954 28.0249 -3.88815 26.6471 -5.5149 24.9321C-7.14164 23.2171 -8.41467 21.1985 -9.26129 18.9915" stroke="#FF27FF" stroke-width="2" stroke-linejoin="round"/>
<path d="M110.956 19.2305C110.102 20.0311 109.032 20.5643 107.879 20.7644C106.725 20.9646 105.539 20.823 104.465 20.357C103.391 19.8911 102.477 19.1212 101.835 18.1421C101.193 17.1631 100.852 16.0177 100.853 14.847" stroke="#FFEB33" stroke-width="2"/>
<path d="M113.691 22.149C112.268 23.4832 110.485 24.3719 108.563 24.7055C106.64 25.0391 104.662 24.8031 102.873 24.0265C101.083 23.2499 99.5591 21.9667 98.4895 20.335C97.4199 18.7033 96.8509 16.7943 96.8528 14.8432" stroke="#1AD9FF" stroke-width="2" stroke-linejoin="round"/>
<path d="M116.427 25.0675C114.434 26.9354 111.938 28.1796 109.247 28.6466C106.555 29.1137 103.786 28.7833 101.28 27.6961C98.7747 26.6089 96.6416 24.8124 95.1442 22.5279C93.6467 20.2435 92.8502 17.5709 92.8528 14.8394" stroke="#32FF98" stroke-width="2" stroke-linejoin="round"/>
<path d="M119.162 27.986C116.6 30.3876 113.391 31.9872 109.931 32.5877C106.47 33.1882 102.91 32.7634 99.6884 31.3655C96.4666 29.9677 93.7242 27.6579 91.7988 24.7208C89.8735 21.7837 88.8495 18.3475 88.8528 14.8356" stroke="#FF27FF" stroke-width="2" stroke-linejoin="round"/>
</g>
<path d="M19.81 63.24C17.15 63.24 15.02 62.74 13.42 61.74C11.82 60.72 11.02 59.17 11.02 57.09C11.02 55.99 11.21 55.15 11.59 54.57C11.97 53.99 12.53 53.7 13.27 53.7C13.81 53.7 14.25 53.84 14.59 54.12C14.93 54.4 15.1 54.76 15.1 55.2C15.1 55.6 15.07 55.95 15.01 56.25C15.01 56.33 14.99 56.47 14.95 56.67C14.93 56.87 14.92 57.08 14.92 57.3C14.92 58.2 15.37 58.87 16.27 59.31C17.19 59.75 18.47 59.97 20.11 59.97C21.81 59.97 23.14 59.67 24.1 59.07C25.06 58.45 25.54 57.59 25.54 56.49C25.54 55.81 25.32 55.23 24.88 54.75C24.44 54.25 23.89 53.84 23.23 53.52C22.57 53.18 21.64 52.77 20.44 52.29C18.9 51.69 17.64 51.12 16.66 50.58C15.7 50.04 14.87 49.31 14.17 48.39C13.49 47.45 13.15 46.29 13.15 44.91C13.15 43.47 13.53 42.19 14.29 41.07C15.07 39.95 16.18 39.08 17.62 38.46C19.08 37.84 20.79 37.53 22.75 37.53C24.21 37.53 25.55 37.75 26.77 38.19C27.99 38.61 28.96 39.26 29.68 40.14C30.42 41.02 30.79 42.1 30.79 43.38C30.79 44.64 30.6 45.59 30.22 46.23C29.84 46.87 29.28 47.19 28.54 47.19C28.02 47.19 27.58 47.03 27.22 46.71C26.88 46.39 26.71 46.01 26.71 45.57C26.71 45.19 26.74 44.84 26.8 44.52C26.86 43.92 26.89 43.54 26.89 43.38C26.89 42.54 26.48 41.9 25.66 41.46C24.84 41.02 23.82 40.8 22.6 40.8C20.88 40.8 19.56 41.12 18.64 41.76C17.74 42.38 17.29 43.26 17.29 44.4C17.29 45.16 17.52 45.81 17.98 46.35C18.46 46.89 19.05 47.34 19.75 47.7C20.45 48.06 21.43 48.49 22.69 48.99C24.21 49.61 25.43 50.17 26.35 50.67C27.27 51.17 28.05 51.85 28.69 52.71C29.35 53.57 29.68 54.63 29.68 55.89C29.68 58.25 28.78 60.07 26.98 61.35C25.2 62.61 22.81 63.24 19.81 63.24ZM43.6108 56.31C43.8708 56.31 44.0708 56.43 44.2108 56.67C44.3708 56.91 44.4508 57.24 44.4508 57.66C44.4508 58.46 44.2608 59.08 43.8808 59.52C43.0208 60.58 42.0808 61.45 41.0608 62.13C40.0608 62.81 38.9208 63.15 37.6408 63.15C35.8808 63.15 34.5708 62.35 33.7108 60.75C32.8708 59.15 32.4508 57.08 32.4508 54.54C32.4508 52.1 32.7608 49.32 33.3808 46.2C34.0208 43.08 34.9508 40.4 36.1708 38.16C37.4108 35.92 38.8808 34.8 40.5808 34.8C41.5408 34.8 42.2908 35.25 42.8308 36.15C43.3908 37.03 43.6708 38.3 43.6708 39.96C43.6708 42.34 43.0108 45.1 41.6908 48.24C40.3708 51.38 38.5808 54.49 36.3208 57.57C36.4608 58.39 36.6908 58.98 37.0108 59.34C37.3308 59.68 37.7508 59.85 38.2708 59.85C39.0908 59.85 39.8108 59.62 40.4308 59.16C41.0508 58.68 41.8408 57.87 42.8008 56.73C43.0408 56.45 43.3108 56.31 43.6108 56.31ZM39.9208 37.77C39.4608 37.77 38.9408 38.6 38.3608 40.26C37.7808 41.92 37.2708 43.98 36.8308 46.44C36.3908 48.9 36.1508 51.26 36.1108 53.52C37.5308 51.18 38.6608 48.84 39.5008 46.5C40.3408 44.14 40.7608 41.99 40.7608 40.05C40.7608 38.53 40.4808 37.77 39.9208 37.77ZM57.3259 53.79C57.5859 53.79 57.7859 53.92 57.9259 54.18C58.0659 54.44 58.1359 54.77 58.1359 55.17C58.1359 56.13 57.8459 56.7 57.2659 56.88C56.0659 57.3 54.7459 57.54 53.3059 57.6C52.9259 59.28 52.1759 60.63 51.0559 61.65C49.9359 62.65 48.6659 63.15 47.2459 63.15C46.0459 63.15 45.0159 62.86 44.1559 62.28C43.3159 61.7 42.6759 60.93 42.2359 59.97C41.7959 59.01 41.5759 57.97 41.5759 56.85C41.5759 55.33 41.8659 53.98 42.4459 52.8C43.0259 51.6 43.8259 50.67 44.8459 50.01C45.8659 49.33 46.9959 48.99 48.2359 48.99C49.7559 48.99 50.9759 49.52 51.8959 50.58C52.8359 51.62 53.3859 52.91 53.5459 54.45C54.4859 54.39 55.6059 54.19 56.9059 53.85C57.0659 53.81 57.2059 53.79 57.3259 53.79ZM47.4859 59.97C48.1259 59.97 48.6759 59.71 49.1359 59.19C49.6159 58.67 49.9359 57.92 50.0959 56.94C49.4759 56.52 48.9959 55.97 48.6559 55.29C48.3359 54.61 48.1759 53.89 48.1759 53.13C48.1759 52.81 48.2059 52.49 48.2659 52.17H48.1159C47.3159 52.17 46.6459 52.56 46.1059 53.34C45.5859 54.1 45.3259 55.18 45.3259 56.58C45.3259 57.68 45.5359 58.52 45.9559 59.1C46.3959 59.68 46.9059 59.97 47.4859 59.97ZM71.5811 56.31C71.8411 56.31 72.0411 56.43 72.1811 56.67C72.3411 56.91 72.4211 57.24 72.4211 57.66C72.4211 58.46 72.2311 59.08 71.8511 59.52C70.9911 60.58 70.0611 61.45 69.0611 62.13C68.0811 62.81 66.9611 63.15 65.7011 63.15C64.6411 63.15 63.7811 62.77 63.1211 62.01C61.9811 62.75 60.7911 63.13 59.5511 63.15C59.2911 67.01 58.7011 70.23 57.7811 72.81C56.8611 75.41 55.5111 76.71 53.7311 76.71C52.6511 76.71 51.8511 76.32 51.3311 75.54C50.8111 74.76 50.5511 73.68 50.5511 72.3C50.5511 70.34 51.0011 68.05 51.9011 65.43C52.8011 62.83 54.1911 59.96 56.0711 56.82C56.0711 53.9 56.0511 51.87 56.0111 50.73C55.9911 50.15 56.2211 49.69 56.7011 49.35C57.1811 49.01 57.7811 48.84 58.5011 48.84C58.9211 48.84 59.2211 48.93 59.4011 49.11C59.6011 49.27 59.7111 49.6 59.7311 50.1C59.7311 50.6 59.7411 50.97 59.7611 51.21C60.4011 50.41 61.0311 49.84 61.6511 49.5C62.2711 49.14 62.9311 48.96 63.6311 48.96C64.7511 48.96 65.6611 49.41 66.3611 50.31C67.0811 51.21 67.4411 52.39 67.4411 53.85C67.4411 54.91 67.2711 55.94 66.9311 56.94C66.5911 57.94 66.1211 58.85 65.5211 59.67C65.9411 59.79 66.2911 59.85 66.5711 59.85C67.2311 59.85 67.8611 59.61 68.4611 59.13C69.0611 58.65 69.8311 57.85 70.7711 56.73C71.0111 56.45 71.2811 56.31 71.5811 56.31ZM59.7011 60.27C60.4211 60.11 61.0811 59.72 61.6811 59.1C62.3011 58.46 62.7911 57.68 63.1511 56.76C63.5111 55.82 63.6911 54.84 63.6911 53.82C63.6911 53.22 63.5711 52.77 63.3311 52.47C63.0911 52.15 62.7711 51.99 62.3711 51.99C61.6511 51.99 60.7811 52.75 59.7611 54.27C59.7411 55.15 59.7311 56.44 59.7311 58.14C59.7311 59.06 59.7211 59.77 59.7011 60.27ZM53.9711 73.77C54.5111 73.77 54.9611 72.59 55.3211 70.23C55.6811 67.89 55.9111 64.97 56.0111 61.47C55.1511 63.47 54.4711 65.38 53.9711 67.2C53.4711 69.02 53.2211 70.55 53.2211 71.79C53.2211 72.43 53.3011 72.92 53.4611 73.26C53.6011 73.6 53.7711 73.77 53.9711 73.77ZM83.3845 56.31C83.6445 56.31 83.8445 56.43 83.9845 56.67C84.1445 56.91 84.2245 57.24 84.2245 57.66C84.2245 58.46 84.0345 59.08 83.6545 59.52C82.9145 60.42 81.8645 61.25 80.5045 62.01C79.1645 62.77 77.7245 63.15 76.1845 63.15C74.0845 63.15 72.4545 62.58 71.2945 61.44C70.1345 60.3 69.5545 58.74 69.5545 56.76C69.5545 55.38 69.8445 54.1 70.4245 52.92C71.0045 51.72 71.8045 50.77 72.8245 50.07C73.8645 49.37 75.0345 49.02 76.3345 49.02C77.4945 49.02 78.4245 49.37 79.1245 50.07C79.8245 50.75 80.1745 51.68 80.1745 52.86C80.1745 54.24 79.6745 55.43 78.6745 56.43C77.6945 57.41 76.0245 58.19 73.6645 58.77C74.1645 59.69 75.1145 60.15 76.5145 60.15C77.4145 60.15 78.4345 59.84 79.5745 59.22C80.7345 58.58 81.7345 57.75 82.5745 56.73C82.8145 56.45 83.0845 56.31 83.3845 56.31ZM75.8245 51.96C75.0845 51.96 74.4545 52.39 73.9345 53.25C73.4345 54.11 73.1845 55.15 73.1845 56.37V56.43C74.3645 56.15 75.2945 55.73 75.9745 55.17C76.6545 54.61 76.9945 53.96 76.9945 53.22C76.9945 52.84 76.8845 52.54 76.6645 52.32C76.4645 52.08 76.1845 51.96 75.8245 51.96ZM87.3618 63.81C86.3218 63.81 85.5218 63.57 84.9618 63.09C84.4218 62.61 84.1518 62.07 84.1518 61.47C84.1518 60.95 84.3418 60.5 84.7218 60.12C85.1018 59.74 85.6618 59.55 86.4018 59.55C86.6618 59.55 86.9618 59.58 87.3018 59.64C87.6618 59.68 87.9318 59.71 88.1118 59.73C88.0918 59.21 87.9718 58.72 87.7518 58.26C87.5518 57.8 87.2918 57.36 86.9718 56.94C86.6518 56.5 86.3518 56.12 86.0718 55.8C85.4518 56.98 84.8318 57.96 84.2118 58.74C83.6118 59.52 82.9518 60.26 82.2318 60.96C81.8718 61.32 81.4918 61.5 81.0918 61.5C80.7718 61.5 80.5118 61.39 80.3118 61.17C80.1118 60.93 80.0118 60.64 80.0118 60.3C80.0118 59.9 80.1518 59.53 80.4318 59.19L80.8218 58.71C81.9218 57.35 82.7518 56.23 83.3118 55.35C83.6718 54.77 84.0318 54.08 84.3918 53.28C84.7718 52.48 85.2618 51.39 85.8618 50.01C86.2418 49.13 87.0318 48.69 88.2318 48.69C88.7918 48.69 89.1818 48.74 89.4018 48.84C89.6218 48.94 89.7318 49.1 89.7318 49.32C89.7318 49.44 89.6918 49.63 89.6118 49.89C89.5318 50.15 89.4218 50.41 89.2818 50.67C88.9218 51.39 88.7418 52 88.7418 52.5C88.7418 52.8 88.8418 53.13 89.0418 53.49C89.2618 53.85 89.5918 54.3 90.0318 54.84C90.6718 55.68 91.1518 56.4 91.4718 57C91.8118 57.58 91.9818 58.22 91.9818 58.92C91.9818 59.76 91.7818 60.56 91.3818 61.32C91.0018 62.06 90.4618 62.66 89.7618 63.12C89.0618 63.58 88.2618 63.81 87.3618 63.81Z" fill="#606060"/>
<path d="M13.42 61.74L11.8073 64.2697L11.8186 64.2769L11.83 64.284L13.42 61.74ZM11.59 54.57L9.08062 52.9259L9.08062 52.9259L11.59 54.57ZM14.59 54.12L16.4971 51.8042L16.4971 51.8042L14.59 54.12ZM15.01 56.25L12.0683 55.6617L12.01 55.9529V56.25H15.01ZM14.95 56.67L12.0083 56.0817L11.9795 56.2255L11.9649 56.3715L14.95 56.67ZM16.27 59.31L14.9524 62.0052L14.964 62.0108L14.9756 62.0164L16.27 59.31ZM24.1 59.07L25.69 61.614L25.7089 61.6022L25.7276 61.5901L24.1 59.07ZM24.88 54.75L22.6279 56.7319L22.648 56.7547L22.6685 56.7772L24.88 54.75ZM23.23 53.52L21.8561 56.1869L21.8885 56.2036L21.9212 56.2194L23.23 53.52ZM20.44 52.29L21.5542 49.5046L21.5417 49.4996L21.5291 49.4947L20.44 52.29ZM16.66 50.58L15.1892 53.1947L15.2007 53.2012L15.2122 53.2075L16.66 50.58ZM14.17 48.39L11.7393 50.1484L11.7606 50.1777L11.7825 50.2066L14.17 48.39ZM14.29 41.07L11.8282 39.3555L11.8178 39.3704L11.8076 39.3855L14.29 41.07ZM17.62 38.46L16.4474 35.6987L16.4405 35.7016L16.4336 35.7045L17.62 38.46ZM26.77 38.19L25.7522 41.0121L25.7728 41.0195L25.7935 41.0266L26.77 38.19ZM29.68 40.14L27.3581 42.0397L27.3709 42.0553L27.3839 42.0708L29.68 40.14ZM27.22 46.71L25.1639 48.8946L25.195 48.9239L25.2269 48.9522L27.22 46.71ZM26.8 44.52L29.7486 45.0729L29.7723 44.9465L29.7851 44.8185L26.8 44.52ZM25.66 41.46L27.0785 38.8165L27.0785 38.8165L25.66 41.46ZM18.64 41.76L20.3419 44.2305L20.3532 44.2227L18.64 41.76ZM17.98 46.35L15.6963 48.2954L15.7168 48.3195L15.7378 48.3431L17.98 46.35ZM19.75 47.7L21.122 45.0321L21.122 45.0321L19.75 47.7ZM22.69 48.99L23.8231 46.2122L23.8098 46.2068L23.7965 46.2015L22.69 48.99ZM26.35 50.67L27.7825 48.0341L26.35 50.67ZM28.69 52.71L26.2833 54.501L26.2966 54.5188L26.3101 54.5365L28.69 52.71ZM26.98 61.35L28.7133 63.7986L28.7186 63.7949L26.98 61.35ZM19.81 60.24C17.4923 60.24 15.9759 59.7997 15.01 59.196L11.83 64.284C14.0641 65.6803 16.8077 66.24 19.81 66.24V60.24ZM15.0327 59.2103C14.3914 58.8015 14.02 58.2626 14.02 57.09H8.02C8.02 60.0774 9.24859 62.6385 11.8073 64.2697L15.0327 59.2103ZM14.02 57.09C14.02 56.7046 14.054 56.4495 14.0886 56.2969C14.1229 56.145 14.147 56.1415 14.0994 56.2141L9.08062 52.9259C8.24358 54.2035 8.02 55.7196 8.02 57.09H14.02ZM14.0994 56.2141C14.0356 56.3115 13.8971 56.4662 13.6746 56.5815C13.46 56.6926 13.2969 56.7 13.27 56.7V50.7C11.5996 50.7 10.058 51.4341 9.08062 52.9259L14.0994 56.2141ZM13.27 56.7C13.2824 56.7 13.2145 56.7017 13.0954 56.6638C12.9692 56.6236 12.8219 56.5503 12.6829 56.4358L16.4971 51.8042C15.5066 50.9885 14.3433 50.7 13.27 50.7V56.7ZM12.6829 56.4358C12.548 56.3247 12.383 56.142 12.2598 55.881C12.1365 55.62 12.1 55.3759 12.1 55.2H18.1C18.1 53.8625 17.5283 52.6534 16.4971 51.8042L12.6829 56.4358ZM12.1 55.2C12.1 55.459 12.0798 55.6039 12.0683 55.6617L17.9517 56.8383C18.0602 56.2961 18.1 55.741 18.1 55.2H12.1ZM12.01 56.25C12.01 56.1987 12.0116 56.1563 12.0132 56.1251C12.0149 56.0935 12.0169 56.0679 12.0186 56.0496C12.0218 56.0143 12.0248 55.9932 12.0252 55.9907C12.0256 55.9877 12.0217 56.0146 12.0083 56.0817L17.8917 57.2583C17.929 57.072 18.01 56.6633 18.01 56.25H12.01ZM11.9649 56.3715C11.9341 56.6795 11.92 56.9895 11.92 57.3H17.92C17.92 57.1705 17.9259 57.0605 17.9351 56.9685L11.9649 56.3715ZM11.92 57.3C11.92 58.2746 12.1723 59.2646 12.7671 60.1502C13.3494 61.0172 14.1416 61.6088 14.9524 62.0052L17.5876 56.6148C17.4984 56.5712 17.6156 56.6078 17.7479 56.8048C17.812 56.9002 17.8593 57.0043 17.8883 57.1053C17.9165 57.2037 17.92 57.2736 17.92 57.3H11.92ZM14.9756 62.0164C16.4724 62.7323 18.2639 62.97 20.11 62.97V56.97C18.6761 56.97 17.9076 56.7677 17.5644 56.6036L14.9756 62.0164ZM20.11 62.97C22.1094 62.97 24.0709 62.6259 25.69 61.614L22.51 56.526C22.2091 56.7141 21.5106 56.97 20.11 56.97V62.97ZM25.7276 61.5901C27.5031 60.4435 28.54 58.6554 28.54 56.49H22.54C22.54 56.546 22.534 56.5649 22.5361 56.5564C22.5386 56.5463 22.546 56.5238 22.5604 56.4979C22.5746 56.4724 22.5853 56.4623 22.5798 56.4679C22.5731 56.4749 22.5426 56.5046 22.4724 56.5499L25.7276 61.5901ZM28.54 56.49C28.54 55.096 28.0628 53.7825 27.0915 52.7228L22.6685 56.7772C22.6444 56.7508 22.6016 56.6923 22.57 56.609C22.5392 56.5278 22.54 56.4785 22.54 56.49H28.54ZM27.1321 52.7681C26.403 51.9395 25.5213 51.2969 24.5388 50.8206L21.9212 56.2194C22.2587 56.3831 22.477 56.5605 22.6279 56.7319L27.1321 52.7681ZM24.6039 50.8531C23.8196 50.4491 22.7882 49.9982 21.5542 49.5046L19.3258 55.0754C20.4918 55.5418 21.3204 55.9109 21.8561 56.1869L24.6039 50.8531ZM21.5291 49.4947C20.0601 48.9223 18.9316 48.4064 18.1078 47.9525L15.2122 53.2075C16.3484 53.8336 17.7399 54.4577 19.3509 55.0853L21.5291 49.4947ZM18.1308 47.9653C17.5452 47.6359 17.0221 47.1841 16.5575 46.5734L11.7825 50.2066C12.7179 51.4359 13.8548 52.4441 15.1892 53.1947L18.1308 47.9653ZM16.6007 46.6316C16.3568 46.2945 16.15 45.7814 16.15 44.91H10.15C10.15 46.7986 10.6232 48.6055 11.7393 50.1484L16.6007 46.6316ZM16.15 44.91C16.15 44.0302 16.3717 43.3451 16.7724 42.7545L11.8076 39.3855C10.6883 41.0349 10.15 42.9098 10.15 44.91H16.15ZM16.7518 42.7845C17.1668 42.1887 17.8022 41.6478 18.8064 41.2155L16.4336 35.7045C14.5578 36.5122 12.9732 37.7113 11.8282 39.3555L16.7518 42.7845ZM18.7926 41.2213C19.8054 40.7912 21.1008 40.53 22.75 40.53V34.53C20.4792 34.53 18.3546 34.8887 16.4474 35.6987L18.7926 41.2213ZM22.75 40.53C23.9062 40.53 24.897 40.7036 25.7522 41.0121L27.7878 35.3679C26.203 34.7964 24.5138 34.53 22.75 34.53V40.53ZM25.7935 41.0266C26.5595 41.2903 27.0366 41.6468 27.3581 42.0397L32.0019 38.2403C30.8834 36.8732 29.4205 35.9297 27.7465 35.3534L25.7935 41.0266ZM27.3839 42.0708C27.6172 42.3482 27.79 42.721 27.79 43.38H33.79C33.79 41.479 33.2228 39.6918 31.9761 38.2092L27.3839 42.0708ZM27.79 43.38C27.79 43.8678 27.7525 44.2155 27.7058 44.4492C27.6583 44.6864 27.6139 44.7431 27.6404 44.6984L32.7996 47.7616C33.5848 46.4391 33.79 44.8493 33.79 43.38H27.79ZM27.6404 44.6984C27.674 44.6418 27.7909 44.4799 28.0266 44.3453C28.2631 44.2101 28.4659 44.19 28.54 44.19V50.19C30.3463 50.19 31.8829 49.3054 32.7996 47.7616L27.6404 44.6984ZM28.54 44.19C28.5912 44.19 28.7023 44.1986 28.8452 44.2506C28.9917 44.3039 29.1181 44.3834 29.2131 44.4678L25.2269 48.9522C26.1817 49.8009 27.3487 50.19 28.54 50.19V44.19ZM29.2761 44.5254C29.3597 44.604 29.4806 44.7467 29.576 44.9599C29.6731 45.1771 29.71 45.3923 29.71 45.57H23.71C23.71 46.8922 24.2628 48.0465 25.1639 48.8946L29.2761 44.5254ZM29.71 45.57C29.71 45.3456 29.7279 45.1833 29.7486 45.0729L23.8514 43.9671C23.7521 44.4967 23.71 45.0344 23.71 45.57H29.71ZM29.7851 44.8185C29.8401 44.2681 29.89 43.722 29.89 43.38H23.89C23.89 43.3397 23.8914 43.3307 23.889 43.3748C23.8869 43.4119 23.8831 43.4685 23.8768 43.5489C23.8641 43.7097 23.8439 43.9318 23.8149 44.2215L29.7851 44.8185ZM29.89 43.38C29.89 42.4488 29.6551 41.5048 29.1086 40.6517C28.5723 39.8146 27.8388 39.2245 27.0785 38.8165L24.2415 44.1035C24.3012 44.1355 24.1827 44.0854 24.0564 43.8883C23.9199 43.6752 23.89 43.4711 23.89 43.38H29.89ZM27.0785 38.8165C25.7077 38.081 24.1662 37.8 22.6 37.8V43.8C23.4738 43.8 23.9723 43.959 24.2415 44.1035L27.0785 38.8165ZM22.6 37.8C20.5734 37.8 18.5529 38.1661 16.9268 39.2973L20.3532 44.2227C20.5671 44.0739 21.1866 43.8 22.6 43.8V37.8ZM16.9381 39.2895C15.1846 40.4975 14.29 42.3237 14.29 44.4H20.29C20.29 44.3125 20.2986 44.264 20.3026 44.2461C20.3062 44.2297 20.3069 44.2345 20.2985 44.2509C20.2948 44.2581 20.2906 44.2652 20.2864 44.2713C20.2844 44.2742 20.2826 44.2765 20.2813 44.2782C20.28 44.2799 20.2792 44.2807 20.2793 44.2806C20.2793 44.2806 20.2802 44.2796 20.2823 44.2775C20.2844 44.2755 20.2877 44.2724 20.2925 44.2682C20.302 44.2599 20.3179 44.2471 20.3419 44.2305L16.9381 39.2895ZM14.29 44.4C14.29 45.818 14.7395 47.1722 15.6963 48.2954L20.2637 44.4046C20.2619 44.4025 20.2665 44.4076 20.2734 44.4195C20.2767 44.4252 20.28 44.4315 20.2831 44.4382C20.2862 44.4449 20.2887 44.4512 20.2907 44.4568C20.2948 44.4685 20.295 44.4728 20.294 44.4664C20.2929 44.4596 20.29 44.4384 20.29 44.4H14.29ZM15.7378 48.3431C16.4849 49.1836 17.3783 49.8538 18.378 50.3679L21.122 45.0321C20.7217 44.8262 20.4351 44.5964 20.2222 44.3569L15.7378 48.3431ZM18.378 50.3679C19.2043 50.7929 20.2875 51.2642 21.5835 51.7785L23.7965 46.2015C22.5725 45.7158 21.6957 45.3271 21.122 45.0321L18.378 50.3679ZM21.5569 51.7678C23.025 52.3666 24.1329 52.8795 24.9175 53.3059L27.7825 48.0341C26.7271 47.4605 25.395 46.8534 23.8231 46.2122L21.5569 51.7678ZM24.9175 53.3059C25.4461 53.5932 25.8966 53.9814 26.2833 54.501L31.0967 50.919C30.2034 49.7186 29.0939 48.7468 27.7825 48.0341L24.9175 53.3059ZM26.3101 54.5365C26.5049 54.7903 26.68 55.1788 26.68 55.89H32.68C32.68 54.0812 32.1951 52.3497 31.0699 50.8835L26.3101 54.5365ZM26.68 55.89C26.68 57.3571 26.1884 58.2317 25.2414 58.9051L28.7186 63.7949C31.3716 61.9083 32.68 59.1429 32.68 55.89H26.68ZM25.2467 58.9014C24.132 59.6904 22.4166 60.24 19.81 60.24V66.24C23.2034 66.24 26.268 65.5296 28.7133 63.7986L25.2467 58.9014ZM44.2108 56.67L41.6194 58.1816L41.6648 58.2593L41.7146 58.3341L44.2108 56.67ZM43.8808 59.52L41.6103 57.5591L41.5802 57.5941L41.5511 57.6299L43.8808 59.52ZM41.0608 62.13L39.3967 59.6338L39.3852 59.6415L39.3739 59.6492L41.0608 62.13ZM33.7108 60.75L31.0546 62.1445L31.0614 62.1574L31.0683 62.1703L33.7108 60.75ZM33.3808 46.2L30.442 45.5972L30.4401 45.6062L30.4383 45.6153L33.3808 46.2ZM36.1708 38.16L33.5461 36.7071L33.5411 36.7161L33.5362 36.7251L36.1708 38.16ZM42.8308 36.15L40.2583 37.6935L40.2786 37.7273L40.2998 37.7606L42.8308 36.15ZM41.6908 48.24L38.9252 47.0774L38.9252 47.0774L41.6908 48.24ZM36.3208 57.57L33.9021 55.7952L33.1495 56.8209L33.3636 58.0749L36.3208 57.57ZM37.0108 59.34L34.7686 61.3331L34.7969 61.365L34.8262 61.3961L37.0108 59.34ZM40.4308 59.16L42.2183 61.5693L42.243 61.551L42.2673 61.5322L40.4308 59.16ZM42.8008 56.73L40.523 54.7776L40.5145 54.7876L40.506 54.7976L42.8008 56.73ZM38.3608 40.26L35.5287 39.2705L35.5287 39.2705L38.3608 40.26ZM36.8308 46.44L33.8776 45.9118L33.8776 45.9118L36.8308 46.44ZM36.1108 53.52L33.1113 53.4669L32.9147 64.5694L38.6755 55.0764L36.1108 53.52ZM39.5008 46.5L42.3244 47.5136L42.3271 47.506L39.5008 46.5ZM43.6108 59.31C43.2611 59.31 42.8306 59.2234 42.4123 58.9725C42.0035 58.7272 41.7553 58.4144 41.6194 58.1816L46.8021 55.1584C46.1695 54.0739 45.0242 53.31 43.6108 53.31V59.31ZM41.7146 58.3341C41.5688 58.1153 41.5036 57.9213 41.4752 57.8043C41.4478 57.691 41.4508 57.6344 41.4508 57.66H47.4508C47.4508 56.9041 47.3135 55.9158 46.7069 55.0059L41.7146 58.3341ZM41.4508 57.66C41.4508 57.8288 41.4301 57.8783 41.4399 57.846C41.4455 57.8278 41.4594 57.7885 41.4879 57.7354C41.5169 57.6817 41.5571 57.6208 41.6103 57.5591L46.1513 61.4809C47.1529 60.3211 47.4508 58.9093 47.4508 57.66H41.4508ZM41.5511 57.6299C40.8599 58.4818 40.1389 59.139 39.3967 59.6338L42.7249 64.6262C44.0226 63.761 45.1817 62.6782 46.2105 61.4101L41.5511 57.6299ZM39.3739 59.6492C38.9012 59.9706 38.3562 60.15 37.6408 60.15V66.15C39.4853 66.15 41.2204 65.6494 42.7477 64.6108L39.3739 59.6492ZM37.6408 60.15C37.23 60.15 37.0202 60.062 36.9018 59.9897C36.7784 59.9143 36.5777 59.7472 36.3533 59.3297L31.0683 62.1703C31.7039 63.3528 32.5882 64.3857 33.7747 65.1103C34.9663 65.838 36.2916 66.15 37.6408 66.15V60.15ZM36.367 59.3555C35.8256 58.3244 35.4508 56.7797 35.4508 54.54H29.4508C29.4508 57.3803 29.9159 59.9756 31.0546 62.1445L36.367 59.3555ZM35.4508 54.54C35.4508 52.345 35.7307 49.7667 36.3232 46.7847L30.4383 45.6153C29.7909 48.8733 29.4508 51.855 29.4508 54.54H35.4508ZM36.3196 46.8028C36.9141 43.9047 37.7576 41.5187 38.8054 39.5949L33.5362 36.7251C32.144 39.2813 31.1275 42.2553 30.442 45.5972L36.3196 46.8028ZM38.7955 39.6129C39.7995 37.7991 40.4655 37.8 40.5808 37.8V31.8C37.2961 31.8 35.022 34.0409 33.5461 36.7071L38.7955 39.6129ZM40.5808 37.8C40.585 37.8 40.5537 37.8003 40.4979 37.7856C40.4404 37.7705 40.3781 37.745 40.3198 37.71C40.1959 37.6356 40.1913 37.5818 40.2583 37.6935L45.4033 34.6065C44.3821 32.9046 42.708 31.8 40.5808 31.8V37.8ZM40.2998 37.7606C40.4221 37.9528 40.6708 38.5628 40.6708 39.96H46.6708C46.6708 38.0372 46.3595 36.1072 45.3618 34.5394L40.2998 37.7606ZM40.6708 39.96C40.6708 41.8078 40.152 44.1591 38.9252 47.0774L44.4564 49.4026C45.8696 46.0409 46.6708 42.8722 46.6708 39.96H40.6708ZM38.9252 47.0774C37.7067 49.976 36.0394 52.8824 33.9021 55.7952L38.7395 59.3448C41.1221 56.0976 43.0349 52.784 44.4564 49.4026L38.9252 47.0774ZM33.3636 58.0749C33.5376 59.0945 33.8934 60.3485 34.7686 61.3331L39.253 57.3469C39.3243 57.4271 39.3652 57.4914 39.3839 57.5238C39.4025 57.5559 39.4035 57.5639 39.3934 57.5379C39.3708 57.4799 39.3238 57.3335 39.278 57.0651L33.3636 58.0749ZM34.8262 61.3961C35.7806 62.4102 37.0276 62.85 38.2708 62.85V56.85C38.3402 56.85 38.4949 56.8622 38.6914 56.9417C38.8949 57.024 39.0681 57.1486 39.1954 57.2839L34.8262 61.3961ZM38.2708 62.85C39.692 62.85 41.0481 62.4375 42.2183 61.5693L38.6432 56.7507C38.5735 56.8025 38.4896 56.85 38.2708 56.85V62.85ZM42.2673 61.5322C43.1439 60.8535 44.0977 59.8474 45.0955 58.6624L40.506 54.7976C39.5839 55.8926 38.9576 56.5065 38.5943 56.7878L42.2673 61.5322ZM45.0785 58.6824C44.9999 58.7742 44.8353 58.9377 44.5642 59.0783C44.2787 59.2263 43.9483 59.31 43.6108 59.31V53.31C42.2377 53.31 41.1906 53.9988 40.523 54.7776L45.0785 58.6824ZM39.9208 34.77C38.8594 34.77 38.0772 35.2539 37.6257 35.6364C37.1779 36.0156 36.8609 36.4528 36.6435 36.7997C36.2062 37.4978 35.8441 38.3677 35.5287 39.2705L41.1929 41.2495C41.3187 40.8895 41.4312 40.6037 41.5287 40.3829C41.6287 40.1566 41.6973 40.0343 41.7281 39.9852C41.7707 39.9172 41.7062 40.0432 41.5034 40.2149C41.2969 40.3898 40.7521 40.77 39.9208 40.77V34.77ZM35.5287 39.2705C34.8794 41.1288 34.335 43.3546 33.8776 45.9118L39.7839 46.9682C40.2065 44.6054 40.6822 42.7112 41.1929 41.2495L35.5287 39.2705ZM33.8776 45.9118C33.4125 48.5125 33.1543 51.0319 33.1113 53.4669L39.1103 53.5731C39.1472 51.4881 39.3691 49.2875 39.7839 46.9682L33.8776 45.9118ZM38.6755 55.0764C40.1894 52.5816 41.4101 50.0606 42.3244 47.5136L36.6772 45.4864C35.9115 47.6194 34.8722 49.7784 33.5461 51.9636L38.6755 55.0764ZM42.3271 47.506C43.2503 44.9123 43.7608 42.4162 43.7608 40.05H37.7608C37.7608 41.5638 37.4313 43.3677 36.6745 45.494L42.3271 47.506ZM43.7608 40.05C43.7608 39.1902 43.6928 38.1904 43.3658 37.3029C43.1956 36.841 42.8865 36.2176 42.301 35.6879C41.6514 35.1001 40.814 34.77 39.9208 34.77V40.77C39.3076 40.77 38.7152 40.5349 38.2755 40.1371C37.9 39.7974 37.7659 39.459 37.7358 39.3771C37.7004 39.2811 37.7131 39.2755 37.7307 39.4182C37.7469 39.5503 37.7608 39.7557 37.7608 40.05H43.7608ZM57.9259 54.18L55.2845 55.6023L55.2845 55.6023L57.9259 54.18ZM57.2659 56.88L56.3767 54.0148L56.3255 54.0307L56.2749 54.0484L57.2659 56.88ZM53.3059 57.6L53.181 54.6026L50.8865 54.6982L50.3799 56.9381L53.3059 57.6ZM51.0559 61.65L53.054 63.8878L53.065 63.878L53.0759 63.868L51.0559 61.65ZM44.1559 62.28L42.4514 64.7487L42.4649 64.758L42.4785 64.7672L44.1559 62.28ZM42.4459 52.8L45.1383 54.1234L45.1427 54.1144L45.147 54.1055L42.4459 52.8ZM44.8459 50.01L46.4757 52.5287L46.4929 52.5175L46.51 52.5062L44.8459 50.01ZM51.8959 50.58L49.6303 52.5464L49.6501 52.5692L49.6703 52.5916L51.8959 50.58ZM53.5459 54.45L50.562 54.76L50.8599 57.6276L53.737 57.4439L53.5459 54.45ZM56.9059 53.85L56.1783 50.9396L56.1626 50.9435L56.1469 50.9476L56.9059 53.85ZM49.1359 59.19L46.9315 57.1552L46.91 57.1785L46.8889 57.2023L49.1359 59.19ZM50.0959 56.94L53.0567 57.4234L53.3656 55.5314L51.7785 54.4562L50.0959 56.94ZM48.6559 55.29L45.9415 56.5674L45.9567 56.5997L45.9727 56.6316L48.6559 55.29ZM48.2659 52.17L51.2146 52.7229L51.8807 49.17H48.2659V52.17ZM46.1059 53.34L43.6394 51.6324L43.6347 51.6391L43.63 51.6459L46.1059 53.34ZM45.9559 59.1L43.5261 60.8595L43.5457 60.8866L43.5659 60.9132L45.9559 59.1ZM57.3259 56.79C56.9299 56.79 56.4663 56.6825 56.036 56.4028C55.6251 56.1358 55.397 55.8113 55.2845 55.6023L60.5674 52.7577C59.9906 51.6866 58.8607 50.79 57.3259 50.79V56.79ZM55.2845 55.6023C55.1205 55.2978 55.1359 55.0982 55.1359 55.17H61.1359C61.1359 54.4418 61.0113 53.5822 60.5673 52.7577L55.2845 55.6023ZM55.1359 55.17C55.1359 55.3943 55.0947 55.2518 55.2446 54.9571C55.3288 54.7915 55.4694 54.5879 55.6877 54.3996C55.9088 54.2091 56.1512 54.0848 56.3767 54.0148L58.1551 59.7452C59.2635 59.4012 60.1017 58.642 60.5923 57.6779C61.0322 56.8132 61.1359 55.9057 61.1359 55.17H55.1359ZM56.2749 54.0484C55.3883 54.3587 54.3645 54.5533 53.181 54.6026L53.4308 60.5974C55.1274 60.5267 56.7436 60.2413 58.257 59.7116L56.2749 54.0484ZM50.3799 56.9381C50.1161 58.104 49.6412 58.8808 49.0359 59.432L53.0759 63.868C54.7107 62.3792 55.7357 60.456 56.232 58.2619L50.3799 56.9381ZM49.0579 59.4122C48.4532 59.9521 47.884 60.15 47.2459 60.15V66.15C49.4479 66.15 51.4186 65.3479 53.054 63.8878L49.0579 59.4122ZM47.2459 60.15C46.5473 60.15 46.1235 59.9885 45.8334 59.7928L42.4785 64.7672C43.9084 65.7315 45.5445 66.15 47.2459 66.15V60.15ZM45.8605 59.8113C45.4806 59.549 45.1863 59.2069 44.9631 58.72L39.5087 61.22C40.1656 62.6531 41.1512 63.851 42.4514 64.7487L45.8605 59.8113ZM44.9631 58.72C44.7137 58.1758 44.5759 57.5652 44.5759 56.85H38.5759C38.5759 58.3748 38.8782 59.8442 39.5087 61.22L44.9631 58.72ZM44.5759 56.85C44.5759 55.7173 44.7901 54.8318 45.1383 54.1234L39.7536 51.4766C38.9418 53.1282 38.5759 54.9427 38.5759 56.85H44.5759ZM45.147 54.1055C45.5118 53.3508 45.9614 52.8615 46.4757 52.5287L43.2162 47.4913C41.6905 48.4785 40.5401 49.8492 39.7449 51.4945L45.147 54.1055ZM46.51 52.5062C47.0312 52.1587 47.5809 51.99 48.2359 51.99V45.99C46.4109 45.99 44.7006 46.5013 43.1818 47.5138L46.51 52.5062ZM48.2359 51.99C48.9681 51.99 49.3314 52.202 49.6303 52.5464L54.1616 48.6136C52.6205 46.838 50.5438 45.99 48.2359 45.99V51.99ZM49.6703 52.5916C50.1388 53.1099 50.4606 53.7838 50.562 54.76L56.5299 54.14C56.3113 52.0362 55.5331 50.1301 54.1216 48.5684L49.6703 52.5916ZM53.737 57.4439C54.9308 57.3677 56.2507 57.1223 57.665 56.7524L56.1469 50.9476C54.9612 51.2577 54.0411 51.4123 53.3548 51.4561L53.737 57.4439ZM57.6335 56.7604C57.6295 56.7614 57.6024 56.7681 57.5552 56.7748C57.5087 56.7815 57.4303 56.79 57.3259 56.79V50.79C56.8886 50.79 56.4944 50.8605 56.1783 50.9396L57.6335 56.7604ZM47.4859 62.97C49.0641 62.97 50.4078 62.28 51.3829 61.1777L46.8889 57.2023C46.8884 57.2029 46.9045 57.1846 46.9404 57.1569C46.9769 57.1286 47.029 57.0946 47.0963 57.0628C47.243 56.9934 47.3862 56.97 47.4859 56.97V62.97ZM51.3403 61.2248C52.3496 60.1315 52.8387 58.7586 53.0567 57.4234L47.1351 56.4566C47.0331 57.0814 46.8822 57.2085 46.9315 57.1552L51.3403 61.2248ZM51.7785 54.4562C51.5912 54.3294 51.4528 54.1755 51.3392 53.9484L45.9727 56.6316C46.5391 57.7645 47.3607 58.7106 48.4134 59.4238L51.7785 54.4562ZM51.3704 54.0126C51.2406 53.7368 51.1759 53.4535 51.1759 53.13H45.1759C45.1759 54.3265 45.4313 55.4832 45.9415 56.5674L51.3704 54.0126ZM51.1759 53.13C51.1759 52.9987 51.1881 52.8637 51.2146 52.7229L45.3173 51.6171C45.2237 52.1163 45.1759 52.6213 45.1759 53.13H51.1759ZM48.2659 49.17H48.1159V55.17H48.2659V49.17ZM48.1159 49.17C46.1391 49.17 44.6205 50.2152 43.6394 51.6324L48.5725 55.0476C48.647 54.94 48.6431 54.9851 48.5226 55.0552C48.4629 55.09 48.3902 55.1214 48.3096 55.1428C48.2296 55.164 48.1621 55.17 48.1159 55.17V49.17ZM43.63 51.6459C42.6335 53.1025 42.3259 54.8698 42.3259 56.58H48.3259C48.3259 55.4902 48.5384 55.0975 48.5819 55.0341L43.63 51.6459ZM42.3259 56.58C42.3259 57.9942 42.5847 59.5595 43.5261 60.8595L48.3858 57.3405C48.442 57.4181 48.4249 57.4316 48.3939 57.3074C48.3618 57.1793 48.3259 56.9473 48.3259 56.58H42.3259ZM43.5659 60.9132C44.4131 62.0299 45.7311 62.97 47.4859 62.97V56.97C47.7221 56.97 47.9598 57.0357 48.1513 57.1446C48.3235 57.2425 48.3779 57.3289 48.346 57.2868L43.5659 60.9132ZM72.1811 56.67L69.5898 58.1816L69.6351 58.2593L69.6849 58.3341L72.1811 56.67ZM71.8511 59.52L69.5806 57.5591L69.5505 57.5941L69.5214 57.6299L71.8511 59.52ZM69.0611 62.13L67.3742 59.6492L67.3625 59.6572L67.3508 59.6652L69.0611 62.13ZM63.1211 62.01L65.3862 60.0429L63.6757 58.0733L61.4877 59.4937L63.1211 62.01ZM59.5511 63.15L59.5027 60.1504L56.7433 60.1949L56.5579 62.9484L59.5511 63.15ZM57.7811 72.81L54.9554 71.8024L54.9529 71.8093L57.7811 72.81ZM51.9011 65.43L49.0661 64.4487L49.0638 64.4554L51.9011 65.43ZM56.0711 56.82L58.645 58.3611L59.0711 57.6494V56.82H56.0711ZM56.0111 50.73L53.0129 50.8334L53.0129 50.8352L56.0111 50.73ZM56.7011 49.35L58.4351 51.7981L58.4351 51.7981L56.7011 49.35ZM59.4011 49.11L57.2798 51.2313L57.3973 51.3488L57.527 51.4526L59.4011 49.11ZM59.7311 50.1H62.7311V50.04L62.7287 49.9801L59.7311 50.1ZM59.7611 51.21L56.7715 51.4591L57.3971 58.9673L62.1037 53.0841L59.7611 51.21ZM61.6511 49.5L63.0936 52.1304L63.1258 52.1128L63.1575 52.0944L61.6511 49.5ZM66.3611 50.31L63.993 52.1518L64.0057 52.168L64.0185 52.1841L66.3611 50.31ZM66.9311 56.94L64.0908 55.9743L64.0908 55.9743L66.9311 56.94ZM65.5211 59.67L63.1 57.8985L60.5583 61.3721L64.6969 62.5546L65.5211 59.67ZM70.7711 56.73L68.4933 54.7776L68.4832 54.7895L68.4732 54.8014L70.7711 56.73ZM59.7011 60.27L56.7035 60.1501L56.5477 64.0439L60.3519 63.1986L59.7011 60.27ZM61.6811 59.1L59.5264 57.0126L59.5253 57.0137L61.6811 59.1ZM63.1511 56.76L65.9448 57.8532L65.9488 57.8431L65.9527 57.8329L63.1511 56.76ZM63.3311 52.47L60.9311 54.27L60.9592 54.3075L60.9885 54.3441L63.3311 52.47ZM59.7611 54.27L57.27 52.5983L56.7818 53.3259L56.7619 54.2018L59.7611 54.27ZM55.3211 70.23L52.356 69.7738L52.3554 69.7776L55.3211 70.23ZM56.0111 61.47L59.0099 61.5557L53.2551 60.2849L56.0111 61.47ZM53.9711 67.2L51.0783 66.4053L51.0783 66.4053L53.9711 67.2ZM53.4611 73.26L56.2351 72.1178L56.207 72.0494L56.1755 71.9826L53.4611 73.26ZM71.5811 59.31C71.2314 59.31 70.8009 59.2234 70.3826 58.9725C69.9738 58.7272 69.7256 58.4144 69.5898 58.1816L74.7724 55.1584C74.1398 54.0739 72.9945 53.31 71.5811 53.31V59.31ZM69.6849 58.3341C69.5391 58.1153 69.4739 57.9213 69.4455 57.8043C69.4181 57.691 69.4211 57.6344 69.4211 57.66H75.4211C75.4211 56.9041 75.2838 55.9158 74.6773 55.0059L69.6849 58.3341ZM69.4211 57.66C69.4211 57.8288 69.4004 57.8783 69.4103 57.846C69.4158 57.8278 69.4297 57.7885 69.4583 57.7354C69.4872 57.6817 69.5274 57.6208 69.5806 57.5591L74.1216 61.4809C75.1232 60.3211 75.4211 58.9093 75.4211 57.66H69.4211ZM69.5214 57.6299C68.8224 58.4915 68.1034 59.1533 67.3742 59.6492L70.748 64.6108C72.0188 63.7467 73.1598 62.6685 74.1808 61.4101L69.5214 57.6299ZM67.3508 59.6652C66.9022 59.9765 66.3862 60.15 65.7011 60.15V66.15C67.536 66.15 69.26 65.6435 70.7713 64.5948L67.3508 59.6652ZM65.7011 60.15C65.5354 60.15 65.4758 60.1219 65.4736 60.1209C65.469 60.1189 65.4634 60.1161 65.4536 60.1088C65.4433 60.101 65.4202 60.0821 65.3862 60.0429L60.856 63.9771C62.1193 65.4318 63.8246 66.15 65.7011 66.15V60.15ZM61.4877 59.4937C60.7732 59.9574 60.126 60.1403 59.5027 60.1504L59.5995 66.1496C61.4562 66.1197 63.189 65.5426 64.7545 64.5263L61.4877 59.4937ZM56.5579 62.9484C56.3094 66.6368 55.7534 69.5644 54.9554 71.8024L60.6068 73.8176C61.6488 70.8956 62.2728 67.3832 62.5443 63.3516L56.5579 62.9484ZM54.9529 71.8093C54.5808 72.8609 54.2162 73.3636 53.9977 73.574C53.849 73.7172 53.8008 73.71 53.7311 73.71V79.71C57.4409 79.71 59.5377 76.839 60.6093 73.8107L54.9529 71.8093ZM53.7311 73.71C53.5509 73.71 53.5481 73.6781 53.6357 73.7209C53.678 73.7415 53.7231 73.771 53.7635 73.8068C53.8033 73.8421 53.8231 73.8698 53.8272 73.8759L48.8349 77.2041C50.0031 78.9563 51.8255 79.71 53.7311 79.71V73.71ZM53.8272 73.8759C53.7568 73.7703 53.5511 73.352 53.5511 72.3H47.5511C47.5511 74.008 47.8654 75.7497 48.8349 77.2041L53.8272 73.8759ZM53.5511 72.3C53.5511 70.7777 53.9052 68.83 54.7384 66.4046L49.0638 64.4554C48.097 67.27 47.5511 69.9023 47.5511 72.3H53.5511ZM54.7361 66.4113C55.5506 64.0582 56.8386 61.3781 58.645 58.3611L53.4972 55.2789C51.5436 58.5419 50.0516 61.6018 49.0661 64.4487L54.7361 66.4113ZM59.0711 56.82C59.0711 53.9024 59.0513 51.8238 59.0092 50.6248L53.0129 50.8352C53.0509 51.9162 53.0711 53.8976 53.0711 56.82H59.0711ZM59.0093 50.6266C59.0143 50.7718 58.9883 51.0189 58.8519 51.2916C58.7163 51.5627 58.5393 51.7243 58.4351 51.7981L54.967 46.9019C53.6767 47.8159 52.9575 49.2279 53.0129 50.8334L59.0093 50.6266ZM58.4351 51.7981C58.41 51.8159 58.3856 51.8297 58.3646 51.8396C58.3438 51.8494 58.3308 51.8533 58.3289 51.8539C58.3255 51.8548 58.3759 51.84 58.5011 51.84V45.84C57.3012 45.84 56.0582 46.129 54.967 46.9019L58.4351 51.7981ZM58.5011 51.84C58.5006 51.84 58.4724 51.8401 58.4215 51.8337C58.3709 51.8274 58.287 51.8133 58.1791 51.781C57.9617 51.7158 57.6128 51.5644 57.2798 51.2313L61.5224 46.9887C60.5082 45.9745 59.2256 45.84 58.5011 45.84V51.84ZM57.527 51.4526C57.0406 51.0635 56.8518 50.6191 56.7875 50.4262C56.7236 50.2345 56.7303 50.1397 56.7335 50.2199L62.7287 49.9801C62.7037 49.3545 62.5741 47.8065 61.2752 46.7674L57.527 51.4526ZM56.7311 50.1C56.7311 50.6147 56.7406 51.0884 56.7715 51.4591L62.7507 50.9609C62.7416 50.8516 62.7311 50.5853 62.7311 50.1H56.7311ZM62.1037 53.0841C62.5983 52.4658 62.9395 52.2149 63.0936 52.1304L60.2086 46.8696C59.1227 47.4651 58.2039 48.3542 57.4185 49.3359L62.1037 53.0841ZM63.1575 52.0944C63.3315 51.9933 63.4735 51.96 63.6311 51.96V45.96C62.3887 45.96 61.2107 46.2867 60.1447 46.9056L63.1575 52.0944ZM63.6311 51.96C63.7781 51.96 63.8235 51.9865 63.8238 51.9867C63.8258 51.9877 63.8864 52.0147 63.993 52.1518L68.7292 48.4682C67.4728 46.8528 65.6962 45.96 63.6311 45.96V51.96ZM64.0185 52.1841C64.2101 52.4237 64.4411 52.8861 64.4411 53.85H70.4411C70.4411 51.8939 69.952 49.9963 68.7037 48.4359L64.0185 52.1841ZM64.4411 53.85C64.4411 54.5827 64.3247 55.2864 64.0908 55.9743L69.7714 57.9057C70.2175 56.5936 70.4411 55.2373 70.4411 53.85H64.4411ZM64.0908 55.9743C63.8449 56.6974 63.5131 57.3338 63.1 57.8985L67.9422 61.4415C68.729 60.3662 69.3373 59.1826 69.7714 57.9057L64.0908 55.9743ZM64.6969 62.5546C65.253 62.7135 65.9022 62.85 66.5711 62.85V56.85C66.639 56.85 66.6552 56.8567 66.6055 56.8481C66.5585 56.8401 66.4736 56.8221 66.3453 56.7854L64.6969 62.5546ZM66.5711 62.85C68.0208 62.85 69.2946 62.305 70.3352 61.4726L66.587 56.7874C66.4968 56.8596 66.4572 56.8717 66.4706 56.8665C66.4768 56.8642 66.4911 56.8595 66.5117 56.8556C66.5326 56.8517 66.5531 56.85 66.5711 56.85V62.85ZM70.3352 61.4726C71.1716 60.8035 72.0939 59.8205 73.069 58.6586L68.4732 54.8014C67.5683 55.8795 66.9506 56.4965 66.587 56.7874L70.3352 61.4726ZM73.0489 58.6824C72.9702 58.7742 72.8056 58.9377 72.5345 59.0783C72.249 59.2263 71.9186 59.31 71.5811 59.31V53.31C70.208 53.31 69.1609 53.9988 68.4933 54.7776L73.0489 58.6824ZM60.3519 63.1986C61.7372 62.8907 62.8993 62.1551 63.8369 61.1863L59.5253 57.0137C59.2629 57.2849 59.105 57.3293 59.0503 57.3414L60.3519 63.1986ZM63.8358 61.1874C64.7613 60.2321 65.4556 59.1033 65.9448 57.8532L60.3574 55.6668C60.1265 56.2567 59.8409 56.6879 59.5264 57.0126L63.8358 61.1874ZM65.9527 57.8329C66.4456 56.5458 66.6911 55.2018 66.6911 53.82H60.6911C60.6911 54.4782 60.5766 55.0942 60.3495 55.6871L65.9527 57.8329ZM66.6911 53.82C66.6911 52.8995 66.5201 51.6539 65.6737 50.5959L60.9885 54.3441C60.7999 54.1083 60.7272 53.8987 60.7024 53.8055C60.6791 53.718 60.6911 53.7102 60.6911 53.82H66.6911ZM65.7311 50.67C64.9245 49.5946 63.7154 48.99 62.3711 48.99V54.99C62.1609 54.99 61.873 54.9451 61.5695 54.7933C61.2659 54.6415 61.0572 54.4381 60.9311 54.27L65.7311 50.67ZM62.3711 48.99C60.9575 48.99 59.875 49.7153 59.2049 50.3007C58.4923 50.9232 57.8516 51.7317 57.27 52.5983L62.2522 55.9417C62.4634 55.6269 62.6488 55.3786 62.8076 55.1871C62.9683 54.9932 63.084 54.879 63.1523 54.8193C63.2243 54.7564 63.2065 54.7867 63.0967 54.8392C62.9802 54.8949 62.7277 54.99 62.3711 54.99V48.99ZM56.7619 54.2018C56.7411 55.1167 56.7311 56.434 56.7311 58.14H62.7311C62.7311 56.446 62.7411 55.1833 62.7603 54.3382L56.7619 54.2018ZM56.7311 58.14C56.7311 59.0471 56.7211 59.7102 56.7035 60.1501L62.6987 60.3899C62.7211 59.8298 62.7311 59.0729 62.7311 58.14H56.7311ZM53.9711 76.77C55.3217 76.77 56.2156 76.0036 56.6575 75.477C57.0897 74.9618 57.3511 74.3882 57.5167 73.954C57.8575 73.0602 58.0977 71.9221 58.2868 70.6824L52.3554 69.7776C52.1845 70.8979 52.0196 71.5298 51.9105 71.816C51.8511 71.9718 51.8762 71.8407 52.061 71.6205C52.2553 71.3889 52.8905 70.77 53.9711 70.77V76.77ZM58.2862 70.6862C58.6717 68.1805 58.9078 65.127 59.0099 61.5557L53.0123 61.3843C52.9144 64.813 52.6905 67.5995 52.356 69.7738L58.2862 70.6862ZM53.2551 60.2849C52.3486 62.3929 51.6199 64.4338 51.0783 66.4053L56.8639 67.9947C57.3223 66.3262 57.9536 64.5471 58.7671 62.6551L53.2551 60.2849ZM51.0783 66.4053C50.5401 68.3643 50.2211 70.1805 50.2211 71.79H56.2211C56.2211 70.9195 56.4021 69.6757 56.8639 67.9947L51.0783 66.4053ZM50.2211 71.79C50.2211 72.6028 50.3104 73.6105 50.7466 74.5374L56.1755 71.9826C56.2121 72.0603 56.2304 72.1171 56.238 72.1435C56.2457 72.1702 56.2454 72.1755 56.2419 72.1541C56.2342 72.1069 56.2211 71.9918 56.2211 71.79H50.2211ZM50.6871 74.4022C50.8822 74.8761 51.7578 76.77 53.9711 76.77V70.77C54.8237 70.77 55.4589 71.1652 55.8149 71.5212C56.118 71.8243 56.2261 72.0958 56.2351 72.1178L50.6871 74.4022ZM83.9845 56.67L81.3931 58.1816L81.4384 58.2593L81.4883 58.3341L83.9845 56.67ZM83.6545 59.52L81.384 57.5591L81.3602 57.5866L81.3372 57.6147L83.6545 59.52ZM80.5045 62.01L79.041 59.3912L79.0327 59.3958L79.0244 59.4005L80.5045 62.01ZM71.2945 61.44L73.3972 59.3003L73.3972 59.3003L71.2945 61.44ZM70.4245 52.92L73.1168 54.2434L73.1212 54.2344L73.1255 54.2255L70.4245 52.92ZM72.8245 50.07L71.1493 47.5812L71.1381 47.5888L71.1269 47.5965L72.8245 50.07ZM79.1245 50.07L77.0031 52.1913L77.0185 52.2067L77.0341 52.2218L79.1245 50.07ZM78.6745 56.43L76.5531 54.3087L76.5531 54.3087L78.6745 56.43ZM73.6645 58.77L72.9485 55.8567L69.1712 56.785L71.0286 60.2025L73.6645 58.77ZM79.5745 59.22L81.0078 61.8555L81.0157 61.8511L81.0237 61.8467L79.5745 59.22ZM82.5745 56.73L80.2967 54.7776L80.2775 54.8001L80.2587 54.8229L82.5745 56.73ZM73.9345 53.25L71.3673 51.6977L71.3539 51.7198L71.3409 51.7421L73.9345 53.25ZM73.1845 56.43H70.1845V60.2252L73.8771 59.3489L73.1845 56.43ZM75.9745 55.17L74.0673 52.8542L74.0673 52.8542L75.9745 55.17ZM76.6645 52.32L74.3598 54.2405L74.4469 54.3451L74.5431 54.4413L76.6645 52.32ZM83.3845 59.31C83.0348 59.31 82.6042 59.2234 82.186 58.9725C81.7771 58.7272 81.5289 58.4144 81.3931 58.1816L86.5758 55.1584C85.9432 54.0739 84.7979 53.31 83.3845 53.31V59.31ZM81.4883 58.3341C81.3424 58.1153 81.2773 57.9213 81.2489 57.8043C81.2214 57.691 81.2245 57.6344 81.2245 57.66H87.2245C87.2245 56.9041 87.0872 55.9158 86.4806 55.0059L81.4883 58.3341ZM81.2245 57.66C81.2245 57.8288 81.2037 57.8783 81.2136 57.846C81.2192 57.8278 81.2331 57.7885 81.2616 57.7354C81.2905 57.6817 81.3308 57.6208 81.384 57.5591L85.9249 61.4809C86.9265 60.3211 87.2245 58.9093 87.2245 57.66H81.2245ZM81.3372 57.6147C80.9001 58.1463 80.178 58.7558 79.041 59.3912L81.9679 64.6288C83.5509 63.7442 84.9288 62.6937 85.9717 61.4253L81.3372 57.6147ZM79.0244 59.4005C78.1355 59.9046 77.2055 60.15 76.1845 60.15V66.15C78.2434 66.15 80.1934 65.6354 81.9845 64.6195L79.0244 59.4005ZM76.1845 60.15C74.6324 60.15 73.8463 59.7416 73.3972 59.3003L69.1917 63.5797C71.0626 65.4184 73.5365 66.15 76.1845 66.15V60.15ZM73.3972 59.3003C72.932 58.8431 72.5545 58.1222 72.5545 56.76H66.5545C66.5545 59.3578 67.3369 61.7569 69.1917 63.5797L73.3972 59.3003ZM72.5545 56.76C72.5545 55.8155 72.7493 54.9911 73.1168 54.2434L67.7321 51.5966C66.9396 53.2089 66.5545 54.9445 66.5545 56.76H72.5545ZM73.1255 54.2255C73.4965 53.458 73.9655 52.9254 74.522 52.5435L71.1269 47.5965C69.6434 48.6146 68.5124 49.982 67.7234 51.6145L73.1255 54.2255ZM74.4996 52.5588C75.0254 52.2048 75.6079 52.02 76.3345 52.02V46.02C74.461 46.02 72.7035 46.5352 71.1493 47.5812L74.4996 52.5588ZM76.3345 52.02C76.8462 52.02 76.962 52.1502 77.0031 52.1913L81.2458 47.9487C79.8869 46.5898 78.1427 46.02 76.3345 46.02V52.02ZM77.0341 52.2218C77.0614 52.2483 77.0819 52.2748 77.1042 52.3342C77.1307 52.4046 77.1745 52.5648 77.1745 52.86H83.1745C83.1745 51.0511 82.615 49.2783 81.2148 47.9182L77.0341 52.2218ZM77.1745 52.86C77.1745 53.4225 77.0061 53.8557 76.5531 54.3087L80.7958 58.5513C82.3428 57.0043 83.1745 55.0575 83.1745 52.86H77.1745ZM76.5531 54.3087C76.1536 54.7082 75.1256 55.3216 72.9485 55.8567L74.3804 61.6833C76.9233 61.0584 79.2353 60.1118 80.7958 58.5513L76.5531 54.3087ZM71.0286 60.2025C72.2298 62.4128 74.4413 63.15 76.5145 63.15V57.15C76.3263 57.15 76.2004 57.1343 76.1251 57.1196C76.0513 57.1052 76.036 57.0936 76.0594 57.1049C76.0859 57.1177 76.1365 57.1477 76.192 57.2006C76.2478 57.2537 76.2828 57.3053 76.3003 57.3375L71.0286 60.2025ZM76.5145 63.15C78.0878 63.15 79.6097 62.6158 81.0078 61.8555L78.1411 56.5845C77.2592 57.0642 76.7411 57.15 76.5145 57.15V63.15ZM81.0237 61.8467C82.5145 61.0242 83.8088 59.9503 84.8902 58.6371L80.2587 54.8229C79.6601 55.5497 78.9544 56.1358 78.1252 56.5933L81.0237 61.8467ZM84.8522 58.6824C84.7735 58.7742 84.609 58.9377 84.3379 59.0783C84.0523 59.2263 83.722 59.31 83.3845 59.31V53.31C82.0113 53.31 80.9643 53.9988 80.2967 54.7776L84.8522 58.6824ZM75.8245 48.96C73.6722 48.96 72.2125 50.2998 71.3673 51.6977L76.5016 54.8023C76.6067 54.6285 76.6218 54.6691 76.4882 54.7603C76.417 54.8089 76.3161 54.8629 76.1885 54.9029C76.0601 54.9432 75.9347 54.96 75.8245 54.96V48.96ZM71.3409 51.7421C70.5205 53.1532 70.1845 54.7396 70.1845 56.37H76.1845C76.1845 55.5604 76.3484 55.0668 76.528 54.7579L71.3409 51.7421ZM70.1845 56.37V56.43H76.1845V56.37H70.1845ZM73.8771 59.3489C75.3442 59.0008 76.7408 58.4252 77.8816 57.4858L74.0673 52.8542C73.8481 53.0348 73.3847 53.2992 72.4918 53.5111L73.8771 59.3489ZM77.8816 57.4858C79.1075 56.4762 79.9945 55.0299 79.9945 53.22H73.9945C73.9945 53.1731 74.0001 53.1128 74.0166 53.0453C74.0331 52.9778 74.0567 52.9188 74.0812 52.872C74.1305 52.7776 74.1585 52.7791 74.0673 52.8542L77.8816 57.4858ZM79.9945 53.22C79.9945 52.2318 79.6884 51.1013 78.7858 50.1987L74.5431 54.4413C74.3366 54.2348 74.1861 53.9904 74.0953 53.7428C74.0085 53.5059 73.9945 53.3173 73.9945 53.22H79.9945ZM78.9691 50.3994C78.1088 49.367 76.9233 48.96 75.8245 48.96V54.96C75.6709 54.96 75.4176 54.9338 75.1227 54.8074C74.8162 54.6761 74.5548 54.4746 74.3598 54.2405L78.9691 50.3994ZM84.9618 63.09L82.9687 65.3322L82.9889 65.3502L83.0094 65.3678L84.9618 63.09ZM84.7218 60.12L86.8431 62.2413L86.8431 62.2413L84.7218 60.12ZM87.3018 59.64L86.7804 62.5944L86.875 62.611L86.9705 62.6217L87.3018 59.64ZM88.1118 59.73L87.7805 62.7117L91.2435 63.0964L91.1096 59.6147L88.1118 59.73ZM87.7518 58.26L85.0006 59.4562L85.0221 59.5057L85.0454 59.5544L87.7518 58.26ZM86.9718 56.94L84.5456 58.7045L84.5652 58.7315L84.5855 58.7581L86.9718 56.94ZM86.0718 55.8L88.3295 53.8245L85.45 50.5336L83.4161 54.4046L86.0718 55.8ZM84.2118 58.74L81.8633 56.8733L81.8485 56.892L81.8339 56.9109L84.2118 58.74ZM82.2318 60.96L80.1406 58.809L80.1254 58.8237L80.1105 58.8387L82.2318 60.96ZM80.3118 61.17L78.0071 63.0906L78.0485 63.1402L78.092 63.188L80.3118 61.17ZM80.4318 59.19L82.7476 61.0971L82.7539 61.0895L82.7601 61.0818L80.4318 59.19ZM80.8218 58.71L83.1501 60.6018L83.1543 60.5966L80.8218 58.71ZM83.3118 55.35L85.8428 56.9606L85.8518 56.9464L85.8607 56.9321L83.3118 55.35ZM84.3918 53.28L81.682 51.9928L81.6687 52.0207L81.656 52.0489L84.3918 53.28ZM85.8618 50.01L88.613 51.2062L88.616 51.1993L85.8618 50.01ZM89.4018 48.84L90.6432 46.1089L90.6432 46.1089L89.4018 48.84ZM89.6118 49.89L92.4791 50.7723L92.4791 50.7723L89.6118 49.89ZM89.2818 50.67L86.6404 49.2477L86.6188 49.2877L86.5985 49.3284L89.2818 50.67ZM89.0418 53.49L86.4193 54.9469L86.4495 55.0013L86.482 55.0544L89.0418 53.49ZM90.0318 54.84L92.4181 53.0219L92.3884 52.9829L92.3575 52.945L90.0318 54.84ZM91.4718 57L88.8247 58.4118L88.8532 58.4651L88.8837 58.5172L91.4718 57ZM91.3818 61.32L88.727 59.9228L88.72 59.9361L88.7131 59.9496L91.3818 61.32ZM89.7618 63.12L91.4093 65.6271L89.7618 63.12ZM87.3618 60.81C87.0654 60.81 86.9055 60.775 86.8438 60.7565C86.7918 60.7409 86.8367 60.7459 86.9142 60.8122L83.0094 65.3678C84.2993 66.4734 85.8963 66.81 87.3618 66.81V60.81ZM86.9549 60.8478C86.9153 60.8126 86.9719 60.852 87.0376 60.9834C87.1095 61.1272 87.1518 61.3013 87.1518 61.47H81.1518C81.1518 63.1007 81.9307 64.4096 82.9687 65.3322L86.9549 60.8478ZM87.1518 61.47C87.1518 61.5846 87.1289 61.7417 87.058 61.9094C86.9881 62.0752 86.8993 62.1851 86.8431 62.2413L82.6005 57.9987C81.6789 58.9202 81.1518 60.1251 81.1518 61.47H87.1518ZM86.8431 62.2413C86.676 62.4084 86.5022 62.4956 86.3907 62.5334C86.2935 62.5664 86.2808 62.55 86.4018 62.55V56.55C85.1725 56.55 83.7279 56.8713 82.6005 57.9987L86.8431 62.2413ZM86.4018 62.55C86.441 62.55 86.5604 62.5555 86.7804 62.5944L87.8232 56.6856C87.3632 56.6045 86.8826 56.55 86.4018 56.55V62.55ZM86.9705 62.6217C87.3305 62.6617 87.6005 62.6917 87.7805 62.7117L88.4431 56.7483C88.2631 56.7283 87.9931 56.6983 87.6331 56.6583L86.9705 62.6217ZM91.1096 59.6147C91.0742 58.6946 90.8584 57.8024 90.4582 56.9656L85.0454 59.5544C85.0852 59.6376 85.1094 59.7254 85.114 59.8453L91.1096 59.6147ZM90.503 57.0638C90.2019 56.3713 89.8166 55.7237 89.3581 55.1219L84.5855 58.7581C84.767 58.9963 84.9017 59.2287 85.0006 59.4562L90.503 57.0638ZM89.398 55.1755C89.0388 54.6816 88.6825 54.2279 88.3295 53.8245L83.8141 57.7755C84.0211 58.0121 84.2647 58.3184 84.5456 58.7045L89.398 55.1755ZM83.4161 54.4046C82.8562 55.4701 82.3348 56.2801 81.8633 56.8733L86.5603 60.6067C87.3288 59.6399 88.0474 58.4899 88.7275 57.1954L83.4161 54.4046ZM81.8339 56.9109C81.3234 57.5745 80.7595 58.2072 80.1406 58.809L84.323 63.111C85.1441 62.3128 85.9002 61.4655 86.5897 60.5691L81.8339 56.9109ZM80.1105 58.8387C80.124 58.8252 80.2141 58.7383 80.3925 58.6538C80.5829 58.5636 80.8249 58.5 81.0918 58.5V64.5C82.4895 64.5 83.5916 63.8428 84.3531 63.0813L80.1105 58.8387ZM81.0918 58.5C81.28 58.5 81.5397 58.5336 81.8257 58.6546C82.117 58.7778 82.3553 58.958 82.5316 59.152L78.092 63.188C78.9075 64.0851 79.9989 64.5 81.0918 64.5V58.5ZM82.6165 59.2494C82.7449 59.4036 82.8522 59.5893 82.9229 59.7945C82.9925 59.9963 83.0118 60.173 83.0118 60.3H77.0118C77.0118 61.2753 77.317 62.2624 78.0071 63.0906L82.6165 59.2494ZM83.0118 60.3C83.0118 60.4586 82.9825 60.6261 82.9227 60.7842C82.8642 60.9386 82.7926 61.0424 82.7476 61.0971L78.116 57.2829C77.4414 58.102 77.0118 59.1326 77.0118 60.3H83.0118ZM82.7601 61.0818L83.1501 60.6018L78.4935 56.8182L78.1035 57.2982L82.7601 61.0818ZM83.1543 60.5966C84.2849 59.1988 85.1949 57.9787 85.8428 56.9606L80.7808 53.7394C80.3087 54.4813 79.5587 55.5012 78.4893 56.8234L83.1543 60.5966ZM85.8607 56.9321C86.3071 56.2129 86.7276 55.3999 87.1276 54.5111L81.656 52.0489C81.336 52.7601 81.0365 53.3271 80.7629 53.7679L85.8607 56.9321ZM87.1016 54.5672C87.5024 53.7235 88.0075 52.5989 88.613 51.2062L83.1106 48.8138C82.5161 50.1811 82.0412 51.2365 81.682 51.9928L87.1016 54.5672ZM88.616 51.1993C88.5957 51.2462 88.5511 51.3295 88.4687 51.4224C88.3849 51.5169 88.2894 51.5906 88.199 51.6409C88.0252 51.7377 87.9814 51.69 88.2318 51.69V45.69C87.2822 45.69 86.2434 45.8623 85.2796 46.3991C84.2712 46.9607 83.5428 47.8129 83.1076 48.8207L88.616 51.1993ZM88.2318 51.69C88.3281 51.69 88.4042 51.6922 88.4622 51.6952C88.5211 51.6983 88.5531 51.7019 88.5628 51.7031C88.5743 51.7046 88.546 51.7017 88.4886 51.6876C88.4586 51.6802 88.4157 51.6686 88.3626 51.6509C88.3099 51.6333 88.2409 51.6077 88.1604 51.5711L90.6432 46.1089C89.7773 45.7153 88.7998 45.69 88.2318 45.69V51.69ZM88.1604 51.5711C87.8946 51.4503 87.4983 51.2017 87.1772 50.7346C86.8438 50.2497 86.7318 49.7332 86.7318 49.32H92.7318C92.7318 48.6868 92.5648 47.9803 92.1214 47.3354C91.6903 46.7083 91.129 46.3297 90.6432 46.1089L88.1604 51.5711ZM86.7318 49.32C86.7318 49.19 86.7421 49.092 86.749 49.0392C86.7562 48.9833 86.7636 48.9468 86.7661 48.9345C86.7706 48.9131 86.7674 48.9332 86.7445 49.0077L92.4791 50.7723C92.5644 50.4951 92.7318 49.9289 92.7318 49.32H86.7318ZM86.7445 49.0077C86.7266 49.0657 86.6955 49.1454 86.6404 49.2477L91.9232 52.0923C92.1481 51.6746 92.337 51.2343 92.4791 50.7723L86.7445 49.0077ZM86.5985 49.3284C86.1433 50.2388 85.7418 51.3343 85.7418 52.5H91.7418C91.7418 52.6031 91.7245 52.6169 91.7541 52.5166C91.783 52.4188 91.8444 52.253 91.9651 52.0116L86.5985 49.3284ZM85.7418 52.5C85.7418 53.4647 86.0598 54.2997 86.4193 54.9469L91.6643 52.0331C91.6238 51.9603 91.7418 52.1353 91.7418 52.5H85.7418ZM86.482 55.0544C86.8029 55.5796 87.2279 56.1482 87.7061 56.735L92.3575 52.945C91.9557 52.4518 91.7207 52.1204 91.6016 51.9256L86.482 55.0544ZM87.6455 56.6581C88.2349 57.4318 88.61 58.0092 88.8247 58.4118L94.1189 55.5882C93.6936 54.7908 93.1087 53.9282 92.4181 53.0219L87.6455 56.6581ZM88.8837 58.5172C88.9426 58.6177 88.9818 58.7304 88.9818 58.92H94.9818C94.9818 57.7096 94.681 56.5423 94.0599 55.4828L88.8837 58.5172ZM88.9818 58.92C88.9818 59.2619 88.9056 59.5835 88.727 59.9228L94.0366 62.7172C94.658 61.5365 94.9818 60.2581 94.9818 58.92H88.9818ZM88.7131 59.9496C88.5714 60.2256 88.3846 60.4352 88.1143 60.6129L91.4093 65.6271C92.539 64.8848 93.4322 63.8944 94.0505 62.6904L88.7131 59.9496ZM88.1143 60.6129C87.9404 60.7272 87.7219 60.81 87.3618 60.81V66.81C88.8017 66.81 90.1832 66.4328 91.4093 65.6271L88.1143 60.6129Z" fill="#2B2B2B"/>
<path d="M19.81 62.24C17.15 62.24 15.02 61.74 13.42 60.74C11.82 59.72 11.02 58.17 11.02 56.09C11.02 54.99 11.21 54.15 11.59 53.57C11.97 52.99 12.53 52.7 13.27 52.7C13.81 52.7 14.25 52.84 14.59 53.12C14.93 53.4 15.1 53.76 15.1 54.2C15.1 54.6 15.07 54.95 15.01 55.25C15.01 55.33 14.99 55.47 14.95 55.67C14.93 55.87 14.92 56.08 14.92 56.3C14.92 57.2 15.37 57.87 16.27 58.31C17.19 58.75 18.47 58.97 20.11 58.97C21.81 58.97 23.14 58.67 24.1 58.07C25.06 57.45 25.54 56.59 25.54 55.49C25.54 54.81 25.32 54.23 24.88 53.75C24.44 53.25 23.89 52.84 23.23 52.52C22.57 52.18 21.64 51.77 20.44 51.29C18.9 50.69 17.64 50.12 16.66 49.58C15.7 49.04 14.87 48.31 14.17 47.39C13.49 46.45 13.15 45.29 13.15 43.91C13.15 42.47 13.53 41.19 14.29 40.07C15.07 38.95 16.18 38.08 17.62 37.46C19.08 36.84 20.79 36.53 22.75 36.53C24.21 36.53 25.55 36.75 26.77 37.19C27.99 37.61 28.96 38.26 29.68 39.14C30.42 40.02 30.79 41.1 30.79 42.38C30.79 43.64 30.6 44.59 30.22 45.23C29.84 45.87 29.28 46.19 28.54 46.19C28.02 46.19 27.58 46.03 27.22 45.71C26.88 45.39 26.71 45.01 26.71 44.57C26.71 44.19 26.74 43.84 26.8 43.52C26.86 42.92 26.89 42.54 26.89 42.38C26.89 41.54 26.48 40.9 25.66 40.46C24.84 40.02 23.82 39.8 22.6 39.8C20.88 39.8 19.56 40.12 18.64 40.76C17.74 41.38 17.29 42.26 17.29 43.4C17.29 44.16 17.52 44.81 17.98 45.35C18.46 45.89 19.05 46.34 19.75 46.7C20.45 47.06 21.43 47.49 22.69 47.99C24.21 48.61 25.43 49.17 26.35 49.67C27.27 50.17 28.05 50.85 28.69 51.71C29.35 52.57 29.68 53.63 29.68 54.89C29.68 57.25 28.78 59.07 26.98 60.35C25.2 61.61 22.81 62.24 19.81 62.24ZM43.6108 55.31C43.8708 55.31 44.0708 55.43 44.2108 55.67C44.3708 55.91 44.4508 56.24 44.4508 56.66C44.4508 57.46 44.2608 58.08 43.8808 58.52C43.0208 59.58 42.0808 60.45 41.0608 61.13C40.0608 61.81 38.9208 62.15 37.6408 62.15C35.8808 62.15 34.5708 61.35 33.7108 59.75C32.8708 58.15 32.4508 56.08 32.4508 53.54C32.4508 51.1 32.7608 48.32 33.3808 45.2C34.0208 42.08 34.9508 39.4 36.1708 37.16C37.4108 34.92 38.8808 33.8 40.5808 33.8C41.5408 33.8 42.2908 34.25 42.8308 35.15C43.3908 36.03 43.6708 37.3 43.6708 38.96C43.6708 41.34 43.0108 44.1 41.6908 47.24C40.3708 50.38 38.5808 53.49 36.3208 56.57C36.4608 57.39 36.6908 57.98 37.0108 58.34C37.3308 58.68 37.7508 58.85 38.2708 58.85C39.0908 58.85 39.8108 58.62 40.4308 58.16C41.0508 57.68 41.8408 56.87 42.8008 55.73C43.0408 55.45 43.3108 55.31 43.6108 55.31ZM39.9208 36.77C39.4608 36.77 38.9408 37.6 38.3608 39.26C37.7808 40.92 37.2708 42.98 36.8308 45.44C36.3908 47.9 36.1508 50.26 36.1108 52.52C37.5308 50.18 38.6608 47.84 39.5008 45.5C40.3408 43.14 40.7608 40.99 40.7608 39.05C40.7608 37.53 40.4808 36.77 39.9208 36.77ZM57.3259 52.79C57.5859 52.79 57.7859 52.92 57.9259 53.18C58.0659 53.44 58.1359 53.77 58.1359 54.17C58.1359 55.13 57.8459 55.7 57.2659 55.88C56.0659 56.3 54.7459 56.54 53.3059 56.6C52.9259 58.28 52.1759 59.63 51.0559 60.65C49.9359 61.65 48.6659 62.15 47.2459 62.15C46.0459 62.15 45.0159 61.86 44.1559 61.28C43.3159 60.7 42.6759 59.93 42.2359 58.97C41.7959 58.01 41.5759 56.97 41.5759 55.85C41.5759 54.33 41.8659 52.98 42.4459 51.8C43.0259 50.6 43.8259 49.67 44.8459 49.01C45.8659 48.33 46.9959 47.99 48.2359 47.99C49.7559 47.99 50.9759 48.52 51.8959 49.58C52.8359 50.62 53.3859 51.91 53.5459 53.45C54.4859 53.39 55.6059 53.19 56.9059 52.85C57.0659 52.81 57.2059 52.79 57.3259 52.79ZM47.4859 58.97C48.1259 58.97 48.6759 58.71 49.1359 58.19C49.6159 57.67 49.9359 56.92 50.0959 55.94C49.4759 55.52 48.9959 54.97 48.6559 54.29C48.3359 53.61 48.1759 52.89 48.1759 52.13C48.1759 51.81 48.2059 51.49 48.2659 51.17H48.1159C47.3159 51.17 46.6459 51.56 46.1059 52.34C45.5859 53.1 45.3259 54.18 45.3259 55.58C45.3259 56.68 45.5359 57.52 45.9559 58.1C46.3959 58.68 46.9059 58.97 47.4859 58.97ZM71.5811 55.31C71.8411 55.31 72.0411 55.43 72.1811 55.67C72.3411 55.91 72.4211 56.24 72.4211 56.66C72.4211 57.46 72.2311 58.08 71.8511 58.52C70.9911 59.58 70.0611 60.45 69.0611 61.13C68.0811 61.81 66.9611 62.15 65.7011 62.15C64.6411 62.15 63.7811 61.77 63.1211 61.01C61.9811 61.75 60.7911 62.13 59.5511 62.15C59.2911 66.01 58.7011 69.23 57.7811 71.81C56.8611 74.41 55.5111 75.71 53.7311 75.71C52.6511 75.71 51.8511 75.32 51.3311 74.54C50.8111 73.76 50.5511 72.68 50.5511 71.3C50.5511 69.34 51.0011 67.05 51.9011 64.43C52.8011 61.83 54.1911 58.96 56.0711 55.82C56.0711 52.9 56.0511 50.87 56.0111 49.73C55.9911 49.15 56.2211 48.69 56.7011 48.35C57.1811 48.01 57.7811 47.84 58.5011 47.84C58.9211 47.84 59.2211 47.93 59.4011 48.11C59.6011 48.27 59.7111 48.6 59.7311 49.1C59.7311 49.6 59.7411 49.97 59.7611 50.21C60.4011 49.41 61.0311 48.84 61.6511 48.5C62.2711 48.14 62.9311 47.96 63.6311 47.96C64.7511 47.96 65.6611 48.41 66.3611 49.31C67.0811 50.21 67.4411 51.39 67.4411 52.85C67.4411 53.91 67.2711 54.94 66.9311 55.94C66.5911 56.94 66.1211 57.85 65.5211 58.67C65.9411 58.79 66.2911 58.85 66.5711 58.85C67.2311 58.85 67.8611 58.61 68.4611 58.13C69.0611 57.65 69.8311 56.85 70.7711 55.73C71.0111 55.45 71.2811 55.31 71.5811 55.31ZM59.7011 59.27C60.4211 59.11 61.0811 58.72 61.6811 58.1C62.3011 57.46 62.7911 56.68 63.1511 55.76C63.5111 54.82 63.6911 53.84 63.6911 52.82C63.6911 52.22 63.5711 51.77 63.3311 51.47C63.0911 51.15 62.7711 50.99 62.3711 50.99C61.6511 50.99 60.7811 51.75 59.7611 53.27C59.7411 54.15 59.7311 55.44 59.7311 57.14C59.7311 58.06 59.7211 58.77 59.7011 59.27ZM53.9711 72.77C54.5111 72.77 54.9611 71.59 55.3211 69.23C55.6811 66.89 55.9111 63.97 56.0111 60.47C55.1511 62.47 54.4711 64.38 53.9711 66.2C53.4711 68.02 53.2211 69.55 53.2211 70.79C53.2211 71.43 53.3011 71.92 53.4611 72.26C53.6011 72.6 53.7711 72.77 53.9711 72.77ZM83.3845 55.31C83.6445 55.31 83.8445 55.43 83.9845 55.67C84.1445 55.91 84.2245 56.24 84.2245 56.66C84.2245 57.46 84.0345 58.08 83.6545 58.52C82.9145 59.42 81.8645 60.25 80.5045 61.01C79.1645 61.77 77.7245 62.15 76.1845 62.15C74.0845 62.15 72.4545 61.58 71.2945 60.44C70.1345 59.3 69.5545 57.74 69.5545 55.76C69.5545 54.38 69.8445 53.1 70.4245 51.92C71.0045 50.72 71.8045 49.77 72.8245 49.07C73.8645 48.37 75.0345 48.02 76.3345 48.02C77.4945 48.02 78.4245 48.37 79.1245 49.07C79.8245 49.75 80.1745 50.68 80.1745 51.86C80.1745 53.24 79.6745 54.43 78.6745 55.43C77.6945 56.41 76.0245 57.19 73.6645 57.77C74.1645 58.69 75.1145 59.15 76.5145 59.15C77.4145 59.15 78.4345 58.84 79.5745 58.22C80.7345 57.58 81.7345 56.75 82.5745 55.73C82.8145 55.45 83.0845 55.31 83.3845 55.31ZM75.8245 50.96C75.0845 50.96 74.4545 51.39 73.9345 52.25C73.4345 53.11 73.1845 54.15 73.1845 55.37V55.43C74.3645 55.15 75.2945 54.73 75.9745 54.17C76.6545 53.61 76.9945 52.96 76.9945 52.22C76.9945 51.84 76.8845 51.54 76.6645 51.32C76.4645 51.08 76.1845 50.96 75.8245 50.96ZM87.3618 62.81C86.3218 62.81 85.5218 62.57 84.9618 62.09C84.4218 61.61 84.1518 61.07 84.1518 60.47C84.1518 59.95 84.3418 59.5 84.7218 59.12C85.1018 58.74 85.6618 58.55 86.4018 58.55C86.6618 58.55 86.9618 58.58 87.3018 58.64C87.6618 58.68 87.9318 58.71 88.1118 58.73C88.0918 58.21 87.9718 57.72 87.7518 57.26C87.5518 56.8 87.2918 56.36 86.9718 55.94C86.6518 55.5 86.3518 55.12 86.0718 54.8C85.4518 55.98 84.8318 56.96 84.2118 57.74C83.6118 58.52 82.9518 59.26 82.2318 59.96C81.8718 60.32 81.4918 60.5 81.0918 60.5C80.7718 60.5 80.5118 60.39 80.3118 60.17C80.1118 59.93 80.0118 59.64 80.0118 59.3C80.0118 58.9 80.1518 58.53 80.4318 58.19L80.8218 57.71C81.9218 56.35 82.7518 55.23 83.3118 54.35C83.6718 53.77 84.0318 53.08 84.3918 52.28C84.7718 51.48 85.2618 50.39 85.8618 49.01C86.2418 48.13 87.0318 47.69 88.2318 47.69C88.7918 47.69 89.1818 47.74 89.4018 47.84C89.6218 47.94 89.7318 48.1 89.7318 48.32C89.7318 48.44 89.6918 48.63 89.6118 48.89C89.5318 49.15 89.4218 49.41 89.2818 49.67C88.9218 50.39 88.7418 51 88.7418 51.5C88.7418 51.8 88.8418 52.13 89.0418 52.49C89.2618 52.85 89.5918 53.3 90.0318 53.84C90.6718 54.68 91.1518 55.4 91.4718 56C91.8118 56.58 91.9818 57.22 91.9818 57.92C91.9818 58.76 91.7818 59.56 91.3818 60.32C91.0018 61.06 90.4618 61.66 89.7618 62.12C89.0618 62.58 88.2618 62.81 87.3618 62.81Z" fill="#606060"/>
<path d="M19.81 61.24C17.15 61.24 15.02 60.74 13.42 59.74C11.82 58.72 11.02 57.17 11.02 55.09C11.02 53.99 11.21 53.15 11.59 52.57C11.97 51.99 12.53 51.7 13.27 51.7C13.81 51.7 14.25 51.84 14.59 52.12C14.93 52.4 15.1 52.76 15.1 53.2C15.1 53.6 15.07 53.95 15.01 54.25C15.01 54.33 14.99 54.47 14.95 54.67C14.93 54.87 14.92 55.08 14.92 55.3C14.92 56.2 15.37 56.87 16.27 57.31C17.19 57.75 18.47 57.97 20.11 57.97C21.81 57.97 23.14 57.67 24.1 57.07C25.06 56.45 25.54 55.59 25.54 54.49C25.54 53.81 25.32 53.23 24.88 52.75C24.44 52.25 23.89 51.84 23.23 51.52C22.57 51.18 21.64 50.77 20.44 50.29C18.9 49.69 17.64 49.12 16.66 48.58C15.7 48.04 14.87 47.31 14.17 46.39C13.49 45.45 13.15 44.29 13.15 42.91C13.15 41.47 13.53 40.19 14.29 39.07C15.07 37.95 16.18 37.08 17.62 36.46C19.08 35.84 20.79 35.53 22.75 35.53C24.21 35.53 25.55 35.75 26.77 36.19C27.99 36.61 28.96 37.26 29.68 38.14C30.42 39.02 30.79 40.1 30.79 41.38C30.79 42.64 30.6 43.59 30.22 44.23C29.84 44.87 29.28 45.19 28.54 45.19C28.02 45.19 27.58 45.03 27.22 44.71C26.88 44.39 26.71 44.01 26.71 43.57C26.71 43.19 26.74 42.84 26.8 42.52C26.86 41.92 26.89 41.54 26.89 41.38C26.89 40.54 26.48 39.9 25.66 39.46C24.84 39.02 23.82 38.8 22.6 38.8C20.88 38.8 19.56 39.12 18.64 39.76C17.74 40.38 17.29 41.26 17.29 42.4C17.29 43.16 17.52 43.81 17.98 44.35C18.46 44.89 19.05 45.34 19.75 45.7C20.45 46.06 21.43 46.49 22.69 46.99C24.21 47.61 25.43 48.17 26.35 48.67C27.27 49.17 28.05 49.85 28.69 50.71C29.35 51.57 29.68 52.63 29.68 53.89C29.68 56.25 28.78 58.07 26.98 59.35C25.2 60.61 22.81 61.24 19.81 61.24ZM43.6108 54.31C43.8708 54.31 44.0708 54.43 44.2108 54.67C44.3708 54.91 44.4508 55.24 44.4508 55.66C44.4508 56.46 44.2608 57.08 43.8808 57.52C43.0208 58.58 42.0808 59.45 41.0608 60.13C40.0608 60.81 38.9208 61.15 37.6408 61.15C35.8808 61.15 34.5708 60.35 33.7108 58.75C32.8708 57.15 32.4508 55.08 32.4508 52.54C32.4508 50.1 32.7608 47.32 33.3808 44.2C34.0208 41.08 34.9508 38.4 36.1708 36.16C37.4108 33.92 38.8808 32.8 40.5808 32.8C41.5408 32.8 42.2908 33.25 42.8308 34.15C43.3908 35.03 43.6708 36.3 43.6708 37.96C43.6708 40.34 43.0108 43.1 41.6908 46.24C40.3708 49.38 38.5808 52.49 36.3208 55.57C36.4608 56.39 36.6908 56.98 37.0108 57.34C37.3308 57.68 37.7508 57.85 38.2708 57.85C39.0908 57.85 39.8108 57.62 40.4308 57.16C41.0508 56.68 41.8408 55.87 42.8008 54.73C43.0408 54.45 43.3108 54.31 43.6108 54.31ZM39.9208 35.77C39.4608 35.77 38.9408 36.6 38.3608 38.26C37.7808 39.92 37.2708 41.98 36.8308 44.44C36.3908 46.9 36.1508 49.26 36.1108 51.52C37.5308 49.18 38.6608 46.84 39.5008 44.5C40.3408 42.14 40.7608 39.99 40.7608 38.05C40.7608 36.53 40.4808 35.77 39.9208 35.77ZM57.3259 51.79C57.5859 51.79 57.7859 51.92 57.9259 52.18C58.0659 52.44 58.1359 52.77 58.1359 53.17C58.1359 54.13 57.8459 54.7 57.2659 54.88C56.0659 55.3 54.7459 55.54 53.3059 55.6C52.9259 57.28 52.1759 58.63 51.0559 59.65C49.9359 60.65 48.6659 61.15 47.2459 61.15C46.0459 61.15 45.0159 60.86 44.1559 60.28C43.3159 59.7 42.6759 58.93 42.2359 57.97C41.7959 57.01 41.5759 55.97 41.5759 54.85C41.5759 53.33 41.8659 51.98 42.4459 50.8C43.0259 49.6 43.8259 48.67 44.8459 48.01C45.8659 47.33 46.9959 46.99 48.2359 46.99C49.7559 46.99 50.9759 47.52 51.8959 48.58C52.8359 49.62 53.3859 50.91 53.5459 52.45C54.4859 52.39 55.6059 52.19 56.9059 51.85C57.0659 51.81 57.2059 51.79 57.3259 51.79ZM47.4859 57.97C48.1259 57.97 48.6759 57.71 49.1359 57.19C49.6159 56.67 49.9359 55.92 50.0959 54.94C49.4759 54.52 48.9959 53.97 48.6559 53.29C48.3359 52.61 48.1759 51.89 48.1759 51.13C48.1759 50.81 48.2059 50.49 48.2659 50.17H48.1159C47.3159 50.17 46.6459 50.56 46.1059 51.34C45.5859 52.1 45.3259 53.18 45.3259 54.58C45.3259 55.68 45.5359 56.52 45.9559 57.1C46.3959 57.68 46.9059 57.97 47.4859 57.97ZM71.5811 54.31C71.8411 54.31 72.0411 54.43 72.1811 54.67C72.3411 54.91 72.4211 55.24 72.4211 55.66C72.4211 56.46 72.2311 57.08 71.8511 57.52C70.9911 58.58 70.0611 59.45 69.0611 60.13C68.0811 60.81 66.9611 61.15 65.7011 61.15C64.6411 61.15 63.7811 60.77 63.1211 60.01C61.9811 60.75 60.7911 61.13 59.5511 61.15C59.2911 65.01 58.7011 68.23 57.7811 70.81C56.8611 73.41 55.5111 74.71 53.7311 74.71C52.6511 74.71 51.8511 74.32 51.3311 73.54C50.8111 72.76 50.5511 71.68 50.5511 70.3C50.5511 68.34 51.0011 66.05 51.9011 63.43C52.8011 60.83 54.1911 57.96 56.0711 54.82C56.0711 51.9 56.0511 49.87 56.0111 48.73C55.9911 48.15 56.2211 47.69 56.7011 47.35C57.1811 47.01 57.7811 46.84 58.5011 46.84C58.9211 46.84 59.2211 46.93 59.4011 47.11C59.6011 47.27 59.7111 47.6 59.7311 48.1C59.7311 48.6 59.7411 48.97 59.7611 49.21C60.4011 48.41 61.0311 47.84 61.6511 47.5C62.2711 47.14 62.9311 46.96 63.6311 46.96C64.7511 46.96 65.6611 47.41 66.3611 48.31C67.0811 49.21 67.4411 50.39 67.4411 51.85C67.4411 52.91 67.2711 53.94 66.9311 54.94C66.5911 55.94 66.1211 56.85 65.5211 57.67C65.9411 57.79 66.2911 57.85 66.5711 57.85C67.2311 57.85 67.8611 57.61 68.4611 57.13C69.0611 56.65 69.8311 55.85 70.7711 54.73C71.0111 54.45 71.2811 54.31 71.5811 54.31ZM59.7011 58.27C60.4211 58.11 61.0811 57.72 61.6811 57.1C62.3011 56.46 62.7911 55.68 63.1511 54.76C63.5111 53.82 63.6911 52.84 63.6911 51.82C63.6911 51.22 63.5711 50.77 63.3311 50.47C63.0911 50.15 62.7711 49.99 62.3711 49.99C61.6511 49.99 60.7811 50.75 59.7611 52.27C59.7411 53.15 59.7311 54.44 59.7311 56.14C59.7311 57.06 59.7211 57.77 59.7011 58.27ZM53.9711 71.77C54.5111 71.77 54.9611 70.59 55.3211 68.23C55.6811 65.89 55.9111 62.97 56.0111 59.47C55.1511 61.47 54.4711 63.38 53.9711 65.2C53.4711 67.02 53.2211 68.55 53.2211 69.79C53.2211 70.43 53.3011 70.92 53.4611 71.26C53.6011 71.6 53.7711 71.77 53.9711 71.77ZM83.3845 54.31C83.6445 54.31 83.8445 54.43 83.9845 54.67C84.1445 54.91 84.2245 55.24 84.2245 55.66C84.2245 56.46 84.0345 57.08 83.6545 57.52C82.9145 58.42 81.8645 59.25 80.5045 60.01C79.1645 60.77 77.7245 61.15 76.1845 61.15C74.0845 61.15 72.4545 60.58 71.2945 59.44C70.1345 58.3 69.5545 56.74 69.5545 54.76C69.5545 53.38 69.8445 52.1 70.4245 50.92C71.0045 49.72 71.8045 48.77 72.8245 48.07C73.8645 47.37 75.0345 47.02 76.3345 47.02C77.4945 47.02 78.4245 47.37 79.1245 48.07C79.8245 48.75 80.1745 49.68 80.1745 50.86C80.1745 52.24 79.6745 53.43 78.6745 54.43C77.6945 55.41 76.0245 56.19 73.6645 56.77C74.1645 57.69 75.1145 58.15 76.5145 58.15C77.4145 58.15 78.4345 57.84 79.5745 57.22C80.7345 56.58 81.7345 55.75 82.5745 54.73C82.8145 54.45 83.0845 54.31 83.3845 54.31ZM75.8245 49.96C75.0845 49.96 74.4545 50.39 73.9345 51.25C73.4345 52.11 73.1845 53.15 73.1845 54.37V54.43C74.3645 54.15 75.2945 53.73 75.9745 53.17C76.6545 52.61 76.9945 51.96 76.9945 51.22C76.9945 50.84 76.8845 50.54 76.6645 50.32C76.4645 50.08 76.1845 49.96 75.8245 49.96ZM87.3618 61.81C86.3218 61.81 85.5218 61.57 84.9618 61.09C84.4218 60.61 84.1518 60.07 84.1518 59.47C84.1518 58.95 84.3418 58.5 84.7218 58.12C85.1018 57.74 85.6618 57.55 86.4018 57.55C86.6618 57.55 86.9618 57.58 87.3018 57.64C87.6618 57.68 87.9318 57.71 88.1118 57.73C88.0918 57.21 87.9718 56.72 87.7518 56.26C87.5518 55.8 87.2918 55.36 86.9718 54.94C86.6518 54.5 86.3518 54.12 86.0718 53.8C85.4518 54.98 84.8318 55.96 84.2118 56.74C83.6118 57.52 82.9518 58.26 82.2318 58.96C81.8718 59.32 81.4918 59.5 81.0918 59.5C80.7718 59.5 80.5118 59.39 80.3118 59.17C80.1118 58.93 80.0118 58.64 80.0118 58.3C80.0118 57.9 80.1518 57.53 80.4318 57.19L80.8218 56.71C81.9218 55.35 82.7518 54.23 83.3118 53.35C83.6718 52.77 84.0318 52.08 84.3918 51.28C84.7718 50.48 85.2618 49.39 85.8618 48.01C86.2418 47.13 87.0318 46.69 88.2318 46.69C88.7918 46.69 89.1818 46.74 89.4018 46.84C89.6218 46.94 89.7318 47.1 89.7318 47.32C89.7318 47.44 89.6918 47.63 89.6118 47.89C89.5318 48.15 89.4218 48.41 89.2818 48.67C88.9218 49.39 88.7418 50 88.7418 50.5C88.7418 50.8 88.8418 51.13 89.0418 51.49C89.2618 51.85 89.5918 52.3 90.0318 52.84C90.6718 53.68 91.1518 54.4 91.4718 55C91.8118 55.58 91.9818 56.22 91.9818 56.92C91.9818 57.76 91.7818 58.56 91.3818 59.32C91.0018 60.06 90.4618 60.66 89.7618 61.12C89.0618 61.58 88.2618 61.81 87.3618 61.81Z" fill="#606060"/>
<path d="M19.81 60.24C17.15 60.24 15.02 59.74 13.42 58.74C11.82 57.72 11.02 56.17 11.02 54.09C11.02 52.99 11.21 52.15 11.59 51.57C11.97 50.99 12.53 50.7 13.27 50.7C13.81 50.7 14.25 50.84 14.59 51.12C14.93 51.4 15.1 51.76 15.1 52.2C15.1 52.6 15.07 52.95 15.01 53.25C15.01 53.33 14.99 53.47 14.95 53.67C14.93 53.87 14.92 54.08 14.92 54.3C14.92 55.2 15.37 55.87 16.27 56.31C17.19 56.75 18.47 56.97 20.11 56.97C21.81 56.97 23.14 56.67 24.1 56.07C25.06 55.45 25.54 54.59 25.54 53.49C25.54 52.81 25.32 52.23 24.88 51.75C24.44 51.25 23.89 50.84 23.23 50.52C22.57 50.18 21.64 49.77 20.44 49.29C18.9 48.69 17.64 48.12 16.66 47.58C15.7 47.04 14.87 46.31 14.17 45.39C13.49 44.45 13.15 43.29 13.15 41.91C13.15 40.47 13.53 39.19 14.29 38.07C15.07 36.95 16.18 36.08 17.62 35.46C19.08 34.84 20.79 34.53 22.75 34.53C24.21 34.53 25.55 34.75 26.77 35.19C27.99 35.61 28.96 36.26 29.68 37.14C30.42 38.02 30.79 39.1 30.79 40.38C30.79 41.64 30.6 42.59 30.22 43.23C29.84 43.87 29.28 44.19 28.54 44.19C28.02 44.19 27.58 44.03 27.22 43.71C26.88 43.39 26.71 43.01 26.71 42.57C26.71 42.19 26.74 41.84 26.8 41.52C26.86 40.92 26.89 40.54 26.89 40.38C26.89 39.54 26.48 38.9 25.66 38.46C24.84 38.02 23.82 37.8 22.6 37.8C20.88 37.8 19.56 38.12 18.64 38.76C17.74 39.38 17.29 40.26 17.29 41.4C17.29 42.16 17.52 42.81 17.98 43.35C18.46 43.89 19.05 44.34 19.75 44.7C20.45 45.06 21.43 45.49 22.69 45.99C24.21 46.61 25.43 47.17 26.35 47.67C27.27 48.17 28.05 48.85 28.69 49.71C29.35 50.57 29.68 51.63 29.68 52.89C29.68 55.25 28.78 57.07 26.98 58.35C25.2 59.61 22.81 60.24 19.81 60.24ZM43.6108 53.31C43.8708 53.31 44.0708 53.43 44.2108 53.67C44.3708 53.91 44.4508 54.24 44.4508 54.66C44.4508 55.46 44.2608 56.08 43.8808 56.52C43.0208 57.58 42.0808 58.45 41.0608 59.13C40.0608 59.81 38.9208 60.15 37.6408 60.15C35.8808 60.15 34.5708 59.35 33.7108 57.75C32.8708 56.15 32.4508 54.08 32.4508 51.54C32.4508 49.1 32.7608 46.32 33.3808 43.2C34.0208 40.08 34.9508 37.4 36.1708 35.16C37.4108 32.92 38.8808 31.8 40.5808 31.8C41.5408 31.8 42.2908 32.25 42.8308 33.15C43.3908 34.03 43.6708 35.3 43.6708 36.96C43.6708 39.34 43.0108 42.1 41.6908 45.24C40.3708 48.38 38.5808 51.49 36.3208 54.57C36.4608 55.39 36.6908 55.98 37.0108 56.34C37.3308 56.68 37.7508 56.85 38.2708 56.85C39.0908 56.85 39.8108 56.62 40.4308 56.16C41.0508 55.68 41.8408 54.87 42.8008 53.73C43.0408 53.45 43.3108 53.31 43.6108 53.31ZM39.9208 34.77C39.4608 34.77 38.9408 35.6 38.3608 37.26C37.7808 38.92 37.2708 40.98 36.8308 43.44C36.3908 45.9 36.1508 48.26 36.1108 50.52C37.5308 48.18 38.6608 45.84 39.5008 43.5C40.3408 41.14 40.7608 38.99 40.7608 37.05C40.7608 35.53 40.4808 34.77 39.9208 34.77ZM57.3259 50.79C57.5859 50.79 57.7859 50.92 57.9259 51.18C58.0659 51.44 58.1359 51.77 58.1359 52.17C58.1359 53.13 57.8459 53.7 57.2659 53.88C56.0659 54.3 54.7459 54.54 53.3059 54.6C52.9259 56.28 52.1759 57.63 51.0559 58.65C49.9359 59.65 48.6659 60.15 47.2459 60.15C46.0459 60.15 45.0159 59.86 44.1559 59.28C43.3159 58.7 42.6759 57.93 42.2359 56.97C41.7959 56.01 41.5759 54.97 41.5759 53.85C41.5759 52.33 41.8659 50.98 42.4459 49.8C43.0259 48.6 43.8259 47.67 44.8459 47.01C45.8659 46.33 46.9959 45.99 48.2359 45.99C49.7559 45.99 50.9759 46.52 51.8959 47.58C52.8359 48.62 53.3859 49.91 53.5459 51.45C54.4859 51.39 55.6059 51.19 56.9059 50.85C57.0659 50.81 57.2059 50.79 57.3259 50.79ZM47.4859 56.97C48.1259 56.97 48.6759 56.71 49.1359 56.19C49.6159 55.67 49.9359 54.92 50.0959 53.94C49.4759 53.52 48.9959 52.97 48.6559 52.29C48.3359 51.61 48.1759 50.89 48.1759 50.13C48.1759 49.81 48.2059 49.49 48.2659 49.17H48.1159C47.3159 49.17 46.6459 49.56 46.1059 50.34C45.5859 51.1 45.3259 52.18 45.3259 53.58C45.3259 54.68 45.5359 55.52 45.9559 56.1C46.3959 56.68 46.9059 56.97 47.4859 56.97ZM71.5811 53.31C71.8411 53.31 72.0411 53.43 72.1811 53.67C72.3411 53.91 72.4211 54.24 72.4211 54.66C72.4211 55.46 72.2311 56.08 71.8511 56.52C70.9911 57.58 70.0611 58.45 69.0611 59.13C68.0811 59.81 66.9611 60.15 65.7011 60.15C64.6411 60.15 63.7811 59.77 63.1211 59.01C61.9811 59.75 60.7911 60.13 59.5511 60.15C59.2911 64.01 58.7011 67.23 57.7811 69.81C56.8611 72.41 55.5111 73.71 53.7311 73.71C52.6511 73.71 51.8511 73.32 51.3311 72.54C50.8111 71.76 50.5511 70.68 50.5511 69.3C50.5511 67.34 51.0011 65.05 51.9011 62.43C52.8011 59.83 54.1911 56.96 56.0711 53.82C56.0711 50.9 56.0511 48.87 56.0111 47.73C55.9911 47.15 56.2211 46.69 56.7011 46.35C57.1811 46.01 57.7811 45.84 58.5011 45.84C58.9211 45.84 59.2211 45.93 59.4011 46.11C59.6011 46.27 59.7111 46.6 59.7311 47.1C59.7311 47.6 59.7411 47.97 59.7611 48.21C60.4011 47.41 61.0311 46.84 61.6511 46.5C62.2711 46.14 62.9311 45.96 63.6311 45.96C64.7511 45.96 65.6611 46.41 66.3611 47.31C67.0811 48.21 67.4411 49.39 67.4411 50.85C67.4411 51.91 67.2711 52.94 66.9311 53.94C66.5911 54.94 66.1211 55.85 65.5211 56.67C65.9411 56.79 66.2911 56.85 66.5711 56.85C67.2311 56.85 67.8611 56.61 68.4611 56.13C69.0611 55.65 69.8311 54.85 70.7711 53.73C71.0111 53.45 71.2811 53.31 71.5811 53.31ZM59.7011 57.27C60.4211 57.11 61.0811 56.72 61.6811 56.1C62.3011 55.46 62.7911 54.68 63.1511 53.76C63.5111 52.82 63.6911 51.84 63.6911 50.82C63.6911 50.22 63.5711 49.77 63.3311 49.47C63.0911 49.15 62.7711 48.99 62.3711 48.99C61.6511 48.99 60.7811 49.75 59.7611 51.27C59.7411 52.15 59.7311 53.44 59.7311 55.14C59.7311 56.06 59.7211 56.77 59.7011 57.27ZM53.9711 70.77C54.5111 70.77 54.9611 69.59 55.3211 67.23C55.6811 64.89 55.9111 61.97 56.0111 58.47C55.1511 60.47 54.4711 62.38 53.9711 64.2C53.4711 66.02 53.2211 67.55 53.2211 68.79C53.2211 69.43 53.3011 69.92 53.4611 70.26C53.6011 70.6 53.7711 70.77 53.9711 70.77ZM83.3845 53.31C83.6445 53.31 83.8445 53.43 83.9845 53.67C84.1445 53.91 84.2245 54.24 84.2245 54.66C84.2245 55.46 84.0345 56.08 83.6545 56.52C82.9145 57.42 81.8645 58.25 80.5045 59.01C79.1645 59.77 77.7245 60.15 76.1845 60.15C74.0845 60.15 72.4545 59.58 71.2945 58.44C70.1345 57.3 69.5545 55.74 69.5545 53.76C69.5545 52.38 69.8445 51.1 70.4245 49.92C71.0045 48.72 71.8045 47.77 72.8245 47.07C73.8645 46.37 75.0345 46.02 76.3345 46.02C77.4945 46.02 78.4245 46.37 79.1245 47.07C79.8245 47.75 80.1745 48.68 80.1745 49.86C80.1745 51.24 79.6745 52.43 78.6745 53.43C77.6945 54.41 76.0245 55.19 73.6645 55.77C74.1645 56.69 75.1145 57.15 76.5145 57.15C77.4145 57.15 78.4345 56.84 79.5745 56.22C80.7345 55.58 81.7345 54.75 82.5745 53.73C82.8145 53.45 83.0845 53.31 83.3845 53.31ZM75.8245 48.96C75.0845 48.96 74.4545 49.39 73.9345 50.25C73.4345 51.11 73.1845 52.15 73.1845 53.37V53.43C74.3645 53.15 75.2945 52.73 75.9745 52.17C76.6545 51.61 76.9945 50.96 76.9945 50.22C76.9945 49.84 76.8845 49.54 76.6645 49.32C76.4645 49.08 76.1845 48.96 75.8245 48.96ZM87.3618 60.81C86.3218 60.81 85.5218 60.57 84.9618 60.09C84.4218 59.61 84.1518 59.07 84.1518 58.47C84.1518 57.95 84.3418 57.5 84.7218 57.12C85.1018 56.74 85.6618 56.55 86.4018 56.55C86.6618 56.55 86.9618 56.58 87.3018 56.64C87.6618 56.68 87.9318 56.71 88.1118 56.73C88.0918 56.21 87.9718 55.72 87.7518 55.26C87.5518 54.8 87.2918 54.36 86.9718 53.94C86.6518 53.5 86.3518 53.12 86.0718 52.8C85.4518 53.98 84.8318 54.96 84.2118 55.74C83.6118 56.52 82.9518 57.26 82.2318 57.96C81.8718 58.32 81.4918 58.5 81.0918 58.5C80.7718 58.5 80.5118 58.39 80.3118 58.17C80.1118 57.93 80.0118 57.64 80.0118 57.3C80.0118 56.9 80.1518 56.53 80.4318 56.19L80.8218 55.71C81.9218 54.35 82.7518 53.23 83.3118 52.35C83.6718 51.77 84.0318 51.08 84.3918 50.28C84.7718 49.48 85.2618 48.39 85.8618 47.01C86.2418 46.13 87.0318 45.69 88.2318 45.69C88.7918 45.69 89.1818 45.74 89.4018 45.84C89.6218 45.94 89.7318 46.1 89.7318 46.32C89.7318 46.44 89.6918 46.63 89.6118 46.89C89.5318 47.15 89.4218 47.41 89.2818 47.67C88.9218 48.39 88.7418 49 88.7418 49.5C88.7418 49.8 88.8418 50.13 89.0418 50.49C89.2618 50.85 89.5918 51.3 90.0318 51.84C90.6718 52.68 91.1518 53.4 91.4718 54C91.8118 54.58 91.9818 55.22 91.9818 55.92C91.9818 56.76 91.7818 57.56 91.3818 58.32C91.0018 59.06 90.4618 59.66 89.7618 60.12C89.0618 60.58 88.2618 60.81 87.3618 60.81Z" fill="white"/>
<path d="M100.44 61H99.11L97.1 56.08H98.56L99.78 59.38L100.95 56.08H102.35L100.44 61ZM104.319 61V56.66H102.759V55.73C103.233 55.7233 103.623 55.6033 103.929 55.37C104.243 55.1367 104.433 54.85 104.499 54.51H105.689V61H104.319ZM106.986 60.16C106.986 59.9067 107.072 59.6933 107.246 59.52C107.426 59.34 107.642 59.25 107.896 59.25C108.022 59.25 108.142 59.2733 108.256 59.32C108.369 59.3667 108.466 59.4333 108.546 59.52C108.632 59.6 108.699 59.6967 108.746 59.81C108.792 59.9167 108.816 60.0333 108.816 60.16C108.816 60.2867 108.792 60.4067 108.746 60.52C108.699 60.6267 108.632 60.7233 108.546 60.81C108.466 60.89 108.369 60.9533 108.256 61C108.142 61.0467 108.022 61.07 107.896 61.07C107.642 61.07 107.426 60.9833 107.246 60.81C107.072 60.63 106.986 60.4133 106.986 60.16ZM111.046 57.76C111.046 58.1 111.073 58.4133 111.126 58.7C111.179 58.98 111.269 59.2167 111.396 59.41C111.496 59.57 111.626 59.7 111.786 59.8C111.946 59.8933 112.143 59.94 112.376 59.94C112.616 59.94 112.813 59.8933 112.966 59.8C113.119 59.7 113.246 59.57 113.346 59.41C113.479 59.2167 113.573 58.98 113.626 58.7C113.679 58.4133 113.706 58.1 113.706 57.76C113.706 57.42 113.679 57.11 113.626 56.83C113.573 56.5433 113.479 56.3033 113.346 56.11C113.246 55.95 113.119 55.8233 112.966 55.73C112.813 55.63 112.616 55.58 112.376 55.58C112.143 55.58 111.946 55.63 111.786 55.73C111.626 55.8233 111.496 55.95 111.396 56.11C111.269 56.3033 111.179 56.5433 111.126 56.83C111.073 57.11 111.046 57.42 111.046 57.76ZM109.666 57.76C109.666 57.34 109.706 56.9367 109.786 56.55C109.866 56.1567 110.016 55.79 110.236 55.45C110.449 55.13 110.733 54.87 111.086 54.67C111.439 54.4633 111.869 54.36 112.376 54.36C112.883 54.36 113.309 54.4633 113.656 54.67C114.009 54.87 114.293 55.13 114.506 55.45C114.726 55.79 114.876 56.1567 114.956 56.55C115.043 56.9367 115.086 57.34 115.086 57.76C115.086 58.18 115.043 58.5867 114.956 58.98C114.876 59.3667 114.726 59.73 114.506 60.07C114.293 60.39 114.009 60.6533 113.656 60.86C113.309 61.06 112.883 61.16 112.376 61.16C111.869 61.16 111.439 61.06 111.086 60.86C110.733 60.6533 110.449 60.39 110.236 60.07C110.016 59.73 109.866 59.3667 109.786 58.98C109.706 58.5867 109.666 58.18 109.666 57.76Z" fill="white" fill-opacity="0.5"/>
<circle cx="5.5" cy="41.5" r="4" fill="#C4C4C4"/>
<circle cx="5.5" cy="41.5" r="4" fill="url(#paint0_angular)"/>
<circle cx="5.5" cy="41.5" r="4" stroke="#2B2B2B" stroke-width="3"/>
<circle cx="146.5" cy="41.5" r="4" fill="#C4C4C4"/>
<circle cx="146.5" cy="41.5" r="4" fill="url(#paint1_angular)"/>
<circle cx="146.5" cy="41.5" r="4" stroke="#2B2B2B" stroke-width="3"/>
<defs>
<radialGradient id="paint0_angular" cx="0" cy="0" r="1" gradientUnits="userSpaceOnUse" gradientTransform="translate(5.5 41.5) rotate(90) scale(2.5)">
<stop offset="0.0331492" stop-color="#A9A9A9"/>
<stop offset="0.149171" stop-color="white"/>
<stop offset="0.248619" stop-color="#BDBDBD" stop-opacity="0.824675"/>
<stop offset="0.563536" stop-color="#8D8D8D" stop-opacity="0.960278"/>
<stop offset="0.655783" stop-color="white"/>
<stop offset="0.716581" stop-color="#949494" stop-opacity="0.708555"/>
<stop offset="1" stop-color="#B3B3B3" stop-opacity="0"/>
</radialGradient>
<radialGradient id="paint1_angular" cx="0" cy="0" r="1" gradientUnits="userSpaceOnUse" gradientTransform="translate(146.5 41.5) rotate(90) scale(2.5)">
<stop offset="0.0331492" stop-color="#A9A9A9"/>
<stop offset="0.149171" stop-color="white"/>
<stop offset="0.248619" stop-color="#BDBDBD" stop-opacity="0.824675"/>
<stop offset="0.563536" stop-color="#8D8D8D" stop-opacity="0.960278"/>
<stop offset="0.655783" stop-color="white"/>
<stop offset="0.716581" stop-color="#949494" stop-opacity="0.708555"/>
<stop offset="1" stop-color="#B3B3B3" stop-opacity="0"/>
</radialGradient>
</defs>
</svg>
