<svg width="446" height="162" viewBox="0 0 446 162" fill="none" xmlns="http://www.w3.org/2000/svg">
<path d="M78.592 56.576V37.248H2.432V56.576H30.336V128H50.56V56.576H78.592ZM104.537 90.624C104.921 84.736 108.889 80.384 115.033 80.384C122.073 80.384 125.401 85.12 125.401 91.392V128H144.857V88.064C144.857 74.112 137.433 62.72 120.793 62.72C115.161 62.72 108.505 64.512 104.537 68.48V35.328H85.081V128H104.537V90.624ZM152.246 110.464C152.246 120.576 160.31 129.792 174.262 129.792C182.71 129.792 188.854 126.208 192.182 120.832C192.182 125.184 192.694 127.488 192.822 128H210.358C210.23 127.36 209.59 123.136 209.59 118.144V87.04C209.59 73.984 202.038 62.464 181.43 62.464C162.742 62.464 154.294 74.496 153.526 83.584L170.422 87.04C170.806 82.304 174.518 77.696 181.302 77.696C187.446 77.696 190.646 80.896 190.646 84.608C190.646 86.784 189.494 88.448 186.038 88.96L171.062 91.264C160.566 92.8 152.246 99.2 152.246 110.464ZM178.998 115.712C173.622 115.712 171.446 112.512 171.446 109.184C171.446 104.704 174.518 102.784 178.614 102.144L190.646 100.224V103.04C190.646 112.896 184.758 115.712 178.998 115.712ZM240.297 91.52C240.297 85.12 244.393 80.384 250.793 80.384C257.833 80.384 261.161 85.12 261.161 91.392V128H280.617V88.064C280.617 74.112 273.449 62.72 257.449 62.72C250.921 62.72 243.113 65.664 239.657 71.68V64.384H220.841V128H240.297V91.52ZM355.846 64.384H330.63L311.302 85.76V35.328H291.846V128H311.302V112.384L317.574 105.6L332.55 128H356.358L331.014 91.136L355.846 64.384ZM355.228 109.952C355.74 116.992 362.14 129.92 382.108 129.92C399.132 129.92 407.452 119.296 407.452 108.416C407.452 99.072 401.052 91.136 387.868 88.448L379.42 86.784C376.604 86.272 374.428 84.736 374.428 82.048C374.428 78.72 377.628 76.544 381.34 76.544C387.228 76.544 389.916 80.128 390.428 84.352L406.556 81.408C405.916 73.984 399.516 62.464 381.084 62.464C366.876 62.464 356.636 71.936 356.636 83.584C356.636 92.544 362.012 100.224 375.58 103.168L382.876 104.832C387.612 105.856 389.148 107.776 389.148 110.08C389.148 112.896 386.716 115.584 381.724 115.584C375.068 115.584 371.996 111.36 371.74 107.008L355.228 109.952ZM440.197 37.248H416.901L421.381 99.584H435.717L440.197 37.248ZM417.413 118.272C417.413 124.288 422.277 129.28 428.421 129.28C434.565 129.28 439.557 124.288 439.557 118.272C439.557 112.128 434.565 107.136 428.421 107.136C422.277 107.136 417.413 112.128 417.413 118.272Z" fill="url(#paint0_linear)"/>
<mask id="mask0" mask-type="alpha" maskUnits="userSpaceOnUse" x="2" y="35" width="439" height="95">
<path d="M78.592 56.576V37.248H2.432V56.576H30.336V128H50.56V56.576H78.592ZM104.537 90.624C104.921 84.736 108.889 80.384 115.033 80.384C122.073 80.384 125.401 85.12 125.401 91.392V128H144.857V88.064C144.857 74.112 137.433 62.72 120.793 62.72C115.161 62.72 108.505 64.512 104.537 68.48V35.328H85.081V128H104.537V90.624ZM152.246 110.464C152.246 120.576 160.31 129.792 174.262 129.792C182.71 129.792 188.854 126.208 192.182 120.832C192.182 125.184 192.694 127.488 192.822 128H210.358C210.23 127.36 209.59 123.136 209.59 118.144V87.04C209.59 73.984 202.038 62.464 181.43 62.464C162.742 62.464 154.294 74.496 153.526 83.584L170.422 87.04C170.806 82.304 174.518 77.696 181.302 77.696C187.446 77.696 190.646 80.896 190.646 84.608C190.646 86.784 189.494 88.448 186.038 88.96L171.062 91.264C160.566 92.8 152.246 99.2 152.246 110.464ZM178.998 115.712C173.622 115.712 171.446 112.512 171.446 109.184C171.446 104.704 174.518 102.784 178.614 102.144L190.646 100.224V103.04C190.646 112.896 184.758 115.712 178.998 115.712ZM240.297 91.52C240.297 85.12 244.393 80.384 250.793 80.384C257.833 80.384 261.161 85.12 261.161 91.392V128H280.617V88.064C280.617 74.112 273.449 62.72 257.449 62.72C250.921 62.72 243.113 65.664 239.657 71.68V64.384H220.841V128H240.297V91.52ZM355.846 64.384H330.63L311.302 85.76V35.328H291.846V128H311.302V112.384L317.574 105.6L332.55 128H356.358L331.014 91.136L355.846 64.384ZM355.228 109.952C355.74 116.992 362.14 129.92 382.108 129.92C399.132 129.92 407.452 119.296 407.452 108.416C407.452 99.072 401.052 91.136 387.868 88.448L379.42 86.784C376.604 86.272 374.428 84.736 374.428 82.048C374.428 78.72 377.628 76.544 381.34 76.544C387.228 76.544 389.916 80.128 390.428 84.352L406.556 81.408C405.916 73.984 399.516 62.464 381.084 62.464C366.876 62.464 356.636 71.936 356.636 83.584C356.636 92.544 362.012 100.224 375.58 103.168L382.876 104.832C387.612 105.856 389.148 107.776 389.148 110.08C389.148 112.896 386.716 115.584 381.724 115.584C375.068 115.584 371.996 111.36 371.74 107.008L355.228 109.952ZM440.197 37.248H416.901L421.381 99.584H435.717L440.197 37.248ZM417.413 118.272C417.413 124.288 422.277 129.28 428.421 129.28C434.565 129.28 439.557 124.288 439.557 118.272C439.557 112.128 434.565 107.136 428.421 107.136C422.277 107.136 417.413 112.128 417.413 118.272Z" fill="black"/>
</mask>
<g mask="url(#mask0)">
<path d="M29.5 27.5001C14.4272 27.7225 -1.5 50.5001 -1.5 50.5001L29.5 164.5L443 174L514.5 86.0001C486.833 87.3334 458.584 105.56 429 90.0001C417.934 84.18 411.5 76.6667 404 70.0001C396.5 63.3334 393.6 94.0672 380 95.5001C360.948 97.5073 372.355 62.1065 355.5 53.0001C342.073 45.7455 330.971 45.6527 316.5 50.5001C298.425 56.5544 302.035 84.9905 283 86.0001C261.893 87.1195 266.843 42.9933 246 46.5001C226.678 49.7509 235.367 76.677 221 90.0001C208.384 101.7 199.206 110.618 182 110.5C158.066 110.336 157.977 60.5195 136 70.0001C124.379 75.0131 127.715 90.7114 116 95.5001C92.8392 104.967 102.383 31.317 80 42.5001C69.6234 47.6845 73.3522 62.4035 62.5 66.5001C43.8345 73.5461 49.449 27.2056 29.5 27.5001Z" fill="url(#paint1_linear)"/>
<path d="M19.5 76C2.98758 77.6762 1.5 114.5 1.5 114.5C12.6667 133.333 35.8 170.9 39 170.5C42.2 170.1 315 163.667 451 160.5C451 160.5 441.427 135.62 431.5 122C421.904 108.833 433.268 84.3987 417.5 88.5C409.974 90.4575 409.776 112.063 402 112C391.417 111.914 390.925 103.175 381 99.5C365.531 93.772 377.487 121.45 361 122C348.442 122.419 350.102 102.88 338 99.5C323.666 95.4972 315.981 117.1 302 112C292.139 108.403 293.714 94.923 283.5 92.5C274.183 90.2896 269.419 101.223 260 99.5C247.634 97.2374 250.301 73.4048 238 76C225.025 78.7374 243.229 108.087 230 109C222.413 109.523 220.601 99.7381 213 99.5C199.297 99.0706 205.031 122.436 192.5 128C169.763 138.095 182.05 76.0716 160.5 88.5C151.94 93.4367 139.724 103.241 130 105C123.134 106.242 119.942 98.7995 113 99.5C101.303 100.68 104.668 120.564 93 122C78.1367 123.829 83.4696 92.9197 68.5 92.5C55.2044 92.1271 55.8006 114.569 42.5 114.5C24.9864 114.408 36.9243 74.2311 19.5 76Z" fill="url(#paint2_linear)"/>
</g>
<defs>
<linearGradient id="paint0_linear" x1="223" y1="27" x2="223" y2="113" gradientUnits="userSpaceOnUse">
<stop stop-color="#FFEB33"/>
<stop offset="1" stop-color="#32FF98"/>
</linearGradient>
<linearGradient id="paint1_linear" x1="254.5" y1="45" x2="257" y2="125" gradientUnits="userSpaceOnUse">
<stop stop-color="#13D8FF"/>
<stop offset="1" stop-color="#00B2D6"/>
</linearGradient>
<linearGradient id="paint2_linear" x1="226" y1="85" x2="226" y2="153.5" gradientUnits="userSpaceOnUse">
<stop stop-color="#504DFF"/>
<stop offset="1" stop-color="#1B00CB"/>
</linearGradient>
</defs>
</svg>
