<svg width="737" height="442" viewBox="0 0 737 442" fill="none" xmlns="http://www.w3.org/2000/svg">
<g opacity="0.8">
<path d="M6.94531 437.565L37.067 398.207M37.067 398.207V131.964M37.067 398.207H693.838M693.838 398.207V131.964M693.838 398.207L729.275 436.986" stroke="#414141" stroke-width="11.5758"/>
<path d="M5.78784 441.038V131.964H730.432V441.038" stroke="#646464" stroke-width="11.5758"/>
<path d="M30.6863 0L0 20.8364H736.22L699.767 0H30.6863Z" fill="#C4C4C4"/>
<rect x="5.7879" y="26.6243" width="724.645" height="93.7639" stroke="#D5D5D5" stroke-width="11.5758"/>
<path d="M28.3606 46.8821L11.5757 32.4124H247.722L231.516 46.8821H28.3606Z" fill="#BCBCBC"/>
<path d="M231.93 100.709L248.88 114.6L10.4183 114.6L26.7833 100.709L231.93 100.709Z" fill="#BCBCBC"/>
<path d="M11.5757 32.4124L27.7818 46.3033V100.131L11.5757 114.6V32.4124Z" fill="#E5E5E5"/>
<path d="M247.722 114.6L231.516 100.709L231.516 46.8819L247.722 32.4122L247.722 114.6Z" fill="#E5E5E5"/>
<rect x="19.679" y="39.3577" width="219.94" height="68.2972" fill="#F5F5F5"/>
<rect x="121.546" y="55.564" width="16.2061" height="16.2061" rx="3.47274" fill="#DEDEDE"/>
<circle cx="129.649" cy="76.4002" r="14.4697" stroke="#8B8B8B" stroke-width="3.47274"/>
<line x1="129.649" y1="65.9819" x2="129.649" y2="57.8789" stroke="#D2D2D2" stroke-width="4.63032"/>
<path d="M266.822 46.8821L250.037 32.4124H486.183L469.977 46.8821H266.822Z" fill="#BCBCBC"/>
<path d="M470.391 100.709L487.341 114.6L248.879 114.6L265.244 100.709L470.391 100.709Z" fill="#BCBCBC"/>
<path d="M250.037 32.4124L266.243 46.3033V100.131L250.037 114.6V32.4124Z" fill="#E5E5E5"/>
<path d="M486.183 114.6L469.977 100.709L469.977 46.8819L486.183 32.4122L486.183 114.6Z" fill="#E5E5E5"/>
<rect x="258.14" y="39.3577" width="219.94" height="68.2972" fill="#F5F5F5"/>
<rect x="360.007" y="55.5637" width="16.2061" height="16.2061" rx="3.47274" fill="#DEDEDE"/>
<circle cx="368.11" cy="76.4002" r="14.4697" stroke="#8B8B8B" stroke-width="3.47274"/>
<line x1="368.11" y1="65.9819" x2="368.11" y2="57.8789" stroke="#D2D2D2" stroke-width="4.63032"/>
<path d="M505.283 46.8821L488.499 32.4124H724.645L708.439 46.8821H505.283Z" fill="#BCBCBC"/>
<path d="M708.853 100.709L725.802 114.6L487.341 114.6L503.706 100.709L708.853 100.709Z" fill="#BCBCBC"/>
<path d="M488.499 32.4124L504.705 46.3033V100.131L488.499 114.6V32.4124Z" fill="#E5E5E5"/>
<path d="M724.645 114.6L708.438 100.709L708.438 46.8819L724.645 32.4122L724.645 114.6Z" fill="#E5E5E5"/>
<rect x="496.602" y="39.3577" width="219.94" height="68.2972" fill="#F5F5F5"/>
<rect x="598.469" y="55.564" width="16.2061" height="16.2061" rx="3.47274" fill="#DEDEDE"/>
<circle cx="606.572" cy="76.4002" r="14.4697" stroke="#8B8B8B" stroke-width="3.47274"/>
<line x1="606.572" y1="65.9819" x2="606.572" y2="57.8789" stroke="#D2D2D2" stroke-width="4.63032"/>
</g>
</svg>
