<svg width="32" height="32" viewBox="0 0 32 32" fill="none" xmlns="http://www.w3.org/2000/svg">
<circle cx="16" cy="17" r="11" stroke="#FF791A" stroke-width="2"/>
<mask id="basketballmask" mask-type="alpha" maskUnits="userSpaceOnUse" x="7" y="8" width="18" height="18">
<circle cx="16" cy="17" r="9" fill="#C4C4C4"/>
</mask>
<g mask="url(#basketballmask)">
<path d="M20.5 14.5C20.5 22.1604 13.1902 28.5 4 28.5C-5.19025 28.5 -12.5 22.1604 -12.5 14.5C-12.5 6.83965 -5.19025 0.5 4 0.5C13.1902 0.5 20.5 6.83965 20.5 14.5Z" stroke="#FF791A"/>
<path d="M10 7C10 7 13 8.5 14.5 10C16.1683 11.6683 18.5 12.5 20 12.5C20.9956 12.5 23.5863 11.3955 24.5 11C25.6474 10.5034 25 10 25 10M5.5 15C5.5 15 8.53843 14.5556 10.5 14.5C13.2395 14.4223 14.7831 14.64 17.5 15C19.6642 15.2868 21.4549 15.7362 23.5 16.5C24.7271 16.9583 27.5 18.5 27.5 18.5M7.5 24.5C7.5 24.5 12.0199 20.3589 15.5 19.5C17.0284 19.1228 18 19 19.5 19C20.9081 19 21.6594 19.8704 22.5 21C23.4613 22.2917 23.5 25 23.5 25" stroke="#FF791A"/>
</g>
</svg>
