<svg width="32" height="32" viewBox="0 0 32 32" fill="none" xmlns="http://www.w3.org/2000/svg">
<mask id="beachballmask" mask-type="alpha" maskUnits="userSpaceOnUse" x="2" y="2" width="27" height="27">
<circle cx="15.5195" cy="15.2847" r="13" fill="#C4C4C4"/>
</mask>
<g mask="url(#beachballmask)">
<path d="M11.647 4.70586C8.44613 4.01996 3.26465 4.14704 3.26465 4.14704L11.647 -0.882357L18.3528 -2C18.3528 -2 20.2284 1.61813 20.5881 4.14704C20.8339 5.87551 21.1469 9.17643 21.1469 9.17643C21.1469 9.17643 15.4642 5.52383 11.647 4.70586Z" fill="#FFEB33" stroke="#FFEB33" stroke-width="1.24183" stroke-linecap="round" stroke-linejoin="round"/>
<path d="M12.7646 5.8237C9.19395 4.72619 3.26468 4.70605 3.26468 4.70605L-4 14.7648L1.58821 24.2648C1.58821 24.2648 6.7158 18.7747 10.5294 15.8825C14.1974 13.1006 20.5881 9.73545 20.5881 9.73545C20.5881 9.73545 16.0298 6.82729 12.7646 5.8237Z" fill="#FF791A" stroke="#FF791A" stroke-width="1.24183" stroke-linejoin="round"/>
<path d="M10.5294 16.4412C7.06366 19.0399 3.26474 24.2647 2.14709 23.7059L8.29413 30.4118L17.2353 31.5294C17.2353 31.5294 18.7342 29.9229 19.4706 28.7353C21.0347 26.2126 21.2244 24.3996 21.7058 21.4706C22.45 16.9433 21.147 10.2942 21.147 10.2942C21.147 10.2942 14.4531 13.4992 10.5294 16.4412Z" fill="#FF2D1A"/>
<path d="M2.14709 23.7059L2.42478 23.1505L1.68939 24.1255L2.14709 23.7059ZM10.5294 16.4412L10.1569 15.9445L10.1569 15.9445L10.5294 16.4412ZM21.147 10.2942L21.7563 10.1748C21.7194 9.98629 21.5973 9.82551 21.4257 9.73931C21.254 9.65311 21.0521 9.65121 20.8789 9.73416L21.147 10.2942ZM21.7058 21.4706L22.3185 21.5713L22.3185 21.5713L21.7058 21.4706ZM19.4706 28.7353L19.9983 29.0625L19.9983 29.0625L19.4706 28.7353ZM17.2353 31.5294L17.1583 32.1455L17.4729 32.1849L17.6893 31.953L17.2353 31.5294ZM8.29413 30.4118L7.83642 30.8313L7.99064 30.9996L8.21711 31.0279L8.29413 30.4118ZM1.86941 24.2613C2.25735 24.4552 2.65823 24.3497 2.93325 24.2303C3.22494 24.1037 3.52851 23.896 3.82774 23.6577C4.43026 23.178 5.14409 22.4685 5.90222 21.6912C7.44702 20.1073 9.21841 18.2003 10.9019 16.938L10.1569 15.9445C8.37467 17.2808 6.51372 19.2856 5.01321 20.8241C4.24868 21.608 3.58661 22.2623 3.0542 22.6862C2.78595 22.8998 2.58229 23.0289 2.43877 23.0912C2.27858 23.1607 2.31625 23.0963 2.42478 23.1505L1.86941 24.2613ZM10.9019 16.938C12.8255 15.4957 15.4466 13.9766 17.6047 12.8107C18.6802 12.2297 19.634 11.74 20.3188 11.3957C20.661 11.2235 20.9359 11.0878 21.1248 10.9953C21.2193 10.949 21.2922 10.9136 21.3414 10.8898C21.366 10.8779 21.3846 10.8689 21.397 10.8629C21.4032 10.86 21.4078 10.8577 21.4109 10.8563C21.4124 10.8556 21.4135 10.855 21.4142 10.8547C21.4146 10.8545 21.4148 10.8544 21.415 10.8543C21.4151 10.8543 21.4151 10.8542 21.4152 10.8542C21.4152 10.8542 21.4152 10.8542 21.147 10.2942C20.8789 9.73416 20.8788 9.73419 20.8787 9.73423C20.8787 9.73426 20.8786 9.73431 20.8784 9.73437C20.8782 9.73449 20.8778 9.73466 20.8774 9.73488C20.8765 9.73532 20.8752 9.73594 20.8734 9.73677C20.87 9.73841 20.865 9.74083 20.8584 9.744C20.8452 9.75034 20.8258 9.75971 20.8004 9.77201C20.7496 9.79659 20.6749 9.83288 20.5787 9.88001C20.3862 9.97426 20.1074 10.1119 19.7608 10.2862C19.0678 10.6347 18.1029 11.1301 17.0145 11.7181C14.8447 12.8903 12.157 14.4447 10.1569 15.9445L10.9019 16.938ZM21.147 10.2942C20.5377 10.4136 20.5377 10.4135 20.5377 10.4135C20.5377 10.4136 20.5377 10.4136 20.5377 10.4136C20.5377 10.4137 20.5378 10.4139 20.5378 10.4142C20.5379 10.4149 20.5381 10.4159 20.5384 10.4173C20.539 10.4201 20.5398 10.4245 20.541 10.4305C20.5433 10.4424 20.5467 10.4606 20.5512 10.4847C20.5603 10.5328 20.5736 10.6048 20.5904 10.6983C20.6239 10.8854 20.6712 11.1588 20.7258 11.5015C20.835 12.1872 20.973 13.1485 21.0879 14.2491C21.3193 16.4641 21.4513 19.1908 21.0931 21.3699L22.3185 21.5713C22.7045 19.2231 22.5571 16.3616 22.323 14.1201C22.2053 12.9926 22.064 12.0087 21.9522 11.3062C21.8962 10.9548 21.8475 10.6734 21.8127 10.4792C21.7953 10.3821 21.7814 10.3067 21.7717 10.2553C21.7669 10.2295 21.7631 10.2098 21.7605 10.1963C21.7592 10.1895 21.7582 10.1844 21.7575 10.1808C21.7572 10.179 21.7569 10.1776 21.7567 10.1766C21.7566 10.1761 21.7565 10.1757 21.7565 10.1754C21.7564 10.1752 21.7564 10.1751 21.7564 10.175C21.7564 10.1749 21.7563 10.1748 21.147 10.2942ZM21.0931 21.3699C20.6082 24.3201 20.4314 26.0074 18.9428 28.4081L19.9983 29.0625C21.6381 26.4177 21.8406 24.4791 22.3185 21.5713L21.0931 21.3699ZM18.9428 28.4081C18.6002 28.9607 18.0665 29.6301 17.6033 30.176C17.3746 30.4455 17.1682 30.6789 17.0192 30.8448C16.9447 30.9277 16.8847 30.9935 16.8436 31.0383C16.823 31.0607 16.8072 31.0779 16.7966 31.0893C16.7913 31.095 16.7873 31.0993 16.7848 31.1021C16.7835 31.1034 16.7825 31.1045 16.782 31.1051C16.7817 31.1054 16.7815 31.1056 16.7814 31.1057C16.7813 31.1058 16.7813 31.1058 16.7812 31.1058C16.7812 31.1059 16.7813 31.1058 16.7813 31.1058C16.7813 31.1058 16.7813 31.1058 17.2353 31.5294C17.6893 31.953 17.6893 31.953 17.6893 31.9529C17.6893 31.9529 17.6894 31.9529 17.6894 31.9528C17.6895 31.9527 17.6896 31.9526 17.6897 31.9525C17.69 31.9522 17.6903 31.9518 17.6908 31.9514C17.6916 31.9505 17.6928 31.9491 17.6944 31.9474C17.6976 31.9441 17.7021 31.9392 17.708 31.9328C17.7197 31.9201 17.7368 31.9016 17.7587 31.8778C17.8024 31.8301 17.8652 31.7612 17.9428 31.6749C18.0978 31.5024 18.3122 31.2599 18.5502 30.9794C19.0206 30.4251 19.6045 29.6975 19.9983 29.0625L18.9428 28.4081ZM1.68939 24.1255L7.83642 30.8313L8.75184 29.9922L2.6048 23.2863L1.68939 24.1255ZM8.21711 31.0279L17.1583 32.1455L17.3123 30.9133L8.37114 29.7956L8.21711 31.0279Z" fill="#FF2D1A"/>
<path d="M21.1468 28.7358L18.3527 30.9711H32.882L31.7644 20.3534C31.7644 20.3534 30.6772 17.4615 29.5291 15.8829C28.4399 14.3853 27.6183 13.6915 26.1762 12.5299C24.5727 11.2385 21.7056 9.73584 21.7056 9.73584C21.7056 9.73584 22.1153 11.7697 22.2644 13.0888C22.5831 15.9078 23.1077 18.0895 22.8232 20.9123C22.5099 24.0211 21.1468 28.7358 21.1468 28.7358Z" fill="#8C1AFF" stroke="#8C1AFF" stroke-width="1.24183" stroke-linejoin="round"/>
<path d="M27.2942 12.5301C25.4752 11.0255 22.2648 9.17715 22.2648 9.17715C22.2648 9.17715 24.003 7.64076 25.6177 6.94186C26.8844 6.3936 28.9706 5.82422 28.9706 5.82422L34 15.883L31.7647 19.7948C31.7647 19.7948 31.3107 17.652 30.6471 16.4418C29.6083 14.5476 32.0233 16.4418 27.2942 12.5301Z" fill="#1AD9FF"/>
<path d="M22.2648 9.17715L21.8536 8.71191C21.7038 8.8443 21.6269 9.0407 21.647 9.23958C21.6671 9.43847 21.7817 9.61551 21.955 9.71525L22.2648 9.17715ZM27.2942 12.5301L27.6899 12.0516L27.6899 12.0516L27.2942 12.5301ZM30.6471 16.4418L30.1027 16.7404L30.1027 16.7404L30.6471 16.4418ZM31.7647 19.7948L31.1573 19.9234C31.2107 20.1755 31.4142 20.3684 31.6688 20.4082C31.9233 20.448 32.176 20.3265 32.3038 20.1028L31.7647 19.7948ZM25.6177 6.94186L25.8643 7.51169L25.8643 7.51169L25.6177 6.94186ZM28.9706 5.82422L29.526 5.54654C29.3936 5.28177 29.0927 5.14727 28.8071 5.22521L28.9706 5.82422ZM34 15.883L34.5391 16.1911C34.6421 16.0108 34.6482 15.791 34.5554 15.6053L34 15.883ZM22.2648 9.17715C21.955 9.71525 21.9549 9.71524 21.9549 9.71524C21.955 9.71525 21.955 9.71525 21.955 9.71527C21.9551 9.7153 21.9552 9.71537 21.9553 9.71546C21.9556 9.71564 21.9561 9.71593 21.9568 9.71633C21.9582 9.71714 21.9604 9.71839 21.9633 9.72007C21.9691 9.72343 21.9779 9.72853 21.9896 9.73529C22.0129 9.74882 22.0476 9.76901 22.0925 9.79533C22.1825 9.84798 22.3134 9.92513 22.4764 10.0225C22.8025 10.2173 23.2562 10.4927 23.7659 10.8145C24.7918 11.462 26.0211 12.2829 26.8984 13.0085L27.6899 12.0516C26.7483 11.2727 25.4629 10.4171 24.4288 9.76435C23.9086 9.43597 23.446 9.1552 23.1133 8.95643C22.9469 8.85701 22.8128 8.778 22.72 8.72369C22.6736 8.69653 22.6376 8.67554 22.613 8.66126C22.6006 8.65411 22.5912 8.64865 22.5848 8.64492C22.5815 8.64306 22.5791 8.64163 22.5774 8.64065C22.5765 8.64016 22.5759 8.63978 22.5754 8.63951C22.5752 8.63938 22.575 8.63927 22.5748 8.63919C22.5748 8.63916 22.5747 8.63912 22.5747 8.6391C22.5746 8.63907 22.5746 8.63904 22.2648 9.17715ZM26.8984 13.0085C28.0828 13.9882 28.8101 14.5964 29.2558 14.9904C29.4794 15.188 29.6205 15.3216 29.7093 15.4151C29.8048 15.5156 29.8058 15.5352 29.7915 15.5043C29.7577 15.4316 29.7567 15.3498 29.7628 15.3096C29.7704 15.2596 29.7345 15.4421 29.7296 15.5549C29.716 15.8719 29.822 16.2286 30.1027 16.7404L31.1915 16.1433C31.0742 15.9294 31.0181 15.7912 30.9917 15.7061C30.9788 15.6647 30.9738 15.6385 30.9718 15.6245C30.9708 15.6176 30.9705 15.6132 30.9704 15.6111C30.9703 15.6099 30.9703 15.6092 30.9703 15.6088C30.9703 15.6084 30.9703 15.6082 30.9703 15.6082C30.9719 15.5711 30.9676 15.6471 30.9905 15.4966C31.0119 15.3559 31.01 15.1795 30.9175 14.9807C30.8445 14.8237 30.7293 14.6857 30.6095 14.5596C30.4829 14.4265 30.3097 14.2645 30.0783 14.06C29.6143 13.6498 28.8701 13.0278 27.6899 12.0516L26.8984 13.0085ZM30.1027 16.7404C30.3994 17.2814 30.6636 18.0636 30.8578 18.7428C30.9531 19.0761 31.0284 19.373 31.0798 19.5864C31.1054 19.693 31.1251 19.7784 31.1382 19.8366C31.1447 19.8657 31.1496 19.888 31.1528 19.9027C31.1544 19.9101 31.1556 19.9155 31.1564 19.919C31.1567 19.9208 31.157 19.922 31.1572 19.9228C31.1572 19.9231 31.1573 19.9234 31.1573 19.9235C31.1573 19.9235 31.1573 19.9236 31.1573 19.9236C31.1573 19.9236 31.1573 19.9235 31.1573 19.9235C31.1573 19.9235 31.1573 19.9234 31.7647 19.7948C32.3722 19.6661 32.3721 19.666 32.3721 19.6659C32.3721 19.6659 32.3721 19.6658 32.3721 19.6657C32.3721 19.6656 32.372 19.6654 32.372 19.6652C32.3719 19.6648 32.3718 19.6643 32.3716 19.6636C32.3714 19.6623 32.371 19.6605 32.3705 19.6581C32.3695 19.6534 32.368 19.6467 32.3661 19.6381C32.3624 19.6208 32.3569 19.5959 32.3497 19.5641C32.3354 19.5004 32.3143 19.4089 32.2871 19.2957C32.2326 19.0695 32.1529 18.7551 32.0518 18.4014C31.8531 17.7067 31.5585 16.8124 31.1915 16.1433L30.1027 16.7404ZM22.2648 9.17715C22.676 9.64238 22.6759 9.64242 22.6759 9.64246C22.6759 9.64246 22.6759 9.64249 22.6758 9.6425C22.6758 9.64251 22.6758 9.64251 22.6759 9.64248C22.6759 9.64242 22.6761 9.64227 22.6764 9.64202C22.6769 9.64154 22.6779 9.64069 22.6793 9.63949C22.682 9.63708 22.6864 9.63326 22.6923 9.62809C22.7042 9.61775 22.7224 9.60203 22.7463 9.58151C22.7943 9.54045 22.8655 9.48025 22.9563 9.4055C23.1381 9.25581 23.3973 9.04868 23.7053 8.82051C24.3287 8.35867 25.1221 7.83295 25.8643 7.51169L25.3711 6.37204C24.4986 6.74967 23.6155 7.34159 22.9661 7.82267C22.6377 8.06596 22.3615 8.28661 22.1669 8.44684C22.0695 8.52704 21.9923 8.59233 21.9389 8.63802C21.9122 8.66088 21.8914 8.67885 21.8771 8.69136C21.8699 8.69761 21.8643 8.7025 21.8603 8.70595C21.8584 8.70767 21.8568 8.70904 21.8557 8.71004C21.8551 8.71054 21.8547 8.71094 21.8543 8.71126C21.8541 8.71141 21.854 8.71155 21.8539 8.71166C21.8538 8.71171 21.8537 8.71178 21.8537 8.7118C21.8536 8.71186 21.8536 8.71191 22.2648 9.17715ZM25.8643 7.51169C26.4654 7.25151 27.2771 6.98015 27.9531 6.77049C28.2881 6.66659 28.5842 6.57952 28.7965 6.51847C28.9025 6.48797 28.9875 6.46401 29.0457 6.44774C29.0748 6.43961 29.0972 6.4334 29.1121 6.42927C29.1196 6.4272 29.1253 6.42565 29.1289 6.42464C29.1308 6.42413 29.1322 6.42376 29.133 6.42352C29.1334 6.4234 29.1338 6.42332 29.1339 6.42327C29.134 6.42324 29.1341 6.42323 29.1341 6.42322C29.1341 6.42322 29.1341 6.42322 29.1341 6.42322C29.1341 6.42322 29.1341 6.42322 28.9706 5.82422C28.8071 5.22521 28.8071 5.22522 28.8071 5.22524C28.807 5.22524 28.807 5.22526 28.8069 5.22527C28.8068 5.2253 28.8067 5.22533 28.8066 5.22538C28.8062 5.22546 28.8058 5.22559 28.8052 5.22575C28.804 5.22606 28.8024 5.22651 28.8003 5.2271C28.796 5.22828 28.7897 5.22999 28.7816 5.23223C28.7654 5.2367 28.7418 5.24326 28.7113 5.25177C28.6505 5.26879 28.5625 5.29359 28.4532 5.32503C28.2347 5.38787 27.9301 5.47742 27.5852 5.5844C26.9014 5.79649 26.0366 6.08395 25.3711 6.37204L25.8643 7.51169ZM28.4153 6.1019L33.4447 16.1607L34.5554 15.6053L29.526 5.54654L28.4153 6.1019ZM33.4609 15.5749L31.2256 19.4867L32.3038 20.1028L34.5391 16.1911L33.4609 15.5749Z" fill="#1AD9FF"/>
<path d="M21.7059 5.26526C21.8137 6.78909 21.5 9 21.5 9C21.5 9 23.2607 7.28198 25.0588 6.38291C26.3682 5.72821 27.853 5.26526 27.853 5.26526L25.0588 1.35352H21.1471C21.1471 1.35352 21.5971 3.72597 21.7059 5.26526Z" fill="#00CD89" stroke="#00CD89" stroke-width="1.24183" stroke-linejoin="round"/>
<circle cx="20.5" cy="9.5" r="2.5" fill="#EEEEEE"/>
<circle cx="20.5" cy="9.5" r="3" stroke="black" stroke-opacity="0.1"/>
</g>
</svg>
