<svg width="32" height="32" viewBox="0 0 32 32" fill="none" xmlns="http://www.w3.org/2000/svg">
<circle cx="16.5" cy="21.5" r="6.5" stroke="#BFFF00" stroke-width="2"/>
<mask id="tennisballmask" mask-type="alpha" maskUnits="userSpaceOnUse" x="12" y="17" width="9" height="9">
<circle cx="16.5" cy="21.5" r="4.5" fill="#C4C4C4"/>
</mask>
<g mask="url(#tennisballmask)">
<path d="M14.5 21C14.5 22.4508 13.6677 23.8137 12.2221 24.8342C10.7778 25.8536 8.7563 26.5 6.5 26.5C4.2437 26.5 2.22222 25.8536 0.777934 24.8342C-0.667658 23.8137 -1.5 22.4508 -1.5 21C-1.5 19.5492 -0.667658 18.1863 0.777934 17.1658C2.22222 16.1464 4.2437 15.5 6.5 15.5C8.7563 15.5 10.7778 16.1464 12.2221 17.1658C13.6677 18.1863 14.5 19.5492 14.5 21Z" stroke="white"/>
<path d="M34.5 21C34.5 22.4508 33.6677 23.8137 32.2221 24.8342C30.7778 25.8536 28.7563 26.5 26.5 26.5C24.2437 26.5 22.2222 25.8536 20.7779 24.8342C19.3323 23.8137 18.5 22.4508 18.5 21C18.5 19.5492 19.3323 18.1863 20.7779 17.1658C22.2222 16.1464 24.2437 15.5 26.5 15.5C28.7563 15.5 30.7778 16.1464 32.2221 17.1658C33.6677 18.1863 34.5 19.5492 34.5 21Z" stroke="white"/>
</g>
</svg>
